<mxfile host="app.diagrams.net" agent="Mozilla/5.0 (Windows NT 10.0; Win64; x64) AppleWebKit/537.36 (KHTML, like Gecko) Chrome/130.0.0.0 Safari/537.36" version="24.8.3">
  <diagram name="PÃ¡gina-1" id="fOwZq1eFAPFjiJyYo6Ca">
    <mxGraphModel dx="2150" dy="1207" grid="1" gridSize="10" guides="1" tooltips="1" connect="1" arrows="1" fold="1" page="1" pageScale="1" pageWidth="827" pageHeight="1169" math="0" shadow="0">
      <root>
        <mxCell id="0" />
        <mxCell id="1" parent="0" />
        <mxCell id="uWF2si1FAwXb73x0F3vI-1" value="" style="shape=image;verticalLabelPosition=bottom;labelBackgroundColor=default;verticalAlign=top;aspect=fixed;imageAspect=0;image=data:image/png,iVBORw0KGgoAAAANSUhEUgAABQAAAAN/CAYAAACBQHXZAAAAAXNSR0IArs4c6QAAAARnQU1BAACxjwv8YQUAAAAJcEhZcwAADsMAAA7DAcdvqGQAADjDSURBVHhe7d1/kF11neD9T6c76RiGdiiJXQUhKSekmA2rTJhJkahAMCZYEwE1CSOSnechcWaDsML07jji6hjEGR2p6VIfReoZDLslggvJ7BDJUxCk+DUsobomedQhqxWiRRKsCsFCr2OSTrr77j33nk66Oz/oDp1fn7xeVcec+z3nnntu+8+tN+d7TlO1JgAAAACAlMaU/wIAAAAACQmAAAAAAJCYAAgAAAAAiQmAAAAAAJCYAAgAAAAAiQmAAAAAAJCYAAgAAAAAiQmAAAAAAJCYAAgAAAAAiQmAAAAAAJCYAAgAAAAAiQmAAAAAAJCYAAgAAAAAiQmAAAAAAJCYAAgAAAAAiQmAAAAAAJCYAAgAAAAAiQmAAAAAAJCYAAgAAAAAiQmAAAAAAJCYAAgAAAAAiQmAAAAAAJCYAAgAAAAAiQmAAAAAAJDYKR8Af73txdj26/IFAAAAADDIqATAVx/+szjvvClx3jc3lCPHyYvfjmvf/cfx7ivuihfLoZH5dbz02F3RsfhDMbs4/2KZ/aFYdttjsa3cAwAAAABOZaf2FYATJ8WFkyImzZkaE8uh4dsWj3X8cVzx8b+Lh9bvjImzZsWs2jIjNsa6+7bEznIvAAAAADiVNVVryvWjVlwB+Ic3r4v49P+MbTddXI6e3PY8/+V497Xfip3Tb4wHH/x0zH5ruaG4KvDB9dF97ZVxYTkCAAAAAKeq0/YhIJVXy6v85swfEP8Kb43zxT8AAAAAkjiuAXDPtqfino4/iTkXN+63d/GcP4mOe56PV8vtB7waz9/zn+Pq2cV+fxRzbrornt+2Ib5Zv0/fXbH/ToOvrollxdiyNfuPseGbjWMXtyPc9tjtsWTOHzWOseT2eGrAjf3eft6MxrThh1bGw8O44d+rz98Xty07cK/A2Vf/WTz4Un1LPLysGPuz2nF+Hc9/80/r+xy4HeKvY8N3PlOexxG+8683xHdu+9Pyb1M738X/Oe55fsBeA77rtl+/GN/pKM9l9oei4zsvxp5yNwAAAAAY6LgFwD0b7opr3/1/xe0PbY9JV94Yn//80pgdW+Kh2z8aH1h834CHeGyLh2/647j29lWxMS6PJZ+4Ma5sWx8dN30hHiv3GI4N3745rr2nEhcuWRSLZ0VseXpl/Iebvn3gcy5eFF9aPCli5/fj5ne/J5aseCg2HFwia/bEhm/+SXzg2v8a963bGVOXFOd+Y8yZuDMqlXKX0vY1/yWu/fLTsb183fguc+OazzwdrXOK9/11LL444qniO9/2VOx/ePG2NXHTFR+OzzzVGnM+8de1/RbFxfF03H7tH8dtTw15xHFlXXz5P/x5PNV2VSxbNj8mbd8YD32m9ncduh8AAAAAFIp7AL5ZO/7p49VJkyZXJ33jX8qRIXb/r+rfzqhtn3RN9Rv/srscLGyt/tMn/rD+3r949Ff1kd3/60vVGcWxrv9OdXN9pOFXT65ojE/6ZnX/p+x4uLq0GFv6cHVHOfQv3yj2aYxtLceq1X+t/sP8YvwD1X/413Ko7lfVzf+0orqofm7F8u7q0n/4l9roAP96T/WqYtv826qPHjjgADuq/7S0eO8fVmcs+lL1yf4TqWn8XT5Q/dtB3/lX1Uf/otj/2ur/qB+vfP/8L1UH7/Zo9S+Kz130YON79H/XIcf71aMdtbHa+KefHHzeAAAAAFBzfK4A3LIxHipuuLfk1lhy8fjGWN15cc2yRfW1h57aWL8ibsuGVfV78y35+FVxfn1Lw1vnXBWLy/XhWPbx+bWj97swLp5T/LspurvrA6W3xvnXfD4eevKf4zufvyqmTtwe627/cFxx05ronxX84vPFlYgRizv+Kq48cMBD2BlzPn5jzHl7+TJejY3r1tX+3RR3XXNBffpvY3lXfPyhYvv62Fl80Vc3RmO3b8U10/r3qS3//s+jsdvOwU8knrV00N/wrdMvj/nFyquVGPTVAAAAAKDm+ATA7iKP1Uxqi0HP2yhMmj4oYHWXuWtS20F7Rlv573BMbB0YGmuO9Oa3nhdzPv6NeOrJ/x7LptfOdc0X4r7nG3fV6+7eVP936sSDz2ew+XH59MH77KkfYlZ84p7vxYMPHrxcObXY3t24f9+sG+OeQ+zz4IPzo75bv7bWaC1X6wa9AAAAAIDBju9TgLdXDtz3rt/2TVFcABfnTRzU6HZ2D3msxZ7+NHgMvXVOXH11sbIzXnp18A3+tleGcY+9Q8a4SkycNDtmzz54OX9gL6xMjEmH2Gf27PMPjqYAAAAAMEzHJwBOnxGfKB65e99X474NA8Petnj426tq/06MJXOmR3HN3qRJ9esB49v3rNs/Dbew7bGV8e1yfTS8+tR98fCLQ6Leng3xfPmkkbe/tVHzpl98Y/1pwfd1fjc2jOg5G2+P82dPr/27Ke6668CU4oZt8dhT9UcI13abGo3dvhV3DX0c8bbHon83AAAAADgaoxsA7/tCLF78J4OWFU+9GjF+diz70qKYFBvjy9fMjSW3fTnuuef2uGnOh+PmNTtj0uK/iU/MaVzn9vYrb4xPz6itrPtPcc2cm2PFPd+OFTe9L65d19qYKjxafv103PyBd8V5sz+0/1znvPvD8eWNERNn/XUsmdU4n/Gzr288LXjj38U1V7yvPPcvx23LPhT3bKjvclgXLvmb+nfZuebAd7nnS5+JJbPfGx9/sf8KwwtjyZf+KmbEzlhz84djzk23147/7fjSbX8as9/957F/NwAAAAA4CqMbALdvjPXr1w9atpVXzb39yr+PR5/8f+PTiyfGlvu+FbffvjI2tF0en77niXi088oDD+wYf3Hc9J3/GZ9fPCNat3w/vn3Xd+OlibfGd/5+aVxc7jIa2mYvjb9ftihmTdxZnuuWiKmLYtnffy8efWhZXLj/FoLnxZWd/188+Y2lMX9SdzxdP/fvx4sxvZi1fGT17/JEfGPZ/JjUXfsut38hbl+zKVrn/E08uPjAtxl/8SfiO0/+P7Fs/qToXrOydvwvxJoXW2PO334vBuwGAAAAACPWVDwKuFw/ub26Jpb94X+KddP/Oh59bFlcWA4DAAAAAId3fB8CctR+HRseWll/WMj0xbPEPwAAAAAYppPwCsANcc/VfxfPXzgjZk+dGLFzSzz12Lp4esvOiBl/FQ8/+Im4eP/0XAAAAADgSE7CALgtHrvtC3HP8xtjfRH9aibNmB9zrl4UyxZfGec3ns0BAAAAAAzDqXMPQAAAAABgxE6RewACAAAAAEdDAAQAAACAxARAAAAAAEhMAAQAAACAxARAAAAAAEhMAAQAAACAxARAAAAAAEhMAAQAAACAxARAAAAAAEhMAAQAAACAxARAAAAAAEhMAAQAAACAxARAAAAAAEhMAAQAAACAxARAAAAAAEhMAAQAAACAxARAAAAAAEhMAAQAAACAxARAAAAAAEis6Sc/+Um1XAcAAAAAkmmqVCoCIAAAAAAkZQowAAAAACQmAAIAAABAYgIgAAAAACQmAAIAAABAYgIgAAAAACQmAAIAAABAYgIgAAAAACQmAAIAAABAYgIgAAAAACQmAAIAAABAYgIgAAAAACQmAAIAAABAYgIgAAAAACQmAAIAAABAYgIgAAAAACQmAAIAAABAYgIgAAAAACQmAAIAAABAYgIgAAAAACQmAAIAAABAYgIgAAAAACQmAAIAAABAYgIgAAAAACQmAAIAAABAYgIgAAAAACQmAAIAAABAYgIgAAAAACQmAAIAAABAYgIgAAAAACQmAAIAAABAYgIgAAAAACQmAAIAAABAYgIgAAAAACQmAAIAAABAYgIgAAAAACQmAAIAAABAYgIgAAAAACQmAAIAAABAYgIgAAAAACQmAAIAAABAYgIgAAAAACQmAAIAAABAYgIgAAAAACQmAAIAAABAYgIgAAAAACQmAAIAAABAYgIgAAAAACQmAAIAAABAYgIgAAAAACQmAAIAAABAYgIgAAAAACQmAAIAAABAYgIgAAAAACQmAAIAAABAYgIgAAAAACQmAAIAAABAYgIgAAAAACQmAAIAAABAYgIgAAAAACQmAAIAAABAYgIgAAAAACQmAAIAAABAYgIgAAAAACQmAAIAAABAYgIgAAAAACQmAAIAAABAYgIgAAAAACQmAAIAAABAYgIgAAAAACQmAAIAAABAYgIgAAAAACQmAAIAAABAYgIgAAAAACQmAAIAAABAYgIgAAAAACQmAAIAAABAYgIgAAAAACQmAAIAAABAYgIgAAAAACQmAAIAAABAYgIgAAAAACQmAAIAAABAYgIgAAAAACQmAAIAAABAYgIgAAAAACQmAAIAAABAYgIgAAAAACQmAAIAAABAYgIgAAAAACQmAAIAAABAYgIgAAAAACQmAAIAAABAYgIgAAAAACQmAAIAAABAYgIgAAAAACQmAAIAAABAYgIgAAAAACQmAAIAAABAYgIgAAAAACQmAAIAAABAYgIgAAAAACQmAAIAAABAYgIgAAAAACQmAAIAAABAYgIgAAAAACQmAAIAAABAYgIgAAAAACQmAAIAAABAYgIgAAAAACQmAAIAAABAYgIgAAAAACQmAAIAAABAYgIgAAAAACQmAAIAAABAYgIgAAAAACQmAAIAAABAYgIgAAAAACQmAAIAAABAYgIgAAAAACQmAAIAAABAYgIgAAAAACQmAAIAAABAYgIgAAAAACQmAAIAAABAYgIgAAAAACQmAAIAAABAYgIgAAAAACQmAAIAAABAYgIgAAAAACQmAAIAAABAYgIgAAAAACQmAAIAAABAYgIgAAAAACQmAAIAAABAYgIgAAAAACQmAAIAAABAYgIgAAAAACQmAAIAAABAYgIgAAAAACQmAAIAAABAYgIgAAAAACQmAAIAAABAYgIgAAAAACQmAAIAAABAYgIgAAAAACQmAAIAAABAYgIgAAAAACQmAAIAAABAYgIgAAAAACQmAAIAAABAYgIgAAAAACQmAAIAAABAYgIgAAAAACQmAAIAAABAYgIgAAAAACQmAAIAAABAYgIgAAAAACQmAAIAAABAYgIgAAAAACQmAAIAAABAYgIgAAAAACQmAAIAAABAYgIgAAAAACQmAAIAAABAYgIgAAAAACQmAAIAAABAYgIgAAAAACQmAAIAAABAYgIgAAAAACQmAAIAAABAYgIgAAAAACQmAAIAAABAYgIgAAAAACQmAAIAAABAYgIgAAAAACQmAAIAAABAYgIgAAAAACQmAAIAAABAYgIgAAAAACQmAAIAAABAYgIgAAAAACQmAAIAAABAYgIgAAAAACQmAAIAAABAYgIgAAAAACQmAAIAAABAYgIgAAAAACQmAAIAAABAYgIgAAAAACQmAAIAAABAYgIgAAAAACQmAAIAAABAYgIgAAAAACQmAAIAAABAYgIgAAAAACQmAAIAAABAYgIgAAAAACQmAAIAAABAYgIgAAAAACQmAAIAAABAYgIgAAAAACQmAAIAAABAYgIgAAAAACQmAAIAAABAYgIgAAAAACQmAAIAAABAYgIgAAAAACQmAAIAAABAYgIgAAAAACQmAAIAAABAYgIgAAAAACQmAAIAAABAYgIgAAAAACQmAAIAAABAYgIgAAAAACQmAAIAAABAYgIgAAAAACQmAAIAAABAYgIgAAAAACQmAAIAAABAYgIgAAAAACQmAAIAAABAYgIgAAAAACQmAAIAAABAYgIgAAAAACQmAAIAAABAYgIgAAAAACQmAAIAAABAYgIgAAAAACQmAAIAAABAYgIgAAAAACQmAAIAAABAYgIgAAAAACQmAAIAAABAYgIgAAAAACQmAAIAAABAYgIgAAAAACQmAAIAAABAYgIgAAAAACQmAAIAAABAYgIgAAAAACQmAAIAAABAYgIgAAAAACQmAAIAAABAYgIgAAAAACQmAAIAAABAYgIgAAAAACQmAAIAAABAYgIgAAAAACQmAAIAAABAYgIgAAAAACQmAAIAAABAYgIgAAAAACQmAAIAAABAYgIgAAAAACQmAAIAAABAYgIgAAAAACQmAAIAAABAYgIgAAAAACQmAAIAAABAYgIgAAAAACQmAAIAAABAYgIgAAAAACQmAAIAAABAYgIgAAAAACQmAAIAAABAYgIgAAAAACQmAAIAAABAYgIgAAAAACQmAAIAAABAYgIgAAAAACQmAAIAAABAYgIgAAAAACQmAAIAAABAYgIgAAAAACQmAAIAAABAYgIgAAAAACQmAAIAAABAYgIgAAAAACQmAAIAAABAYgIgAAAAACQmAAIAAABAYgIgAAAAACQmAAIAAABAYgIgAAAAACQmAAIAAABAYgIgAAAAACQmAAIAAABAYgIgAAAAACR2TAJgV2dbXLdqR/lqNHVFZ1tbdHaVLwEAAACAIzrFrgCcGR2VSnTMLF8CAAAAAEdkCjAAAAAAJHb8A2BXZ7S1tR1YDprP25jm29h+XazqWhXXtXXWRgs7YtV1A6YAF8e6blV0rbruCMcDAAAAgNPX8Q2ARbCb2xUrN1eiUimWzbGya+6A+wUW8W9uxBP9278a0bk01pZbD2nt0uiMrzb237wyFqyY6x6BAAAAAFA6rgGw69kVsWDlV2NRezkQ7bGoY0WsXf1s1BNg17OxYsHKuH7/Pf5q27+6MhaUrw6ptv9X+w/Yvihqh4uul4/FA0gAAAAA4NRzHAPgjni5K2LmlP31r2Hy5Fiwdmtsra3uaOwQQ/YAAAAAAI7ScQyA7TFl5mGuzlswOSaXq7UdGlcD9tu69chTgAEAAACAwzquU4BnXroi1i69Nfbf8q94qMetSyMWXlq/6q/90oWxYO3S+O7+e/jVtneuKNcBAAAAgJE6ZgFw7dJpB57MW1vqD/qY2RGVJ2bG0mn949Ni9cLN8cCAe/g98MSKWDG3f/utER1vcA9AAAAAAOCwmiqVSrVcPzkVTw7unBybH1jk3oAAAAAAMELHdQrwyHVF59wVsaCcIgwAAAAAjMxJFgC7onPAtOG2trnRtXLAFGEAAAAAYERO/inAAAAAAMBRG/UA2NnZWa4BAAAAACPV0dFRro2OYxIAR/skAQAAAOB0cCza2kn+EBAAAAAA4M0QAAEAAAAgMQEQAAAAABITAAEAAAAgMQEQAAAAABITAAEAAAAgMQEQAAAAABITAAEAAAAgMQEQAAAAABITAAEAAAAgMQEQAAAAABITAAEAAAAgMQEQAAAAABI7wQFwR6y6ri06u8qXA3R1tsV1q3aUr9684nht162qfeLh7Vh13RvuAwAAAACnktPjCsCuzuicvDkqDyyK9nLoUNoXPfCG+wAAAADAqeS0CIBdcWk8sEjWAwAAAOD0c4oEwK7obGuLtnLpnxpcn7I7aP7w0CnFjddz584t39tZO1Kpq7M+3XdVMTW4tq3+nnLswBTgwZ876P0AAAAAcAo4JQJgV+fc6Fq5OSqVSm3ZHB1Tyg1vZMezsXXhgfetXLAiOgfeV3Dt0th6abGtEh0zy7H9ivg38HMrsXllV8x1j0AAAAAATiGnzBTgtVu3lmvtMXPmMKfzti+Kjv1Tf9vj0oULBhynZsHKuP6g8FfqejZW1LZ/dcDU4fZFHbFi7ep4VgEEAAAA4BRxUgfAmVMa8W1mRyWeiHIa7wivwKs//becwjtt6dpy9I3teLmrOIEhDwSZHJMXrI2BDREAAAAATmYnOAC2x5SZEV0vD016O6LobwMVEbA+DXfh6pg2zAhYxL/603/3T+FdUG55Y+2NEzvE5yyIyZPLVQAAAAA4yZ3wKwBnXroi1i69NQbemm/HqltjafRPz90RqzoPBL96mCvV11c8u//BHPX37b/IrxER+68iLF4/u3r4VwDWTixWrF0atw44scZ5LYxLB18WCAAAAAAnrRM/BXhmR1SemBlLpw2Yqrt6YWx+YFE5/bY9psTSmFZua5sb8UT/ttp7n1ixIuaW226NjjhwkV97LOpYESvm9h/31tg6c/hXANYOHh2VJ2Lm0mnl+4eeFwAAAACc/JoqlUq1XB8VnZ2d0dHRUb4CAAAAAIbrWLS1U+YpwAAAAADAyAmAAAAAAJCYAAgAAAAAiQmAAAAAAJCYAAgAAAAAiQmAAAAAAJCYAAgAAAAAiQmAAAAAAJCYAAgAAAAAiQmAAAAAAJCYAAgAAAAAiQmAAAAAAJCYAAgAAAAAiTVVKpVquT4qOjs7yzUAAAAAYKQ6OjrKtdEx6gEQAAAAADh5mAIMAAAAAIkJgAAAAACQmAAIAAAAAIkJgAAAAACQmAAIAAAAAIkJgAAAAACQmAAIAAAAAIkJgAAAAACQmAAIAAAAAIkJgAAAAACQmAAIAAAAAIkJgAAAAACQmAAIAAAAAIkJgAAAAACQmAAIAAAAAIkJgAAAAACQmAAIAAAAAIkJgAAAAACQmAAIAAAAAIk1VSqVark+Kjo7O8s1AAAAAGCkOjo6yrXRcUwC4GifJAAAAACcDo5FWzMFGAAAAAASEwABAAAAIDEBEAAAAAASEwABAAAAIDEBEAAAAAASEwABAAAAIDEBEAAAAAASEwABAAAAIDEBEAAAAAASEwABAAAAIDEBEAAAAAASEwABAAAAIDEBEAAAAAASOwkC4I5YdV1btLX1L9fFqh3lpjelKzpH7VgAAAAAcGo6wQGwiHTTYmtHJSqVctm8MGJruRkAAAAAeFNObADc8XJ0xYq4dGb5utC+KBYNfA0AAAAAHLUTGwDbp8TMWBHPdpWvD6Wr8zDTg8spvl2r4rr92ztro0NsPdz2oVOPD/FeAAAAADjFneApwDOjY/PK6Jp7mABXxL+5EU/0Tw9+YmYsvXVVHLit39pY2hnx1fr2zbFywYqY2znwKEfYvuPZ2Lpwczn1uLGt0w0DAQAAAEjmxD8EpH1RPFCPexFziyvxBgS8rmdXxIKV18f+GcEzr4+VsTqe3d/pFsTKry6K9vp6eyzqWFF708sDAuERttc+t2NRY0ux7dKFC2LtVjcfBAAAACCXEx8A+83saFyJ1zU3rqtfibcjXu6KWLt02oBputNi6dq1MVqdrquz/7htMW3p2nIUAAAAAPI4eQJg3cAr8dpjysyIFU8UU3QHLx2j8JCQIv51Tu6fAlyJzSsXlFsAAAAAII8TGwB3rBpy370d8ezqtbFg8uT6q5mXrogVc4/FwzkaVxfOnNI/BbjxuQAAAACQzYkNgO1TIoZM8V29cHM80H9vvpkdsXllV+PegP3LdQMfAnK0GvcDXFF/+Eix3BpbZ7oCEAAAAIB8miqVSrVcHxWdnZ3R0dFRvgIAAAAAhutYtLWT7B6AAAAAAMBoEgABAAAAIDEBEAAAAAASEwABAAAAIDEBEAAAAAASEwABAAAAIDEBEAAAAAASEwABAAAAIDEBEAAAAAASEwABAAAAIDEBEAAAAAASEwABAAAAIDEBEAAAAAASa6pUKtVyfVR0dnaWawAAAADASHV0dJRro2PUAyAAAAAAcPIwBRgAAAAAEhMAAQAAACAxARAAAAAAEhMAAQAAACAxARAAAAAAEhMAAQAAACAxARAAAAAAEhMAAQAAACAxARAAAAAAEhMAAQAAACAxARAAAAAAEhMAAQAAACAxARAAAAAAEhMAAQAAACAxARAAAAAAEhMAAQAAACAxARAAAAAAEhMAAQAAACAxARAAAAAAEmuqVCrVcn1UrHu5Kb7xw2q8XGkqRwAAAACANzKlrRo3X9QU86eMaq4b/SsAxT8AAAAAGLmiqRVtbbSNegAU/wAAAADg6ByLtuYegAAAAACQmAAIAAAAAIkJgAAAAACQmAAIAAAAAIkJgAAAAACQmAAIAAAAAIkJgAAAAACQmAAIAAAAAIkJgAAAAACQmAAIAAAAAIk1VSqVark+Ki66r6lcAwBgZFrj8RvHxtTyVb8tP/m3mPfk2Lh/aWvMao3YuXVPXLK2p9xaaLxv4ivd8QdrxhzyGP3qx4oJ8bPfH/zfgbu7+2Ld+t1xy6YhPw3PaY1nrhkbk6Ia6//5t/GxH5fjhStGcBwAAIbth0tG97eUKwABAE42u3rj+5v37V/W/aIcL02cPC7uPq98cZDeWNf/3q190V0b6X6955DH2rljwH6tY+Kq94yPz5bb+l3yruaY1NMXO3uaYsa0seXoYMM5DgAAJ44ACABwsunui1t+0L1/ufOn5XihpxqV2k+4+Ze1xmXl0GA9cWf/e7dWGwFwV+8hj1V5vdxv7a742ivViJYxMf2d5ca6lljeXvu5+KueWPXLarS+rSX+stwy0BsfBwCAE0kABAA4lfT2xaqf90W0tcTnrmguB9+8s1uK/61G9+76y4YLWmL6hIhNv9gbd+6ofWZLc1z+nnLbYRzyOAAAnFACIADAyeassfGzG3+nXM6I+4dcTffKo3vj6V1NMfX8cfHZM8vBo9B2Vmt87f21ZcGEuL69Kbpf64nPvlRurFl+YXNMjN7Y+KPai+d6Y1Ptn+nntMa59a0HvNFxAAA4sQRAAICTzaB7APbE478sx/friRvW98TOlua4ft64g4LccE1sHxtXTastk5ti50/2xEce2huvlNsixsa8tzVFvN4Xd/+meL0vNr5W++fs5rhlSHQ88nEAADjRBEAAgJPNkHsA3jvkISB1P90Td79Sjdb2sXHnUd5vr3gi8O892B3ruxtXE94w8MEi72mJGcV03rPGxrPllYjXn11sGBOzLhk89fiIxwEA4IQTAAEATlH3Prm3Ht1mzWyJieXYiP1yX3zs8Z7Y3jImFl02vnywSFPccU4R+fpi4/4rEYulN3bWRie1j41L6vsNcMjjAABwMhAAAQBONq1jGvfU618uqT9Z42C/2Rd/+WJvdLc2RVs5dFS27Yl7i6f3trXEF9/fHHHmuJhRXO1X6Y2vDLgS8ZYf7ImnX6+Nt42J5efX3znY0OMAAHBSEAABAE42E5ob99TrX95x+Jj2ygt7YuWOavnq6N375L7Y2BMx6R2tce+c5pheG9u+oydeaGwuVeNrxdOAaz8hp19w6Cg58DhfOaccBADghGqqVCpv/hfjABfd11SuAQAAAAAj9cMlo5rrXAEIAAAAAJkJgAAAAACQmAAIAAAAAIkJgAAAAACQmAAIAAAAAIkJgAAAAACQmAAIAAAAAIkJgAAAAACQmAAIAAAAAImNegCc0lYt1wAAAACAkTgWbW3UA+DNFzWJgAAAAAAwQkVTK9raaGuqVCpqHQAAAAAk5R6AAAAAAJCYAAgAAAAAiQmAAAAAAJCYAAgAAAAAiQmAAAAAAJCYAAgAAAAAiQmAAAAAAJCYAAgAAAAAiQmAAAAAAJBYU6VSqZbro2Ldy03xjR9W4+VKUzkCAAAAALyRKW3VuPmippg/ZVRz3ehfASj+AQAAAMDIFU2taGujbdQDoPgHAAAAAEfnWLQ19wAEAAAAgMQEQAAAAABITAAEAAAAgMQEQAAAAABITAAEAAAAgMQEQAAAAABITAAEAAAAgMQEQAAAAABITAAEAAAAgMQEQAAAAABIrKlSqVTL9VFx0X1N5RoAAA1j4/6lrTGrtXxZV43tr+yLz67ZG8/UX7fG4zeOjan19QO2/OTfYt6T5Yu3tcTX3jcuLv/dMdHWUo71VGPLz7tj3g96ai/KY7y+L37ve931zf9uemt8fVZLTG3t/41WjY0/+m0sHDchfvb7h/tvwX2x6lu74n9ffUZ87tzBv+0qld5Y9czu+OK2cqC0/CNnxKfaa/vWPvvS2me/Uo4XbhjBcQAAiPjhklHNda4ABAA4bnr64unN++L7m3ti466ISeeOizs/0F/ySrt6a9uLfRrLul+U4+e1xuMfGR9XnV37+fab3ljXf5zfVKN1f9wb4oLx8d8uHxtTm6ux8eeN4z39Wu3H5Ljatl/07P+Mp18vfmBWY8vW/s/tiRfqBygcGF+3oy9a25pj6fvGxwfLrQ3jYt7bmmLnrr6Is5rjU+eUw4MM5zgAABwLAiAAwPHSW41nftAdt/xgTyz8x57YXhua+LvNjW39uvtq24t9GsudPy0GW+Le942NqS3VWP/Pv40/+N7uWN5/nO/tisvW7qu/9SDnjImJ9Sv+dsXCRxvHu+Gh2npxReFP9+7/jGd2NXbfubX/c/fG6sZQXf/48n/cHesqtYEJY+Kyxqa6cy9rjhktfbFpQ1/tO42JGe8a8p1Kb3QcAACODQEQAOBEOLO8aq93GNM7ZoyNWRMaAe1jPx7BdJC9xb5NMf0drfHBMxtDb86YaMxirkbR7xqaYnl7c8Suvlj9457YUlzZ2D72Da7sO9RxAAA4VgRAAIDjpbkpLnt/a3zt/eNj9bzmmBR9se5He8uNpbPGxs9u/J1yOSPuf2fEJe1N0VqfQlvc528Entsb332tGq21Y359yRnx+IJxRxUCJ04uzrk17v5Ia1zeFrHz5/vii+W2OGdcXH52bey1nngkemL1a331K/sWXlBuH+CIxwEA4JgRAAEAjpeWMXH5tLFx1bSWmBF98ZWHd8fy+hTfAQbdA7AnHv9lxMSDZtQWDxXpj4S1Zelb4oZyy2C98bmHdsUnN/TElu6mmDp5XHx98VvijvPKzcNSvK8457Exvz1i4/rd8ZFHD4TIS6YXIfNAnHzkpb7YWfuJOeOCsfXXBxz5OAAAHDsCIADA8dLdG3d867fxyc190T2hOZb/UUucW27ab8g9AO/9RcQjv2pM5Z10bn8J7IvHX2oEwi1v2NCq8cgLe2Leytrn/qg3Kq3Ncf2s4ikgw1Xcd/Df4tLH99U+a0zMmjEu5u+/irAllp9b/JxsilnvLWPk+1piYm2krb22rb5PvyMdBwCAY0kABAA4rqrxyA92x8od1Wg7d1x8/ZLDPMF3oB/1xqaeiEnntcZX6lfv9ca9zxSBsDd29tb3GIba5z7XE5u6a6tnNsfHGoPD9spL3fF/186ju7U5PjVvXCNcXtAS0ydEdL9+4InCxVJ/qnDLmJh3Sf2tgxzyOAAAHFMCIADAcVeNO9cXV+81xYwLx8cNA6+Eax1Tv0/e/uWSlojf7I3/uL43Ki1jYtEHz4jHrx5f33bvR8bG9MbTNA7phgUT4oWPviXuLo9170fHxaza/pXXeuL+cp+ReOWFvfH916vR2j427nxnUyw8v/GU4U0/3TPoqsUbXuyLStS+2+RDX2k49DgAABxbAiAAwInwi+64Y1tfRGtz3HLFgPvlTWiu3ydv//KOxrTfV368OxY8vS82ViImndtS33Z5e1P96bvrX9oX6+p7DbZzVzVazxwT88tjXX5mxJate+OTa/aVe4xUb3zqud7YXkz5nfmWuOWc2k/Jnr54fGO5ud+PyysNz26OOw45zXfgccYf5v6FAACMlqZKpVLcVGbUXHSf/4oLAAAAAEfrh0tGNde5AhAAAAAAMhMAAQAAACAxARAAAAAAEhMAAQAAACAxARAAAAAAEhMAAQAAACAxARAAAAAAEhMAAQAAACAxARAAAAAAEhv1ADilrVquAQAAAAAjcSza2qgHwJsvahIBAQAAAGCEiqZWtLXR1lSpVNQ6AAAAAEjKPQABAAAAIDEBEAAAAAASEwABAAAAIDEBEAAAAAASEwABAAAAIDEBEAAAAAASEwABAAAAIDEBEAAAAAASEwABAAAAILGmSqVSLddHxbqXm+IbP6zGy5WmcgQAAAAAeCNT2qpx80VNMX/KqOa60b8CUPwDAAAAgJErmlrR1kbbqAdA8Q8AAAAAjs6xaGvuAQgAAAAAiQmAAAAAAJCYAAgAAAAAiQmAAAAAAJCYAAgAAAAAiQmAAAAAAJCYAAgAAAAAiQmAAAAAAJCYAAgAAAAAiQmAAAAAAJBYU6VSqZbro+Ki+5rKNQCAk9nYuH9pa8xqLV/WVWP7K/vis2v2xjP1163x+I1jY2p9/YAtP/m3mPdk+eJtLfG1942Ly393TLS1NIa6u3vjuyt3xxf73//6vvi973U3NtYNGb9iQvzs9wf+d9lqVF7vjVXP7YkvbiteH+k8hvM9Dlj+kTPiU+2132u1z7609tmvlOPD+3sc7N9Nb42vz2qJqa39vwGrsfFHv42Fz0XccPUZ8blzh/w2rP1t7qj9be7t/849vbHye7W/1W/K7TWN91Vj1bd2xaf2v45Y/8+/jY/9uLFP3TvfEv//e5tj58D/P+rGxuo/a40Ztf8/tvzkt7Vto/pzFwDgmPvhktH9/eIKQADg9NbTF09v3hff39wTG3dFTDp3XNz5gbLk9dvVW9te7NNY1v2iHD+vNR7/yPi46uzaT6raPvXjbO2N7b0RbeUuI7FzR3n8HdVoPasllr5vfCwst9Ud7jwKw/keMS7mva0pdu7qizirOT51Tjk80LCOU7pgfPy3y8fG1OZqbPx545yefq32Y3Vcub2uGlu2Hjjn77/UE5vKLXUtzXH9vHFxbvlyVFzSEtNb+mrfM2LqOePiknIYAOB0JQACAKe33mo884PuuOUHe2LhP/bE9trQxN9tbmzr191X217s01ju/Gkx2Bx3XzY2prZUY/36XfEH390dNxTb1+6Oef99d/3KtZGqvN44/vJ/3BUrd1QjJoyJD55fbiwc8jxKw/ge517WHDNa+mLThr7a9jEx411DvmdhOH+PfueMiYn1K/52xcJHG+d0w0O19UFX40Xs3HrgnG95Zl+8UI4XKt3VaG0fG3e+c7RmkTTFHZObo3VXX9y9oy+irTluOFToBAA4jQiAAAD9ziwjVO8wply8c1zMaovo3rE3PraxrxwcPa/1lCtH45DfoymWtzdH7OqL1T/uiS3F1X3tY+OD5dZDeqO/x95ivCmmv6M1PnhmY2ikdm7dFxt7mmLWzPFxQzn2ppw5LmacXTtu7Q9470t9sbMIncVcYACA05gACACc3pqb4rL3t8bX3j8+Vs9rjknRF+t+tLfcWDprbPzsxt8plzPi/nfWxs5uqk/z3f76vvouo6cpLnnn+LihuE/frr545KVyuHCo8+j3Rt/jnHFxeRnGHomeWP1aX/0Kw4UXlNv7Defv0e+5vfHd14rpymPj60vOiMcXjDtECGyKWe/tP+fa8tFBNxmM6N0bn9zUG92tzbF8wZFC3ZDjFMt7mw+aan3JJc0xvXbOm17qiSimG++KmHh2y+Cp1AAApxkBEAA4vbWMicunjY2rprXEjOiLrzy8O5YPnFpbGHTvvZ54/Jfl+Cib+vtF2DojHnhvSyO8dXXH6nJb3ZHO4w2+xyXTi5hX3I+vcWnhI/1Xx10wtv56v+H8Pfbrjc89tCs+uaEntnQ3xdTJ4+Lri98Sd5xXbq4bcg/An/eW4we88tyeekicWHv/3YPeO9CQ4xTL1r4Y+GiVYlr2x9prP2+7q/FM/Zx74pF66GyOhQNjKQDAaUYABABOb8VTab/12/jk5r7ontAcy/+o5eAHUgy59969xcM3dlXr8altwlFMLz2zeK7vwfofAvKtp3fHgn/YFcs3DZl6e6jz6HfE79ESy88tfvYNuIrufS0xsTbS1l7bVt+nNJy/xyDVeOSFPTFvZe09P+qNSmtzXD9r0FNABt8D8IVDzW2uxhef64ktPWNi/mWth/28Qccplq2N/w/2O39sfVp21M7hc+VVgndObnzvGdOGhE4AgNOIAAgAUESsH+yuP3ij7dxx8fVLhvFAihd6YlNP1K9a+9r5h9u/GpWid501Ju4YMDX23BljYlLt352/GXw1XP9DQO7c1Bv/uxwbmcN8jwtaYvqEiO7XewZdQff069X6FX/zDnpM7lH8PYr3PFf7mxRF7szm+FhjcPh+0R13/Lx4aEdLLDq7HBuhhRc0Hkoy+ErBIixGtL6tJf6y3A8A4HQjAAIA1FXjzvVFLGqKGReOjxsG3suudUx8rX5fvHK5pLjqb198ZVNvVGo/p66aNyFe+Ohb4u5i24K3xDNL3xJfqb9xbzxSPM03muP6xRPi/g+0xt1XT4i1FzZH9PTF0xsPdTXcERzyPIY6+HssPL8Rxjb9dM+gK+hueLGvdv61/SYPvmKv4Qh/j9INCwZ879py70fHxazWiMprPXF/uU9h4uQB51xbDvdU3uLpw+sqTdHWOpzgOFRLfPDs2k/b2t919doD37F4mvH9xf8HLc1x+XvKXQEATjMCIABAv+IqtG199Smkt1wxYMrohOa4qn5fvHJ5R3N9+IXndsd1T+9rPGjirOaYX2ybPCbaeqvxs/oeEfeu2RMrt/ZFpXlMzHrH2JhfTMUt7uVXe++nBk7hHY7DnMdBBn2P8fGxcxph7PGN5fZ+Py6v2Du7edAVivsd7u9R2rmrGq1njml879pyee0YW7bujU+uGfhglOLegAPOeVpLzHtbuekgvbH8mZ7YXr4akRljY1ZxleMve+LucqjfvT8vQmfE9HMOP70YACCzpkqlMuTmMm/ORfcdzX+xBQAAAAAKP1wyqrnOFYAAAAAAkJkACAAAAACJCYAAAAAAkJgACAAAAACJCYAAAAAAkJgACAAAAACJCYAAAAAAkJgACAAAAACJCYAAAAAAkNioB8ApbdVyDQAAAAAYiWPR1kY9AN58UZMICAAAAAAjVDS1oq2NtqZKpaLWAQAAAEBS7gEIAAAAAIkJgAAAAACQmAAIAAAAAIkJgAAAAACQmAAIAAAAAIkJgAAAAACQmAAIAAAAAIkJgAAAAACQmAAIAAAAAIkJgAAAAACQmAAIAAAAAIkJgAAAAACQmAAIAAAAAIkJgAAAAACQmAAIAAAAAIkJgAAAAACQmAAIAAAAAIkJgAAAAACQmAAIAAAAAIkJgAAAAACQmAAIAAAAAIkJgAAAAACQmAAIAAAAAIkJgAAAAACQmAAIAAAAAIkJgAAAAACQmAAIAAAAAIkJgAAAAACQmAAIAAAAAIkJgAAAAACQmAAIAAAAAIkJgAAAAACQmAAIAAAAAIkJgAAAAACQmAAIAAAAAIkJgAAAAACQmAAIAAAAAIkJgAAAAACQmAAIAAAAAIkJgAAAAACQmAAIAAAAAIkJgAAAAACQmAAIAAAAAIkJgAAAAACQmAAIAAAAAIkJgAAAAACQmAAIAAAAAIkJgAAAAACQmAAIAAAAAIkJgAAAAACQmAAIAAAAAIkJgAAAAACQmAAIAAAAAIkJgAAAAACQmAAIAAAAAIkJgAAAAACQmAAIAAAAAIkJgAAAAACQmAAIAAAAAIkJgAAAAACQmAAIAAAAAIkJgAAAAACQmAAIAAAAAIkJgAAAAACQmAAIAAAAAIkJgAAAAACQmAAIAAAAAIkJgAAAAACQmAAIAAAAAIkJgAAAAACQmAAIAAAAAIkJgAAAAACQmAAIAAAAAIkJgAAAAACQmAAIAAAAAIkJgAAAAACQmAAIAAAAAIkJgAAAAACQmAAIAAAAAIkJgAAAAACQmAAIAAAAAIkJgAAAAACQmAAIAAAAAIkJgAAAAACQmAAIAAAAAIkJgAAAAACQmAAIAAAAAIkJgAAAAACQmAAIAAAAAIkJgAAAAACQmAAIAAAAAIkJgAAAAACQmAAIAAAAAIkJgAAAAACQmAAIAAAAAIkJgAAAAACQmAAIAAAAAIkJgAAAAACQmAAIAAAAAIkJgAAAAACQmAAIAAAAAIkJgAAAAACQmAAIAAAAAIkJgAAAAACQmAAIAAAAAIkJgAAAAACQmAAIAAAAAIkJgAAAAACQmAAIAAAAAIkJgAAAAACQmAAIAAAAAIkJgAAAAACQmAAIAAAAAIkJgAAAAACQmAAIAAAAAIkJgAAAAACQmAAIAAAAAIkJgAAAAACQmAAIAAAAAIkJgAAAAACQmAAIAAAAAIkJgAAAAACQmAAIAAAAAIkJgAAAAACQmAAIAAAAAIkJgAAAAACQmAAIAAAAAIkJgAAAAACQmAAIAAAAAIkJgAAAAACQmAAIAAAAAIkJgAAAAACQmAAIAAAAAIkJgAAAAACQmAAIAAAAAIkJgAAAAACQmAAIAAAAAIkJgAAAAACQmAAIAAAAAIkJgAAAAACQmAAIAAAAAIkJgAAAAACQmAAIAAAAAIkJgAAAAACQmAAIAAAAAIkJgAAAAACQmAAIAAAAAIkJgAAAAACQmAAIAAAAAIkJgAAAAACQmAAIAAAAAIkJgAAAAACQmAAIAAAAAIkJgAAAAACQmAAIAAAAAIkJgAAAAACQmAAIAAAAAIkJgAAAAACQmAAIAAAAAIkJgAAAAACQmAAIAAAAAIkJgAAAAACQmAAIAAAAAIkJgAAAAACQmAAIAAAAAIkJgAAAAACQmAAIAAAAAIkJgAAAAACQmAAIAAAAAIkJgAAAAACQmAAIAAAAAIkJgAAAAACQmAAIAAAAAIkJgAAAAACQmAAIAAAAAIkJgAAAAACQmAAIAAAAAIkJgAAAAACQmAAIAAAAAIkJgAAAAACQmAAIAAAAAIkJgAAAAACQmAAIAAAAAIkJgAAAAACQmAAIAAAAAIkJgAAAAACQmAAIAAAAAIkJgAAAAACQmAAIAAAAAIkJgAAAAACQmAAIAAAAAIkJgAAAAACQmAAIAAAAAIkJgAAAAACQmAAIAAAAAIkJgAAAAACQmAAIAAAAAIkJgAAAAACQmAAIAAAAAIkJgAAAAACQmAAIAAAAAIkJgAAAAACQmAAIAAAAAIkJgAAAAACQmAAIAAAAAIkJgAAAAACQmAAIAAAAAIkJgAAAAACQmAAIAAAAAIkJgAAAAACQmAAIAAAAAIkJgAAAAACQmAAIAAAAAIkJgAAAAACQmAAIAAAAAIkJgAAAAACQmAAIAAAAAIkJgAAAAACQmAAIAAAAAIkJgAAAAACQmAAIAAAAAIkJgAAAAACQmAAIAAAAAIkJgAAAAACQmAAIAAAAAIkJgAAAAACQmAAIAAAAAIkJgAAAAACQmAAIAAAAAIkJgAAAAACQmAAIAAAAAIkJgAAAAACQmAAIAAAAAIkJgAAAAACQmAAIAAAAAIkJgAAAAACQmAAIAAAAAIkJgAAAAACQmAAIAAAAAIkJgAAAAACQmAAIAAAAAIkJgAAAAACQmAAIAAAAAIkJgAAAAACQmAAIAAAAAIkJgAAAAACQmAAIAAAAAIkJgAAAAACQmAAIAAAAAIkJgAAAAACQmAAIAAAAAIkJgAAAAACQmAAIAAAAAIkJgAAAAACQmAAIAAAAAIkJgAAAAACQmAAIAAAAAIkJgAAAAACQmAAIAAAAAIkJgAAAAACQmAAIAAAAAIkJgAAAAACQmAAIAAAAAIkJgAAAAACQmAAIAAAAAIkJgAAAAACQmAAIAAAAAIkJgAAAAACQmAAIAAAAAIkJgAAAAACQmAAIAAAAAIkJgAAAAACQmAAIAAAAAIkJgAAAAACQmAAIAAAAAIkJgAAAAACQmAAIAAAAAIkJgAAAAACQmAAIAAAAAIkJgAAAAACQmAAIAAAAAGlF/B9FOfYYaHRXKAAAAABJRU5ErkJggg==;" vertex="1" parent="1">
          <mxGeometry x="-820" y="560" width="267.44" height="187" as="geometry" />
        </mxCell>
        <mxCell id="uWF2si1FAwXb73x0F3vI-2" value="" style="shape=image;verticalLabelPosition=bottom;labelBackgroundColor=default;verticalAlign=top;aspect=fixed;imageAspect=0;image=data:image/png,iVBORw0KGgoAAAANSUhEUgAABQAAAAN/CAYAAACBQHXZAAAAAXNSR0IArs4c6QAAAARnQU1BAACxjwv8YQUAAAAJcEhZcwAADsMAAA7DAcdvqGQAADrrSURBVHhe7d1/cJ31feD7j/hlmtwou7M1gsY2yRpPemH3dk2qiZ2tg4k2DlMVk8Qyixcn3Yi0lwBtnJPeglM2iJYNsEm1JI2hM4Cy20DtC/YW02gnkHow8W1xRxszTQM3HcMmyKRBOHdaTreACaB7nnOeIx/Jsi2DZMsfv14zZ/Sc5/c50h+et5/v87SN1gQAAAAAkNJJ5U8AAAAAICEBEAAAAAASEwABAAAAIDEBEAAAAAASEwABAAAAIDEBEAAAAAASEwABAAAAIDEBEAAAAAASEwABAAAAIDEBEAAAAAASEwABAAAAIDEBEAAAAAASEwABAAAAIDEBEAAAAAASEwABAAAAIDEBEAAAAAASEwABAAAAIDEBEAAAAAASEwABAAAAIDEBEAAAAAASEwABAAAAIDEBEAAAAAASEwABAAAAILGjEgC/9KWv1F8AAAAAwNE14wGwCH9f/vIX4447vhzf//4PyrkcyvNPPBHPl9MAAAAA8GbMaABsxr/TTjstNmzYED//8+8ql8xuz2/9tZg//+zxr/M/EGvX3xOPzXCZe2H75+I9F/1yvOfqh2ZJBHw+Hvv65+KK1R+I88vv4vzl/zYqd+2KF8o1AAAAAJi9ZiwATox/F110UbnkODJvcSxZsqTxaq/Go/f8Tlx60TWxdU+5fAbMmbswlsydG0sWz4v2ct7hvPDEg3HX+o9H5aFpToYv74oNq385Lv3cvfHw0xELy++ivboz7n/s2dhXrgYAAADA7NU2WlNOT5vjPf4VVwC+55qHI677k9hz9fnl3D2x9eqPxDUP7o25tfm7xuYfe7s2nB2X3BKx4qtDcfclZ5Rz37w993083vfZR2s7/lL8xd2rY345v7gqcPt9T8a5ly6P6TsaAAAAADNh2q8ATHHl36Tmx4fWXlyf2rvr2RPiHn179z5a/7li5ZKW+Fc4I5aLfwAAAADHhWkNgHnjX8O+feWg1/lzxw3Pffmph2JD5cOxtH6PvH8dK6+4MbY+NeEOeS88FVv7Ph7Lz2+ss3b9/fHEUw/GFcU2Vzy4Pyjuur1xz8ENu8oZNc8/Fl9f39y2uAffx2PDY7X9P9/Yvrj6r/DwNZ0HbvvCrpZtfzGWr/5s3NV6I8NyH8U57Hnhsdiw9l/X1rs9ij3Mm7eivsrDd/9p7DrcDf9qn++hDZ+N1ct/sXEO538gVt+8vXGfwEMco+5w51j3cjz10O1RWVlsW1tv6Yfjir4Ho/VrLq6ELJYVH3/PQzfG2vq51Pa39sbYPoPDtgEAAABms2kLgM34V3jllVfi136teJDG/Cm/Zr+n4sG77q39nBtXfWhxnN6YGS/vuj0uvfDX4+49C2PlDZ+PG25YEXOfHIhrLvzVuOuJsZViw8e64pq7H41q+8VxxQ29cU71jvhkZSCeLVc5qBe2x/qLLovP3fN0LFxZ7P/zsfK8Z+PJ5/dFzJkXH6q9X3tBY9VzV36qvvyG8+Y2Zux5MK6+8CPxue1zYvlVxbY9cX48Gjde+suxfvvEovdsPFi5LG55dP8ZnfGhdXHDktq+Hr81LrnwA3H1Xdtjz2QhcM9DUbmoKz55y+Z4OpbUPl/tWCsXR+zdN+E+gQceY2rn+HLs2nBZXPjJgdhzzsWNz/ihufHk3b8RF37s7mh+zU277r4mLr2rGuet7YnVSyKefnQgPnb1gesBAAAAnBCKewBOhy9+8cuj8+bNe8Ov2WTkgU/WzmnB6Lwll4z29Fxaf128pPZ+3vtGe//oe6MvleuNvvSd0a+uqM3v3To6XM6q+95doyuK7W/4i/q6w//3x+r7W3zDI6N/31ijbvcfNeYX24+U80a/s6Ex76vfGf/+C+X70t///dhZjH7nq7XltXV6HxjbS83I6AO9tfkrbh79zv5Vaxt+c/Qzxf567muc88jW0d7i/eL3jPZ84ZH95zFmZPQv7vzk6JJinfp6l47e8MDu/d9B7RM9ct176ssuv7Plu2l10GNM7Rxfqn0HxffZ+8C4b3n0e3deVD/uDX/R2Lj5PYz/fXxv9M7idzTvotHa6QEAAACccKbtCsDf+q3fjE9/+v+qTxdDgO+8887Ys2fPlF+z0rOPx86dO+uvx59dHFfd99/j7o+dN3b1Xzy9M+5+svbz4d+I9xXDUpuvi343itmxZ29U4/l48tHiXnrnxlWrl8fbi/mlc5b3RGOQ7SHMnRv1C/zuvzUqX98+NuT17W8fO4vJPf94PPxw7eeTd8Qli1rO7V/8etxfLN+5N/YWP5v2XhCfvGqy+/qdEUs/eWc89p0/id+/4oKYt7f2ma/piks37IqXi8UvPB4P3VPb07mfj/WfbPluJjPxGFM8x6cfG6h/nw9f80v716m9Lrqx/i3Hnuer9Z9NV3xyRcs9C8+L85cXP5+M5ghuAAAAgBPJtN4DsBkBiyHAV199dXzzm98slxyniqcA73kmdn/nv8ZVix+P2y/91diwq569GvZFI6Kt/o9x332bDnxVltTvFfhyfZN5Rcsbb07581Dmr44NWz8fK9ufjvs/96tx4b/4xVh+9T3xxGRDccfZ1wh0Sz4Vd012bvetiIX19UorLohzW+vkRGecH5f2/VE88sh/rEfLx2+5LR4suu2+InHWzJsbEz/eAQ44xtTOcV+ZKld/YbJ1NkVlaesdGSPmzpmQIccvBgAAADihTPtTgNNFwJrTz1ge62/+fCyOx+OW9bdFawNsmBvnLl0aSye+zjuj5Yq46oFXoNVmjL92bXJvP/+K2LD9f8T3HtkUv792Xjz94O/ERZWWB4ccSnVuzJvs3JaeM+5qxMJUeuTp56yIlfXLFh+Nva2XED474YrCg5j0GFM9xzPOnWSdpXHeGYe5GhIAAADgBDbtAbCQMQLGeZfHzdctrg9XXf+fy+GvC8+NtcXP+++IeyZUwRee2B6NB9meEfPPL66N2xl331NuV/dy7LpnoDb30F7Ys6fxJN2at5+zNC69+dq4qnjz8LOTPECkpTCesTCWnlv7WTvf27dOGGK956HY/lQ5fQhP3Hd77TNMqJ17dsbDjxcT58acouadsTg+VIxRnuw4hzPFc1xY++4L92+4d0J8fSGe2P7Y1EIoAAAAwAlqRgJgIV8EPD3Ou+LauGJuxJO3/07856JEvX15XPXVi2NucWXgJV2xdv0tcdddd0ff1R+ICy+6dyxMnb/y87Gyvt1H4sK1n4ub77ol1q/tir5nF8aScp2D2bfrd+PC5ddEX22/9X1f8Vtxe23+3CsWR9HOCvPmNe4k+PCNvxWVm2+JyteL592eF2tvvjYWx9548JqPxPKrb6xvf/P6j8fS9/16PDGFSw/37b01Ln3Pu+P85f82Vq8uXh+ubfsb8eDe2jFXr4uV5xVrzY+VlWtjydziOL8US1d+tnGufZ+N1ZWHDhPnpnaOb1/+qfhq8QXWn0b88Vh/c/Fd3BhXL++Ki74+lesOAQAAAE5cMxYACxMj4Pe//4NyyXHq9KXxmf7LY248Gbf3DcQTL0fMv+Sr8c37Ph+rl8yJJ++5I2688Y7Y/vziuOKua2N582kX81fG79/3B3HFBQtj36P3xu1374x9y/8gvn7disPenq79nBXxoYXPxkM3/m5t378bD+09N9Z+4U/ikb6lY8OLz7jk8/H18gEd99/+p9G8uO/086+Krz9SO+6KebHvwYH69g8+MSeWf2FTrD6/XOkQFtbO8Ya1xX34ni4fhrI35q64PG64a1t8s/9DYw/zKI5z/zc3xQ2rl8ScZzfH3bXj3L792Zh/7tzDDiue2jnOj0s2/Pe474aeWDLnybjn9tp3cfuj8fz5vXHX+gsmeXAJAAAAAE1txaOAy+kZ86UvfaX+swiCtNh1e5x/ya2xd+1/je/dPP4JwQAAAAAwHY5KAGQye2Lr1R+Jax7cG6vv+m70f0j+AwAAAGD6CYBHw/MPReXqgYjzVsS582rvn30yHnxoczz+bMTclX8QWzesjPmNNQEAAABgWgmAR8MLu+KuG2+NBx/bWY9+EXNj4ZILYvnqnrjq0qXuYQcAAADAjBEAAQAAACCxGX0KMAAAAABwbAmAAAAAAJCYAAgAAAAAiQmAAAAAAJCYAAgAAAAAiQmAAAAAAJCYAAgAAAAAiQmAAAAAAJCYAAgAAAAAiQmAAAAAAJCYAAgAAAAAiQmAAAAAAJCYAAgAAAAAiQmAAAAAAJCYAAgAAAAAiQmAAAAAAJCYAAgAAAAAiQmAAAAAAJCYAAgAAAAAibV9//vfHy2nAQAAAIBk2qrVqgAIAAAAAEkZAgwAAAAAiQmAAAAAAJCYAAgAAAAAiQmAAAAAAJCYAAgAAAAAiQmAAAAAAJCYAAgAAAAAiQmAAAAAAJCYAAgAAAAAiQmAAAAAAJCYAAgAAAAAiQmAAAAAAJCYAAgAAAAAiQmAAAAAAJCYAAgAAAAAiQmAAAAAAJCYAAgAAAAAiQmAAAAAAJCYAAgAAAAAiQmAAAAAAJCYAAgAAAAAiQmAAAAAAJCYAAgAAAAAiQmAAAAAAJCYAAgAAAAAiQmAAAAAAJCYAAgAAAAAiQmAAAAAAJCYAAgAAAAAiQmAAAAAAJCYAAgAAAAAiQmAAAAAAJCYAAgAAAAAiQmAAAAAAJCYAAgAAAAAiQmAAAAAAJCYAAgAAAAAiQmAAAAAAJCYAAgAAAAAiQmAAAAAAJCYAAgAAAAAiQmAAAAAAJCYAAgAAAAAiQmAAAAAAJCYAAgAAAAAiQmAAAAAAJCYAAgAAAAAiQmAAAAAAJCYAAgAAAAAiQmAAAAAAJCYAAgAAAAAiQmAAAAAAJCYAAgAAAAAiQmAAAAAAJCYAAgAAAAAiQmAAAAAAJCYAAgAAAAAiQmAAAAAAJCYAAgAAAAAiQmAAAAAAJCYAAgAAAAAiQmAAAAAAJCYAAgAAAAAiQmAAAAAAJCYAAgAAAAAiQmAAAAAAJCYAAgAAAAAiQmAAAAAAJCYAAgAAAAAiQmAAAAAAJCYAAgAAAAAiQmAAAAAAJCYAAgAAAAAiQmAAAAAAJCYAAgAAAAAiQmAAAAAAJCYAAgAAAAAiQmAAAAAAJCYAAgAAAAAiQmAAAAAAJCYAAgAAAAAiQmAAAAAAJCYAAgAAAAAiQmAAAAAAJCYAAgAAAAAiQmAAAAAAJCYAAgAAAAAiQmAAAAAAJCYAAgAAAAAiQmAAAAAAJCYAAgAAAAAiQmAAAAAAJCYAAgAAAAAiQmAAAAAAJCYAAgAAAAAiQmAAAAAAJCYAAgAAAAAiQmAAAAAAJCYAAgAAAAAiQmAAAAAAJCYAAgAAAAAiQmAAAAAAJCYAAgAAAAAiQmAAAAAAJCYAAgAAAAAiQmAAAAAAJCYAAgAAAAAiQmAAAAAAJCYAAgAAAAAiQmAAAAAAJCYAAgAAAAAiQmAAAAAAJCYAAgAAAAAiQmAAAAAAJCYAAgAAAAAiQmAAAAAAJCYAAgAAAAAiQmAAAAAAJCYAAgAAAAAiQmAAAAAAJCYAAgAAAAAiQmAAAAAAJCYAAgAAAAAiQmAAAAAAJCYAAgAAAAAiQmAAAAAAJCYAAgAAAAAiQmAAAAAAJCYAAgAAAAAiQmAAAAAAJCYAAgAAAAAiQmAAAAAAJCYAAgAAAAAiQmAAAAAAJCYAAgAAAAAiQmAAAAAAJCYAAgAAAAAiQmAAAAAAJCYAAgAAAAAiQmAAAAAAJCYAAgAAAAAiQmAAAAAAJCYAAgAAAAAiQmAAAAAAJCYAAgAAAAAiQmAAAAAAJCYAAgAAAAAiQmAAAAAAJCYAAgAAAAAiQmAAAAAAJCYAAgAAAAAiQmAAAAAAJCYAAgAAAAAiQmAAAAAAJCYAAgAAAAAiQmAAAAAAJCYAAgAAAAAiQmAAAAAAJCYAAgAAAAAiQmAAAAAAJCYAAgAAAAAiQmAAAAAAJCYAAgAAAAAiQmAAAAAAJCYAAgAAAAAiQmAAAAAAJCYAAgAAAAAiQmAAAAAAJCYAAgAAAAAiQmAAAAAAJCYAAgAAAAAiQmAAAAAAJCYAAgAAAAAiQmAAAAAAJCYAAgAAAAAiQmAAAAAAJCYAAgAAAAAiQmAAAAAAJCYAAgAAAAAiQmAAAAAAJCYAAgAAAAAiQmAAAAAAJCYAAgAAAAAiQmAAAAAAJCYAAgAAAAAiQmAAAAAAJCYAAgAAAAAiQmAAAAAAJCYAAgAAAAAiQmAAAAAAJCYAAgAAAAAiQmAAAAAAJCYAAgAAAAAiQmAAAAAAJCYAAgAAAAAiQmAAAAAAJCYAAgAAAAAiQmAAAAAAJCYAAgAAAAAiQmAAAAAAJCYAAgAAAAAiQmAAAAAAJCYAAgAAAAAiQmAAAAAAJCYAAgAAAAAiQmAAAAAAJCYAAgAAAAAiQmAAAAAAJCYAAgAAAAAiQmAAAAAAJCYAAgAAAAAiQmAAAAAAJCYAAgAAAAAiQmAAAAAAJCYAAgAAAAAiQmAAAAAAJCYAAgAAAAAiQmAAAAAAJCYAAgAAAAAiQmAAAAAAJCYAAgAAAAAiQmAAAAAAJCYAAgAAAAAiQmAAAAAAJCYAAgAAAAAiQmAAAAAAJCYAAgAAAAAiQmAAAAAAJCYAAgAAAAAiQmAAAAAAJCYAAgAAAAAiQmAAAAAAJCYAAgAAAAAiQmAAAAAAJCYAAgAAAAAiQmAAAAAAJCYAAgAAAAAiQmAAAAAAJCYAAgAAAAAiQmAAAAAAJCYAAgAAAAAiQmAAAAAAJCYAAgAAAAAiQmAAAAAAJCYAAgAAAAAiQmAAAAAAJCYAAgAAAAAiQmAAAAAAJCYAAgAAAAAiQmAAAAAAJCYAAgAAAAAiQmAAAAAAJCYAAgAAAAAiQmAAAAAAJCYAAgAAAAAiQmAAAAAAJCYAAgAAAAAiQmAAAAAAJCYAAgAAAAAiQmAAAAAAJCYAAgAAAAAiQmAAAAAAJCYAAgAAAAAiQmAAAAAAJCYAAgAAAAAiQmAAAAAAJCYAAgAAAAAiQmAAAAAAJCYAAgAAAAAic1IABzqb4/29tbXmtg8Ui58k0Y2r4n2NZtjmnYHAAAAAKnN2BWA3QO7o1qt1l+7ByJ6F/XHULnszejo2RjVjT3RUb4/mCJCrpmu6ggAAAAAx6mjMgS4o6cSfTEUz+hxAAAAAHBUHaN7AI7E5jUtQ4T7x18bWB/m27Js3NV8Q/3jhgCPW7e9uMqwse+uvojB3kW1eeXw43K7zeXw5MYhJ5xHffvSpOsDAAAAwPHlqATAof6u6OurRE993G4R3RbFllXNIcK7Y2CoayywFUFv0ZZVsbscPlxdtqMe8yY1sjnW9XbGtua625bVZnZEz8ZqbKtt0xiGvLE8bs1gbwwva6xb6ay9H9kRw63n0d0X/a3DhieuDwAAAADHmRkLgI2r7xpXz+0oIlqzoI3siC2DfVEZq3Id0VPpi74dRQEciR1bBqOv0nKPv85KPeYdXMvQ4s7OOGSn6x6Iy1tX6OgZdx7LVnXH4PBw+b5m4voAAAAAcJyZ+YeAbOuLvq6WobXDwzEYfdE1Nuy29iou8Rt6JkZiOIYHu2PBgnLdw+noiY27V8WWRW98mG7rE4sX9Q6WcwEAAAAgh5kfAly/gq8vupp1bsGC6O4e2D/Et/kae7LvYNEIW4zEM4cKe0UErO9jW0TXkUXAIv71L2h9WnF3uQQAAAAAcjgq9wDsrGyLvr7yPn8dy2JV9Ma61nvtjemMZX0Rff37H/IRQ/fGQS/MG+pvCX4LYsER9btGWOw8uzkEuDH8GAAAAAAyOSoBsAh7lfpQ4OKJvMVDOrZFZ8s9AluH73ZWdsdA9Mai5rIdyw5+D8AFC2Koq7mPxoNFmrca7Lx8IKL1KcAHKO89OLb9uhjudAUgAAAAALm0VavV0XJ6lmo8NXi44km8AAAAAHCkjtIVgG/cyOZ10TvYF8vEPwAAAAA4YrMuAI5sXlMOyW28FvV2xrZqJfQ/AAAAADhyx8EQYAAAAADgjZr2ANjf319OAQAAAABHqlKplFPTY0YC4HSfJAAAAACcCGairc36h4AAAAAAAG+cAAgAAAAAiQmAAAAAAJCYAAgAAAAAiQmAAAAAAJCYAAgAAAAAiQmAAAAAAJCYAAgAAAAAiQmAAAAAAJCYAAgAAAAAiQmAAAAAAJCYAAgAAAAAiQmAAAAAAJDYMQ6AI7F5TXv0D5VvWwz1t8eazSPluzev2F/7ms21Ix7cyOY1h10HAAAAAI4nJ8YVgEP90b9gd1Q39kRHOWsyHT0bD7sOAAAAABxPTogAOBTLYmOPrAcAAADAiec4CYBD0d/eHu3lqzk0uD5kd9z44YlDihvvu7q6ym37a3sqDfXXh/tuLoYG15bVtynn7R8CPP6447YHAAAAgOPAcREAh/q7Ymhgd1Sr1dprd1TOLhcczsiOGF61f7uB7r7ob72v4GBvDC8rllWj0lnOG1PEv9bjVmP3wFB0uUcgAAAAAMeR42YI8ODwcDnVEZ2dUxzO29ETlbGhvx2xbFV3y35qugfi8gPCX2loR/TVlt/WMnS4o6cSfYNbYocCCAAAAMBxYlYHwM6zG/Gts1KNbVEO4z3CK/DqT/8th/Au6h0s5x7eyDNDxQlMeCDIgljQPRitDREAAAAAZrNjHAA74uzOiKFnJia9kSj6W6siAtaH4a7aEoumGAGL+Fd/+u/YEN7ucsnhdTRObJLjdMeCBeUkAAAAAMxyx/wKwM5lfTHYuy5ab803snld9EZzeO5IbO7fH/zqYa5Un+7bMfZgjvp2Yxf5NSJi8yrC4v2OLVO/ArB2YtE32BvrWk6scV6rYtn4ywIBAAAAYNY69kOAOytR3dYZvYtahupuWRW7N/aUw2874uzojUXlsvauiG3NZbVtt/X1RVe5bF1UYv9Ffh3RU+mLvq7mftfFcOfUrwCs7Twq1W3R2buo3H7ieQEAAADA7NdWrVZHy+lp0d/fH5VKpXwHAAAAAEzVTLS14+YpwAAAAADAkRMAAQAAACAxARAAAAAAEhMAAQAAACAxARAAAAAAEhMAAQAAACAxARAAAAAAEhMAAQAAACAxARAAAAAAEhMAAQAAACAxARAAAAAAEhMAAQAAACAxARAAAAAAEmurVquj5fS06O/vL6cAAAAAgCNVqVTKqekx7QEQAAAAAJg9DAEGAAAAgMQEQAAAAABITAAEAAAAgMQEQAAAAABITAAEAAAAgMQEQAAAAABITAAEAAAAgMQEQAAAAABITAAEAAAAgMQEQAAAAABITAAEAAAAgMQEQAAAAABITAAEAAAAgMQEQAAAAABITAAEAAAAgMQEQAAAAABITAAEAAAAgMQEQAAAAABITAAEAAAAgMTaqtXqaDk9Lfr7+8spAAAAAOBIVSqVcmp6zEgAnO6TBAAAAIATwUy0NUOAAQAAACAxARAAAAAAEhMAAQAAACAxARAAAAAAEhMAAQAAACAxARAAAAAAEhMAAQAAACAxARAAAAAAEhMAAQAAACAxARAAAAAAEhMAAQAAACAxARAAAAAAEhMAAQAAACCxWRAAR2LzmvZob2++1sTmkXLRmzIU/dO2LwAAAAA4Ph3jAFhEukUxXKlGtVq+dq+KGC4XAwAAAABvyrENgCPPxFD0xbLO8n2hoyd6Wt8DAAAAAG/YsQ2AHWdHZ/TFjqHy/WSG+g8yPLgc4ju0OdaMLe+vzZ1g+GDLJw49nmRbAAAAADjOHeMhwJ1R2T0QQ10HCXBF/OuK2NYcHrytM3rXbY79t/UbjN7+iNvqy3fHQHdfdPW37uUQy0d2xPCq3eXQ48ayfjcMBAAAACCZY/8QkI6e2FiPexFdxZV4LQFvaEdfdA9cHmMjgjsvj4HYEjvGOl13DNzWEx316Y7oqfTVNnqmJRAeYnntuJWexpJi2bJV3TE47OaDAAAAAORy7ANgU2elcSXeUFesqV+JNxLPDEUM9i5qGaa7KHoHB2O6Ot1Qf3O/7bGod7CcCwAAAAB5zJ4AWNd6JV5HnN0Z0betGKI7/lWZhoeEFPGvf0FzCHA1dg90l0sAAAAAII9jGwBHNk+4795I7NgyGN0LFtTfdS7ri76umXg4R+Pqws6zm0OAG8cFAAAAgGyObQDsODtiwhDfLat2x8bmvfk6K7F7YKhxb8Dma03rQ0DeqMb9APvqDx8pXutiuNMVgAAAAADk01atVkfL6WnR398flUqlfAcAAAAATNVMtLVZdg9AAAAAAGA6CYAAAAAAkJgACAAAAACJCYAAAAAAkJgACAAAAACJCYAAAAAAkJgACAAAAACJCYAAAAAAkJgACAAAAACJCYAAAAAAkJgACAAAAACJCYAAAAAAkJgACAAAAACJtVWr1dFyelr09/eXUwAAAADAkapUKuXU9Jj2AAgAAAAAzB6GAAMAAABAYgIgAAAAACQmAAIAAABAYgIgAAAAACQmAAIAAABAYgIgAAAAACQmAAIAAABAYgIgAAAAACQmAAIAAABAYgIgAAAAACQmAAIAAABAYgIgAAAAACQmAAIAAABAYgIgAAAAACQmAAIAAABAYgIgAAAAACQmAAIAAABAYgIgAAAAACQmAAIAAABAYm3VanW0nJ4W/f395RQAAAAAcKQqlUo5NT1mJABO90kCAAAAwIlgJtqaIcAAAAAAkJgACAAAAACJCYAAAAAAkJgACAAAAACJCYAAAAAAkJgACAAAAACJCYAAAAAAkJgACAAAAACJCYAAAAAAkJgACAAAAACJCYAAAAAAkJgACAAAAACJCYAAAAAAkNgxD4BD/e3R3r4mNo+UM8YMRf+k809Mxfe05g1+GSOb10T7ms3hq5xJ/l4BAACA2WlWXAHY3R3Re+9Q+Y7p1tGzMaobe6KjfA8AAADAiWN2DAFetSr6+rqiXwMEAAAAgGk1S+4BuCwq2/qir6s/DtkAh/qjvb0YMly+xhXDcgjm0OZYUy5vDJkt5je3mbj/1mWHG2I7EpvXtK67edyQzwOH6E4cEjp++/HnfqD6sN3mums2xzPl/IYJ+2r9XMV3VFt/c31odXsjqpbzmqcybt/NdSbV/Ayt39OEYa4Tfiet30H9OP21c6mfa7ndIdYfb+L3VzPuczS+g/6hlnOrf5DW72bC9geY8D2O7bv187bOL43s/xsrXuM+w3DrskP/vY1fXn6e2t9Vffv6McvvYHP5nY39og61HwAAAIDxZs9DQDorsa2vL7oOVqOK+NM1FAO7q1GtFq/dMTDUNSEgDUZvf8RtxfLdAxG9i6K9fUcsa67f3Rf9Y+sXEaUrYltzf9uis3fdQYJREWcWxZZVu8t1q1EZ7o2+cunhTdy+ce4H+6hFOFu0ZVXsLo9VrQxHb+vBRnbEcOu+xn2umsHeGF5WnmdnOW/MSOwY3r/v3QPd0dc/IXCNU/tOFzW/w9prW2ft/f7gNLSj+Aqby/pqh753fIzq21L8QmrLN0ZPxxTWP0J9Xc1z21a/irS9fV15vGrt76l27gcdWn7g73TbqnJR4yTL+bX91r7Psd0U8W/Rllg19ne4LZqbjfv7K38v+/+eG39vQwP7j7d7YCi6JsTFxtdVWz42ZLu2z+FljW3qv8yp7QcAAACgafYEwJrOShFx+ieNcEM7+qJ74LZ6RGroiJ5KXwxu2dESPrpj4LYynHQsi1XdtTkDl0ejgXXEstqMweHh+rsi8vR1D8TlY4GsMy4fiNiyY5KDj+yILYN9Udl/8Ma5ltOHdcD2jXPv2zFZnBqJHVsGo6/Scs++ehwtpwsdPeP2Ne5zFcZ9romKY+/fd8eyVdE9OBwtW09Q+053V8rvsKbz8nrYap56Z6V12bLadzIUz4wrWpWW39kU1j9Cfdua++uMZcV31HK8zmLG0DOTh7Ghe6M3BuK21t9pT/m91L7v/eG0sd+h8iSH7u2N2h9Zy2fqjJ6xNy1/f/XvueX45d9b6/E6eirRN7glWv/kxv3e62r7bP1lTnE/AAAAAE2zKgAWMaWIcL3rJl7NNBLPDNWWnj0+jcSCBYeIVx1xduck25RGih0O9sailqGUi3oHx4e0ptq8we4FsaB8e8SK7aMvulqO1d51sDhV+zyD3cVHO6TG05P3n/cRaR2Gu6i3dm5HovG9jhk3HLbr8FH0SNc/AgsWdEf34b64Uv3333n2hNjWNH5ocPGrajjI3+EUTH682t9U92Dx5zFl07UfAAAA4MQxywJgcTXTbTEQvbFuc+td7xrRqXkV1jhvMMx1FDvs2zY2jHLsdeCY2clD48gzUx+6WmzfPbB/SG/zNemTeSeLOY3w1FTEv/4FrUNAu8slU1DEv/4F+89l90AcwdY1LedSHw47HJXmvorhsuWiSR3p+jOo/vufNMA2hgYPV5rnWAwlLhcd6u/wMA5+vMPH3lbTtR8AAADgxDHrAmARWXpuKy4DHH+PvWI45+C4e/SNxOZ1vRGrlk0S0aagGH461ScPd5wdnbWzab3PXjEUtPXKueLqs9bhyEP9LVe3FcOR61HzwGxzoEZkGndfvmK46tjBJl6F1hgyPFUTryAb2bHlMFcAjr+P3sjmdfWhs/VRqROvjCyGp5aTkzqi9RshdP+Q7KHo338p3ptX/P4Hx/9OhjYX3/nEKzCHYkfLYQ/8OxyKzVP5vU5yvMZ3uSqWHckf8HTtBwAAADhhzMIAWNPRE7dNvKqts1I+gKI5NLPxAIeNLfdCOzKdUdk9EENd+4d6HvypsbV1q8VDQoqHijTW3bFs/NVrzSsXm0OKxy/viJ6N47cvXgeLj52VamzrbBmevGPZuKvQ6vcPHDvvdTHcOfVr+Or3i6s/LKOx/brhzsNcAdgdAwt2jK2/qLcztjWvXCzuB9jymdt3xKED4BGt3wzBze9sRywbdyPEN+vA32nXcBFGy2HoY39nE07ygL/Drhie0pDgA49Xf9DLpFeBHsp07QcAAAA4UbRVq9XRcnpa9Pf3R6VSKd9lVjyNtT8W7G483TanE+EzAgAAAMweM9HWZucVgAAAAADAtBAAAQAAACAxAfANK+7Fln1o7InwGQEAAAByEwABAAAAIDEBEAAAAAASEwABAAAAIDEBEAAAAAASEwABAAAAIDEBEAAAAAASEwABAAAAIDEBEAAAAAASEwABAAAAIDEBEAAAAAASa6tWq6Pl9LTo7+8vpwAAAACAI1WpVMqp6THtARAAAAAAmD0MAQYAAACAxARAAAAAAEhMAAQAAACAxARAAAAAAEhMAAQAAACAxARAAAAAAEhMAAQAAACAxARAAAAAAEhMAAQAAACAxARAAAAAAEhMAAQAAACAxARAAAAAAEhMAAQAAACAxARAAAAAAEhMAAQAAACAxARAAAAAAEhMAAQAAACAxARAAAAAAEhMAAQAAACAxNqq1epoOT1tbrrppnIKAAAAAJiq66+/vpyaPtMeAIv4d+utt5bvAAAAAICpuvbaa6c9AhoCDAAAAACJCYAAAAAAkJgACAAAAACJCYAAAAAAkJgACAAAAACJCYAAAAAAkJgACAAAAACJCYAAAAAAkJgACAAAAACJCYAAAAAAkJgACAAAAACJCYAAAAAAkJgACAAAAACJCYAAAAAAkJgACAAAAACJCYAAAAAAkJgACAAAAACJpQ+AO29pi7YPb4rnyvcH9dym+HBbW9yys3wPAAAAAAkctQBYD3EHqWuHWvamPLcpbll/czz2wGVxZjkLAAAAAE4kia8AfC42Xbkmljx2XSwp5xzSmZfFA6Ojcd2UVgYAAACA40PiAHhmXPaAoAcAAADAsdHf3x/PPXfgjemKebfddlv5bubNzgBY3o+vrfkau4ffzril7cOxacL3dsAQ4oNu39Bcv/6ztvzDxQ7r20zc93Ox6cMt+6m93CMQAAAAgMO544474rOf/WwsW7YsfvzjH5dzoz5dzPvMZz4Td955Zzl3Zs3CALgzbjmrGLo7GqOjxevHsfEIr+Lb+V9+GNfVty23jzVx1sRyt35pbF/eWOeByya7Q2ARG8+KNUseK/dTe/14Y+xcWgZDAAAAADiIj3zkI/HOd74znnrqqXj/+99fv+qveBXTxbxzzjknLr744nLtmTX7AuBzP4ydcUntCyrfF0N5rzuyh3gsua71vn9nxvLLLonY+cPxTwK+ZGP8+0OExec23RLra+v8uHUM8ZmXxR9uvCS2bto+fl8AAAAA0OLMM8+MHTt2xMKFC+vB733ve1/9VUwX87797W/X1zkaZl8APPOyuO7mrbHmrMYw3TeqOby3eJ21Zms5t8WSdx4yKv7wh1vjksuWH7DOmcsvi0u2/jB+WL4HAAAAgMnMmzcvHnnkkXjXu94VP/jBD+qvIv5t3749zjrrrHKtmTcr7wG45Lpy6O7OpY2IdyQhsLz/39LYP3T3xxsvKRcCAAAAwNEzf/78+tV+RQwshgQX8a+YPpqOWgB85zsviVi/PQ5MeTtj+/qIm5dPHI/beIrv6GM3T9hua/xw3OV3z8UPW3b63PZNsXXi0N03oDjfyYb6Nvb/zhgboQwAAAAAh1AEvyICNkPg0XbUAuCZl10XN8f6WDrhar6dtyyt32tv7H58z22KWw76kI0lsbzogbfsf6rvc5uujNYRvme+s7aj1iG6tf1dOdkQ4MOon+/WCQ8PKfd18xHekxAAAACAE1sxDLi4GvBYOIpDgJfEda3DestXfajuA+OD2s41Z+1fZ2nEY6P7H+qx5LrHGmGuXH5l/GEUFwmOWXJd7f36WNrc/sqI697QEODifGvHWt9yvmdtist+PBpv8uJCAAAAADhq2qrV6mg5PS1uuummuPXWW8t3AAAAAMBUXXvttXH99deX76bHrHwICAAAAAAwPQRAAAAAAEhMAAQAAACAxARAAAAAAEhMAAQAAACAxARAAAAAAEhMAAQAAACAxARAAAAAAEhMAAQAAACAxARAAAAAAEhMAAQAAACAxARAAAAAAEhMAAQAAACAxARAAAAAAEhMAAQAAACAxARAAAAAAEhMAAQAAACAxNqq1epoOT1tbrrppnIKAAAAAJiq66+/vpyaPjMSAAEAAACA2cEQYAAAAABITAAEAAAAgMQEQAAAAABITAAEAAAAgMQEQAAAAABITAAEAAAAgMQEQAAAAABITAAEAAAAgMQEQAAAAABITAAEAAAAgMQEQAAAAABITAAEAAAAgMQEQAAAAABITAAEAAAAgMQEQAAAAABITAAEAAAAgMQEQAAAAABITAAEAAAAgMQEQAAAAABIrK1arY6W09Pi4Wfa4qt/NRrPVNvKOQAAAADA4ZzdPhrX/EJbrDh7WnPd9F8BKP4BAAAAwJErmlrR1qbbtAdA8Q8AAAAA3piZaGvuAQgAAAAAiQmAAAAAAJCYAAgAAAAAiQmAAAAAAJCYAAgAAAAAiQmAAAAAAJCYAAgAAAAAiQmAAAAAAJCYAAgAAAAAiQmAAAAAAJBYW7VaHS2np8Uv3NNWTgEA0HBq/HHvnFgyp3xbNxrP/uincf2Dr8S36+/nxLc+dWosrE/v9/T3/1d88JHyzT87Jb78gdPign9yUrSfUs57dTSe/sG++OCfvVp7U+7j734a/3zTvvri//3cOfGVJafEwjnNf6ONxuPf/cdYddpb4n/+/MH+L/j12HzHi/H/rnxr/Id3jP+3XbX6Wmz+9ktx055yRunKj741frujtm7t2Mtqx/5ROb/wiSPYDwAAEX+1dlpznSsAAQCOmldfj0d3/zT+dPer8fiLEfPecVp88aJmySu9+FptebFO4/Xw35bz58+Jb3309Lj4Z2v/fPuH1+Lh5n7+YTTmjMW9Cd59evyXC06NhSePxuM/aOzv0Z/U/jF5Wm3Z3746doxH/674B+ZoPD3cPO6r8Zf1HRT2z3945PWY035y9H7g9PiVcmnDafHBf9YWe198PeKfnhy//XPl7HGmsh8AAGaCAAgAcLS8Nhrf/rN98ek/ezlW/bdX49narLn/5OTGsqZ9r9eWF+s0Xl/8m2LmKfG1D5waC08ZjZ3/zz/Gv9r0UlzZ3M+mF+P9gz+tb3qAnzsp5tav+HsxVn2zsb9P3F+bLq4o/JtXxo7x7Rcbq+8dbh73ldjSmFXXnH/lf3spHq7WZrzlpHh/Y1HdO95/ciw+5fV4ctfrtc90Uiz+PyZ8ptLh9gMAwMwQAAEAjoW3lVftvTaF4R2LT40lb2kEtH/310cwHOSVYt22OPddc+JX3taY9eacFI1RzKNR9LuGtriy4+SIF1+PLX/9ajxdXNnYcephruybbD8AAMwUARAA4Gg5uS3e/2/mxJf/zemx5YMnx7x4PR7+7ivlwtI/PTX+56f+t/L11vjjfxnx3o62mFMfQlvc5+8I/Pkrce9PRmNObZ9fWfvW+Fb3aW8oBM5dUJzznPjDj86JC9oj9v7gp3FTuSx+7rS44Gdr837yanwjXo0tP3m9fmXfqneXy1sccj8AAMwYARAA4Gg55aS4YNGpcfGiU2JxvB7/aetLcWV9iG+LcfcAfDW+9f9FzD1gRG3xUJFmJKy9en8mPlEuGe+1+A/3vxi/uevVeHpfWyxccFp8ZfXPxO/NLxdPSbFdcc6nxoqOiMd3vhQf/eb+EPnec4uQuT9OfuOp12Nv7Z+Yi999av39fofeDwAAM0cABAA4Wva9Fr93xz/Gb+5+Pfa95eS48hdPiXeUi8ZMuAfg1/424ht/3xjKO+8dzRL4enzrqUYgfPqwDW00vvGXL8cHB2rH/e5rUZ1zcly+pHgKyFQV9x38X7HsWz+tHeukWLL4tFgxdhXhKXHlO4p/TrbFkl8qY+QHTom5tTntHbVl9XWaDrUfAABmkgAIAHBUjcY3/uylGBgZjfZ3nBZfee9BnuDb6ruvxZOvRsybPyf+U/3qvdfia98uAuFrsfe1+hpTUDvun78aT+6rTb7t5Ph3jZlT9qOn9sW/r53Hvjknx29/8LRGuHz3KXHuWyL2/d3+JwoXr/pThU85KT743vqm40y6HwAAZpQACABw1I3GF3cWV++1xeLzTo9PtF4JN+ek+n3yxl7vPSXiH16J/3Pna1E95aTo+ZW3xrdWnl5f9rWPnhrnNp6mMalPdL8l/vKyn4k/LPf1tctOiyW19as/eTX+uFznSPzoL1+JP/270ZjTcWp88V+2xapzGk8ZfvJvXh531eInnng9qlH7bAsmv9Jw4n4AAJhZAiAAwLHwt/vi9/a8HjHn5Pj0hS33y3vLyfX75I293tUY9vujv34puh/9aTxejZj3jlPqyy7oaKs/fXfnUz+Nh+trjbf3xdGY87aTYkW5rwveFvH08Cvxmw/+tFzjSL0Wv/3nr8WzxZDfzp+JT/9c7Z+Sr74e33q8XNz01+WVhj97cvzepMN8W/dz+kHuXwgAwHRpq1arxU1lps0v3ON/cQEAAADgjfqrtdOa61wBCAAAAACZCYAAAAAAkJgACAAAAACJCYAAAAAAkJgACAAAAACJCYAAAAAAkJgACAAAAACJCYAAAAAAkJgACAAAAACJTXsAPLt9tJwCAAAAAI7ETLS1aQ+A1/xCmwgIAAAAAEeoaGpFW5tubdVqVa0DAAAAgKTcAxAAAAAAEhMAAQAAACAxARAAAAAAEhMAAQAAACAxARAAAAAAEhMAAQAAACAxARAAAAAAEhMAAQAAACAxARAAAAAAEhMAAQAAACAxARAAAAAAEhMAAQAAACAxARAAAAAAEhMAAQAAACAxARAAAAAAEhMAAQAAACAxARAAAAAAEhMAAQAAACAxARAAAAAAEhMAAQAAACAxARAAAAAAEhMAAQAAACAxARAAAAAAEhMAAQAAACAxARAAAAAAEhMAAQAAACAxARAAAAAAEhMAAQAAACAxARAAAAAAEhMAAQAAACAxARAAAAAAEhMAAQAAACAxARAAAAAAEhMAAQAAACAxARAAAAAAEhMAAQAAACAxARAAAAAAEhMAAQAAACAxARAAAAAAEhMAAQAAACAxARAAAAAAEhMAAQAAACAxARAAAAAAEhMAAQAAACAxARAAAAAAEhMAAQAAACAxARAAAAAAEhMAAQAAACAxARAAAAAAEhMAAQAAACAxARAAAAAAEhMAAQAAACAxARAAAAAAEhMAAQAAACAxARAAAAAAEhMAAQAAACAxARAAAAAAEhMAAQAAACAxARAAAAAAEhMAAQAAACAxARAAAAAAEhMAAQAAACAxARAAAAAAEhMAAQAAACAxARAAAAAAEhMAAQAAACAxARAAAAAAEhMAAQAAACAxARAAAAAAEhMAAQAAACAxARAAAAAAEhMAAQAAACAxARAAAAAAEhMAAQAAACAxARAAAAAAEhMAAQAAACAxARAAAAAAEhMAAQAAACAxARAAAAAAEhMAAQAAACAxARAAAAAAEhMAAQAAACAxARAAAAAAEhMAAQAAACAxARAAAAAAEhMAAQAAACAxARAAAAAAEhMAAQAAACAxARAAAAAAEhMAAQAAACAxARAAAAAAEhMAAQAAACAxARAAAAAAEhMAAQAAACAxARAAAAAAEhMAAQAAACAxARAAAAAAEhMAAQAAACAxARAAAAAAEhMAAQAAACAxARAAAAAAEhMAAQAAACAxARAAAAAAEhMAAQAAACAxARAAAAAAEhMAAQAAACAxARAAAAAAEhMAAQAAACAxARAAAAAAEhMAAQAAACAxARAAAAAAEhMAAQAAACAxARAAAAAAEhMAAQAAACAxARAAAAAAEhMAAQAAACAxARAAAAAAEhMAAQAAACAxARAAAAAAEhMAAQAAACAxARAAAAAAEhMAAQAAACAxARAAAAAAEhMAAQAAACAxARAAAAAAEhMAAQAAACAxARAAAAAAEhMAAQAAACAxARAAAAAAEhMAAQAAACAxARAAAAAAEhMAAQAAACAxARAAAAAAEhMAAQAAACAxARAAAAAAEhMAAQAAACAxARAAAAAAEhMAAQAAACAxARAAAAAAEhMAAQAAACAxARAAAAAAEhMAAQAAACAxARAAAAAAEhMAAQAAACAxARAAAAAAEhMAAQAAACAxARAAAAAAEhMAAQAAACAxARAAAAAAEhMAAQAAACAxARAAAAAAEhMAAQAAACAxARAAAAAAEhMAAQAAACAxARAAAAAAEhMAAQAAACAxARAAAAAAEhMAAQAAACAxARAAAAAAEhMAAQAAACAxARAAAAAAEhMAAQAAACAxARAAAAAAEhMAAQAAACAxARAAAAAAEhMAAQAAACAxARAAAAAAEhMAAQAAACAxARAAAAAAEhMAAQAAACAxARAAAAAAEhMAAQAAACAxARAAAAAAEhMAAQAAACAxARAAAAAAEhMAAQAAACAxARAAAAAAEhMAAQAAACAxARAAAAAAEhMAAQAAACAxARAAAAAAEhMAAQAAACAxARAAAAAAEhMAAQAAACAxARAAAAAAEhMAAQAAACAxARAAAAAAEhMAAQAAACAxARAAAAAAEhMAAQAAACAxARAAAAAAEhMAAQAAACAxARAAAAAAEhMAAQAAACAxARAAAAAAEhMAAQAAACAxARAAAAAAEhMAAQAAACAxARAAAAAAEhMAAQAAACAxARAAAAAAEhMAAQAAACAxARAAAAAAEhMAAQAAACAxARAAAAAAEhMAAQAAACAxARAAAAAAEhMAAQAAACAxARAAAAAAEhMAAQAAACAxARAAAAAAEhMAAQAAACAxARAAAAAAEhMAAQAAACAxARAAAAAAEhMAAQAAACAxARAAAAAAEhMAAQAAACAxARAAAAAAEhMAAQAAACAxARAAAAAAEhMAAQAAACAxARAAAAAAEhMAAQAAACAxARAAAAAAEhMAAQAAACAxARAAAAAAEhMAAQAAACAxARAAAAAAEhMAAQAAACAxARAAAAAAEhMAAQAAACAxARAAAAAAEhMAAQAAACAxARAAAAAAEhMAAQAAACAxARAAAAAAEhMAAQAAACAxARAAAAAAEhMAAQAAACAxARAAAAAAEhMAAQAAACAxARAAAAAAEhMAAQAAACAxARAAAAAAEhMAAQAAACAxARAAAAAAEhMAAQAAACAxARAAAAAAEhMAAQAAACAxARAAAAAAEhMAAQAAACAxARAAAAAAEhMAAQAAACAxARAAAAAAEhMAAQAAACAxARAAAAAAEhMAAQAAACAxARAAAAAAEhMAAQAAACAxARAAAAAA0or4/wEBNrXtBCE5SAAAAABJRU5ErkJggg==;" vertex="1" parent="1">
          <mxGeometry x="-415.0899999999999" y="210" width="386.15" height="270" as="geometry" />
        </mxCell>
        <mxCell id="uWF2si1FAwXb73x0F3vI-3" value="" style="shape=image;verticalLabelPosition=bottom;labelBackgroundColor=default;verticalAlign=top;aspect=fixed;imageAspect=0;image=data:image/png,iVBORw0KGgoAAAANSUhEUgAABQAAAAN8CAYAAAAH1Ad3AAAAAXNSR0IArs4c6QAAAARnQU1BAACxjwv8YQUAAAAJcEhZcwAADsMAAA7DAcdvqGQAAERfSURBVHhe7d1/lFX1ffD7D4JAze1oqzBdDQ6rUWivCfaqzAo2UI34aznGtA6kBWy7GNouIWmL0+ep2N7Wse3TkKbPaPokkHUr431ugrY6k9tYxpWotEkh1a4xeivRmwc0XYwmKwNNivNcDRhw7tln9gxnhhkc7KD48fXqOplz9t5nn3324Q/Xu9/v3lMGKgIAAAAASOm08i8AAAAAkJAACAAAAACJCYAAAAAAkJgACAAAAACJCYAAAAAAkJgACAAAAACJCYAAAAAAkJgACAAAAACJCYAAAAAAkJgACAAAAACJCYAAAAAAkJgACAAAAACJCYAAAAAAkJgACAAAAACJCYAAAAAAkJgACAAAAACJCYAAAAAAkJgACAAAAACJvSkB8C/+4i+rDwAAAADgzTVloKJ8flIU4e9Tn/pkTJ8+Pbq7H42f+ZmfKtcAAAAAACfbSR0BWBv/PvOZz7xt4t++L/5GnHvu3JGPi6+Im277fDy2r9zoHeCl574cn2n9pbjh0qHz8IG4Yc3vx5dfKDcAAAAA4JR30gLg6Ph37bXXlmveRuZcFIsWLRp81PXHVz//B/GRaz8WX3wHBLAXvvy7ce0HfzM2PvB47J9VnoOLIp56eGs8t7/cCAAAAIBT3kmZAvx2j3/FCMBLPvZwxIb/O1746MXl0hfiix/9xfjYg/tjVmX5k8PLEzr4WHz85345Nu2/INbd/9dx26VnliuKUYEPxOOHlsc17y0XAAAAAHBKm/QRgClG/o3p3Ljmpg9Vn+1/8sVIPRO4f385yu+yuKYm/hXOPF/8AwAAAHg7mdQAmDf+DTp06NDgk3NnRd3gs6qD1Wvl/UJcOnydvDvii8+9VK4d8lI89+VN0br8iri4ut3CuHz5xvhKzWYHX/hK3N36S3H5xYPX3Lv48l+K1rsfOxobn9kS1xTvvWZLPFMuGnQwHmsb3OfHHzs4vKz6eTd8oLqvcy/9hVjT9mDUHtaTnxn8nM88Wdn2/t+tfu6aL1Y+bfacuHhWsUVnbJnAfOd9j30+blsz9P3nxqU3/Ebc/9zgunE/o+r1j7HqpSfjc7f9anleivP2u3F37cUY9z0Ya4r3r3kwXnjpmfjc0G9R2V/r556pfAoAAADAO9ekBcCh+Fd49dVX4zd+o7iRxrkTfpz6nosH795a+Tsr1l1zUcwcXBgHn9wUH/ngb8aWF86LG27/o7j99qtj1rMd8bEP/lrcPVzpXogvt14XH/z1T8QDz0dcuqbY7kNxceyPoaZY3c/P/Vrc8cCLMeeatZX1LXFpPB8P3PHLce3yzw8Gv/deHWsuq/x9tjMeqy2AB5+KL2+p/L1gbdxwaXFkB+PJz/xy5fM64oXzP1TZV+XzrpkVz275rfjgr4yOhxH7H+uIj/5uZzw/fG2/i2P5x5fFnMrxPfixxXHpTXfE/U+ONeax+Jxfims/8gfx+Yf3x3k3Fce9Ni6ftT/6+8tNSsd+xgSP8YUH46Mf/MX4/a/MiMvXFedtWeXovhp3fOS6uK22nhb6H46Nv/Kb8ZW6D8WaNVfHnBefigd+v3JOR28HAAAA8E5SXANwMnzyk58amDNnzht+nEr6/vbXK8fUMDBn0YcHli37SPXxoUWV13N+bqDl//rGwA/K7QZ+8PWBT19dWd7yxYHeclHVN+4euLp4/+3/VN32wD/cNnBR8XrV3QPfGH5zjR/808CfXVTs/8MDn/567Qa9A3+77pLqsdzypQODS/7mV6qvl/3N0U/8wT+1VZdd/VffGHz99c9UP7/lb0cc1cA3/ura6na3/9PgZ3z908VnNgxctKh14G/2DO6/1oE9Xxy4fdng5xePRS13D3y9drPK9/xQse7q2wa+NPKjho33GRM7xr6Bv20p9v/xgRGn5cCXBm4pPnfZ/YPnve+LAy3F6znXDvxZzYYHvtQ6eOwb/mHg2G8HAAAA8M4waSMA/9N/+u34nd/5z9XnxRTgv/qrv4oXXnhhwo9T0otPxeOPP159PPXiRbHu/odiy6+8d3j0Xzz/eGx5tvL34d+KnyumnA49rv3jKBbHC/ujP16Kp768NfbHBXH7bWvivcNvrvH8U/FAMTLupvVx08W1G5wbH16zrPrsga88VdlTZck1q2J55e/jDzweg2ftYGX/HZW/l8Wa8uJ8zz/WUf38hz+2+OgxVR7X3lE9qnhh38jhebPWtMRHzh95rb/CmeffEG0PbI9/+twfxQ3nzYoXH/7j+PAHj94F+ZnHOuOpyt/lrbfGNa8ziHP0Z0zoGPc9FQ8/XHnx7Ob48Lyj25z7vt+MB4qNHt9fOa81FrWMOH9nXnBZXF08qeyrHGgJAAAA8I4zqdcAHIqAxRTgj370o/GlL32pXPM2VdwF+IW9sefr/z3WXfRUbPrIr1WvZTfsUAwGqOX/Je6//6+PfbQuirrKRi9VZ8/OiVnV6+qNYWg/c+rimAw354KREevMRXFNtQB2xmNFiBua/rt81XCEO1RmseV/NsYxVR6tl9ZewTDi8ouPd1ePM+Pcy9fEZ76yPT635oLKgf5d3PH5x6rX1Tt0aDDWnTfr2Hg42ujPmNgxHqp+TixaG3ePsc39918d5xXrh9TNiBnl06oRLwAAAADemSb9LsDpImDFzNmXx20f/6O4KJ6KjbfdFbUNcNCsuODSS+PS0Y/3zj46WjBejP0jhquN4cVivOAoLz4bxSC4ozceOTMuW95S+ft4PPjYC3HwqYej2v+uWXRsPJx9wbHHVHm8d/bIYYgjc+B4zozLbyjvgvxcMbLxqBf7X/8ae+N+xkSOsX9WzBljm0svPf/Y7wwAAADACJMeAAsZI2C8d1V8fMNF1emot9355ODItPMuiJuKvw9sjs+PqoIvPfOVGLxR7ey4+JrqnTti06YHy2m7o1xwUawrRgd+/q5R+3khvrils/J3Vtx0+QXDMXHmRVdXt//qlx+PB4vpv7PWxvLLjqaw8yrHWnjgM1tHxcqX4pmv1NxVeDz7vhKf++Izo2LkwXjysWqKrHyluurgugsuXls5sspht1c+5wTvszGhY5x9Xlx6QeVv5ZxvGn034he+HF8p7zQMAAAAwPhOSgAs5IuAM+O9a26NNbMint30B3FnUa3OvDzWffpDMasYGfjhpXHTbRvj7ru3RNtHr4gPXrt1OLSde8P62LBoVux/8Lfi5y79hWht21LZ7o5oXf678eVio5mXxprqXXdr93NHfPTyX4yPPbg/5iz/L7Hu8pqxbjMvisuXVw7k4Y7Y8ljEBes+FNWb/5bOvHxtfPqGyvqnPhEf/uCvxm0fH/y8j16+NK793OsNQyz0x1c+dl2879wPxA3LfymWF4/LF8eHNz4VMWtR3H7T4GjDmZeuio8vn1N+zhXlcW+M29b8Qtz95OCexjOxY3xv3PTxW+OiKO5G/Itx+UfvqGyzJT5+26/GpT/3m/HMqDsNAwAAAHCskxYAC6Mj4De/+a/lmrepmZfGLe2rYlYxmq+tI545GHHuhz8dX7r/j2L5ohnx7Oc3xx13bI6v7Lso1tx9a1w+e+h9F8dHH3go7r99WSya8WI8sOWP445NX40Xzr0gZpXXqZt9zX+NL/3D/xEbls+K56v76Ygn6y6LDXdvjy+1XxMj77ExMy69YW1cUDmOZ5+9IJZfOvoafufGhz8z9HnPxuc3DX7evotb4u7bLouhwxpX3aL49f/aUvlOs2J/eROU5+O8WL7mL+L+L/1N/PrwnUzOjWvaH4p/+HRLXD3nUHy1etx/F89UjuzcYmjgcU3sGGdevC4+9w//LdZcPScOPdhR2f8fx4PPzIjL/+yvY/nF5UYAAAAAjGtKcSvg8vlJ8xd/8ZfVv0UQBAAAAADePG9KAAQAAAAA3hondQowAAAAAPDWEgABAAAAIDEBEAAAAAASEwABAAAAIDEBEAAAAAASEwABAAAAIDEBEAAAAAASEwABAAAAIDEBEAAAAAASEwABAAAAIDEBEAAAAAASEwABAAAAIDEBEAAAAAASEwABAAAAIDEBEAAAAAASEwABAAAAIDEBEAAAAAASEwABAAAAIDEBEAAAAAASEwABAAAAIDEBEAAAAAASEwABAAAAILEp3/zmNwfK5wAAAABAMlP6+/sFQAAAAABIyhRgAAAAAEhMAAQAAACAxARAAAAAAEhMAAQAAACAxARAAAAAAEhMAAQAAACAxARAAAAAAEhMAAQAAACAxARAAAAAAEhMAAQAAACAxARAAAAAAEhMAAQAAACAxARAAAAAAEhMAAQAAACAxARAAAAAAEhMAAQAAACAxARAAAAAAEhMAAQAAACAxARAAAAAAEhMAAQAAACAxARAAAAAAEhMAAQAAACAxARAAAAAAEhMAAQAAACAxARAAAAAAEhMAAQAAACAxARAAAAAAEhMAAQAAACAxARAAAAAAEhMAAQAAACAxARAAAAAAEhMAAQAAACAxARAAAAAAEhMAAQAAACAxARAAAAAAEhMAAQAAACAxARAAAAAAEhMAAQAAACAxARAAAAAAEhMAAQAAACAxARAAAAAAEhMAAQAAACAxARAAAAAAEhMAAQAAACAxARAAAAAAEhMAAQAAACAxARAAAAAAEhMAAQAAACAxARAAAAAAEhMAAQAAACAxARAAAAAAEhMAAQAAACAxARAAAAAAEhMAAQAAACAxARAAAAAAEhMAAQAAACAxARAAAAAAEhMAAQAAACAxARAAAAAAEhMAAQAAACAxARAAAAAAEhMAAQAAACAxARAAAAAAEhMAAQAAACAxARAAAAAAEhMAAQAAACAxARAAAAAAEhMAAQAAACAxARAAAAAAEhMAAQAAACAxARAAAAAAEhMAAQAAACAxARAAAAAAEhMAAQAAACAxARAAAAAAEhMAAQAAACAxARAAAAAAEhMAAQAAACAxARAAAAAAEhMAAQAAACAxARAAAAAAEhMAAQAAACAxARAAAAAAEhMAAQAAACAxARAAAAAAEhMAAQAAACAxARAAAAAAEhMAAQAAACAxARAAAAAAEhMAAQAAACAxARAAAAAAEhMAAQAAACAxARAAAAAAEhMAAQAAACAxARAAAAAAEhMAAQAAACAxARAAAAAAEhMAAQAAACAxARAAAAAAEhMAAQAAACAxARAAAAAAEhMAAQAAACAxARAAAAAAEhMAAQAAACAxARAAAAAAEhMAAQAAACAxARAAAAAAEhMAAQAAACAxARAAAAAAEhMAAQAAACAxARAAAAAAEhMAAQAAACAxARAAAAAAEhMAAQAAACAxARAAAAAAEhMAAQAAACAxARAAAAAAEhMAAQAAACAxARAAAAAAEhMAAQAAACAxARAAAAAAEhMAAQAAACAxARAAAAAAEhMAAQAAACAxARAAAAAAEhMAAQAAACAxARAAAAAAEhMAAQAAACAxARAAAAAAEhMAAQAAACAxARAAAAAAEhMAAQAAACAxARAAAAAAEhMAAQAAACAxARAAAAAAEhMAAQAAACAxARAAAAAAEhMAAQAAACAxARAAAAAAEhMAAQAAACAxARAAAAAAEhMAAQAAACAxARAAAAAAEhMAAQAAACAxARAAAAAAEhMAAQAAACAxARAAAAAAEhMAAQAAACAxARAAAAAAEhMAAQAAACAxARAAAAAAEhMAAQAAACAxARAAAAAAEhMAAQAAACAxARAAAAAAEhMAAQAAACAxARAAAAAAEhMAAQAAACAxARAAAAAAEhMAAQAAACAxARAAAAAAEhMAAQAAACAxARAAAAAAEhMAAQAAACAxARAAAAAAEhMAAQAAACAxARAAAAAAEhMAAQAAACAxARAAAAAAEhMAAQAAACAxARAAAAAAEhMAAQAAACAxARAAAAAAEhMAAQAAACAxARAAAAAAEhMAAQAAACAxARAAAAAAEhMAAQAAACAxARAAAAAAEhMAAQAAACAxARAAAAAAEhMAAQAAACAxARAAAAAAEhMAAQAAACAxARAAAAAAEhMAAQAAACAxARAAAAAAEhMAAQAAACAxARAAAAAAEhMAAQAAACAxARAAAAAAEhMAAQAAACAxARAAAAAAEhMAAQAAACAxARAAAAAAEhMAAQAAACAxARAAAAAAEhMAAQAAACAxARAAAAAAEhMAAQAAACAxARAAAAAAEhMAAQAAACAxARAAAAAAEhMAAQAAACAxARAAAAAAEhMAAQAAACAxARAAAAAAEhMAAQAAACAxARAAAAAAEhMAAQAAACAxARAAAAAAEhMAAQAAACAxARAAAAAAEhMAAQAAACAxARAAAAAAEhMAAQAAACAxARAAAAAAEhMAAQAAACAxARAAAAAAEhMAAQAAACAxARAAAAAAEhMAAQAAACAxARAAAAAAEhMAAQAAACAxARAAAAAAEhMAAQAAACAxARAAAAAAEhMAAQAAACAxARAAAAAAEhMAAQAAACAxARAAAAAAEhMAAQAAACAxARAAAAAAEhMAAQAAACAxARAAAAAAEhMAAQAAACAxARAAAAAAEhMAAQAAACAxARAAAAAAEhMAAQAAACAxARAAAAAAEhMAAQAAACAxARAAAAAAEhMAAQAAACAxARAAAAAAEhMAAQAAACAxARAAAAAAEhMAAQAAACAxARAAAAAAEhMAAQAAACAxARAAAAAAEhMAAQAAACAxARAAAAAAEhMAAQAAACAxARAAAAAAEhMAAQAAACAxARAAAAAAEhMAAQAAACAxARAAAAAAEhMAAQAAACAxARAAAAAAEhMAAQAAACAxARAAAAAAEhMAAQAAACAxARAAAAAAEhMAAQAAACAxARAAAAAAEhMAAQAAACAxARAAAAAAEhMAAQAAACAxARAAAAAAEhMAAQAAACAxARAAAAAAEhMAAQAAACAxARAAAAAAEhMAAQAAACAxARAAAAAAEhMAAQAAACAxARAAAAAAEhMAAQAAACAxARAAAAAAEhMAAQAAACAxARAAAAAAEhMAAQAAACAxARAAAAAAEhMAAQAAACAxARAAAAAAEhMAAQAAACAxARAAAAAAEhMAAQAAACAxARAAAAAAEhMAAQAAACAxARAAAAAAEhMAAQAAACAxARAAAAAAEhMAAQAAACAxARAAAAAAEhMAAQAAACAxARAAAAAAEhMAAQAAACAxARAAAAAAEhMAAQAAACAxARAAAAAAEhMAAQAAACAxARAAAAAAEhMAAQAAACAxARAAAAAAEhMAAQAAACAxARAAAAAAEhMAAQAAACAxARAAAAAAEhMAAQAAACAxARAAAAAAEhMAAQAAACAxARAAAAAAEhMAAQAAACAxARAAAAAAEhMAAQAAACAxARAAAAAAEhMAAQAAACAxARAAAAAAEhMAAQAAACAxARAAAAAAEhMAAQAAACAxARA3oZ6or2uLupWdEZfuQQAAACAsZ2kANgXnSvqoq6INKMe519yXdzcvi12Hyg35dR2sC92bL01br7uinjf0O94/iVx3c23xtYePyIAAADAqe4kjwCcHfMWL47FNY8zX9oZ97atjIULV0fn3nIzTkkHd2+NmxfOi6a1m+Pe3S9FQ/kbLpy5J3beuznWtj9qBB4AAADAKe4kB8DGuO2eh+Khh44+vv5cb2zfeGXM3tcVLbdsDQ3wFHWwJzatXhv3Hrwy2rr3RP9zXx/+Df/+G/2xb093bGycWW4MAAAAwKnqLbgG4FnRuO7OuOPKytNHt0WPAnhKOtjTGW27IhbfcWe0Lqkvlx41s35JrGu9Po5dAwAAAMCp5C26CcjcmL+4+NsdvfuqCzjFvNTXW/175gyj/AAAAADezt6iAFjxUvE/i6N+dvXVSAd2x7b2m+OK95U3nXjfFa9745ADex+JLetXHH1P9UYV7fHI3oPlFuWdY+vaK8/GMs76vs5YUSxvH1zat2NLrL/xkji/uu374orKZ2w77h1N+mLHlvVx4yXnDx/Xjeu3xI4xLp7X17miuk31ow48HVtWD37O+TdvO3qtvYN90dPZPuKmHOdfcmOs37JjjOvxjbxb7t5tt8aN1fPzvtj09OAW46mf2xjFT9PTvePEp2mfwO/X015ssyI6iwPs21H5DW+MS84vlp0fl9y4PrZM4EYjB3pG/yabxjy/hQO7B/+dXDf0e0zoNwQAAAB4+3prAuDBntjxaOXvgutjwdzBRUMOPr0pbly4MFa27YxYvDY2btwYaxtfikeLG4csvjm2HRN2DsbTm26MhQua45aOYs5q+Z4rz4zee9uio6daGifBgehpvy4+sHpT9DZcH63FZ6ycHfsqn7Gycryrx7qjyd5HYv0V86Lplm2xd+71cUvlPbdcPzd2d9wSTR+4LjY9PRQnR3s6Nt24OG7p2hPFAMl9Lw1t1xedq+fF0pa22HlwfjRV9rdx49pYUtm+45amyrHVhMJR+h5ZH0tXbo5HqwP7euPgoeri8TU2V6dp7+tqidXrOyd81+YT//1KvZ2x+gOrY9NL82JNa+U9zWfGS492xC1LF8ftO8Y7T8XbVsfCFZvipXlrKr/J2miedzCeuHdD5fyuPvazetqjYWHl38m23TFzyarqsd3SMr/8DW+M9nF/DwAAAIC3ryn9/f0D5fNJ1BedK+ZFS3dTdOy5L5bVXijuwO7YuuHGWHvvwWjpeiLuuuqsckXFgUdi/cLm6IjKY/s9sawmDh7oaY8bl7ZFb0tXPHHXVTH0rr5tq+MDK7sirtwYX+hYFxfW7C76HonOpy+MZVcVB1CMhlsabZX/297fGo2DW9QYZ30xAnBeS3QvXBiLz1oWG0d9RnGn3LXXrY2ufSvj3t7PxvXD656OTVcsjg1PLIy27V+I1saaN+3tjNVLW6KrYWPs/PvK/srFxQjAeS3dsXLlytg988r4bNuymF/7fSrndVt7V5y5al2MvCzfgXjk1oXRvLk+Nu78Wqwb2uHQd2paGSv79sX8OzaPeT2/cR2sfIeVN8aGR4sM2RBNG++MjSuvirkjjqnGG/j9ihGAS9tmx+zZDbHuvpHn6cAjt8bC5s2xb/Hm2PXQqji6u/J7za68r2Fd3PeFyu81/LYDseP2pmi6c1cs2Lgzvnb0ZFR+ki1x6+4lcduy+cOfX7V7S9y48JZ4tHJsvTXHBgAAAJDBSR4B2BMfX31dXHfd0OOSOL9hYazdOT/aukfFv4qnixF7+2bH2ns2j4hHhbMaW6J1ZcS+ju4YnhV6cEdsWt8V+2avjXvuHRX/CvVXlfFvEjxRHy2bj/2MmfNXRVv1jib3Rkf30VGABx7piA1PRFy5+Z6R8a8wd1nc0rqgss+tsXOMqbj37r4w7rprdPwr1Mf1raPjX+GsWHJ9c+Xvrtixe4whdt2PxszbOk4s/hVmXhjrvvBEPFH5XZoaeqN7Q3MsaHhfrNg01nTjN/D7DdsXF95x7Hk666p1cUdxrcidj8ausT5wX3203lUb/wqVc9GyLoq37dqxe+RxXrgmPjE6/hXmXxnNxRs6dsWewSUAAAAAaZzkALgv9uzcGTuHH3ti35VtsX3nF6J1yegMszd2bdsVMXtdLFsy1o0nzooFS6qVJnYNVZpdPbF1X8SC1lUx5lsmU3PlM8bpZ3MXr4ymyt9Hn+6NwUmkB2PXox2Vv02x8spRJaw0f0E1UY0Z7BavaRoeFTimg33x9I5HonPLpri9uJ7ddVfEwqbN5cqxNEfzMed7os6K+de3xn3f6I2dHWvjymoIbIoPXNcePSNmzL6B32/Ygrhy9FzwqrkxvzoUc3f0jhUAF6yKxWOdqLnzh0dwjjWp98DuntixbWts2nRr3FyE6UuWxtqd5UoAAACAZE5yACymAPdHf3/xKAJSSyx8tC2W3jg6HhX2RV8RYfZV1ldvznDsY8GoStO3t6d6jbzFC+YPLjiZFtTHuOPnhnpXb9/gvU0q/zt4E93uaJk39neZfZxg1zh/7GhY5Kynt6yI982eF4ubmqPllk2xY/dL0bBgWaxrKUYhjqOpMRr+w4H0rLhw2SfiC9/YE123LIx9O9tixdrOmhuEnPjvd1RDzB7v5J5Z/M+usa9Z2DB73N+k+rbu3uq/j2F7H4lbrzs/GhYujaaVa6N9y67oPXN+NK5ZFc0Lym0AAAAAknkTbwJSBKS74p6O5pj9RFusuH3HmKOzoriZR/XmFuM/Foy6c/DMmSd7+N8EHXMcV0bLGMdf+7h+7oxy26Oq8WoMfdvWxo23dMfsls2xfc++6O//Rvz9Qw/FZz+xLtatKkbXjW/yzlB9XHXHF6KrZXbs69oQXaNvqfwGfr83xcGno311c2zefWG0dT0Rvf398dzXH4qH7rsr7li3Lpoayu0AAAAAknnT7wI8d1lbbGyK2Ld59ai7u86ImcUorL4F0bxuXaw7zuOqcoDcjDMHx3/17B7jDryTre/g2MGy0NsbRQebvaChHJE2IwYP7cy4snns7zD0WDX6+oDj6ouerq7YFy1xW9uqaKwfmfQOHKgOOXyTnBUXLi4m2e6Lnr1Dc3NP/Pd7U+1+NDY9EbGgtS1arxp9HcC+2Pdmnj4AAACAN9GbHgCL67ot27g5rox9sXnDx2umAs+PBVfOjtjXNeaNMcZy1oWLq9fe27mpO17/LbOjodg4emK4WdV6uie6yqdj6to2xrTlwsHY0bmp8m1mx6rGoanIZ8X8xmJKbldsO/aOF29Qb+yuHmBDnHVMMyyuObitfP7mOHhocLJzQ/3QeMUT//3eTH27B6eLN4w113jvrnh0V/kcAAAAIJm3IABWzF0VbRsXRuy6M27d9HQ5sm5mLGlujYWxKzasvz0eGSPSHdjdGbduqalL9dfHbW3FfjbE+vXbaq5HV+p7JLYO72huzF9SDFHrjjs37YgRWe5AT7Sv31D55OPYtzlu33DsZ+ztXBurN++LuPKOaKm5+cXcprXRMjvi3vW3xNbdY0TAvh2xqX3bmHfTHVtDzC9u9FuNiiNLZHEMa49bL09c37b22PTI7jgwRvQ8sHtrtN2+M2L2LXF949B3fgO/35uofn5jFDOPu7t2jPwNi99+9e3x9FsxLRkAAADgTfDWBMCKC1s+EbcsiHiibX1serqsTBeuK68ReGc0zzs/Lrlxfdy+aVNsun19rLjifdGwsCW6BgeelWbGha33xL0rG+KJjpWx4PxL4rqbb41NlffcuvqSOH9ec2yr2f7ClW3VKLfrzqZYeMnquLXY962r45KFK2Lnms1xS7ndmG7piHUvrY8F77sibr618r7iDrKVY1rQ0hX7GlbGvXeuihEzW8+6Kjbe1xYL93XF2oUN8b4rbh78vOqdZ4tja4oNJzTqrD6uXFfZX+yKO5cujCuq37M8hg0RbRtXldtNkoM9saF5YTTMrovzL7kurivullu9Y25xE4210RWLo+2+20beffmEf7830YXNsbG58uN3t8TSS26M9bcXd1C+sfLbL41t12+M24ZuGwwAAACQzFsWAGNmY9y2cW3MjieibX3H8BTeucvuiSeeuDfaVs6PeLoj7tywITZs3REv1V8Zd3btiidaLyy3HDI3rv/sztjVdWe0NJ4Zvfdujg2V93TvnR/X39kVG6+smfJ51lVx1xPb486WK+PMl7pic2W7TT0zYtXm7fGFVfPHvflG1ZlzY9k9X4vudfNjd3flmDZsjkdfaoiVbffGEzs/G9ePcV27mY2t8fd7uiuf1xSz991b/bwNG7pjdzTGuo7tseee68e/s/AYiv19YXvle145Y/B7tj8a+y68JbY/cU8sm3vcoz9hZy5ZF5vXrozFixfGzD07Y+fO4tEbB+sbo6VyXnc98VC0Do/+O+rEf783S+X32/xQ3Nu2MhoOPRodd26Irqdnx6q7noiHWpcc/7cHAAAAeBub0t/fP1A+Zyx9nbFiXkt0t22P/lbDxAAAAAB4e3nrRgACAAAAACedAAgAAAAAiQmAAAAAAJCYAAgAAAAAiQmAAAAAAJCYuwADAAAAQGJGAAIAAABAYgIgAAAAACQmAAIAAABAYgIgAAAAACQmAAIAAABAYgIgAAAAACQmAAIAAABAYgIgAAAAACQmAAIAAABAYgIgAAAAACQmAAIAAABAYgIgAAAAACQmAAIAAABAYgIgAAAAACQmAAIAAABAYgIgAAAAACQmAAIAAABAYgIgAAAAACQmAAIAAABAYlP6+/sHyueT6tVXX43vfe978corr8SRI0fKpQAAAADAkKlTp8YZZ5wRZ599dkyfPr1cOrlOSgA8dOhQfOc734n6+vrqgU+bNq1cAwAAAAAMOXz4cHUg3Xe/+92YM2fOSYmAkx4AiwN+8cUX4z3veU+5BAAAAAB4Pd/61rdOSgSc9GsAFtN+f+InfqJ8BQAAAABMRNHUvv/975evJs+kB8Dimn8na74yAAAAAGRVNLWXX365fDV5Jj0AFjf8cM0/AAAAADgxRVM7GTfTnfQACAAAAACcOgRAAAAAAEhMAAQAAACAxARAAAAAAEhMAAQAAACAxARAAAAAAEhMAAQAAACAxARAAAAAAEhMAAQAAACAxARAAAAAAEjsLQ+APe11UVe3Ijr7ygXDeqJ9zOWnilP4+Po6Y0VdXbT3lK/HVBz/620DAAAAwNvdKTECsKkpomWrEjU5+qJzfW+09vdHa2O5aEyNE9gGAAAAgLe7U2MKcHNztLUtNRptMvT1xty7WkPXAwAAAKBwilwDcEm0bm+LtqXtcfxZq+1RV1dMGS4fI4phOSW3Z3D6a7F+RXV+7uBU18H3jN5/7bqh7cfTF50rarfdWy4/qq9zxfD6Yz/rqGLa88jPGjWduJzCO7Svoa/5uu8rzs+8pbF03tAxHt22emztneV3KN4z+H1GnsLjnV8AAAAA3o5OnZuANLbG9ra2WDpedCri1NKe6NjTH/39xWNPdPQsHRXEuqOlPeKuYv2ejoiWeVFXtyOWDG3f1BbtR2tZtNctjdg+tL/t0diyfpxr+hWxbF50Ne8pt+2P1t6WaCvXForANq+rOfaU6/d09Iz/XY6rmMLbEo01x7WkXPN6enYUX6d83/a26G7ZOjJCtnUVJ6ey/r5YVl8uGzKh8wsAAADA282pEwArGlu3R1tb+5gRrmdHWzR13FUTrupjWWtbdHftiKObN0XHXcsqayrql0RzU2VJx6pyOmx9LKks6O7trb4qallbU0esGp4r2xirOiK6dozx4X07oqu7LVprqln1WMvnRbTb0dUdba3lZ1fUL2utfJcd444CfD09e4eOozEaJzift7G1Zupv45LK8fXE8G4Kba3Hhr/SxM4vAAAAAG83p1QAHIpwLes7R0WnvtjbU1k7d1S9amiIpu7eKJPeKPUxt3GM95T6ih12t8S8mimv81q6jwbCWpVl3U0N0VC+PFblGLoj2pbWTJ+tW3psgJuQ+lh2355o7ipGL1b2cyKjCEdMHS4+f6LeyPkFAAAA4O3gFAuAxci5u6IjWmL9iGvsDca8o6Piahw3zI2vvthh2/ZyumvNY6zb4o4Vwvr21ozuqxxDU1PN9NmhxxhTbSekiICD+9geSycWAYv4N2/w7r+Dn107QvH1TP75BQAAAODUcMoFwGr8uqsYBjjyGnuNS4pr2tVeo2/wWnnRvKTyjjegmCI70TsP18+NxsrRHL1+YETP1pboLp8Xx7ykeayRi2NraGgaMbW2p712tF5PtNccVLHtkOO+b/QoxWKKc/l0Iib9/AIAAABwSjgFA2BF/bK4q+No+KpqbI3+7Y3RUt7htq5u8KYc972xIXYVjdG6pyN6Rkzbrbmj7giVbas3CSmn5VYeO5aMHGFXv+y+2N44ckrxeCP3hkY5Dm07cl8N0dCzdHgf1RuLlKMSj/u+xlUj1tXtiBMKgJN/fgEAAAA4FUzp7+8fKJ9Pit27d8f8+fPLVwAAAADARJ2MtnZqjgAEAAAAACaFAAgAAAAAiQmAAAAAAJCYAAgAAAAAiQmAAAAAAJCYAAgAAAAAiQmAAAAAAJCYAAgAAAAAiQmAAAAAAJDYpAfAqVOnxuHDh8tXAAAAAMBEFE2taGuTbdID4Lve9a549dVXy1cAAAAAwEQcOnQozjjjjPLV5Jn0APjjP/7j8d3vfrd8BQAAAABMRNHUzjnnnPLV5JnS398/UD6fNEWt/Pa3vx319fUxY8aMmDZtWrkGAAAAABhSTPstWlpfX1/MmTMnpk+fXq6ZPCclABaKacDf//734+WXX44jR46USwEAAACAIcU1/4pL6p199tlx+umnl0sn10kLgAAAAADAW2/SrwEIAAAAAJw6BEAAAAAASEwABAAAAIDEBEAAAAAASEwABAAAAIDEBEAAAAAASEwABAAAAIDEBEAAAAAASEwABAAAAIDEBEAAAAAASEwABAAAAIDEBEAAAAAASEwABAAAAIDEBEAAAAAASGxKf3//QPl8Ur366qvxve99L1555ZU4cuRIuRQAAAAAGDJ16tQ444wz4uyzz47p06eXSyfXSQmAhw4diu985ztRX19fPfBp06aVawAAAACAIYcPH64OpPvud78bc+bMOSkRcNIDYHHAL774YrznPe8plwAAAAAAr+db3/rWSYmAk34NwGLa70/8xE+UrwAAAACAiSia2ve///3y1eSZ9ABYXPPvZM1XBgAAAICsiqb28ssvl68mz6QHwOKGH675BwAAAAAnpmhqJ+NmupMeAAEAAACAU4cACAAAAACJCYAAAAAAkJgACAAAAACJCYAAAAAAkJgACAAAAACJCYAAAAAAkJgACAAAAACJCYAAAAAAkJgACAAAAACJveUBsKe9LurqVkRnX7lgWE+0j7n8nak4Tyve4Mno61wRdSs6w6ms5d8XAAAA8M5wSowAbGqKaNnaU75istUvuy/671sW9eVrAAAAAN45To0pwM3N0da2NNo1QAAAAACYVKfINQCXROv2tmhb2h7HbYA97VFXV0wZLh8jimE5pbOnM1aU6wenzBbLh94zev+1615vim1fdK6o3bZzxBTSY6fojp5iOvL9I4/9WNVpu0PbruiMveXyQaP2Vfu9inNU2b6zOrW6bjCqlsuGDmXEvoe2GceEt+0rzvvI81t97/Ab3sjvM0r1M44ey/D5HvXv4pjfcdT6Ed+ht3afoz5/Iv/eOsttinVjnfvqpsfbDwAAAMDJdercBKSxNba3tcXS8eJIEVGW9kTHnv7o7y8ee6KjZ+mo2NMdLe0RdxXr93REtMyLurodsWRo+6a2aB/evgg4SyO2D+1vezS2rB/nmnBFcJsXXc17ym37o7W3JdrKta9v9PsHj328r1qEs3ldzbGn/Kz+1t5oqf2wvh3RW7uvEd+rorslepeUx9lYLhvWFzt6j+57T0dTtLWPd33AE9l2Ik7k9xmliH/zuqJ5+PffHs3lqp4dxc9YLt/eVvn6W4+GvOq/m5r1lc9tKFeNOJ7y84f//U3031vvksH1Qyd69Lmf0H4AAAAATp5TJwBWNLZuj7a29jEjXM+OtmjquCuWDV/Irj6WtbZFd9eOmiDVFB13lde6q18SzU2VJR2rYjDN1MeSyoLu3t7qq6IatTV1xKrhQNYYqzoiunaM8eF9O6Kruy1aj3744LGWz1/XMe8fPPa2HWMVwL7Y0dUdba011+yrxtHyeaF+2Yh9jfhehRHfa7Tis4/uu35JczR190bNu2ucyLYTcQK/zyg9W1ui8uaa378xlpUvGltby31UNC6p/C49sbf6M/ZFZ3vlPG+vWV85d8uGX9QcT/W7Vk5yz97qv6cJ/3sbfaJHnfuJ7QcAAADg5DmlAmARdYoI17J+9CizvtjbU1k7d7iiDGpoOG68mts4xntKfcUOu1tiXs3UzHkt3WMHqMqy7qaGmpFjJ6h4f7TF0prPqlt6NDaNVPk+3U3FVzuuwbsnHz3uE1I7JXVeS+XYjuNEtj0hx/99Rhrn9x8yYmrw0powO7Fzeaw38u9tLJO1HwAAAIA37hQLgBH1y+6KjmiJ9Z21V70bjEU9g8O6RnqDYa6+2GHb9nJaZs3j2DmzYwebvr0jrxd3PMX7mzqOTukdeox5Z97K92nqLpphjcGQNKSIf+0NR6cjF1NzJ6wIeu0NR49lT0eM++4T2fakOs7vX50a3ButQ8fYXzsyc6xzORGT9e9t8v/dAgAAAJyoUy4AFtFk2V3FMMCR19hrXFJc2632Gn190bm+JaJ5yRgRbQKKqaITvfNw/dxorBxN7fXpiimptaPhGhqaRkzr7GmvGYlWTHetRs0xQtAxBqPRiGvt9WyNo4P8Ro8qG5wyPFHVkY+Nc4fPWd+OrnFH9Z3ItkPnaHhWc19nrD/RkYnHcezv3xOdxYvRozOLqd3l0+JcFtOKR9xcpnJcncMvxjdZ/94m/d8tAAAAwAk6BQNgRf2yuGv0qLbG1ujf3hgt84ameg7eVOO+oxdXO0GN0bqnI3qWDu2veNTetbdWZdvqTUKKm1YMbrtjychrAA6NXByaUjxyfX0su2/k+4vHePGxsbU/tjfWTE/esaTmGoCD15BrGz7u9dHbOPFxefXLWqvhc+gY1vc2jjuq70S2rZ6j6p2cy+NaH9F6IiMTX88xv//S6C0iaOOqEee9bkeM+l3uiz0dPUenX8/rKgYGvr7J+vc26f9uAQAAAE7MlP7+/oHy+aTYvXt3zJ8/v3yVWXEX4fZo2HNfzQ0eAAAAAOCNOxlt7dQcAQgAAAAATAoBEAAAAAASEwDfsOK6gKb/AgAAAHBqEwABAAAAIDEBEAAAAAASEwABAAAAIDEBEAAAAAASEwABAAAAIDEBEAAAAAASm/QAOHXq1Dh8+HD5CgAAAACYiKKpFW1tsk16AHzXu94Vr776avkKAAAAAJiIQ4cOxRlnnFG+mjyTHgB//Md/PL773e+WrwAAAACAiSia2jnnnFO+mjxT+vv7B8rnk6aold/+9rejvr4+ZsyYEdOmTSvXAAAAAABDimm/RUvr6+uLOXPmxPTp08s1k+ekBMBCMQ34+9//frz88stx5MiRcikAAAAAMKS45l9xSb2zzz47Tj/99HLp5DppARAAAAAAeOtN+jUAAQAAAIBThwAIAAAAAIkJgAAAAACQmAAIAAAAAIkJgAAAAACQmAAIAAAAAIkJgAAAAACQmAAIAAAAAIkJgAAAAACQmAAIAAAAAIkJgAAAAACQmAAIAAAAAIkJgAAAAACQmAAIAAAAAIlN6e/vHyifT4qH906JT//LQOztn1IuAQAAAABez9y6gfjYz06Jq+dOaq6b/BGA4h8AAAAAnLiiqRVtbbJNegAU/wAAAADgjTkZbc01AAEAAAAgMQEQAAAAABITAAEAAAAgMQEQAAAAABITAAEAAAAgMQEQAAAAABITAAEAAAAgMQEQAAAAABITAAEAAAAgMQEQAAAAABKb0t/fP1A+nxQ/+/kp5TMAgFPZ6XFvy4xYNKN8WTUQL377h/G/P/hq/GP19Yx4ZO3pcV71+VHPf/P/i6v+oXxx9rT41BXT47KzTou6aYOLDh06Els7fhB/OvT+f/9hvOevDw2urBq1/INnxLd+pvb/LzsQ/f9+JDq/djD+9IXi9fGOYyLf46ibb3xX/F595b/XKp+9pPLZ3y6XT+x8HOt/vWBG/OWiaXHejKH/BhyIp55+OZq/FrH6hnfFH7571H8bVs7Nn1TOzT1D3/nwkej468q5+p/l+orB9w1E5+ZX4veGX0c8vvPlWLlrcJuqBT8S/8/iqbG/9veoOj26fmNGXFT5PZ7/5suVdZP6n7sAACfdv9w0uf/9YgQgAPDOdvi1+OqeH8bf7TkcT70SMefd0+OT15Ylb8grRyrri20GHw9/p1x+7ox45MaZ8aFzKv9JVdmmup/eI/HikYi6cpMTsb+v3H/fQMz4sWnRcsXMaC7XVY13HIWJfI+YHledPSX2v/JaxI9Njd/7yXJxrQntp/TTM+P/vOz0OG/qQDz1r4PH9NV/q/zH6vRyfdVAPN979Jj/7rnD8Wy5pmra1Fh11fR4d/lyUrx/Wlww7bXK94w47yenx/vLxQAA71QCIADwznZkIP7x0UPxO48ejOYvHI4XK4tmnTV1cN2QQ69V1hfbDD4++T+KhVPjsz9/epw3bSAef/yV+N+2/iBWF+u7fxBX/fcfVEeunaj+fx/c/81feCU6+gYizjgtrj+/XFkY8zhKE/ge7/75qXHRtNfi2Sdfq6w/LS66cNT3LEzkfAz5ydNiVnXE3yvR/KXBY1r9QOX5iNF4Eft7jx7z7/zjD+Ofy+WF/kMDMaP+9PjkgsmaRTIl/qRhasx45bX4bN9rEXVTY/VYoRMA4B1EAAQAGPKjZYQ6MoEpFwumx6K6iEN9r8bKp14rF06efztcPnkjxvweU+Lm+qkRr7wWXbsOx/PF6L760+P6cu2YXu98vFosnxIX/NSMuP5HBxedqP29P4ynDk+JRY0zY3W57D/kR6fHRedU9ls5gfc891rsL0JnMRcYAOAdTAAEAN7Zpk6Jn79yRnzqypnRddXUmBOvxcNPv1quLP3Y6fGttf9L+XhX3LugsuycKdVpvi/++w+rm0yeKfH+BTNjdXGdvldei23PlYsLYx3HkNf7Hj85PS4rw9i2OBxd//ZadYRh80+X64dM5HwM+dqrsfXfiunKp8df3vSueKRp+hghcEosWjx0zJXHL4+4yGDEkVfjt589EodmTI2bm44X6kbtp3gsnnrMVOv3v39qXFA55mefOxxRTDd+JWLWOdNGTqUGAHiHEQABgHe2aafFZfNOjw/NmxYXxWvx51/8QdxcO7W2MOLae4fjke+VyyfZeT9ThK13xX2Lpw2Gt55D0VWuqzrecbzO93j/BUXMK67HNzi0cNvQ6LifPr36ethEzsewI/GHD7wSv/3k4Xj+0JQ4r2F6/OXyH4k/ObdcXTXqGoD/eqRcftS3v3awGhJnVd7/2RHvrTVqP8Wj97WovbVKMS17ZX3lP28PDcQ/Vo/5cGyrhs6p0VwbSwEA3mEEQADgna24K+3ml+O397wWh86YGjcvnHbsDSlGXXvvnuLmG68MVONT3RlvYHrpjxb39T3W0E1ANn/1B9H0V6/Ezc+Omno71nEMOe73mBY3v7v4z76aUXRXTItZlSV19ZV11W1KEzkfIwzEtn8+GFd1VN7z9JHonzE1Vi0acReQkdcA/Oex5jYPxJ9+7XA8f/i0uPrnZ4z7eSP2Uzx6B3+DYeefXp2WHZVj+MNylOAnGwa/90XzRoVOAIB3EAEQAKCIWI/+oHrjjbp3T4+/fP8Ebkjxz4fj2cNRHbX2qfPH234g+ove9WOnxZ/UTI1990WnxZzK3/3/c+RouKGbgHzy2SPx/5bLTsw43+Onp8UFZ0Qc+vfDI0bQffXfB6oj/q465ja5b+B8FO/5WuWcFEXuR6fGysGFE/edQ/En/1rctGNaLDunXHaCmn968KYkI0cKFmExYsbZ0+I/l9sBALzTCIAAAFUD8cnHi1g0JS5678xYXXstuxmnxaeq18UrH+8vRv39MP782SPRX/nPqQ9ddUb88y//SHy2WNf0I/GPLT8Sf15946uxrbibb0yNVcvPiHuvnRGfveGM6H7v1IjDr8VXnxprNNxxjHkcox37PZrPHwxjz/6PgyNG0K1+5rXK8Ve2axg5Ym/Qcc5HaXVTzfeuPO755emxaEZE/78djnvLbQqzGmqOufIY7668xd2HH+6fEnUzJhIcR5sW159T+U/bynnt6j76HYu7Gd9b/AbTpsZlHyg3BQB4hxEAAQCGFKPQXnitOoX0dz5YM2X0jKnxoep18crHT02tLv7nr/0gVnz1h4M3mvixqXF1sa7htKg7MhDfqm4Rcc+DB6Oj97Xon3paLPqp0+PqYipucS2/ynt/r3YK70SMcxzHGPE9ZsbKnxwMY488Va4fsqscsXfO1BEjFIeNdz5K+18ZiBk/etrg9648Lqvs4/neV+O3H6y9MUpxbcCaY543La46u1x1jCNx8z8ejhfLVyfkotNjUTHK8XuH47PloiH3/GsROiMu+MnxpxcDAGQ2pb+/f9TFZf5jfvbzb+T/YwsAAAAAFP7lpknNdUYAAgAAAEBmAiAAAAAAJCYAAgAAAEBiAiAAAAAAJCYAAgAAAEBiAiAAAAAAJCYAAgAAAEBiAiAAAAAAJCYAAgAAAEBikx4A59YNlM8AAAAAgBNxMtrapAfAj/3sFBEQAAAAAE5Q0dSKtjbZpvT396t1AAAAAJCUawACAAAAQGICIAAAAAAkJgACAAAAQGICIAAAAAAkJgACAAAAQGICIAAAAAAkJgACAAAAQGICIAAAAAAkJgACAAAAQGICIAAAAAAkJgACAAAAQGICIAAAAAAkJgACAAAAQGICIAAAAAAkJgACAAAAQGICIAAAAAAkJgACAAAAQGICIAAAAAAkJgACAAAAQGICIAAAAAAkJgACAAAAQGICIAAAAAAkJgACAAAAQGICIAAAAAAkJgACAAAAQGICIAAAAAAkJgACAAAAQGICIAAAAAAkJgACAAAAQGICIAAAAAAkJgACAAAAQGICIAAAAAAkJgACAAAAQGICIAAAAAAkJgACAAAAQGICIAAAAAAkJgACAAAAQGICIAAAAAAkJgACAAAAQGICIAAAAAAkJgACAAAAQGICIAAAAAAkJgACAAAAQGICIAAAAAAkJgACAAAAQGICIAAAAAAkJgACAAAAQGICIAAAAAAkJgACAAAAQGICIAAAAAAkJgACAAAAQGICIAAAAAAkJgACAAAAQGICIAAAAAAkJgACAAAAQGICIAAAAAAkJgACAAAAQGICIAAAAAAkJgACAAAAQGICIAAAAAAkJgACAAAAQGICIAAAAAAkJgACAAAAQGICIAAAAAAkJgACAAAAQGICIAAAAAAkJgACAAAAQGICIAAAAAAkJgACAAAAQGICIAAAAAAkJgACAAAAQGICIAAAAAAkJgACAAAAQGICIAAAAAAkJgACAAAAQGICIAAAAAAkJgACAAAAQGICIAAAAAAkJgACAAAAQGICIAAAAAAkJgACAAAAQGICIAAAAAAkJgACAAAAQGICIAAAAAAkJgACAAAAQGICIAAAAAAkJgACAAAAQGICIAAAAAAkJgACAAAAQGICIAAAAAAkJgACAAAAQGICIAAAAAAkJgACAAAAQGICIAAAAAAkJgACAAAAQGICIAAAAAAkJgACAAAAQGICIAAAAAAkJgACAAAAQGICIAAAAAAkJgACAAAAQGICIAAAAAAkJgACAAAAQGICIAAAAAAkJgACAAAAQGICIAAAAAAkJgACAAAAQGICIAAAAAAkJgACAAAAQGICIAAAAAAkJgACAAAAQGICIAAAAAAkJgACAAAAQGICIAAAAAAkJgACAAAAQGICIAAAAAAkJgACAAAAQGICIAAAAAAkJgACAAAAQGICIAAAAAAkJgACAAAAQGICIAAAAAAkJgACAAAAQGICIAAAAAAkJgACAAAAQGICIAAAAAAkJgACAAAAQGICIAAAAAAkJgACAAAAQGICIAAAAAAkJgACAAAAQGICIAAAAAAkJgACAAAAQGICIAAAAAAkJgACAAAAQGICIAAAAAAkJgACAAAAQGICIAAAAAAkJgACAAAAQGICIAAAAAAkJgACAAAAQGICIAAAAAAkJgACAAAAQGICIAAAAAAkJgACAAAAQGICIAAAAAAkJgACAAAAQGICIAAAAAAkJgACAAAAQGICIAAAAAAkJgACAAAAQGICIAAAAAAkJgACAAAAQGICIAAAAAAkJgACAAAAQGICIAAAAAAkJgACAAAAQGICIAAAAAAkJgACAAAAQGICIAAAAAAkJgACAAAAQGICIAAAAAAkJgACAAAAQGICIAAAAAAkJgACAAAAQGICIAAAAAAkJgACAAAAQGICIAAAAAAkJgACAAAAQGICIAAAAAAkJgACAAAAQGICIAAAAAAkJgACAAAAQGICIAAAAAAkJgACAAAAQGICIAAAAAAkJgACAAAAQGICIAAAAAAkJgACAAAAQGICIAAAAAAkJgACAAAAQGICIAAAAAAkJgACAAAAQGICIAAAAAAkJgACAAAAQGICIAAAAAAkJgACAAAAQGICIAAAAAAkJgACAAAAQGICIAAAAAAkJgACAAAAQGICIAAAAAAkJgACAAAAQGICIAAAAAAkJgACAAAAQGICIAAAAAAkJgACAAAAQGICIAAAAAAkJgACAAAAQGICIAAAAAAkJgACAAAAQGICIAAAAAAkJgACAAAAQGICIAAAAAAkJgACAAAAQGICIAAAAAAkJgACAAAAQGICIAAAAAAkJgACAAAAQGICIAAAAAAkJgACAAAAQGICIAAAAAAkJgACAAAAQGICIAAAAAAkJgACAAAAQGICIAAAAAAkJgACAAAAQGICIAAAAAAkJgACAAAAQGICIAAAAAAkJgACAAAAQGICIAAAAAAkJgACAAAAQGICIAAAAAAkJgACAAAAQGICIAAAAAAkJgACAAAAQGICIAAAAAAkJgACAAAAQGICIAAAAAAkJgACAAAAQGICIAAAAAAkJgACAAAAQGICIAAAAAAkJgACAAAAQGICIAAAAAAkJgACAAAAQGICIAAAAAAkJgACAAAAQGICIAAAAAAkJgACAAAAQGICIAAAAAAkJgACAAAAQGICIAAAAAAkJgACAAAAQGICIAAAAAAkJgACAAAAQGICIAAAAAAkJgACAAAAQGICIAAAAAAkJgACAAAAQGICIAAAAAAkJgACAAAAQGICIAAAAAAkJgACAAAAQGICIAAAAAAkJgACAAAAQGICIAAAAAAkJgACAAAAQGICIAAAAAAkJgACAAAAQGICIAAAAAAkJgACAAAAQGICIAAAAAAkJgACAAAAQGICIAAAAAAkJgACAAAAQGICIAAAAAAkJgACAAAAQGICIAAAAAAkJgACAAAAQGICIAAAAAAkJgACAAAAQGICIAAAAAAkJgACAAAAQGICIAAAAAAkJgACAAAAQGICIAAAAAAkJgACAAAAQGICIAAAAAAkJgACAAAAQGICIAAAAAAkJgACAAAAQGICIAAAAAAkJgACAAAAQGICIAAAAAAkJgACAAAAQGICIAAAAAAkJgACAAAAQGICIAAAAAAkJgACAAAAQGICIAAAAAAkJgACAAAAQGICIAAAAAAkJgACAAAAQGICIAAAAAAkJgACAAAAQGICIAAAAAAkJgACAAAAQGICIAAAAAAkJgACAAAAQGICIAAAAAAkJgACAAAAQGICIAAAAAAkJgACAAAAQGICIAAAAAAkJgACAAAAQGICIAAAAAAkJgACAAAAQGICIAAAAAAkJgACAAAAQGICIAAAAAAkJgACAAAAQGICIAAAAAAkJgACAAAAQGICIAAAAACkFfH/AyicrccjS1OzAAAAAElFTkSuQmCC;" vertex="1" parent="1">
          <mxGeometry x="-409.99" y="500" width="375.96" height="262" as="geometry" />
        </mxCell>
        <mxCell id="uWF2si1FAwXb73x0F3vI-9" value="" style="endArrow=classic;html=1;rounded=0;exitX=1;exitY=0.5;exitDx=0;exitDy=0;entryX=0;entryY=0.5;entryDx=0;entryDy=0;" edge="1" parent="1" source="uWF2si1FAwXb73x0F3vI-1" target="uWF2si1FAwXb73x0F3vI-2">
          <mxGeometry width="50" height="50" relative="1" as="geometry">
            <mxPoint x="-520" y="750" as="sourcePoint" />
            <mxPoint x="-470" y="700" as="targetPoint" />
            <Array as="points">
              <mxPoint x="-553" y="345" />
            </Array>
          </mxGeometry>
        </mxCell>
        <mxCell id="uWF2si1FAwXb73x0F3vI-11" value="Registro" style="edgeLabel;html=1;align=center;verticalAlign=middle;resizable=0;points=[];" vertex="1" connectable="0" parent="uWF2si1FAwXb73x0F3vI-9">
          <mxGeometry x="-0.0401" y="1" relative="1" as="geometry">
            <mxPoint y="-4" as="offset" />
          </mxGeometry>
        </mxCell>
        <mxCell id="uWF2si1FAwXb73x0F3vI-10" value="" style="endArrow=classic;html=1;rounded=0;exitX=1;exitY=0.5;exitDx=0;exitDy=0;entryX=0.002;entryY=0.575;entryDx=0;entryDy=0;entryPerimeter=0;" edge="1" parent="1" source="uWF2si1FAwXb73x0F3vI-1" target="uWF2si1FAwXb73x0F3vI-3">
          <mxGeometry width="50" height="50" relative="1" as="geometry">
            <mxPoint x="-520" y="750" as="sourcePoint" />
            <mxPoint x="-470" y="700" as="targetPoint" />
            <Array as="points" />
          </mxGeometry>
        </mxCell>
        <mxCell id="uWF2si1FAwXb73x0F3vI-12" value="Recuperar senha" style="edgeLabel;html=1;align=center;verticalAlign=middle;resizable=0;points=[];" vertex="1" connectable="0" parent="uWF2si1FAwXb73x0F3vI-10">
          <mxGeometry x="-0.1677" relative="1" as="geometry">
            <mxPoint y="19" as="offset" />
          </mxGeometry>
        </mxCell>
        <mxCell id="uWF2si1FAwXb73x0F3vI-13" value="" style="shape=image;verticalLabelPosition=bottom;labelBackgroundColor=default;verticalAlign=top;aspect=fixed;imageAspect=0;image=data:image/png,iVBORw0KGgoAAAANSUhEUgAAA4sAAAN/CAYAAAB3EE1sAAAAAXNSR0IArs4c6QAAAARnQU1BAACxjwv8YQUAAAAJcEhZcwAADsMAAA7DAcdvqGQAAP+lSURBVHhe7N0J3BxFnfj/eu7cCUEg4UaQ+5BDA0EOOYKAIOCCxANdAS9cL7zY/a+rv11XPEB2FXVBhF1Qwik3CSIQwhFBjnAGEhICCQECCXlyP+e/PzXTYcjkSZ5jZp7p8HnnNa880zPTU9NdXVXfrurqms5EkCRJkiSpQG3+f0mSJEmSVjNYlCRJkiQVMViUJEmSJBUxWJQkSZIkFTFYlCRJkiQVMViUJEmSJBUxWJQkSZIkFTFYlCRJkiQVMViUJEmSJBUxWJQkSZIkFTFYlCRJkiQVMViUJEmSJBUxWJQkSZIkFTFYlCRJkiQV6XOw+Nprr8WHJEmSJGnD0adgkSDxq1/9avi3f/u3sGrVqvxSSZIkSVLW9TpYJFD89re/Hd54443wrW99KzQ1NeVfqaDFM8OkC88Oxx+wTdhqq23CPod+InzrxpfzL5bGoxcm6z79pvB6/vk7LQ6P/v7t7z/g+HPDPYvzL0mSJElShvUqWEx7FOfOnRv+53/+J+y44475Vypo5aPhws8cHn746K7hW5c/HJ566olw4/mfCpusas6/ofye/v1nw8du2iR86+onku9/OPz+9C1DsINVkiRJ0gagpjOR/7tb0h7Ffg0Uw8rw4E8+FM6a+4Nw44XHh63yS8uBnsWPPfqr8Mglx4dN88tyXg83nv6BcMmhfw03fWaH/DJJkiRJ2jD0qGcx7VGcPHlyaGtrC//yL/8STj755LU+pk+fnv9UGax8LEz6zYJw8unrCBQf/U3Yaqszw08uPDscus+Z4cbXXw6Tzjkt+Zsho/uFQ8+6Ijy9Mv/WONT0ijDp8q/mXj/gzHB5+mLUHB78/WnhAIa6nvyjcE8c6bppOOCU48LcX/5L+OGNM0PR6NOVM8ONP8x/3wGnhQsfTN5RlCbedlP44acPzA1j/fSPwqTVo2gZ4ppPzz6HhbMufzr3Hfl1XH7jJeHTDH/d5xPhh7kESZIkSVLJ9Hk21H7RvCC8HMaFXbfMP3/9pnB6EmwRcG211W/Co/nFIdwRZm7yjXDPoxeHj206LOx6+q/CxEfnhJdf/t9w8sx/Cb+ZXHAl4h2Tw+v7/Dh57xNh4ldC+OfPXBAeTOPF5LXmA34V7n7qz+H0VX8I37rp6bh406N+Ea7+t13D0z86POz+jgBzcbjnR6eGHy04Llx493NhxtXHJWlMx6cWpKnpnvCjz9wR9v7J/Uma5oSrj58bzjjnmuS35Ya4/nDV58ONpPfuH4ctr/hs+M3qBD0Wpq7aP1k3aW0Kl3zr5pBLkSRJkiSVRo+Cxc022yz8+te/Doccckior68PP/7xj8M111yz1sfOO++c/1QZNA0LmyYB09wF+eebjgvnP/VEuPu8cfkFqXHh+EPTvsemsOqFa8OPTv9EOPnQz4ZznwlhZWHn4ac/FY7fbXjyx/Cw21HHhXELXgivp5c/jjsuHJW8NmD4PuGAo0JYkHxxridxQNjhY/8Wrnng4XD1p1eFX37kC+FqIr3Fj4VJV2wSvvKVk8NuwweEAVudHE4+IH4g8XaaXp96bbhi7s3hq2Nzge7Ys+8IYfKCsCAJ/e75zWPhsXNPDLsTAO9+avjNMwvCzNUJ2juMO3S3MHxAktZ99idBYYET60iSJEkqoR73LBIw/uIXvwjvec97whe/+MXw/PPP51+poOG7hv3HLQg33fRoyMV7A8Lw4cPDsHVMyLr4nv8XTjl/QTj+/KvCNffcFn69ZlzZ1JSEk3nrm6QmCdre8ZYBm4YDzvpx+P7+k8OkR19PPr8qNIdhYdiw/OuJTTd95xWPq+36gzDxZXo708dXwj75lz59+RMFy+eESz7WxTqS8HKxE+tIkiRJKqFeDUNNexi33HLLfgoYNw1HfesHYdg1XwhnXHhPmPn64rB48cvhhWe6ngl11eIFYcGwLcMmw0NY+fLkcNMd+RdSN/0xTHqZ0HNxePCmP4Q79j4k7NZVbBa9Hu75/RXhnpmvJ9+9OLz84M3hpqm7hgN2SD606a7hkEOmhnPPvSY8vXhlWLn46fDg08U339h010PCIc/8NvzmxpdzQW/yvqsnMaB0+7DPyZuEK87/Y+BSxyTF4fV7rgn3rP3+HZIkSZJUcr2+ZrGwh/H888+v+E35B+x2erj86h+HA164IHxm3z3D7rufGM55dMvw/V8fkoRaxTY96svh35p+Gz681YHhjElN4dA1exb33jIsuOSzYZ+t9gzfenDvcPmFnw7rnuO0KQwLj4XzP/OB5Lv3DB87Z2rY4de/Cp/ejde2CqdceFv4ZtMfwxm77xTe95Gfhkeb19LtudXJ4cIbvxzCL08M72OCm8/8IQloN0leGBAO+OaE8Ot9poZv7c4kNseEb00KYZOCnkpJkiRJKqce3zpjTcyQCoLHrOr69hiSJEmS9O7U59lQCRKzHChKkiRJkor1OViUJEmSJG14+jwMVZIkSZK04bFnUZIkSZJUxGBRkiRJklTEYFGSJEmSVMRgUZIkSZJUxGBRkiRJklTEYFGSJEmSVMRgUZIkSZJUxGBRkiRJklTEYFGSJEmSVMRgUZIkSZJUxGBRkiRJklTEYFGSJEmSVKRm+vTpnfm/JUmSJEmKapqbmw0WJUmSJEnv4DBUSZIkSVIRg0VJkiRJUhGDRUmSJElSEYNFSZIkSVIRg0VJkiRJUhGDRUmSJElSEYNFSZIkSVIRg0VJkiRJUhGDRUmSJElSEYNFSZIkSVIRg0VJkiRJUhGDRUmSJElSEYNFSZIkSVIRg0VJkiRJUhGDRUmSJElSEYNFSZIkSVKRPgWLK1asCN/4xjfCsGHDVj+uvvrq/Ktrl35m6tSp+SUh/s1nWf7HP/4x/PSnP82/UlqkbX3pK7S238dzlvcUv7Ecv4u0/Ou//muYMWNGfknvrfl7e7KtJEmSJG1Yeh0sLly4MHzyk58Mp556amhubo6PF198MSxfvjz/jrW7+eab42f233//+JwA5dZbbw2PPPJIuOCCC8KnPvWp8L3vfS++Vg2GDh0a05b+xrFjx8bfze/f0Pz3f/93/H3pbx08eHCvAmNJkiRJ2dfrYPHiiy+OQV0a9GHkyJHhc5/7XP7Z2hGMFH4ma0455ZQwfvz4cOedd+aXbBgICpcuXRr23nvv/JIQjj322DBw4MD8M0mSJEnvJr0KFulVmz9/fthxxx3zS4oxhPHCCy8MJ554Yhx+yWf4e9ddd109xJEA5Zxzzgn/9V//Ffbdd9/Vw0QLhz/y2TWHRTLk8sADD1y9vHBIa6H0O3kP/y9YsCD/Ss7a1t0dBFRPPvlkTH86hJYHaUqHg/JaOqST5c8++2xcnir87sKhrYXr62rIa+F7/vM//zO/NKerbVOYnsLlKYLCPfbYI3z3u99da6/p2tLF+/ibnuE119vV93WVvnRd5Jl0O3a1jrWlRZIkSVJp9SpYfPPNN+PwzLTXqTAAKLwuj963Sy65JPZA0uv45z//efVw1QceeCA28n/yk5+Er3/963GoJ712hdIALh0Wyet813e+851w2WWXrV7XRRddFJcXYt3/7//9v9gLyPtIR2FvIOk85JBD4muvvfZaDP7WXEd30Euapu+8884L119/fVzOkM7Ro0fH5XzvtGnT4nKk2yj9HL2tvJ80p0NyWc6w3DV79kjjueeeu/o99P7dddddq1/ratvw/Wl6eKytd5fty77adttt3xGEEZxNnjx59WdJL8OJMWfOnPDUU0/F5XfccUeYMGFC/Nzavm9d6UvXtckmm4T7778/bLnlljEQPuuss1a/l3W/8sor691GkiRJkvquV8HixhtvHJYsWbI6mHjf+94XG/g04IcMGRKXgUCNIDFF8EdASTDy8MMPx6CzK6ybAO6kk07KL8nhM1wzyHeC9X/kIx8Jjz32WHye4vMEK8cdd1x8zvtID3iNntFx48bF9Gy22Waxd3Nd6VnTqFGjYpDCutLeL9bHet966634njPPPDP+z/u4ThPpNktfwxFHHBE/x2tsv65697Dm799rr73CYYcdFv9e17Zhn910003r7UFNg18CQnp9SdNLL70UfvzjH8ffyOOMM84Is2fPju/fZpttVv+WtKeZz6zt+9a371gX2wKsgyCUHufCPLNs2bL1biNJkiRJfderYDHtyXn++efj/91B0ECAQSBCT14a4HSFYIGAlKCjNwhMuAavK2tOXMOju9dS0ntIDxhpJKBKJ/lhfayXSX4I/nqDnj16QU8//fS1DrEkcOuNNKAHwVc6pLMrBNn8lrlz58bnv//979+xrdY3CVFPv29tCB7pUUy/k/Wx3vVtI0mSJEl91+tgkeGBDIdMhxCuD4HidtttF/8mAKHXcF3odaJnkIl0ChE8/ulPf1r9vfQuTZw48R0Ts4BhjASb6fBP3nfllVfGv0k/vVPpkNGeYAgpgSDBFEEKQUwa0NJDxndutNFGMe3psFfexxBKpIF24e/ifbyf3wz+5zcWBmspfie/N+1V4/elw1C7s20YaspwUYaVFiKNl1566erAi//nzZsX/956663jtutNT17h93V33yHdToVDhwutaxtJkiRJ6rteBYugh+fnP/95nP00HZ7I3wzFXBuGkzLUk/dxnSLDCtfna1/7WgzM0vXTO8n3fv/733/H8MQvfOELcXmhNKA9++yz4/vohUqHOGLNdTMBztqCIYK/9Lt4IL1OLh1Gmb5OAEzwAoZmEmCxnO9luGhqze/m+k2WEaClQ1oZGsuEM2v+Lp7znfxu3sf1e2kv7bq2DT176fcR8BYOgwW/Z5dddonfu+Zn6XFlCG/6nTzW11O4tu9bV/rWRHp+8IMfrN6GPNg2DPFd3zaSJEmS1Hc1zc3Nnfm/JUmSJEmKet2zKEmSJEnacBksSpIkSZKKGCxKkiRJkooYLEqSJEmSihgsSpIkSZKKGCxKkiRJkooYLEqSJEmSihgsSpIkSZKK9DlYbGtry/+lSnGbS5IkSSq3mubm5s783z1yyy23hD/84Q9h6dKlYerUqfmlqoSxY8eGwYMHhzPOOCMcffTR+aWSJEmSVDq9ChZvvfXWGCh++9vfDuPGjcsvVSVNmjQp/PznPw9f+MIXDBglSZIklVyvgsWTTjopfOc73zFQ7GcEjOedd1647rrr8kskSZIkqTR6fM0i18stW7bMQLEKHHXUUXEYsNcwSpIkSSq1XvUsDhs2LHR29upSR5VYTU1NSPZh/pkkSZIklYa3zpAkSZIkFTFYlCRJkiQVMViUJEmSJBUxWJQkSZIkFelzsPjqhBPiJCvveJwwIbyaf32dpp4bTpjQrXeW1qsTwglrpPncqfnXuonf3dPPSJIkSVJW9DlYHHXqDXFm1M75V4aP/eTB3N83nBpG5V+vWmla4+PBEA6o6Z/AtcD5558fXn21OA0su+CCC/LPJEmSJKn8yjYM9R09jgU9jYXLz70nvzB6NUw44e2evrcDt6nh3PyytfZYTj139Wdqas5N3p3zju9Zbw/g/uH7SbAbxl8WPz/13HR97wwg315+QrjsxfxClCANv/3tb8PZZ58dDjrooDB//vz80hD/Ztk3v/nNcPHFF+eXSpIkSVJ5lSdYTIKn0RNODfPzPXcP7j8+fImg69UJ4Uvj9w8P5pcfGs7Jf4CPjA4TTp2/uqdv//FfCnxk6rkHhOQDueVr9lgynDS+nHt9/pVTwwFEZXxPwfd/f//8+9dl1KHh1I/l/tz/+/nv65wfTp2QCyD5TQdMvTK/zt+FbafeGN9bqjSceOKJYdtttw0zZ84MBx98cOxN5MHfLNthhx3Ccccdl3+3JEmSJJVXWYLFqfecE37y/bcDu/0/d2UIL74YXr1nQghXfi6kcdP+h/4k/9fUcM85PwnfP3X1J0L+I/E95xxwQgwc17Tm+kad+v3wk6nJ9xD4hfFhdG8vKiQAjD2Co8P4G6eGFwla3/GbRoVD85FlqdIwatSoMGXKlLD99tvH4HDs2LHxwd8su/fee+N7JEmSJKkSyjYMtWT2/37syQtfSoK37k6ckwRzp97QGToPvadbQ0CjV+8JE8K2yb+p4dzRL4bv53sEH0zj2R7reRq23HLLcPfdd4ftttsuzJ49Oz4IFO+5554wevTo/LskSZIkqfzKEizG3sBz3w7spl42PoRttw2jtt0/3DjhnreX35MOQ90/HPqTc8K5Bdcp5j+SR+A1P1wZXkz+vW3Uoaeuvs4Qr044N5yzf/I9+ecx0Eyival0Da4LPYmjxydvPzWMevXFMPVjBI2gxzP+kaTlY+Gce1Z/U7hnQm4YasnSkLfVVlvFXkQCR4alEijytyRJkiRVUnl6FpMAiesUR+cndzkgPBhuYIjpGsvvCW932+3/fa5THB2X19RwEeANgY+8PakM1zS+PdwzGnVq+B3XCObXF6+T5OLA1cNIk0eyqreHtxY454D8epPH6Anh1Pn56wqTdX5/dRrvCWkSR536u3Dl1PQzXwov7p+/wLEvaegCwSEBYxo0SpIkSVKl1TQ3N3fm/+62YcOGxSGa6n8Eo8k+zD+TJEmSpNKo/msWJUmSJEkVZ7AoSZIkSSpisChJkiRJKmKwKEmSJEkq0uNgsa2tLRxwwAH5Z+pv7Av2iSRJkiSVUo+Dxfr6+jBkyJAwadKk/BL1l9tvvz3OTMs+kSRJkqRS6tUw1DPPPDP84he/MGDsRwSK5513XtwXkiRJklRqvbrPIggUL7roorB06dLw4IMP5peqEhh6So8igeK4cePySyVJkiSpdHodLKa4Xs5hkJXlNpckSZJUbn2eDdWgpfLc5pIkSZLKzVtnSJIkSZKKGCxKkiRJkooYLEqSJEmSihgsSpIkSZKKGCxKkiRJkooYLEqSJEmSihgsSpIkSZKKGCxKkiRJkooYLEqSJEmSihgsSpIkSZKKGCxKkiRJkor0OVhsa2vL/6VKcZtLkiRJKrea5ubmzvzfPXLLLbeEP/zhD2Hp0qVh6tSp+aWqhLFjx4bBgweHM844Ixx99NH5pZIkSZJUOr0KFm+99dYYKH77298O48aNyy9VJU2aNCn8/Oc/D1/4whcMGCVJkiSVXK+CxZNOOil85zvfMVDsZwSM5513XrjuuuvySyRJkiSpNHp8zSLXyy1btsxAsQocddRRcRiw1zBKkiRJKrVe9SwOGzYsdHb26lJHlVhNTU1I9mH+mSRJkiSVhrfOkCRJkiQVMViUJEmSJBUxWJQkSZIkFTFYlCRJkiQVKUmw+Mtf/jI899xz+WchrFixInzpS18K999/f35JMd7P5yRJkiRJ1acsPYsDBw4Mv/vd78KBBx6YX6LuOP/888Orr76af/Y2ll1wwQX5Z5IkSZJUfmUbhnrxxReHN998M/Yg/vu//3vsaeQ2D/xPzyO4R+Cay/nMRz7ykbjs/e9//zt6LDdkv/3tb8PZZ58dDjrooDB//vz80hD/Ztk3v/nNuE0lSZIkqRIqcs3ifffdF4Md7s24xRZbhEcffbTL5RtvvHGYOHFiXHbVVVeF2267Lb53Q3fiiSeGbbfdNsycOTMcfPDBsTeRB3+zbIcddgjHHXdc/t2SJEmSVF4VCRbpKdxpp53i34cddlj8H10t/+Mf/xh7FnfeeefYs5j2RG7IRo0aFaZMmRK23377GByOHTs2PvibZffee298jyRJkiRVQkWCxZ5gUpxZs2bFnsU33ngj9ji+W2y55Zbh7rvvDtttt12YPXt2fBAo3nPPPWH06NH5d0mSJElS+VVdsPjiiy+G9773vfHv6dOnh3nz5sW/3y222mqr2ItI4MiwVAJF/pYkSZKkSipJsMhENQwZZegoj3XdMmN9GJp6+eWXx/Xw/7upZzFFcEjAmAaNkiRJklRpNc3NzZ35v7tt2LBhcZio+h9BdbIP888kSZIkqTSqbhiqJEmSJKn/GSxKkiRJkooYLEqSJEmSihgsSpIkSZKK9DhYbGtrCwcccED+mfob+4J9IkmSJEml1ONgsb6+PgwZMiRMmjQpv0T95fbbb48z07JPJEmSJKmUejUM9cwzzwy/+MUvDBj7EYHieeedF/eFJEmSJJVar+6zCALFiy66KN6Q/8EHH8wvVSUw9JQeRQLFcePG5ZdKkiRJUun0OlhMcb2cwyAry20uSZIkqdz6PBuqQUvluc0lSZIklZu3zpAkSZIkFTFYlCRJkiQVMViUJEmSJBUxWJQkSZIkFTFYlCRJkiQVMViUJEmSJBUxWJQkSZIkFTFYlCRJkiQVMViUJEmSJBUxWJQkSZIkFTFYlCRJkiQVMViUJEmSJBUxWJQkSZIkFTFYlCRJkiQVMViUJEmSJBUxWJQkSZIkFTFYlCRJkiQVMViUJEmSJBUxWJQkSZIkFTFYlCRJkiQVMViUJEmSJBUxWJQkSZIkFelVsHj11VeHYcOGvePxjW98I6xYsSL/jv43derUmE5JkiRJUs/VNDc3d+b/7rEZM2aEO+64I5x11ln5JdWDYPGll14Kp5xySn6JJEmSJKm7SjoMtbDHkWANF154Ybj00ktX9z7OmzcvnHjiie94D//zHl5nOa8vXLhw9WvpOtOewsJ18vpPf/rTd7yHZePGjQtnnHFGXOdbb70V35/2fBLksg6e81n+PvDAA8Pf//731WnjOe+TJEmSpHejkgWLaeDX3NwcXnvttTB58uQY8C1dujS8/vrrcfnYsWPDV7/61XDJJZeERx55JNx6662rA7jf//73sYeS940fPz5cfPHFMVjjfSzjsWDBgriscJ37779/+N73vhf/5ntnz54ddtxxx9jjyTovuOCC0NTUFL9jbebPnx822WSTcP/994f99tsv/PnPf47ruuyyy+I6JEmSJOndqGTBIsEhPXn0ym222WbhpptuCm+++WYYMmRIOOmkk+J7tt566xgIjhw5Mmy55Zbhve99b1yOr3/96+F973tf/HvvvfeOAeFDDz0UzjnnnNW9hvy95jpBAElPYOH3dtfo0aPDEUcckX/2du/ovvvuG9dbTddhSpIkSVKllHQYKj1xaS8gPXVp8NcX9A6m6+RBT2Ihei8ZRnrzzTfH1z/5yU/mX+k5ekfpmWQ9L774YgwkJUmSJOndqGTB4nbbbRcmTJjQ6564Bx54YPVnr7/++rDHHnuE7bffPlx55ZWrr19cG3oRhw4dGgYOHBjfx7DVtZk1a1aYO3du/Jv103O5JibE4Xfg+eefj0NUJUmSJOndqGTBIrOO0hPHUFCGcfb0VhoEfAwH5bNgffQiMmx12223jcsLJ75J0XvJsFS+9/TTTw9bbLFFXM51iwSapAPHHntsHFrKejbddNP4mTXx/XyG9xD42rMoSZIk6d2qT7fOKBWGf3qbC0mSJEmqHiW9ZlGSJEmStGGoip5FSZIkSVJ1sWdRkiRJklTEYFGSJEmSVMRgUZIkSZJUxGBRkiRJklTEYFGSJEmSVMRgUZIkSZJUxGBRkiRJklTEYFGSJEmSVMRgUZIkSZJUxGBRkiRJklTEYFGSJEmSVMRgUZIkSZJUpKa5ubkz/7ckSSVR+9RToXbGjPyzChkxIrTvvHPoHD06v0CSJPWFwaIkqeTq7rsvNP3nf8b/K6X1858Pq773PYNFSZJKxGGokqQNzpw5c8Lll18e/uM//iM+fv7zn4cpU6aElpaW/DvKp6OjI7z11lvxIUlSltmzKEkquWrpWXzmmWfC4sWLw6677hqGDh0aVq1aFZc3NTXFoK61tTX+X1dXF5d3dnaGhoaGuKytrS0ua2xsDPX19fE5wSbv5T0858Hz2tra+Br/t7e3h+effz4u33nnnVe/znKwbh6sk+/jc/xNmmpqauJ7JEmqBgaLkqSSq7Zg8b3vfW/sbXzjjTfi8o033jgGcHPnzo0BGu8ZPHhwDAL5nyAyqR/DoEGDwogRI8LIkSPD/Pnz43Lew+fffPPNsGDBgrD55pvHoJHXCP74TBoYDh8+PK6P9/P5FStWhFdeeSUGhxtttFFYvnx5/H6Cx6233jrssssu8XOSJFUDh6FKkjZ4BINLly6NvYQEczxftGhR2HbbbcOYMWPC+9///rDffvvFHsiBAweGTTbZJHzwgx+Mr/GZmTNnhpUrV8agkd5JgsRhw4aFD3zgA+FDH/pQ2GOPPeJneI3gj+CQx4ABA/IpyOE1gsKxY8fGdfM5gkmCyEoMkZUkqScMFiVJGzyCNIahbrXVVmG33XaLweGoUaNiDx/DRHmdR4qeQR70FNIDSdBHMEgP5b777ht22mmnuIzP02PJsFOCw+233z4Go6l0yCkP1sV38Bn+JwDlQfC43XbbxeWSJFUTg0VJ0gaPIZ8EhU8//XSYPHlyeOGFF2Lw1hWGqzIhzt133x2DRq49XLJkSbjrrrvCo48+GnslUwR5y5YtC9OmTQtPPvlkfB+Pl156Kbz66qvhkUceCTfeeGOYPXt2/hO54JX0MNSV9TFclt5FgkpJkqqF1yxKkkquWq5Z7A2GqBLo0RPJMFVJkt6t7FmUJKkA1ygyqc2QIUPySyRJeneyZ1GSVHL0KNbfdFOofe21/JLya99//9B6wgnelF+SpBIxWJQkSZIkFXEYqiRJkiSpSL/1LDID3KRJk+KMcgcddFCcaY5Z6ngwG9yBBx4YpzgvnMpckiRJklQZ/RYs3nnnnTEYZKa5W265JRx22GHhwQcfjDcqZmIBSZIkSVL/6bdhqEcccUS8qXFra2toa2uLD+5HddVVV4UrrrjiHfewkiRJkiRVVr9OcMNQ1BtuuCEOQ91iiy3C66+/HjbffPN4s+QXX3wxHH744fGmycuXL89/4m3cB2vYsGGZGKbKzZoHDRqUibSyrQcMGBBqa6v/ctYspZWbbTMdPzfhrnYrV64MDQ0NVZ9W0snN0HlUu1WrVsV8ynatdllKa0tLS/yfY6vaZSmtnMTlcpCmpqb8kuqVnmymLqh2WUpre3t7zLMDBw7ML6leWUorxxV1F23CapeltKaxwuDBg/NLqh/38c2KfgsWFy5cGIefHnXUUWHTTTeNz2fPnh322WefMHfu3PDkk0+Go48+ustAYP78+WHUqFGZCMCWLl0aM3BWAlsK3CwEYFlKK4UYDa8sBIuklQZttQdhBOCkMQtBDRUu+z4rwSJlVRaCmiyllcYsDZosBGCklYZiFoKadHRSFgIF0kl6s5JW8kEWAgWCRcqCrARg1F1ZCGpIK+2BLNxvlrKVNmFW7o27ZMmSTAWL/dLKZqfec889sSC66667wk033RQbUi+//HLsafzLX/4S9txzz0wEV5IkSZK0IcrsfRbtWSwPexbLIys9i7Vz5oSVS5aEum22CXVVftYrKz2L9ZMmhbpLLw21SZnV9o//GNpOPDF0Dh+ef7X62LNYHvYsloc9i+WRmZ7FJJ2dr74aWhcuDI177plfWL0y0bOY5NG6hx4KTf/6rzG97Z/5TGg9/fT8i9XJnsXyqjvnnHN+mP87UwjAyBRZCMAocGnMZCGtVGQ0vk1raZFWAptqDmybvvvd0PRv/xYG/PGPofFvfwsdO+8cOjfbLP9q9aExw/as5gC87tFHQ+Ovfx0a7ror1M6dG+qmTIn/17z5Zqh96aVQs2BBqEkquU4aj1Uy7JchXRxTWRgynbW0IgvX2JJWGl9ZSCuNWR5ZGOKdtbSSD6o5rTWvvRaazj8/DPz2t8PACRNCXVJvtR90UEgisfw7qg/HFXVXNZ/gYrsOHD8+1D3zTKhLAvG6hx8OtTNnxvqKE8qx3krK3Wo76Uk7KwsnDkFckIUThyl7FivAnsXysGexdBouuSQ0/vKXMYBB59ChYdXPfpbrBavSM8tV37O4cmVo+s//DA3/+7+hZj2zO7ONO7fcMnRsv33oeO9746Nzu+1yf2++eQgV7OGxZ7E87FksDxqI9iyWXtX3LCbHfv1f/hIGfOlLNGTjos4RI0LraaeFVf/xH/F5NeK4quaexZqkXdXwf/8XexWTDJBf2oWk/o111NrqrW22CUmDJ//G8rNnsbwMFivAYLH06v7+97DqzTdD3QEHhJphw/JLq1fVBYtJg6XuwQdD/e23h/o77gi1L74YlxXq2GWX0Pq5z4XWf/iH0LnJJvml1aOag8W6e+8NjRddFOomTw41ixfnl+aCwvZDDgmdSQBY89ZbISSP2NP48suhJskja5Xkm47Ro9+uiN/3vrhv2pNH3C8lzlMGi+VhsFgeWQkWaYR3Tp8e2pPApn7vvWNgU82qMVikjKxN6v76224L9XffHWqffTb/Sl5SFhCktHzta7kTnRtvnH+helRtsJjsa3oQG//nf0L9DTfkFyaSbcrJ41hvJfUNJz5r3ngj1MyZs/rk8lol9VLH1luHjqTOivXWDjuEjl13De2MWErqs1IzWCwvg8UKMFgsrQGnnx4ris6kodiZFEYrL788FkTVrFqCxdqnngr1EyeG+ltvDXVPPx17v8CQ02Tnh9pXX43XgCSt79z/7e2hfb/94vUKbcccEzo32ii+vxpUY7BI4Fef5MeG5MHfnUkZ1bHFFqEz2c41ybZs+/SnQ+v48cXBd9Lg5ZrGmlmzQu0LL4Ra/s//XcNw1S4Cyc73vCd07LRTrhJOgkeCSB6dI0fm39FzBovlYbBYHlkIFmlUN/zud6Hhyitjmdt+6KFh1b/8S+jYfff8O6pP1QSLSRooC+tvuSWe3CSgiZJjvoPLJJJjqjYJXngfJ9aSiiEklUJo32230PrFL8byNmnQ5D5TBaoxWKxJApd4uUTy4O/OJG3tRx4Zap95JnQQ9B1/fMyvRZI8ktZTq+sr/ubRVSBJ8Jm0I2JdVVhvEUT2Ibg3WCwvg8UKMFjsHQqb2hkzYq9L7bx5oSZ51E6fHguw1Y3npCBr/fjHQ8vXvx4LHIZFVKN+DRYJqu68MzZU6PFKh+zQUGn7yEdC21FHhY499ogFP0FkKxXvRz8a6pPAsjFp4NCLyzrajj02nrFt32efXKXcz6otWKy/667Q+ItfxIkBOpOGTNvRR4fWL385tO+1V1iZBIrs+16llUAyCeJjJUyF/Pzz8VqS2iTY59rHpPWRf+PbOpMAtX3PPUNH8kj/j8NZu/H9BovlYbBYHlUVLNJ4To5VerxifZXWW889F+oefzwey1GSB9o+/OGw6oc/jA3matTfwSL1VB311tVXh7p77snV+Un5xZDHtuOOC21JMNO+//6xp6t24sTQ8dproTYJwmkfNFx8cah75JFc0JMsa0mCRv6vBlUVLCb7l+s8G887L9ZfyUEUWj/2sVy9tffeMa20XXoVgCV13upAkkdSb7FvaMMVjrZZLWlzcnKV+pL2SPyfeovhrN1gsFheBosVYLC4fjEwfOKJUPfYY6E2qVSpWLtqCK9NZ1JAtH/oQ6H98MNDW1IpMGSvOw3jSumPYJGL0Bmu0/CnP+UaKkkFRU8UjZS2pEJoP/jgtQ6FIq00vgnEKNTrr7kmNP73f8ehqvSItX7iE6H1S1+KQ0z6U7UEi7HX4PLLQ/0f/xh7E9vHjg0tVLbJdu7MD5Eu130WmYiAhim9xLEi5n8mIsifECgUeyF32WV1JUwQ2bnttu+4JpWGV+eUKaEmKbNqDjyw2xV1fzFYLA+DxW5IA8OkzqJ8jfXWk0+GGkZndBPlLwFP+2GH5eotRnhUif4KFhniSIBYf911q3sRmUilbdy40Hb88XFbMSyyEBPxUBakaa15/fV4orPhiivi/qAnq/VTnwqtn/98v49CqpZgkTqi8b/+K/Z419DbndQH6fDdVJ+Cxa4k66x55ZVQl9Rbsc7iwd/PPRdqku3yDknZTh26+qRnUne1J4Fkx2675d+Ql+RTep5bkv1e98lPrq53q5nBYoUYLJZHJYJFCqnaadNijxWVAT0xVBBrBoaxcZtUnjRY4+QfyaNzq61CQxK4xN4uGl8MZ0gKD84i1ixcmHwoyc5Jg7z9gx8MbUccEXvDOBPZ34FjJYPF2tmzQ/2NN8YgkcCBRg1nr1uTSqDtH/4hdCQBQpKQ/LuLFQaLqdqkEdR4ySVxvQTx9C4yxIfes/669qYagkWu94y9iUl+JJ/GBsmpp8b8WqiiN+VPGk3MWFf3xBPxBEw8CZM84jG2Bk6ydCbpjsfZZpvF93EsITYevvvdeAa/WhkslofBYjFOpMSTmcnxEeuupA6j0fsOyTEee0eS8pbe/TgEPXmA0R11d90VG8Rcx8XJtthIfvnl+DrHIo1hjrc42mPNBnGFVTRYZPTEjBmhYcKEUH/zzbEnim3JNmpNGv9tJ5wQh9t3Zc1gMUrWyQgM2gsN11yTW1+y3Vu+/e24zv7S78FiUhcxnLfxwgtzo2CSwKrlG9+Il5qseZlJWYLFrtATmbRXOOFC+5A2Rzz5smBB/g0Fkn3ZvvvucXQUlyLVX311PFHLPmfZ8htuiO3HamawWCEGi+VRjmAxDsEhKMwHhzwn0CsUA8P80IM4/IEHDe6CgKVQ3X33hRamcT7ssFAzfHistOvvuSc23uv+8pc47h5xGAo9accfnwts+mmq50oEizRe6q+/Pg43Tc9uEzS3nnJKrGw7N900LluftQWLKSpyhqxQiBPcxyHA3/lO6Nhxx3gWsJL6M1ikUmOWU86A1yRlEddzrvrnf45nQNemosFiFxgOlwaQqwNJGrtJBbtWybZlGnpOusTrIplgZ/PNq2p2XIPF8ni3B4tMRsNwuVhfERwmjxjAcDKyAI1rTpx1JI/2ffeN9VcaHK4p9vYnZXQHk1ol5TK3JaIHjBk9edTdf38cKYC43gMPzNVbhx4aA9BKq0iwSLmYBOD0ANIzFGeNTo6PeL0hQeJxx3VrMpS1Bot5jJJgOCsTt7CN6ZWMlwh85Su5SyoqrN+CRYKx2bND4/nnx+2dHNyxt5ZAkXkJ1qaiweLaJN9PW4a2TQwe+Z96a86c/BvWgkAyqYfjiXHqLU6E9vMoqLUxWKyAxgsuCCtnzAj1X/5ybrx/FVxfty7vpmAx9hoyLOehh+JY+NhryPj0wkqWg5mhBB/4QCyk2pP/43C3Hjaku0prDZOMTJnyduCYH5IXr3VgKEtSUXRQWVew0VvOYJF79zVcdVW83jAO3U20MayJyjb5vT3t+VtXsAiGozb84Q+5oDRp3BAoMryn9eSTKzprar8Ei0k+plHT9NOfxsqLXto4Yyy9ieto1FRDsLg28X6Pzz2Xm/iIBuvUqWu/niSVbG/2McdrrIh33z027CiH+zKpTm9lJViM9ybj+EwChc5jj41BRTV7VwWLyTFN70VhnRWvB87XGymCjDiMOwkKOwgMk7orXu7QA6ST9K4trasDR+otAsfkOSfgCD5buUavwvVWOYPFGMAlv7Hhj3+MvVzJgZw7sbv//rl6ixO7PQhQ1hUspuLQ1F/9Kt4miu8nWG/51rdC62c/W9G2QH8Ei5w853YYDDnlsgl++6rvfje0nnFG/h1r1+/B4tpwvNLOTI7R2Av597+HBmZvTfZ/V9i/MWhMH9Rd3O5ju+36bdSZwWKZDTriiNwQxCQT0/O0YsKE3IxiVRwwbsjBIhcwxx5DKtnkwdnYpIbJv5rDfkorVwLDeDavBI2Q7qSV3pT6e+8tDhw585Qf7tP+/veX/T52JQ8WCZSS3xMnreEas+R3xesRCYZPOSW0jxkTK9/eWF+wmCI4jUMwn3gi9k7FCXC+/e14Vq8SBXClg0XyNg2Nhj//OTY86HFjmGY8K7uebVWtwWIhgkROxNVznU+yP6lQ43TpI0bkpkmnp4VG9FqGjFP+EizHwJHhQcn//L3mNZGlVtXBYrLP49DFRx+NvdBxcqmkAc7wqZZvfjNeN1ytNuRgkYlSahjulgaH9B4m9dg7JGU1J0RifUVwSGCYHA+dvQ1I89YVLK5GY5iRMpMmxZmrucVRPIGT5HFum0OdxcRk3Sl3+qIcwSK/I05aQ5CY/A/KF0ZmUG9xkrM3uhMsgiHA1Jdcq8f/yY4IbQcdlOtd+9CH8u8qr4oGi8k+5GRg089+FuqTeovfywQ2XJsY283rUZXB4hoI/Ad89avx5ANlLqNfWpLnDGtmBFCcWIfjO9kWRTjOqefSIJLbUjGChnqrzIGcwWIZMQxk0HHHxQAg7alimN3KX/4yN76/SgPGDSZYTCoOLuRPA0MecTx5YcMx+VwcSpoEK5wFjf8zC2MZetR6GtjGwDGpoLiHUKyAk0IQVLoEWe1UwMyomhQgpVaqYDE2Im6/PfYkMiSDoJHCjuFKDDeN12f2sQHR3WARRb2MaU/bJz9Z9qFTFQsWk8YdZy4ZvsPZzHim/zOfiTd/jkOluyELwWKqjco1yQN1VJprmSiAQHn1pDo8nnoqN6lOfuh3oXgdFvfXYiQBw8z5PznGStUL2S/BYpIfuD463h8zecT/k+MyTjb06qtxWDJDp9a2PaIkD7Qdfng8Tjhx1h9DDNdnQwoWY8DOUFLqrKlT44gA9l+h2GvICQ4mm+FRpv3SrWCxUPJeyth424ibb86dKEfyea6LjEEjddfee+eWl1Apg0VOMBGscO0g+4B2AmUnAWIr1yN2MXy/u7obLKaKehk33TS0/NM/5a7bK3NgVKlgkd9Vn9TLcXI6ehOT/MylEvSkdlcWgsWIIbZJULzizTdDUxL8F0l+B0NwVweQ6f/UW0l5XSRpV6Q9kPG+kFxjnNSH8Z6RJbp3p8FiGTFkatBhh+VuIJ4PFlPxzNTHPhYbzb3tUSmXLASLNHqaCLqTRk8700xzs/u33spVsknhHivaRx8t6upnOAMVK0E7gWE821mhBkZPg8VC/KY4CUwSBMTCgoA3KSDidSLHHpubGKeEQW5fg0X2A0EuM8TF68yS9JJWbphPvi/lxdw9CRZT8YL5JP/EPJI0MBhGFHsZ6bUtU4BUiWCx9okn4s314/U0SQOTnrZVZ58dj4+enFTIUrDYqwAs+X00SOLQoDSA5MGxlTR434GKmNEGBI400JMKmaHMvTmbW9JgkZ7ApFFbu2BBbEwWPmr5nwAwHxR2dd/Ld0jKpjQojsPDk/WviQZcLHO4DUDSyOnYaqv8K/0rK8EiMynW/9//hZBs3w56pj784Ri8xzorf71hnKp/jf1Fg291YJg8yIflDhLQ42CxACcf+E3UW3V//Ws83hAD3aTebWV48+GH504YlkCfg8Xks3E0xrXXxvKThnkMcvfaK86oHe/bW6Kbs/c0WER/9TKWPVgkcErayI3nnhtPKtMei9cmpvVxD2QmWEz06tYZ9OInv+8dQWTyYORBDCSTtvs7cJKD+opHfhjr6iCyi2uVu2KwWGZN//7voX7ChNCZ7OCapGCgkcHEJhwg4ELWGDhScHLAl6ix3xdVHywmBcKgJOCoe+CBXMOORg6TxjDcLKkwCtFNH4eTjh0bG8zxmo0eBBWl1JdgMUUDMA73obcxaWAwsQHikM5DD83loyOO6PPEOL0JFinEaBRQ2cZZ9BiKlC/4mXWT/F2OoRK9CRZB0M2F8w2XXhobbHF20H/8x7L1MpY1WEzW3XD99XFYJmcsOSnC74hTr3N9bQ9t8MFiFzjhFM/o0ltJRcz/yaMmaegWVcTJtulI8kkcCpR/dPI/lTL5Z430xEmc7rwz14NHI5lJltaDXibSU8P9v0gXj/zfcZTEGuXdWiXbhvJg9QzN/M/EP8mjI2n8xkmA+D/fK8s24JigF4OTbZylpmGRbo80iOQYaTvkkND20Y/GALI/Z/PLQrDIMNKmH/84TnZG/R+HOydlbCwnC/djkm9oF8QhpdRbyYO81R/6EiwW4gQGlwHE3kZGyaT1FkFwEjDHwJFbI/XhGvLeBotcElE3eXKuFzGpvzg+OV6oR2OQmByrHOul1JtgMcVx3/jb3+Z6GZPyIfYynnVWaD3zzLKcQChnsEg+YJI7AmDKFob4cl0mvaa9aQtv8MHiuhBIJnUM27Fu+vR44iN9pHNDrJbUCXEEDfVVPoDszAeRPHh9tWSbNlx0UWjhxOSXv1yynspyy1ywCCrfBUnUv/Hee4ea5ACI08QnhRNBY93dd6++hQI9XmngGG/Y3oegoi+qNVikYKGiIfiOk6PkK5xUvCiYCSzSnsOkkqXRXA0BOEoRLBZieBLXNtJLFq/DyzfiKATibTiSvNTbCQZ6EizGYUc0BKhsn34618AkeE3ycev48bkhR31sbKxLb4PFFHmq8Te/yQW4SUMh9jJ+5zu5s5olPLFQrmCR3jEaD6t7E5OgPD3b3Nvr796twWKXku+ghzzeYys51uLsrMx0R09k/sRfIU6KMEX66iAyaRBwciter5s0vqmcGVXC0KGQ1A80+mgExh5BegJ50DO4Rhn3DsnvpXFFY7EjedDQ5m/KvPT/GAwmgV5vTtK0JWnpTH5bA4EvdQF5Iml41FHmMLkQZU6Sp3mN3xhvPJ484jXAJTxuuqOag0VOYsaRIcz8nARL5KVCsaeNiWiSeitOosalEEneqQalChZXo/cuacxybWOstximmrR9Yg8IwzyTOiOefNh//x4HaD0NFjne4v0Rk/1CDyjifXkZ/ZI8CNbLpS/BYsSx+Le/5a7ZTgJc6te2Aw/MlftJ0F1KZQkWk3XWzpuX6028/PK4r8n/Ld//fi4476V3dbDYFYJIJthhcp2k/or3i1xXELnttrngkcBxm21Cw+9/n5vNldeStuXyJL/1dBLC/pDJYBFd3TqDxh03Io9j/CdNWt3wiJOZUHAyy1ZaWVdINQWLnEGPjaz77osTLsQhjWs2zpIGAmfWuLF4PDNZBelem1IHi4ViYyRfAcfhM/S4JuIJCCbFSQJHxrJ3dyhid4LFOMSIBhC3Y6CXI0HhEq9H/NSncmfDKxBs9DVYBL2i8Wb+9My98EI8u8bMa5xZpuFdCuUIFjlT3/STn8QhlAToBOecYY73puwDg8XuiQFesu3jLHfM0pofHhQrYRrBfUSQGYPO/Nlf/o+VOA+GxJXxJAwN7y5vnUH+4DrQdFKTZBsQCNA7yQQr6QiHOJKjAqoqWCQgmjUr1E+eHOssysnYq7wG9m3bxz8eVv3Lv5RlJEMplDxYLBCH002blhspc8cd8TiKku/iWmGCxnj/Rk6cd0O3gsWkrOCEJmU9JzjjJUJJmUw+ZYZoLpGI9VaZ9TlYzKOcoTHfmDw4wUT7h4Cx5YtfLBrZ0FulDhZjXcstrX75yxi8cLKE66Fbvv71Pte1Bos9lKRh9W2pOAnKpRhrCyJTSdt11X/+Z2j5ylfyC6rXBhcsFqKHIAaODNXgrG2S8ePMW8wmRuCYPCrR+O7XYJHCnFnfkuCwngAx+ZtloHKN94faf/94zSKVcGdysHUkz1f9/Od9GsJSCeUMFlcjILn//lw+SgLHd1zf+KEPxQkGeMQz1+sIrroMFpOGAxU7NyOOveL52VpjAzGpaJm0Jl7XUcG8U4pgMRV76bjmj5v5L1wY7/fIRfaM+e/rbyplsEgjJ07Uk+wHGqKxNzGpbLmOrBSzeRos9k0cPvrCC6sfzHxX++ijb/cU0kDdeefcBFX0Dm60URzeE3sI055BegoZGrqOEzbltM5gsQDDc2lorD5ZlQTN4DfE+15S5pAvuaa6TPo7WGQoaQx8pkwJdffck5uUJimXwEmcOEPpbrvFRhijitiuHePGhVXf+17JTkaVQzmDxULUI/SUxd7Gu+5aPdsr7R+uu47tH4apriMPrStYjLOaJvtl9VDT5Dhkrgh6cuN9fZM2ViXbD6UKFqPkNzORHxOaUe9T/nMtKDMYxzkZ+qhkwWKS5xmOzMlN6i7asoxCaDn77HhioBQMFkskSVscMZbkp8b/+I+3662kfF154YXxtmPVboMOFgsxtCD2NjLc8rXX4s6LQ5foJcpXvutq7PdFpYNFGhcMBaRBFRtVBUO7OvbaK7TlgxyG55BZCy1bsiQMTNJa1gCsRCoSLBag14Oz2xzw8TYcXBuTIOiOk/skFUocCrfllvGMUaE1g0U+S0XONX7cJ4iGEA3cONz1pJNyQcpaZqKshFIGi1FS4dBb2vizn8VeIu7J1/KlL+Umo+rDrJilChbrk8YUaYsnS5IAI16b+I//2KtrE7tisFha8TpArjNicpOk8R0bc2ed1edZFcupu8FioTjJGLcmorfozjtjoAwmwmlntMzRR8dLBCg7SqniwWJyLMeTAIzoeOCBUMu9DtMJXAhCkjKjnXvH0sO6xiQdbcmx1Zbk2QF9vK68EioVLBaKo62SMi7WW/feGwMMUPa2c11+sl3j5ErbbReXp9YWLMahptddF+q5jp4TzwnWw36hwcv6+kNJg8U8TlBxrTE38+ckMSedONFJ3dAXpQgWaS/UTZyYm1Ru2rTYVmDkDj1UpTxZYrBYYpSpyX6iA6IzKQc6t98+LE/aklnwrgkWU7HgTBrpq4epJgUimJkv9jhS+e6zT0nPPpc7WOQ3xd7DfHAYe1GTQh5xtr2xY2OAyNj7OIxpHUFApQOwvujPtMbhvNyGgyFjTDCQ7OMoaQhybUYcOvrxj8eGXkNS2SQZNrSdfnrsUWNf1d90U7xeiV5eGkLp++P+6eeAouTBYl7dY4+Fhl//Ovaksr0Yksq1jL2dva+vwSLXPsUJeS65JF5DQEOHIUdtyfGy5kmUvjJYLI82JsqhJ4ATNP3UC9ZdvQkWC62+Vi85fhiFEK97SfJUvKY6qbdi3UUgVYJApOzBYrJuGuD1nNTksggCxBkzVg/3j72onNRMgpgYyKxj8iKCLwKbSgZgvdUfweJq6TZnlAz1Fre+yo9kiRPQMC8BJysPOSSeUGcyQa6xjbeUOvLIeOuL2NPNZRnkuyS4bEsCxFZOkHLrsn5UjmAxomxJgrHG887L9TImgQh1dbxPYVJv90Zfg0V605v+8z9Dw8UXx6Gx9LK3fOtbsf1aagaLZZCkk17GZUm7fWCy77LiXRcsFuJMZpxYgAkGmFE1Hzgyy2caOMbhcn0MRsoRLNYyTIlhpQzTSQLE2MuVZEIwKU2sZJNCP86I1oODx2Cx56g82Q+cvWVoTtrjmOzwXOBHvkoK3Rik08Ob3080gjgbyyQW1TQjVrmCRcTrK/74x3iPKwpMTsy0fvWr8Zrins4425dgMU6ZnqQhTpk+YkRo/fSnc/dNLNOtCwwWyyNLae1rsFgozobJKAduo0D5zzUxSVnYnjTa08AxNmZ7WTaWI1iMw2u5HpV0c718UoetLiuTbRKD3qS+ivXWfvt1u4fEYLEXknTEW4zQ4/jXv+YCx3yPY8wzlP1JHoiox1iW1F1x0jvKbGY1TYLIOOFdFShbsJj3jl7GJJDmGvaWc86J26Gnehssxrrz1ltDw4UXxltUxd7EL38515tY4pEFKYPF8vHWGRVSimCxEBehEjjS2xhvIZEGjh/+cG5yHCYX4ELtXvQ4liJYpFKNQ0sJDnlw8Xo+jTQS2rhfFJUsD4Zi9bJRarDYN1z7GYN4eh3pQXvrrfwrOVSusTF3/PHxWtGeBPKVUs5gMRVnTL3ggjgsiuCZ2fLo1aPB2F29CRZrX3451P/pT3H4In8zUxzXeHBWnbO05WKwWB7v1mBxtaQxR49cvGfsTTfFa/s4nmJPEdejMxs4dVcPe+9LFSzG3tDkWI+T0ySP9PpLxOvnSGP+pCaBbm96hw0W+yjJL/ESC0520gZK6q94bX4BAvc4Oy+T5CT7qrfti3Ipd7AYJcfEO3oZk2CNS0YI1uIszN3U42CRY3zOnND4i1/kZjpl9NLYsfGaeoYQl5PBYvkYLFZIqYPFQqtvoUDgyBTQ9AYl4vh+Asfk0ZPAsbfBYrz2kIlpCA651oCzx8kBAe7tFYeW5ivaUt1A3mCxdJiZbMC3vpW7tiNpJNA4WvmHP8RhPtVW2RaqRLAI8nMcBnrRRTFw43paZp3j+pfunCntabDI0Csqes7K0oPY+tnP5mZnLeNEISmDxfJ41weLBej9iJOaJEFjPZNlzZsXl8chndz4n5NUjDTpRn7vdbCY7A8mU6G3M9Zb3Ls2DTyScrpjiy1ygSEjX7jfYR9nGYbBYmlRXw34x3+MZTK4lCXOjp4EJ9WqIsFiXuxlvOyy0HjxxaHmlVfi5HYt3/1uHJ3SHT0JFrn1VD3X+//mN3EEU5yd9ZvfDC2f/3xZZ25OGSyWj8FihZQzWCwUK19mpUse9D72JnDsdrBIg5LvSwLDOEV40qhNapb8i8mBu+eeMdAgQIwBRxkaHQaLpRUnsSm4ZpFrPMo1ZKRUKhUspuoeeSTO5hYnn2puDq2crU0q3/XdZL27wSInXajcG669Ng614ux4vO8jPfAVyjsGi+VhsLh2tS+9FCfAiJOaMIFWem0aJxm5Lo3r0JgYp4sb//ckWKRXavU184yqePbZGDQi3vNwt91igMilEZwQKvU9xQwWSyzZ9/QuMmtjvGbxhBNigFLNKhksRsl+pD3IjKnUK/FaxqReaf3KV4omYFpTt4LFJI9wS5I4I+sNN+TWf+KJcWI45teoFIPF8jFY7Kbke8OkSZPCokWLwkFJJbLzzjuH2bNnh8mTJ4fRo0eHww47bJ0NgEoFi4XijKpcHJ4EAJxRSo6kuHx9gePSxYvD4CRT1KylYcoNddOZS+Pwj4L1xqFEzLKZ9iDuvnvZe6QMFsuDApdGIgFDtat0sJgiWIxDUx97LA6b415RTPrT1bVL6wsWGQJMRRuvj5wxI17L23LmmblrRLtoJJeLwWJ5GCyuR9LojJdYMKlb8oiTn+VPQMYZVceNi/XWmoFja3JsdSQN4qa1NWaSvEwvRzypSe8hwSgzjCPZF9zqhxuax3qLALEHQ8t7w2CxPEgrebZiAVgfVDxYzIs9fzfdFBp+97vcrKRJXcWJSK5/7+xiH68vWIwzPV90Ue5ej2++Ge+RGYecJsFipRkslo/BYjfdeeedYaukstp2223DLbfcEvbff//w0EMPhaOPPjo8kVRonNHcIzlIugoG+yNYTFFAxGvSGN/PdWkLFpBT42tcmJ9OkEPhEad2T97PReGrfvCD2LNBw5XXOAvLrJppbyVi7+HYsXHYEJVtvLVABX+jwWJ5GCx2D0PWGq666u0ZSpNjoOWMM+K0+Wv2SKwrWOQ2A3EigAcfjL2H8dqSpMKtxA2i18ZgsTwMFrsvTjDz+OO5m7b/9a+hlh7AfN3D0NR4WUNS7xD4MfSNoJJ7F8bhdUkdFuut5PMEiOl9+8BJTXo74uylyefL0Xu4LgaL5WGw2H2067jEgREsNckxzkl+rmVk6PeaugwWqc+SequReuuBB+Ix1PLlL8dbYvTXPa8NFsvHYLGHGKJ56623hve///1h5syZMVicN29emJM0FMcmQVNXgUB/BouF4n2w7r57rYFjDPLW9neB1dce0oOYBMxx9tV+aKSnDBbLw2CxZxiCzdTgsRe/uTkOm6PijDdFzje01hYsxttzXHpp4NY4TK5Bz0b83CGHxCFx/cVgsTwMFnsnnZk0TmqS1F+xxzE5nrolycPpzKUd3G7hAx8oybWHvWWwWB4Giz1EfTR1arz/K5ctUd+0ffzj8WRn4f1fi4LFZDszMz8jYGLnQpI32j784dDyT/8UT970J4PF8jFY7AGGot5www1xGCoNKYah8ndhsEgGILOuieGrI0aM6PdgsRCN2qYHHwxN994bmhiyygQDycGW6kgKh1ZuLvze94a2JChcmRQEbcyi1Y+N8jURvFPgZiVYpAc6KwGYwWIPJcfOgCRYHPKb34SGpGHL7HPLk8p32ec/H9q33jq0vvJK3J61I0eG2tdfDwOvvz4M/uMfQ/3LL4c2bnb7iU/E93eMGpVfYf/JUrBIWjn+sxIsohoCsPWp2rQm6WqYMSM0JYHjwEmTQgOBY0G91c5N15N6qj05plr22iusYuTLNtvkX+1/BovlkbVgkXJrndcBVggjzwbdfHMYlAR+DU8+GTqS42fpF78Yln/yk6GDHvfk9VVvvBGaknZg3WuvhUGXXhoGXXNNqEvqsPbNNgtLv/a1sPwznwmdVdAGy1qwSPs1KwEY23Z4D28X1p/6LVhcuHBhHH561FFHhU033TQsXrw4TJkyJRxzzDGxh5HXx4wZU/U9i+sy6Mgj4/UcDPVhRrEVl18eb6BaTcHhmuxZLA+Dxd6Lt7tIgsB4u4u5c3O3uUgqhppXX42TMYSkguXaDobPcR+wto99LDfkdD0T5FSSPYvlYc9iaTFRDVP0M5tqEtXEY4hjqfVTn8q/o/oYLJZH1oLFfu9ZXENN0oZlSCn1Fn9zHX7HNtvkbm+TpDcpCGIvPb2Kqyew4TYc3EKmStizWD72LHYDO/XPf/5zDAg5E8QBfvjhh4cHH3ww9hjSsDr22GPDyJEjuwwGsxAsMo696dxzQ0fS2G1nlqwPfaiqb5kAg8XyMFjsO2YKjkNT//KXOH35OyRp5Trhli98IXSMGRODxmpisFgeBoulF4enXnFFbOC2n3xynACnmhkslofBYgkk+5prg+MQ06uuyi98Wxyqetxx8WQMl0xUG4PF8jFYrJAsBIup3t5nsT8YLJaHwWKJJI2Cph//ON5qg8ZslKSV6zsIFJmJsRoZLJaHwWJ5kFYain29KX8lGCyWh8Fi6XCNcP2114YB3/kOhVZuYZIHWpNAceXvf597XoUMFssna8Fi9beyJSmVBFxMGMC94tLew47NN8/NHFylgaIk6d2LYabtH/5wvA1G4OR2Q0O8FVrrWWfl3yFVN4NFSZnCNP+rfvSjsPyf/zms/Pa3w4qrrw5thx+ef1WSpOrC9Yorrr02rPzBD8KyL30prPzVr0L73nvnX5Wqm8GipMzp3GKLsOzMM8Pyc84JHcwoLElSFeO+2au+8Y2w5J//OXTsumt+qVT9DBYlSZIkSUUMFiVJkiRJRQwWJUmSJElFDBYlSZIkSUUMFiVJkiRJRQwWJUmSJElFDBYlSZIkSUUMFiVJkiRJRQwWJUmSJElFDBYlSZIkSUUMFiVJkiRJRQwWJUmSJElFDBYlSZIkSUUMFiVJkiRJRQwWJUmSJElFDBYlSZIkSUUMFiVJkiRJRQwWJUmSJElF+jVYbGtrC3feeWdYvHhxfP7UU0+Fq666Klx55ZXhpZdeCp2dnXG5JEmSJKmy+i1YXLJkSbjmmmvCM888E9rb22NgSIB41FFHhfHjx4ett9461NTU5N8tSZIkSaqkfgsWGxsbw4knnhh22GGHGBSuWLEivPrqq7Fn8YorrgiLFi3Kv1OSJEmSVGn9Fiw2NTWFAQMG5J+FUF9fH8aNGxfOPPPMMGbMmPD3v/89dHR05F+VJEmSJFVSTXNzc79eGHjbbbeFAw44IAaGs2fPDvvss0+YO3duePLJJ8PRRx8dh6cuX748/+630fM4YsSITAxVXbp0aRg0aFCora3++YSylNZly5bFEw51dXX5JdWLPMwJkqyklZ5/TuBUM0YjkMaGhob8kuq1cuXKuO+zklaOf/JAtVu1alX8n2Or2mUprS0tLbFOLjyhW61aW1vj/AcDBw7ML6lepJP0ZiWt5APaA9WOS5kotwYPHpxfUr2ylFbKANoDQ4YMyS+pXsQKtF+HDh2aX1Ld2LbDhw/PP6t+VRMscuDceuutcYcTCNLLuOWWW3YZDM6fPz+MGjUqM8Eivy8LaSUAoyLLSrCYlbQaLJaewWJ5ENRQVmUlWMxKWml4U78ZLJaWwWJ5ZC1YpCzIQlo5rqi7DBZLi7KVNmEW0grmbclKYIt+b2Ufc8wxYaONNoqVPdcwnnTSSeH0008PW221VSaCK0mSJEnaEFV/l4wkSZIkqeIMFiVJkiRJRUoWLDL+ds6cOflnkiRJkqQsK1mwyEWwzz//fLx4W5IkSZKUbSULFpmVkN7Fa6+9Nlx55ZXhxhtvjAGkJEmSJCl7ShYsbrzxxuH4448P++23Xxg7dmw49thjMzGNsSRJkiSpWEmvWbzqqqvCwoUL4031r7/++tU3IZYkSZIkZUvJgkVupL/vvvuGD37wg+HAAw8MW2yxRXjrrbfyr0qSJEmSsqRkwSJDTh9//PEwf/788NJLL8XH0KFD869KkiRJkrKkZMHie97znjBu3LjwzDPPhBkzZoSPfvSjXrMoSZIkSRlVkmDx/vvvDxMmTAiTJk0KCxYsCK+//nq46667nA1VkiRJkjKqprm5uTP/d6Yw3HXUqFGhpqYmv6R6LV26NAwePDgTaV22bFkYOHBgqK0tWadz2WQprZw4aWpqCnV1dfkl1Yu0NjY2xtvhVLMVK1bENDY0NOSXVK+VK1fGfZ+FtDIxGWUVeaDaZSmtLS0tobOzM5YD1Y60dnR0hAEDBuSXVC/u7dzW1hbrgmpHOklvVtJKPsjCCLH29vZYFmQhrRxX1F20CasdaaU9MGTIkPyS6kXZSpswC2kFk4Jm6VK9krWy2UmXXXZZ+PnPfx7OO++8cP7558eNIUmSJEnKnpIFi2+++WacDfWggw4K48ePjzOiZqEnTZIkSZJUrGTBIkMBucciXesEjvQq2rMoSZIkSdlUkmDxjTfeCJtttlnYfPPNw+jRo8Ps2bPjNSTMkCpJkiRJyp6SBIvMgHrRRReFhx56KF5kfNxxx4WDDz44E5M5SJIkSZKKlSRY3GWXXcJZZ50VTjjhhPDss8+G3/72t2Hq1KlxNi1JkiRJUvaU7JpFMG3x3nvvHYejPv3007GXUZIkSZKUPSUJFpubm8Odd94ZLrjggvDoo4+GI444Ipx++umZuI+MJEmSJKlYSYLFJ598Mmy33Xbh61//ejjyyCMzc1NMSZIkSdLalSRY5J6K22+/fbx9hiRJkiQp+/o1umMCHIavLl68OD6fNWtWuPTSS8PEiRNDS0tLXCZJkiRJqrx+Cxa5Yf8111wTnnnmmdDe3h6WLl0apk2bFsaPHx9GjhwZpk+fHjo7O/PvliRJkiRVUr8Fi9y0/8QTTww77LBDqKmpCQsXLozLeHBjfybNMViUJEmSpP7Rb8FiU1NTGDBgQP5ZjhPjSJIkSVJ1qGlubu7X7rvbbrstHHDAAbF3ccqUKeGYY44JM2fOjD2NY8aMib2Ly5cvz7/7bYsWLQojRoyIn6t2DLHlHpRZmAAoS2ldtmxZPOFQV1eXX1K9yMOcIMlKWunhr6+vzy+pTitWrIhpbGhoyC+pXitXroz7Pitp5fgnD1S79F6+HFvVLktpZc6Ajo6OohO61ai1tTXOfzBw4MD8kupFOklvVtJKPqA9UO24lIlyKwu3a8tSWikDaA9koSOHWIH269ChQ/NLqhvbdvjw4fln1a9qgkUCPya7IQjkQDr22GPjtYtdBYPz588Po0aNykywSMGQhbQSgFGRZSVYzEpaDRZLz2CxPAhqKKuyEixmJa00vGnQGCyWlsFieWQtWKQsyEJaOa6ouwwWS4uylTZhVkYoMm9LVgJb9Hsrm57EjTbaKFb43KPxlFNOCaeddlrYeOONMxFcSZIkSdKGqPq7ZCRJkiRJFWewKEmSJEkqYrAoSZIkSSpisChJkiRJKmKwKEmSJEkqYrAoSZIkSSpisChJkiRJKmKwKEmSJEkqYrAoSZIkSSpisChJkiRJKmKwKEmSJEkqYrAoSZIkSSpisChJkiRJKmKwKEmSJEkqYrAoSZIkSSpisChJkiRJKmKwKEmSJEkqYrAoSZIkSSpisChJkiRJKmKwKEmSJEkqYrAoSZIkSSpisChJkiRJKlJVweJTTz0VrrrqqnDllVeGl156KXR2duZfkSRJkiRVUtUEiwSGBIhHHXVUGD9+fNh6661DTU1N/lVJkiRJUiVVTbC4YsWK8Oqrr8aexSuuuCIsWrQo/4okSZIkqdKqJlhsaGgI48aNC2eeeWYYM2ZM+Pvf/x46Ojryr0qSJEmSKqmmubm5Ki4MfPPNN8Ps2bPDPvvsE+bOnRuefPLJcPTRR8fhqcuXL8+/6230PI4YMSITQ1WXLl0aBg0aFGprq38+oSylddmyZWHAgAGhrq4uv6R6kYebmpoyk9bGxsZQX1+fX1KdGI1AGjnRVO1WrlwZ931W0srxTx6odqtWrYr/c2xVuyyltaWlJZ6spXytdq2traGtrS0MHDgwv6R6kU7Sm5W0kg9oD1S79vb2WG4NHjw4v6R6ZSmtlAG0B4YMGZJfUr2IFWi/Dh06NL+kurFthw8fnn9W/aomWKQAveWWW+IOJxCkl3HLLbfsMhicP39+GDVqVGaCRQqGLKSVAIyKLCvBYlbSarBYegaL5UFQQ1mVlWAxK2ml4U39ZrBYWgaL5ZG1YJGyIAtp5bii7jJYLC3KVtqEWUgrlixZkpnAFlU1DPXEE08MJ510Ujj99NPDVlttlYngSpIkSZI2RNXfJSNJkiRJqjiDRUmSJElSEYNFSZIkSVIRg0VJkiRJUhGDRUmSJElSEYNFSZIkSVIRg0VJkiRJUhGDRUmSJElSEYNFSZIkSVIRg0VJkiRJUhGDRUmSJElSEYNFSZIkSVIRg0VJkiRJUhGDRUmSJElSEYNFSZIkSVIRg0VJkiRJUhGDRUmSJElSEYNFSZIkSVIRg0VJkiRJUhGDRUmSJElSEYNFSZIkSVIRg0VJkiRJUpGqChZnzZoVLr300jBx4sTQ0tKSXypJkiRJqrSqCRaXLl0apk2bFsaPHx9GjhwZpk+fHjo7O/OvSpIkSZIqqWqCxUWLFoXGxsb4GD16dGhubjZYlCRJkqR+UlXDUIcMGZL/S5IkSZLUn2qam5urovvurbfeClOmTAnHHHNMmDlzZli4cGEYM2ZM7F1cvnx5/l1ve+ONN2IvZBa0tbWF+vr6/LPqlqW0tre3h7q6uvyz6kZaa2trQ01NTX5J9cpKWrO0TTs6OmI6s5JWsG2rnWktjyyllTYC6c1CXWBayyNLaYVtwvLISlppBwwYMCBecpcVVRMscrDfeeedcTjqypUrw7HHHhs3ZFeNqyVLlsSeyCw0vrgec/DgwZlI67Jly8LAgQMz0UjIUlo54dHU1JSJyoy0ciKm2gvdFStWxDQ2NDTkl1QvyjT2fRbSumrVqlhWZeFkXJbSyqRt1HOUA9WOtNL4pkFT7VpbW2Mjkbqg2pFO0puVtJIPBg0alF9SvThxSFmQhbRyXFF30SasdqSV9kAWRv1RttImzMoIRWKYoUOH5p9Vv6ppZVPhH3nkkeGUU04Jp512Wth4440zEVxJkiRJ0oao+rtkJEmSJEkVZ7AoSZIkSSqS2WCRa1SyMkw1C9cppbgGLEvbNStpzdp2zcJ1oGzTLKQTXK+YpbRmZaKILG1X0pml7Vrt1yyn2K6mtfSylFbq1iylNSttQtNaPlmZoDNVNRPcSJIkSZKqR2Z7FiVJkiRJ5VN3zjnn/DD/d8XNmjUr3HDDDeG1114LW2+9dZyq+S9/+UuYPHlyeM973hOGDRv2jqF7TI88adKkOO10c3NzmDhxYnjiiSfCU089FV/fZJNNVr+fqYlZz+jRo1d3Tc+bNy/cf//9Ydttt+3xcKAXX3wx3HTTTXEdW265ZZxS+K677gr33HNP2GijjcLw4cOL0srrfM/06dPDAw88ENP63HPPxfcX3kqDafW5xyTpJ60snz9/fvwM39XT4RUvvfRSuOWWW8LLL78cNt988zilMNuCB9MKjxgx4h1Dt9iW/A5moH3mmWfiNkrTyj4gren7SeuDDz4Yfy9TwJPWV199NS7bbLPNety1Thpvv/32uH35POvj+0kP07bzPYX7iumG77333ric9LGNpk2bFv8mnfy+NK1Mpf3QQw/F6bTJM6z7kUceCW+++Wb8fE+2K9twxowZMc8tWLAg7iumQCctpIHvZlsVblfSymt8N3md3/X444/H/MBvY9rk9LdxDLB+1pNOrc97X3/99fi+ngyvIK0vvPBCuOOOO2I+Yr+SH/l+0sN3k9bC7crtXaZOnRq3CfmH9z322GMxrXx3YVpJE2llPenU+k8++WTMB2z/nuQB0jp79ux42xzyAscGSMt9990X00N+LUwr02M//PDDcfvPmTMn5j22VZqmwv3A/VhZzm9Ip1V/9tlnw9y5c9+xrbuDtLJtOK5Jc3rMkxbyAUh/YVq5XyxpY/un5Q/Pn3/++bidCtNKvuQeszwnbeB9/EbyULqtu4O08n2klXXyPRy7pJPjhW3BMtKf4l63vMb72Mdsf/IAaSBNheUGtzgij/G7yBuUh+l25XlP8gDlPp/961//GtfLLZPYx+n3sy6+uzCtixcvjnmOfMtn0vdSDvDbWUeaVvIl25D9wu/m9XS7ktae5AHSymdJK+UAxxZTy5NfyQd8x5q3fKIcoI7iGCctlPWUr+Sl9Lex/cj/rJd9QH4lD7Bd2IeU0Wn90F3sG/YR6yQvkNa0TCS9pJF6tjCtvI9jnt9J+qgzSCvlM8civ420vvLKKzFdjz76aPzNbEe2PcvIx5tuummP08p3UA7wvel25XjhO9hHHFuFaWVbPv3007EcoJyjziCtHJu8j3Wwr3nf3XffHfcPyzmOyCvkGb6XtBaud334Pspz2ip876hRo2J+pRxi27JP18wDlEPsVz7LsUV6SCvrAfshXS91DGUWxyfbnLTy23idOjLN193BfmS7UhdwbJLWtA6njGf9a+YBjie+k9tmUH6Rf0gr5Qj7nu2Vrpe6mzYDZSG/m/eRB/gOvqsnaWVfcAzQxmPdtN34zX/729/iMUMaC/cV+5b0sc3Ja/w+8g/HGtuR9JBnWC/5+rbbbotlBtuV8pT3sQ/Zd7STeppWjoF0X/F5lpHH+P2kMW3PpCizyM/kZfIN300a2K6kPz22eI32G/UEaaVOZRvzXZQltAl7klbWSdnD72c9fJ79Q54gvWxTvqMQ5SrHPscK5Rz7hLRyjJNnOLZYL6/dfPPN4e9//3ssA1gPbSzWzfZgHxZug/XhM5SvrJN8uNVWW8X9w/oos9imfE8hfgt5lH1KfiBPklbKTsom8jd5hf11/fXXxzKDZbyfsoXtQn5mH/YkrayTfXfjjTfG43ubbbaJ5SvbirKF7cr+K8T3sB+ph8iL5AfSSh7i/WkbhTLr2muvjWUG5T6/mfzAduG4ZB/2JK2l0G/BIpmRDXXSSSfFipCGCpUEG+zAAw+Mr6UBJDucDUNGZ8Nut9128bXdd9897LDDDrFg2XPPPeN6eS8Z5pprronr3XXXXWOhQfDIQUzhs/POO8f3dReZlYx6zDHHxPWkaWUnHnDAAbGwSguLNK1UuGQGMjvp3GOPPWKjgN+94447xvdywLMuMjBp3mmnneLBSYajUUdlyXt7UunyGdJzxBFHxN/K+imAKYjGjBmzOvOR0fl+/qfioDDZfvvt42O33XaLhSy/m+2bvpd1ETDz3ve9730xY5NWDgx+F+/tScOLtFKwHHTQQXGbpWml4vngBz8Y93faSEzTym+jMCXg5/vYv2nDgnyRvpd9TyFAJcFyDjYOQL6PQoKKrCfblf1Dw+tDH/pQLLDJlxSc7F/SkDbI0/1PWvkuKjDew3blfRRS5CHyb/r9fDbNmywnD7CNKcjIu6SV/7srbcizDSlIKVz4DtbDvuV4Yd9R6IO0UhCRp8nHbNdddtklHovsX5al+5WGGA0dfgMFFuuh8UPjgu3Od/QkD7DPWWd6/LIfec4+5bhh/7Gd0t9PWjmu0sYExzK/if3L91OZpNuVYIBGVlrBUpGljba0IutJAEaeIm18J7+RPM82Y7+TVrYD6WObkAfIIzSeyANsQ45ltiv5m3zCcch6+Ay/k8qZfbfFFlvE30OeI63sA7ZrWpF0B7+ZtL73ve+N6+J3kw4qNNLCdmf/p9uK7cHxxnbluyiL+J1po5e0ctykjRkab+RR1sXv4diibEZP8wDHPNuS/UheZRsQcJAHSC/P2V7kAbYVaaV8pUFIHk3TyrFFHiDNBFqklTxAWtl3bFfyAPuJPJQ2EHqSB2hwsO04lkkLjSUagXwf+5fX2F7pfiUNNAR4kDf32muvmAf4TrY/aSLNrIM8wHPKCvYX25l18Bm2C7+B/cD6u4P9w3rYNnwf6+f44ntJP9uVbcl+BeU9eYDtQzmUlgPkH9JBOcZ+IB2si7TweppWyi/SyntZtmZjeV3YjqSXbcj3UX7xm9mu7F/yF9s0za/8DhqDfC/pSusC8iL7lfSTVo4D0ko9QtpYD/uQ1/bZZ5+4v9gGfK67SCvH0t577x3zZHrShHVSDrB+0pqWWZTB1BWUFYV1AfmU16jL+F1sd9b7/ve/P5ZNNJpZL8fG/vvvH/cXv43f0l0cR5QDpJVtmZ5MIV/uu+++8dhLtyv7im3O93JsUWamaeU4I3+QVvJPYblN/UoDnM/zfdSRpJV1pSf/uoNjgPSxX/iN5EWODeqasWPHxmO5cLtSLlLmsH8p50gHZQjlAOkj3/NbyQOsl31DXqJM5TeQFw499NCYVtbF/ugu9gnfTVr5PsoTtiG/4cMf/nDcNjznQb5I00oeYJuyHUkrZSXHSlqekK95X9pmTE+U8NvHjRsX08p7+M7uYvuxHvY35QttKPZl2oamnUK+5PglrfxPGsjXHFeUwbyP/MDxRrpIK7+Jep+077fffrGNzOfJA0cffXQs8yh31gyYusI6+X3sn+OPPz7+zYPjiXSzrTlxQHrStHJ8kFbyLNs1/U28h23NMc97OG5opx5++OGxjKFO4Hgg75xwwgkxf5CvelIOkK9Iz8c//vFYV5PnOJ6oUzhe+T7yJMcBaQVp5Vhhu7IdSSt1EmUqf7Ov2A4Ev6SV99DeYhuyPz7xiU/Ecq+naS2F7p+eKDE2bnrgUzCysTh4KVzYeLzGQUHGYQPyfl5nR1OApMisHHg0pGiY8V4ywcknnxwPRAowNj6NYT7bkwZXigxLOnmwTgoKKjZ2IGnlgCCtfD8HYZpWMi+FEsjcpJWdT8ahcOG9pOfEE09c3WggrbzGb2Ld3a1sU2RYvjNNK+kirayLSpi0UkGRacnsHGT8DgrKNEOTVrY7hS3rodDmvaT1uOOOi2njvaSV1yhEWEdP00rBynr4Dioj9h0VJvsvTSvp5zvY5hwspIFGZLpdKQTYXmxr3s9Bz3r5mwKL5RTY/GY+T2HS2zyQVqoU1KSLPEtDi4OW9LCMA5nlVBakYc208lsoyNgfFKasl/xPRZDmVwphKmvyBO/rKfJAWlHx/fx2tgnpZz+xvdnWbCveS0WUvpf/QVp5nQYfaSDYJK2kkUIsza8UhAQYvK83hRfbKs0D5EHyHmklHWlaST/biuOKwphtRFp5DfwWKgb2S9rQTHs3qLjZ3mla+a2UMT1pGKRIK9/N99KYoRIirexffjvL2Ubse97LdmGbk4702OK30CDk8zx4D41P0n7IIYfERg9pZTvwW/k9NMp7iuMF5EG+h/1Jvkq3M99BI4XtkVZy/Db2Y5pf07Sy//kM76Us4W8ahDS8WA/5nt/Acdub7Upaabyyvzk2+d40raSdvEBa2cdsXxoPvJ/jJk0r708b6aSX95JfyKecjKIcAHmFtHLc9qTBlaLMZlumaeV7SS/fm+YB0sr2JA9SD/AeGhDpsUW6yDdsK/IF72WdNLgoc8mnPFgGvisN1Mlz3UVaWQ/pIq3kKfYVaUzXSfrYr2xX9i3rp+GYIp38Do4Z0k9+4PfScKNxw/p5zueoD/iu3qSV/cJ2Yn+Tj/jtLCPdPOd/0kda2X7sQ97PsZ3imGM56yDfk1a2AcEXjUZ+P3mNdLK/OLZYN9uku/hdpIvfxm/l86SD9ZJGHuQ/6jGObbYdD+pPju0U7+f3kFY+Q1pZJ8cVZWyaB1g3aeV72Gf8nu5K08rv5rOsg79JC3+zjVjONiOt5Fu2LXmBk8Eptg9BQpqPeC9lBccVx1ea1vQ44D28Ny2DuiNNK+spTCtlE9uT9bKtSCPlK9uX7UraaI+k2D6kj3zBscV7WQ9lK/ma9fOctHIckFbyNtuku8g/fJ4Hv5N8xL5ju5HWtIxl/9Ie4HeleYDgIcXnqVdJP8cWdT7vTess9j3p5Tfy+9P2RG/SynrTtLKt2Y5sT9LLd7OdCWJ4L2nleVpmgnTQdiH9pIW0ko7DDjss5mvSynZln/MdlMvUexyT3UW60nYKDz5POsifaVzAtmWdtLVJK/mV9BbmV/YFr5Mufht/k18/9rGPxe1HHqHeYj2klXxCvcd3dxfble8mnaSJuoi0ss8LYxi2R3rCl/fzOmV8iu1KrywdOaSbOIX/6UTj9/N50kfeYv+R7vS7Kq3fgkVQIBQig3FApHhOzx0bnTMjVFBphQt2OoUGG5/3EM2nhSDPUzQc2LkUFmzs3mC9ZLgUO5DvSZeRLnY4hQ+Zg6Cw8LdQgJFRKUTIXPT6UCimaU3Xw5kOMguFcNoQ6inSsK60sl4aJmwTDkQOqjW3Fxk+bZBzRiqtgAvXQ+OMAqKwIdRTpLVwn5DWwu3B35wVJa3sawrRwu1KQ4vtSFp5Lw0DtnHhduWzFHRUwvyu3uYBGkGFn2X9hfuI5zRKeA9pZR/y+1LsW/IRaSV95BECgbRwBWklSKMh29e0si1T7Ef2Ubpdec738z95gG1DAZeicUAaSQfLaRiSVtLPZ9LtShBHIcZv6m1a+Z7C7cj60+9In3MWlt9EWkkH+zxFHiANLGddnOmk8E/TCtJKEMky3le4bXqC9Rfmdf4u3K7sMyoujmHKp3T7pcgD5AkqAtZFwMXxw7LC/Ep5wXr5Hb1NK+srTOuazzmmSSvfScXPcVO4XQkk2H7kDdLKe9Pe5DStVPCUF6yX39GbPMBn+J41j6V034F0cTaW91Cpk3b2eYpKmPSQBn4H72XbFa6HtNIo5338jt6klc+yvsLtyPPCtHI8pyev0kqefAHSQB5mn5KG9L2kldfIozTEyDfkU9bb2+Mq3a6FaeVvtkmK45b9SqOFhgl1ZPp+0kNDjP8pd8nH1BVsY5aRRznZSFrJz31NK9+7ZlrZhqk0v3Js0VgiTYVpZVvzO2jQkkdJK9uY44n9Th3AfkjLid5Kt2vhbyVfFq6T/MrJafILdQFpSvMI6SH9BAHkU8o1XudEJvUpAQR1QFrm9SWtaX1aWIbwd+E62a+UQ6Qv7aUrTCuNao45fg/lJ+9lGxLQkwc4CU4PI+skvb3F9lxbWgvXyd98P99FucM2SvcD+YK0EkTwG3gvbUOOLV4jD9D7RRuBzxfWzT3FfmUdhWklHYXr5Nim7cJ24phOOwpAfiWtHHMc//xueukpa3mNthWjy2h78Tv6mtbC7crzwvzKc/YrbUK+m7xHOyYtj8kD1A/kWfIAxxxpJWjh/ZS9DKn9wAc+EL+HdfVWmpZCax5bbA/a2ryXTg+2cfrbSCvblMAsHcFBXMBnSCv5m1Fc6Wi2wrq5p9b2+TXTynFEDEP66MFlGxWmlXxBeUq5xHalB520gjzA6DhOHqxtu1Ra70r2EqAw5WBhg1FosgE5uFjGwcUj3agUoJwZYdwyQSMPInUOfiritGDrCuunQcl4XzIXf5Nxuot0cbDwGdKRppVlVE6kLy2w+JvCim5kzhiQVj5DocrBlf6mrpBWfheZhDMiFIgUdN1F5qWRymf4XtJFWllWmFYyX3q2gzHeBLgUErzOd1IZpIVFV1g/Bx9jtNNhjOy37iLz83vTtKYHH8tIK+tiWZpWGgPkAb6LtLKd2Zc0DgsbGWti/fwuKjWGBnDQ8rt7kgdIF2lM08q2YTum25TlhduVtJIH2P80qNJtRX6lQO0K62Gd7A+GYpOHOAvYk7SyXUkD249tRJ7jkaa1cLuyjLQyXJPvYruSVyioqKDSgmttSBOf55hK00pDmN/QXXxHmi7SyjZcV1qpsBhCwlAa0spztg/bdH1pZX00GEkr12oQDPU0rayDdLB907Smy9K8n+YBKlHSSgMl7W2k8U1eXVfln6aVfEN+Ja0E7+n6u4MKi99GOniQTtabPudv0g/SToOWa5h4UIHROOQY4XPrqqTS7+CsNGklv5NW1t9d7DvezzHC72b7UC+wXtLGd6Rp5XXyGNuU7yOt5AHyMNZV+ae/n7P97BfKA47JnqYVlFHsj7TcIe+StjXTyv5m/9HwIwhg2/BZ1lNYb5EGTrxQT3CygwYxZQzrS/MW2yRdd3ewfvIi30da2Jd8Pt3OPHjOd/M3ZSnblKFVaX6lLGA9hWUW7+d1fg+NcRplaVrZvmla+e7uYjuSPr4vTSuPNO08+A6+m/Wz39K0EmBTF/NgPYWNNdJBbyTHPQ1dghrWk+6/dBt0F+/lO0hH+ltJJ9soXSf7i+/gu3lOOUBaybPs4zStvKcwrXwuzQMHH3xwbETyXWyTdL09TWu6zdK0sk/Yl6wz3V+FaaUspXzk0hTKHxrelAW8p7B8Zbux3dmuNGY5Mbrmetku3bW27Upa2T6kgXVyjPEe0sq2oMziGkWOY+oC8jXHG3Us6U2xLvIA72NUDCcQCtfb07SSrjSt6XEPynT2K8tJS2FaSRcBFWlgm/E65Rhp5X0p0pMGtUceeWRMK9s9XW9an3dXmlbSwWfZFqyHMp3jm7SzjHWmaaU8Tdva1O1sH/IwJ2sK08p6KM+4fOKoo46KJzvS9bIujofC/bA+pDX9fOE2pExnGenkQV5J08p2of3JdqXNxDLaLmtLK2UWefuUU06JbUbaxeRt1pWWcz2RxiuFvzVdlm7X9HjlOb+H6xVJK21YllF/FY7kSFEGENR+8pOfjGkln5BWkG97mtZS6LdrFilYCC7YcBzIRN+c5eTgpxIiWCHz3XrrrXFjUsjTu8EOoCLlvRx06VlNNjzvTc8mc9CROejip9Dls5y9I+NzZqknmZj1cQCzg1knZ2D4ThrYFKikhTRygHFmiDNIPMhEnAklMCat/M3BQFrJ4GQCCgLSyjagYCCtnC3jzBjv43f3JGPwXipSDhzSym9lm1BZUaByEJFWxkHzXZyVobJnu5BmDjAaU2wrDlK2N/uE30BaOejYb/xOKggaNpwZ4zfwd2Hltz6klQY7QTEHDfuIgJoGANuL7+d7qLhIK7+FxgnbJf0utj/bjfSRBvYJyym42f7sN34/DQW2KwcdeYvP9GS7sk4qcrYNaeb72e80BBkGy3fwnCCGPMl2Ja1sr/SMLPma38M+IK3sEwoTfieFDYUB+Yp9z/o528S6SCt5sLtIa1qRk1a+n9/Msca2Jp2sl8qA7cZ25fsorNmXFHh8nvfxIG9QeZFWXqPQI628lqaVvMxz8sS6grY18bsoGEkrhTz5jm3ENuV4Y1uxTcjP/K40rVRu9CyQHvYx24o0kFb2AduX35amlddJK3mdbcF71+z5XZ+0HCAw4hjjOGId5Am2JWkhT3Es832klWOez6V5lM+zv0kDaeXEBZU4v5P/SSvvYzukZ8VZF/mfz3UX6aAiJ618Z/pbudaPcoBtSrrI0+RN0ko+Yd9xDJIefiPP0/KVfUDlTHpIO2klTXxuzfzKvuouyhzKKk42UN6wnyif2a5pmcX3cPyQZo6t9JgibXwnv5X1kHdomPE7STOfpSHAg+2a5lfyKullH/Ykv/IdBFXkMbYB9QtpIp2klzSxXtLK8UJaqa/IG6STNBDY8j95kICcz7Gt2U/kHY5ZGmyshwYxxx5lGXmCz3UX25BjivKU35/2DqZpZR/xnG3P9mDkDtuD7yC/cIyxLflNpJ008TnSyXr5HOnjPfwW/qesZrtTjlDWdhdpZV18njxGWtkvlFeUD/xNuijv2af0uKTHP8cG+4DGN3mcPEGDjbSyr8gb7A8CIdLIuvgNNIQp88gPPakL+AzfRcOT7cr+5fMcH6SVPML24vtJH2lN61PSShr5rWx/jm9+L/mVMpBtynamjqVRyH6hbuQ45tigjuxJWsmD5DdOjnC8klb2Z9qW4XXSxPpJD20b9h1ppRwg/QQKfCfPSRuf5feTXtbJNuY72O6sk7KbsozeqZ6mlf1G8MF+ovwjD/F9bAPKdLYjeYJtSI9RWlaQZv5nu5EOjh22K+Uy6yJNrJu0kg8oJzjWWBfbmeOUPNRd5AHqbNob7EvqFY4B0krdSdlA+5Vjl7TRjqMXmd+Y1glsK9LK51gXbQm2I/mItJJH2fYci/wu0srr7KOeppUgiuCDdZJW8icns3metkn4LWlaKV/5HP+zrTnu0jYOv40yhX3P72U7s10pEygPSSfHG8vpSWO/dAffR5nDMcR6+e3sY76fNij7izSwzQi82fekld9DO4u8TRnBccf7+I0cn2lbm/Y55Sj7hzzB5/ke6kDyNb2VPUkreZu00q5iO9IrSH7le9J9y76j44d8m8YwlI/kbX4X24p2N/uTY4aJjWgb0IHDd7Ad2Q68n+9hP5B/+a7uprVUvM+iJEmSJKlI98c0SJIkSZLeNQwWJUmSJElFDBYlSZIkSUUMFiVJkiRJRQwWJUmSJElFDBYlSZIkSUUMFiVJkiRJRQwWJUmSJElFvCm/JGmD1d7eHh5//PFw//33h6S+i8s22WSTcPDBB4dddtklPpckSWtnsChJ2uCtWrUqTJs2LdTX14c999wzLmtpaQl1dXWhoaEhtLW1hdbW1ric93R0dITa2tr4NwEnr6OxsTEu47M8+CzLampq4uuSJG1IDBYlSRu8wmBx1KhR4bnnngsrVqyIzzfddNPY6/j666/HoG/JkiVhxIgRoampKfZCLly4MCxatCgMGjQoLt9oo43CvHnzYhCJbbfdNvZSGjBKkjY0BouSpA1eYbDI4+WXXw4jR46MQSBB4YABA2IQSEC4ePHiGFAuWLAgLF++PL4+bNiwMHjw4DB79uz4mS222CLstNNOYcaMGWHlypVh9913j++TJGlD4gQ3kqR3FYaebrzxxmG77bYL++yzT9h5551jIEgQydDTNXsIGZJKL2JnZ2d8nc/zN8vS5fYqSpI2RAaLkqR3FXoN6Wm89957w0MPPRR7ENcV7PH6lClTwt133x2Dwx133DG89tpr4brrrguzZs2KPZJcuyhJ0obGYaiSJHWBIakvvfRSGDp0aLw2UZKkdxN7FiVJ6gIznTKpzZAhQ/JLJEl697BnUZIkSZJUxJ5FSZIkSVIRg0VJkiRJUhGDRUmSJElSEYNFSZIkSVIRg0VJkiRJUhGDRUmSJElSEYNFSZIkSVIRg0VJkiRJUhGDRUmSJElSEYNFSZIkSVIRg0VJkiRJUhGDRUmSJElSEYNFSZIkSVIRg0VJkiRJUhGDRUmSJElSEYNFSZIkSVIRg0VJkiRJUhGDRUmSJElSEYNFSZIkSVIRg0VJkiRJUhGDRUmSJElSEYNFSZIkSVIRg0VJkiRJUhGDRUmSJElSEYNFSZIkSVIRg0VJkiRJUpFeB4sXXnhhmDFjRv5ZCAsXLgzf+MY34v/dMXXq1Pj+FStW5Jfk8PynP/1pj9Zz9dVX559JkiRJkkqh33oW999//3DBBReEgQMH5pdIkiRJkqpFWYJFevvoeTzxxBPDgQceGHsg6S0cNmxY/B8su/XWW+Pf9CLyXl4/66yzwtKlS+Ny3sPnWc7raW8jPYks4zF58uS4DPRK0lu55vslSZIkST1Ttp7FO++8M1xyySXhsssuC5/73OfCIYccEl577bUYCBYOX8XFF18cxo8fH5qbm8M555wT5s2bF5e/733vC/fff39c/r3vfS+uk89OnDgxvPjii3F5oT/84Q8x2GT5z372s3DllVfmX5EkSZIk9UTZgkWCv5EjR4aNN944HH/88WGvvfaKQ04ZflqI3r/58+eHI444Ij7fcsstw0477RT/RtojOW7cuDB79uzw2GOPhY985CNx3SAIBeshmNx3333j+/mfwHLNayIlSZIkSevX62CRHsI333wz/6w8GG663XbbxZ7CRx55JAwZMiT/ytpts802q3sceXhNpCRJkiT1Tq+DRYK4CRMmrO65o1dv9OjRq3v8uisN5p5//vn4/9y5c8Nzzz0X/6Ynceutt45/06NIgMrzBx54YPX3ptcspushHZIkSZKkvul1sHjKKafE4HCzzTaLwz4J4L72ta/lX+0+gjyuMzz77LPjen7yk5+ELbbYIr520kknrV7+5JNPxp5FhrEWfm+K9fzgBz+I1ymynIe31JAkSZKk3qlpbm7uzP8tSZIkSVJUtgluJEmSJEnZZbAoSZIkSSpisChJkiRJKmKwKEmSJEkqYrAoSZIkSSpisChJkiRJKmKwKEmSJEkqYrAoSZIkSSpisChJkiRJKmKwKEmSJEkqYrAoSZIkSSpisChJkiRJKmKwKEmSJEkqYrAoSZIkSSpS09zc3Jn/W5KksupMapynn64NM2ZU9lzlLrt0hJ137sg/kyRJ3WGwKEmqGILFH/6wKfzyl435JeVHoHjOOavCCSe05ZdIkqTucBiqJOldZd68eWH69OlhyZIlob29PTz11FNh2rRpoaWlJf+Od3rllVfCs88+G5qbm+NzPjNz5szw/PPPx7/XhnU999xz8X2SJGWVwaIk6V2lra0tBnMdHR2hs7Mz/r1q1ar4WLZsWXzw94oVK+L/m266adhhhx3CkCFD4meXL18eH62trTFY5H18htfA+njOcpbxPStXrozP+VuSpKxwGKokqWKqYRjqnDlzwuLFi8M222wTBg8eHJ544okY/BEYLlq0KNTU1MRexxEjRoSmpqbQ2NgYNtlkkzBgwIAwf/78+BrvZxmv85m6uroYTG600Ubh1VdfjYEh79l6661DfX19eO2110JtbW1c51577RUGDRoU0yJJUjWzZ1GSpMTQoUOTwHKXsO+++4a99947HHDAAWGrrbZa3RtIgDl8+PBw6KGHhj322CMGizvvvHPYfvvtYw8ivYkEkiz/8Ic/HHbbbbfYy8gyAk4CRP5+/fXX4/okSap2BouSpHcVhp7S88fQUP6mJ5Hev/RBDyDL1ob3p8NX6VHk2keGo+60004xSCx8Dw/WQxBK0LnrrruG97///WGzzTaL75MkqdoZLEqS3lUI1hhyesstt4TLL788vPzyy/G6xIaGhvw71o730DPI5x577LHYa0ig+MILL4THH388DlFlKOqCBQvCTTfdFJ5++uk4zJX1PvPMM+Hee+8NM2bMiMGkJElZ4DWLkqSKIU7y1hmSJGWDPYuSJEmSpCL2LEqSKoaexauvbgi33VafX1J+XH54wgmt9ixKktRDBouSJEmSpCIOQ5UkSZIkFem3nkWmLb/99tvj1OMHH3xw2GGHHcLs2bPD5MmTw+jRo8Nhhx0W70slSZIkSaq8futZfPTRR8N2220XTjnllDil+JtvvhmmTZsWxo8fH0aOHBnvXeX04pIkSZLUP/otWNxmm23i/aYeeuiheB+qpUuXxp5EHvQsNjc3GyxKkiRJUj/pt2GoU6dODW1tbWGLLbYIDz/8cNh7773DK6+8Eg466KAwb968MGfOnDB27NgYMC5fvjz/qbctXrw4DBs2LNQwzV2VW7ZsWRg0aFAm0sq2HjBgQKitrf7LWbOUVoZdcyKkrq4uv6R6rVy5Mt5EvNrTSjrr6+vjo9pxA3jy6fpu+l4NspRWboqPLFyykKW0tra2ho6OjtDU1JRfUr1oR/CgLqh2WUpre3t7zLMDBw7ML6leWUorxxV1F23CapeltKaxAp1PWTF06ND8X9Wv34LFm2++Oey///7hPe95T/x75513Ds8991w45phjwsyZM8PChQvDmDFjugwE5s+fH0aNGpWJAIxeUzJwVgJbCtwsBGBZSiuFGA2vLASLpJUGbbUHYQTgpDELQQ0VLvs+K8EiZVUWgpospZXGLA2aLARgpJWGYhaCGgJbArAsBAqkk/RmJa3kgywECgSLlAVZCcCou7IQ1JBW2gNDhgzJL6lelK20CbOQVixZsiRTwWK/tbL33HPPOMHNLbfcEjMkw1KpmK677rrwt7/9Ley4446ZCK4kSZIkaUOU2fss2rNYHvYsloc9i6Vnz2J52LNYHvYsloc9i+Vhz2J52LNYHvYsllf1t7IlSZIkSRVnsChJkiRJKmKwKEmSJEkqYrAoSZIkSSpisChJkiRJKmKwKEmSJEkqYrAoSZIkSSpisChJkiRJKmKwKEmSJEkqYrAoSZIkSSpisCgpcx56qC58/evDw4knDgs33FAfli2ryb8iSVJ1aW8P4emna8P48YOTx8jw5z/X51+Rql+/BYsPPPBAmDBhQrjyyivDddddFxYsWBBmzZoVLr300jBx4sTQ0tKSf2e2UUAsXVoTOjvzCyT1yfTpteH88xuTyrYp3Htvffje9waE+++vy78qqa9WrqzxBIxUQnPm1IZPf3pguP32+jBlSmP42c+awl//asCobOi3YHHs2LHh1FNPjf8PHjw4NDY2hmnTpoXx48eHkSNHJg3C6UmAle0IiwbtBz84OBx66KbhH/5hUHjrLStfqS/mz68Jv/lNY7jvvrqwalVu2euv14Trr68PM2Y4UELqi+bmmvC73zWGgw4aHg4+eKPwrW8NCC+95HEl9cUbb9SEiy9uCLNn544lOhGef742XHBBY3xNqnb9Wgu0traGhx9+OOy3335h8eLFMWDkMXr06KTSas50sPjww3Xh0ksbwsyZteGVV2rD5Mn14Sc/aYxnlzo68m+S1C2LF9eEP/6xIXziEwPj/0uW1ISafB1LxfunPzWEr31tQLjppvr4mqSe+8tf6mIDdvbsuvDyy3XJcVUfzjuvMbz6qseU1FPURZdf3hA+/vGB4cILG9/R9kuav+HBB+vCKacMdEiqql5NEpT1W0RG7+Ebb7wRexfnzZsXh6EedNBB8e85c+bE5QSMy5cvz3/ibYsWLQojRoxIGozVU4nRc3j33QPDHXc0JY8BcSjP2uy5Z2s44IBV4cADW5LfuCoMGNC5uuHb35YuXRoGDRoUamur/2zysmXLkm03INTVVf8QRPJwU1NTZtLKSZv6+v6vwFasCOGvfx0Y/vd/B4fHHmtI0tUZPvrRFcm2DOGRRxqSILI27LtvS5LmmvDQQ03xmOP1r3xladhhh7b8WvrfypUr475vaGjIL6lepJXjnzxQ7Vblu5c5tqpdtab1jTdqw9SpTeGuuwaEBx5ojEHimoYP71hdb40d2xJ23bU1DB5cHSdzOenc1tYWBg4cmF9SvUgn6c1KWrkciPZAtWtvb4/lFqPUqgFDuO++uylcccXgMGVKUxg6tDMcddTKsO227UlgOCBJb2fYeuuOZNt2hIkTB8Zj6bjjVoQzzlgadtmleuqtjiS6pT0wZMiQ/JLqRaxA+3Xo0KH5JdWNbTt8+PD8s+rXr8HirbfeGnbbbbewzTbbxJ7FKVOmhGOOOSbMnDkzLFy4MIwZM6bLoGX+/Plh1KhRVREs3nlnffJb6sNtt9XHM7B0iFI4IL1ecdiwzrDXXh3h2Wdrw5tvvn0N4+jRnUnQ2BaOOKI9+e1tSebp38CRAIyKLCvBYlbSarDYM5yB5bhi6A7XI3IcHXFEWzjrLBqs7Ukl25kEkitiGtMA7C9/qQ+//nVj0vCtDVtu2Rk+/enWcOqprfEY629ZChYJaihXsxIsZiWtNLxp0FRLsDhrVm247rr6pPHaEJ56KleGkj0bGjqTtNbEY3DEiM6w8cadsWef4d7pe7bdtiMcckh7PCbHjGmP7+kvBovlkbVgkbKgv9PKyc0pU+rDJZc0xGsTBwwISX3VFr7yldYkWMwFgQQJ1F0EtgSV9OZfemljuOeeulhXnX32qnD66a1Juya+vV9lLVikTZiFtGLJkiWZCWzRb8EihdCf//zn5AA6KvYQsqPvvPPO2GNIw+rYY4+N1y52FQz2d7D497/XhYkTc0EiE24wFA6HH94Wg76jj25LCq4QfvlLztS2hy99qTPst197DBIZesDEHJMn14VHH62LwxFAQXHkkbnPs57+aFMYLJaHwWL3MdPp//xPQwz+6K3fc8+O8LnPtYSPfawtbLLJ28XVmsEiuP6DYaoEmVxrddBB7eHLX26JDdv0BE5/MFgsD4PFnuGky8MP14Zrr22Ik2u88kpN0rjKncikMUv9Qxa9+uq6sHBhCCee2BGPIY7Dxx+vTRq09eGuu+rCM8/UJb8nxAYtgSOf/chH2sK++3bEE6OVZLBYHgaL3ZdsqtgOZAj31Vc3xOOCnsOvfa0lfOYzre9oyxUGiylOxlBn8fnW1prw4Q+3hX/6p5Zw4IH5hmU/MVgsH4PFCumvYJGx5RMmNMRejzTI22OPjiS4bQvHHdcadt21I2kU5pan6BqnYFhbWilgmKzjrrvqwx131McKGLvs8nblzZnbSrWFDBbLw2Bx/V57rSZceWVD+P3vc4HeqFGd4ZRTWsOZZ7aGbbYpvtB3bcFiirO055/fFKZOrUve0xk+8Ym28NWvtoTtt++fC4YNFsvDYLF7CAo5uXnddQ3xZEyy2eKJl8MOawunntoWxo5tT8rSt5sCpJWGIsP817RiRU2stwgaqbcIIrk2i6y94465eouTne9/f0dFTtAYLJaHwWL3LFpUE+en+P3vG8PcuTWxN/6001rD5z/fGt773uL6Zm3BIjgm77uvPvz0p4yOqQsbbdQZg82vfKUlyS/5N1WYwWL5GCxWSCWDRXorqGQnTKBirIu9iCNHdsbew+OPZwhp7mxsV9YVLBZi8pu7766LPSo8kvZlROBIpX7YYe3h4IPL2+NosFhaVB7/93+NSX5tC//4jx1hjz0615lXqkF/BIvkd86q0pDlLC2961SUe+/d9YmSdQWLoIH8v//bELf/vHk14UMfag9nn83Z2rY4PKiSDBbLw2Cxa5zMfOqpujjUlEskmGwN9HhQb51yCgHd2nsu1hUsFuI7mOGRXkqCR0bccJkF2ZyGMkHj4Ye3x1E1NH7LwWCx9ObOrU3KTnqXOdHWGT74wf7t4Vqf/ggWk+on3H8/lz40xJMmXHdIXv/iF1tib3xXugoWU7Q3/+M/msIf/tAQ66lDD22L9RadBpVmsFg+BosVUolgkesLr7mmIfZ2MGV/ctyEnXfuCCefzLVQbWGLLTricIP16W6wWIielTvvrIvj3hn6w1kn0DNy6KHtMXik17HUjV6DxdJh6NaXvzwg9kKz/7bcsiP86U8ru2ygVYtKBov0UHBW9vrrG2LPIhUiPYnk7fU1LtcXLKYmTaoP557bGE/00FvJkFaGBm2+eeWKPoPF8jBYLMbtL7jOlxmC7723LvZ8cCjvtlt77GFnFMx22627h727wWKh5KeFl1+uTY63uhiccuKHHkeKZwJUGtLpNY7veU/pjj2DxdLixvHf/e6AeLkMTRZO2H3/+y1x31WrSgeLXL/LLMGXXdYYT25ybH31q61xJMz6rC9YBMPFOcnz3//dGG8JxTXB55zTEr7whcref9xgsXwMFiuknMEiZ0mvvbY+jj3nzCk4U0RBwIQZPa3rexMsFnrmGSrg3Nnhwmsc3/e+jnidCD2cnPkrRXvJYLHvHnusLvYQ33BDfXj22bfvB8ju5ww7E69wZr8/J4VYl0oEi2wTAsSf/7wx9njQC/HJT7aGT32qNWyxRfe2S3eDRVDhXnRRLihdsKAmHHdcW1L5rgq7716ZYakGi+VhsPg2eiTo4eCa3QceyJU7DInjuidOcHLdbnfLnN4Ei4X47unT6+I1/TyefDJXRlNUc40jIwcIWvfZh+Gv8aVeM1jsO3rJ2F/UW5zc5GQDwT+4coKT5Ged1RKvpetu+VxJlQoWOflxyy314Te/aQjTptXFkx4ME2XY6aabdm+7dCdYBCPYmISKYam0RZnUjWPmm99sqVi9ZbBYPgaLFVLqYJFCgOsROSipaDlbhI9/vC184hOtcThNb9t5fQ0WCzGWnWtPeHBT1zSdH/hAewwaqYS5bqS37XyDxZ6jouW+mjTUqGwJENMhxOzytNItxJl9Cn7yFsOMq6mtW+5gkW3FBDacACH/coxxPeFOO3XE7dVdPQkWkdR7caQAZ4Tp0aTCpQHEfqBRXU4Gi6V344318QTAwoU14VOfaou9xcwmXa3KFSwy3JoRKFdc0RAeeSR3TTS95pxI5OQmJ6h6eij3NVgsxAgLehkJGikfX3wxV14TL+2+e24WcNK62269awAbLPYOvVePPsq1p7khxIy8WJ/NNmNYams46aRcoF8tyh0sErhxwpG646qrGuIkTiec0BbOOKO1xyOFuhsspmibMkrgV79qiMODGaH0z//cEk+ulpvBYmnRFqTd86MfNSVlQUf4x39sjycbsuBdHyzSaOR6xGuuqY+VGA1KzhD9wz+0xiE7e+7ZHs+s9UUpg8UU6WSIEUEjE+Nw3QgFGo0ChqhSAX/0o23xzFdPYimDxe7hupy//a0uTqRCTzR5J+3xZagwt3egATR5cm7W2yQLxImQmPThiSdq45lbhotR6Ywbx/Cw1tgDwMyE/a1cwSLbjCHdBIpcn0tvOMEaw9N6M4NiT4PFFL3zv/pVY3Lc1MXj6OSTc9dH7rBD7xqr3WGwWFqc2PvpT5vipQJUwEykQrD4uc+1hq237oxn4atNqYNFyhxGL3CCM731BWXPP/xDW9KYz52E6q1SBouF6P2k7OMaZeqvNHDkZA3DUznhybX59D52l8Fi9xG4czKcAJHtT/sHFPVcVnPwwe3xxDNl9WWXNcTykV5FrvemncG+A/uLSwW47pX2Rn8Xa+UMFtlm9NZTbxGsMaLrO99piW3E3uhpsAhOqlLW/exnTfEkGe0EjvNvfKNlrZPolIrBYmlxScAHPjB49W2IuAPC//7virD//tVz4qUr79pgcW1DTelpoABI781WqtiuHMFioaSMjEEJZyy4XmTevFzgyFlAAhaG3DExTnfqfYPFrhHgUFlydpzrSBnOSGUKpp7nQnQqzg98oOMdQR9ncJcvX5ZUsE1JAzxX2RIw3nprQ2z0vvBCLtAkWCT/ccayP4eoliNYvPturr/I9doTg4wf3xrvmbi2WU67q7fBIgobADRYCVyZqpzAtRwBu8Fi3zBR1IMP1seZo3lwcowG1NrQkOV2KxxPH/oQJ/y4+XH/V3OlChYZUcJJFxqNDOEmS3FSk+voCba4PrCvyhUsFuoqcExvIcVQfRpR6zuRZLDYNeon7v1MfUW9RfnLdaVg1zIKKTd5XlvYb7931lvLl3PLFK7tzuWB5ctzt0+5+ebcBHzkQ34GPWsMc+YEdSWvAy9UjmCRdhUTNv3XfzXGk/KUIdRbX/5y63qv+V2X3gSLKU4wE8RzLSMBPYHr97+/Kvb0loPBYt9wIpN2IiM+OEnNyb3nnnu7vUrT9f/7/1aFb3+7+nsX31XBIkMDuWaJW1/Q4EgbGxSUnCGjwCtHW67cwWIhAhMqBQo3rnFkiBYZlovUKcxpTHDGuavfabD4ThzYnFhgm9KwYfuC3mbOwOYq2vawxx7rvvaGApdGIgFDIe6vxLq57xm9lFQGVOD0CnONLJVBpeOLUgaLBNjMSEpgxiRRTNFPUMb1U30NyvoSLKbY5pytpZeY3imG9nzhC6096tnoDoPFnqFBy/0AGb7IsGV6QBiOlWLmQYpTbmpN+UZP4pZbdsaTLpwsS2Kd1Xjv9tsTQLbHwHGvvdpjb0m5ZufsSl+CRX4XwwQZjsZJQYJnGq8EUzRgmfSMGbpLpRLBYqE0cKT3imOS/U/2Yz9xSyrqLoaprq2oN1h8J9o1TJDHtvzrX3PHD+0AcCxwDKT1Fu2Crop50ko+WFsARg8J1zZywoLv4HYq9EwySoOTnZWexK3UwSL58Te/aYwzklLu7Lpre2zQc6/fvupLsAjKNoKPn/2sMbZNqLc++9nWODqGCdxKyWCx59g/U6bkToARZzCHRRprgDIs2awR1//+3/+tiG3JaveuCBZpsNKLSJDIuHN2FAXkxz+em9X0kEPauiwwS6GSwWIhzihyBpCgkUKFYBlUEEzYw5CTgw6iks0th8Fi7qJyAjgaZRzsaYBIg3TMmNx08FS2BHXdbU93FSwWolK//vpcbzdno+ghoUJnSBmNwUrd7LpUwSLXKP3iF41xIgB+C5PXEIhttVVpArFSBIugR4NGAeUDxwzHxre+VdpbbBgsrhuNT3otGCHBMcekXulxB+4JSJBHDzD7h558KuOLL66PZ9g//em2JNBviycgmFWXIJPgg/uW0QOSln0p4jWGbBJsMfyR/+nlLmex15tgkYYq16kTJBJE8VtpEI4bl7sesVQTm62p0sFiIU4qEYhQfjAjJ3mDIIdg8cMfzp2gY/+nQ40NFnONT06SMLKIIJHtxolIEEzQa0i9xQQ1XA7RHesKFlP0vj39dF28jIf9RVmaDlFlmCT7qhfnRnqsVMEiJ5/+8pe68NvfNsZtyAklJq/hdhicjCqFvgaLKUbHnH9+Y+xlpFlB+cjwWDoESsVgcf04WcnJGeojHgSKXEeeotnPicp99smNdhkwoDMG+q2tHeHLX26Pl05kwQYdLNJgoOF91VX1qwtOhmbSg8jZ2K7OVJZafwWLhRjvTvDDTF6coebsB2gwMcEHhQ2B5ZIlFPTt4f/7/1pKeqa6HEoZLHImm8YY2yjt4QN1OkHDUUflpn1niFdv2vvdCRZTVLhUvFdfXZ80mnOzGhLgMyyLs7Y0ast5cqOvwSJD4wi+OPYYm08v4te/3hJ7FUt5LVmpgsUUQ0TOPbcpBioMp+IaOM7YMqFAXxksFqN37IEHctf08qDCTdHg5LKANJgj/69ttsHupJVgg55JTlow/PuJJ+rCCy/UxIZhIfY5Z3j5Pq45pleLIKVUehIs0tig0c+ETJxEItilrGa4GSePejsZTHf1Z7CY4mw8w40pC6m3GMbFMjbfzjtTHrfHyy0mTszNEH7sse3hu99tqdhJtd4oZbBII5XylXxCvcXJEU4mgG1APuZ6eC6PYPKwnupOsFiIE5yU+ZzwJM+SdRhxQ28jPcOlGB7dlb4GiwTblD+c3GSiKKo+JvDhmkDSXkqlChaRrCa225hVnPKN/c4wWSaMK8XQe4PFtSO/MBopFyDmTnByPIJmPvMfpJ0xH/xgx1rbEM6GWiHrChYZU8+MVVQyVCagcmUSER6cma1k3FYNwWKhKVPqYuXL9kmvbyxEgfPjH6+KhXw1ThSR6muwSCOSHkS2A5VtGiCCRmp6WxIO/L628XsSLKboWWESFvIyhRG9DExYRNDKDKIEX5w1LrW+BItcg/nzn+cCLnoQCbi4VUg5rmUpdbAIgokLL2yMs0ty5vaoo9riiRPO2vaFwWLuMgCGdadDdLgeiOFeKSZq4MQC11eTt7l2bX16m1aOdfIovXZU+qSFHslC9CrQC0NZQPBIHujL/QG7EyyyfQgQGd7H3xyCNLjpNS3V9YjdUQ3BYiHKwsceq431Fo1jTkitiZOb3KP1X/5lVX5J9SlFsMiQUk5oMmKIhiqjIUBdTY8rZRY9z329vUJPg8UUJ+YZmkq9xYimZBXxJD3X43OyoxxD7voSLFLOM/Lsf/6nMR5zjGKgJ/H001vLMndAKYNFEKTQG//v/94UL/egKKS8+ud/XhX/7wuDxRyCQ0acUV/Q48yjsAyiCcqIF4JDgkTqjPUxWKyQNYNFzhLTg8hwHSp+di7YcQSI9CT2ou1bEtUWLKYoJCnUOZPGcK2krH0Hzu4TKDHcMn1wtp2erWpo8/YmWCRfEHgRIK4ZLNMwpJKlUcawgVK2k3oTLBYizTQiORGSNrDTCXG4jqKUN7nuTbBIw/viixtj7xxnt+kFPfvsltjQLddxV45gEQTlEybUx6CRCoITTZyp7cstNt6twSIBGOUxJ6jWHBJKrx0NWgJELgXozUQ0pUorPVP06NMYSB9rTqJD+55riBlpwOyQDAGlEdxdXQWL1F1cn5k2rmn8M5yWniGCRIYOlvL47o5qCxYL0YPFcGVGXjBctXAfgTxEPZU+uEZ/p51yJx8qMZJoXXobLKbBMnUWwTKX04BsT72cntjkNimlamb0NlhM0evF9VrkawJbygJORNOo5hIgRjCVovcLvQkWCWLpjbvggsZYr1IeMcEZM3T3Nchal1IHiynyyJVX1ofzz29K2jU1MdD94Q9XxdExvfVuDRYJwMmvhfUBIxtSHGOcAE+DQ/J0TyfrM1jsJgqiu+66K2mMzUo29EFh1113TSrn2UklMDkp1EeHww47rMsGAGfWZsxYkBSMGycN59oYIHJGhUg/DRIZrkeASOO/l+3zkqnWYDFFoX7iiYPisF0qXtoyjY0ceG/P9lmIeo4hUbvskhuqxYNhLswQVsm2cE+CRW4KTe8hle1TT719o/xdd+U6mLZYcdE4K+Wws0J9DRZTDCem14HZEBk2Q6DLtic4Y0Ic9ktfg7OeBIucReasLNdN0Lgm4D799NxEAOWe0bVcwWKKYV3MhEcvGJuCyW96OxPeuyVYJOiiIUvvIQEivXaFPXaM6qBngQqWAJH82pdNUsrAdk2km+F0aWOBY69wkh3KSRrqzLia63nsSBoQHXH52rz2GoFCZ/Kehhi0EBRyCwOCHtbPbJMEhZRHBImss79GdlRzsJhiZs9/+7fc5FRgu9fX5+qttWEUBsE+5SX7jf950Fvb1T4rtZ4EiwQzzJSdnthM76FJVuckLtcgMsqEYW7lqLf6GiymqKOYN4Jrwqm7OI445tkXnOxktnb2Q1/0NFjkhOtFFzWGSy/NXSrBKBgmsGEkTLnbi+UKFkH7jfYN18TRC89JJ4JFfltv6uN3U7BIPqXOp7ee8phyJW0ngjKCMjkdacJJw75UOwaL3fS3v/0tNpx222238OCDD8b/77vvvnD00UeHJ554IlZSe+yxR1GAReVA43TZss5kR9Umr+cqXc4E0IhjFkkCxX33be/3s4ipag8WQQH+k580hVdeoRelPQ5lYZgmwzKmT8/NRsiD5/RIri2IpAJgH6S9kFQG6d+cUSz1z19fsMhZQ4aZ0iB76KHa2BhDpQLEQqUKFlNc00QDgqCRyoHeGhqanBxhZt++/K7uBouc4f7NbxrikAx2Afcl5drEUs8k2pVyB4ugIcGJqEsuyQXnTNzAsFSuoeuJDTlYpDyg14Pp+bn2kHIiPdZYBQ1BzsCmvXFru/awt8oZLK6J38n9DAlSeFC+pNeIpWicbbNN5+pghGvr6NGix5Cz/gQAzMzKscqQ5/R2EQTNnGChx6W7E5CUUxaCRRBAXXghcxJQ/nBNZ2vseczVV7kAn785kVw45LnQwIGdSZnVuTp4zD2412NnyYf5ry9YpByn9538wu2G/v733ERP7Ib0Ok2CRNo35d41pQoWC7EPuFSBUTI0yMFwbwJGAkcmcuuN7gaLnEhgNBUznXIM07PJRDxf+EJLn+5L2hPlDBZTnNT6/e+5kX9jHHJPgMPw7J72mG7IwWLae5heFsGDE94p2jTU82wzHj0dSbI+BovddPPNN8eG3ty5c5MC4tDYkH7yySdjsDhv3rwwZ86cMHbs2HcEAhQ0hx8+KFaw7OgUwy+4hutjH2ut2BnCnshCsJjqTm8dDWh6Dwgcqdj4n31CY5qehbWhQqDbnjPvTBfMNNu5/6mocxcA97Qdvba0UgERHN51F5NZ5IIoUBEQIHLBf6UCxEKlDhZT6XWNBI1UfmnPB8Mi0rO2PR3Ctr5gkV7ayy5rjJU+xyTDYRm6Q0Xf19th9EQlgsUU1wgxXOn+++tjw/4rX2mJ27a7t1/Y0IJFTlZwkoAAkW3DsZ+WyVzzw3C43DUc7UngtO7byvRFJYPFNdHwpOzjuOMs9LRptcl2eedtO9aFhiq9rCee2BYDgHJc19tbWQkWQfBFYLOu3jp6DRiRVFhnUYcxzHz+/NqkLMm/sQCHaq7eosc4V3+NHp37m/pq661zz3uyidYWLHJihTKVAJFAhgnoqEfpVWaYNieoGB5Jw7XcvV6FyhEspghg7rwzV29x0pGTz/zefffN9TYyrLY71yyn1hcssn4CAWYP5eQf23G33XKzXtO5UEmVCBZBHmLoJJPfMAkSPYv/9m+rejT75oYWLNIe5LIIHlzaQ09iOhKB5jk9zFwWQZuGAJvr6MvFYLGbJkyYEIee7rjjjuGWW25JGvO7JA3PN+KQ1MJgkQxAZsXs2XXhlFM2Tgr3+tUNk49+dEX47/9+K2mIV09FuyaCRQqx7gyX7G99Teurr3KPrLowd259/J9ZRvn/xRe5z9477zdTiOFDW2zBuG8eTOTQnjxvi8t4bLLJ28Mr//CHweGqqwaFt94KSSXaEo44YlUSGDJJzcAwfTpn73MH/7bbMp6c11ckB35LxQPEQuUKFgvdd19TuO66QUnl2xQWLcrtv+23J0BeGY4/fkXYaafunUzpKlikUXPNNQPD7343JAkO6sOmm3I98Ipw2mnLkgZU784I90Ulg0WQf6+6amD4058GhzffrAvHHrsiCZKXJNt1/Y2NLAWLixa1JGnl+qK30zp3LsFQQ9KQbQyPPdYYnn2WCYByeYyyd4cdWsOYMS3x8YEPtITNNqvMWXoaiODYqgY0gmfP5tpMbtNUH154gRmNG+L2o8EKssDRR68I//RPubxTyQCguza0YHFdqC8WLMid7Hz55fpYtlFnzZnDrSDq42tdIe+PGsV1/G1JfdOe1FsE/W/XW+95T+4kKCf1br99QPjVr4bEOvCQQ1rCySevCPfe25Q05AfEYytd3447EhyujI/3v781qYvjSxVXzmAxxf0ZH320MVx77aBkOzTFMoXfO2oUJ/9XJO273DZYH4JFyti1BWCs8/rrB4bLLhscj8eRIzvCpz61LHz2s8uTgLTy9da60loOlEm///3gcNFF5L2acMwxK8OXvrQ0aX+vf7tmKVhsa+tMjtUVyT7N5VdiBNosU6c2rq63nniiIam73z6gKHvJXwceuCo+9t9/1ep2ZrmxbYcPH55/Vv36LVgkQNx9992TwnXrcNttt8Uhpww/PeaYY8LMmTPDwoULk4bHmKKg5cgjB8XrSKh4Obt39dUr4rDCao7DNrSexd6iYnjxxZo4JIhrMfifB2f86K3k7G9XOICZ7S69jxqFAIUBmzQ9cQCuP+HMEMMxuUdhOWYL7Y1KBIspzlIzRPXPf85dx8sZRrYb9yhLezHW1SO2tmCRY+7Xv+YmwLnbijBMmWnF6UHqr3Z6pYPFFJNqnHtuYzw7SY91eo0mPWpdyUKwSJnKPuY6HmIw7inKmVV6zLiemWGYKc7AcuaVWUs5C8v7+qFzr197FruLYZAMB6MnvrW1Jk76xLHDdcbV6t0ULK4Pgd6sWTWxzqInMv2feou6iOOmKxzuTIpF9mQURv7cxjvwHo4fylR61ChTq2GzVyJYTFFHsU2ZIO2WWxpimQMuX2HECr1/3LOxq9t5ra1nkW3NMGWuO2d2a7bpAQe0ha99rTXWgf2F46oSPYuFkt0YR0BwayhGhDCc8rvfXRXOOGPdAWMWgkVGBZx3XlP405/oROoM222Xm7Mk7TlkWHqKZi0j2RjRkd6zlzk3+oM9i930yiuvJAfw7XFjUdETJDK5zaJFi2LD6thjj00KhpFrDbBo0MyYsSx86UtN8fqCag4UYbC4fgwFeOklzsrnKmH+ZkgXs3oxYykHPGdk14ZroE48sTWpbHNjy/uzB7ErlQwWU0w+wxBBgkau3eQaVFA4MnSbxipDcdZsmBQGi1yTde21DeHCCxviUGNmBmUSAIYKlfLas97or2ARBOEXX9wQtw3D27hW+nvfW9XldPXVHizSkP3f/22I98dkNMCaOLnAbKVjx+auPeS6ut7ODFtKWQgWwTa9/faaeG3d0UfnhhdWM4PF7uGk5Zw5uXqL8pG/03pr7tzcdZJd1VtcgsE1qtzHjyGm/ZD8dapksFiIk5FcRnLDDcwOXBfrMc5bciKYk3KUtWvefmPNYJEgnusSKdM4yUXHwllntYZPfao1BqD9qT+CxRTb4gc/aAqXXdYQ631OqqcnfdemmoNFOgn4PQyxPfvspphv1kQzlhObnHDgpCbX+jKXRjUwWKyQ7tyUv1oYLPYdFS6Ncirlc85pitd1sIwzZFdcsSIWdhWMw3qsP4LFQkzMwdlVpgh/9tncLF9UFvQOcZaVHkcaOMwQ9/LLzK5KhVYTbrqpIfaMEBgy2ypnIil8q0F/Bosg/11/fUM47zyGZdbGIJxrGQnC1zwDXi3BIo0o9md67dbzz9fF/+nZX7NRSwON2Ra53yozfvbkGqJKyUqwCBrenPmuliGz62KwWBr0mNGgpZeDCeQ49qgCmACJRjoztler/goWU4W9jdRd6a0LOBnMDLCUTTx4H/cYXLmSexB3xLrt6qsbYrnGdXqnndYaT3Ayg2w16M9gEZyY/7//a4gzpnIymJN+3GLj858vzovVECwmSYidBdSxaZ2VXnPMtfNrounKiB+uzeSevZWauKinDBYrxGCxPKo1WCxEocFkI6+80hm+/GXuQ9aRpLm6s3F/B4spKlKGo9x6a0McqsrNfCmM2d0EBwQMPE/Ro8T9Bb/4xdaw667tcchUtejvYDHFcFRuHcKEDZztPPXUtjjhT2HjpJLBIo2nV19liDcTeuRmhKRy5f+0d3lNxC9ce8UwSSpm1sFwnR/9aFU8kVCtDBbLw2Cx9LgX7X/9Fz1dnUmQ2FHxiVV6qr+DxUIEOMxoTr31l7+8PWtlWm8lyYxoYlEGEwDRC0mQyHDDatLfwSIo35mU6z/+oym2B5hcaPz4tvCd76yKEzilKhks0u5gFNkLL3BC8+16ixMsdBSsDc0phnBzspMeaPIDE9D96U/M0VCdQWLKYLFCDBbLIwvBYipLaa2WYLEQvUyc8WYYB4/C2wCQVblGhNniqGyrsX1bLcEi2HbcfPqiixri2XCum6XngHsx0d4udbBIUJ8GhIXXUfH/yy/XxMbV2tCIIoilIuX/9MHtHriulbO1V1/N8LnapPGQu66jmhkslofBYnmQTtKblbRWS7BYiKCAGVSZBZzbHjAiJkXguNde7eEnP2Gykuosu6ohWEwxdJORMf/zPw3Jvq6J245bQ6XXdJY6WCwMCNestxjGnVSTRWiLMPcEdRZDSHmk9RaBIkUUwSTzCCxa1B7+6Z864++odgaLFWKwWB4Gi+VRjcFiISYw+dd/bYoT2RCIMHzn179eGa9pqKbexELVFCymmDyAyUy4RpRKLL3v60svtSflQG28Xo1KrjuoWOnl4yw6lWk6IVSuYq1J1td1eUJQuM02uXucMgFY+mCq//XFVVkKwAwWy8NgsTwMFkuLe5WefPKgOEIGo0Z1xhOcX/pSN+9f0w+qKVhEsotjLyOjYyZNevtG/lzfOXUqlyi0hU9/ujZeM9odTFTIdbs9CQhBM47LN+gZJDDksg6GkPI315yuD2UrbcJqnoynkMFihRgslofBYnlUe7AIJjfhHlRvvhnCJz+ZG8JTjdeppaoxWEQ6KRBnawnu2OUMjSKbEigyEQ73EyMQ5HomJj3hDC8PenvnzMlVqusLCLl/JhUrZ1e3244HM8Hl/qbS7W1WM1gsD4PF8jBYLI8sBIuMoKCH8Sc/aYzH1rhxHeHHP17LlLNVpNqCxRR1zeWXN4RLLuG2P7Wxl5bAj2br7ru3h1//elWcHIj6jcsZmptz9RY9vQwDJSDk0d2AMK27cv93xr+592xvGSyWl8FiBRgslofBYnmQVhrfBGLVrFqDxRQX4zOJANeGdjUsdF3I1tyOg+CPijStWLffPlexlmtWP4PF8jBYLA+DxfLIQrCYWt9N+atJtQaL4KQmgd8vftEYLr64MUlr/oUeoN5iQjxGtpQ6IFwXg8XyMlisAIPF8jBYLA+DxdK57rr6pOJtCk8/ncujFAEEeVSm9AxScfKcOoPrMpjdl0qWyWW23TZ3HWGlGSyWh8FieRgslofBYnlUc7AIAkRGxBx99KA4+gXUW0yCw+Q31Ftc5kC9NWxYiHUYk6NRX1FvbbVVZ5K/K19vGSyWl8FiBRgslofBYnkYLJZO0i4MP/1pU7jySm7IHsLYsR3h619vifdVq1YGi+VhsFgeBovlYbBYHtUeLILLI5gp9ZZbcnMYcF/Y665b0etLGyrBYLG8DBYrwGCxPAwWy8NgsfRmz6bxXRc237wuybP5hVXKYLE8DBbLw2CxPAwWyyMLwSK4XvHVV0N4441VYa+9qr/MMlgsr+pvZUtSxjELKbPJZaCNKEl6l+O8NvXW9tu35pfo3cxgUZIkSZJUxGBRkiRJklSk34JFxhbfdNNNYcKECeHOO++M481nzZoVLr300jBx4sQ4Vl6SJEmS1D/6LVh84403wsYbbxxOOeWUcMQRR8SLvqdNmxbGjx8fRo4cGaZPnx4vWJUkSZIkVV6/BYuvv/56ePzxx8Nvf/vb8PDDD8fgkRnteIwePTo0NzcbLEqSJElSP+m3W2e89tprcepgpua+8cYbww477BAWLVoUDj744DBv3rwwZ86cMHbs2BgwMpX/mnjviBEjMnPrDKZ0zsItHrKUVoYyk3+ycjsKb51RWlm6dcbKlSvjvs9KWjn+s3LrDGThdhRZSqu3zigPb51RHtw6g3Kr2m9HgSyllTKA9kAWbkdBrED7NSu3o2DbDh8+PP+s+vVbsPj3v/89bLvttnHIKcHiLrvsEmbMmBGOOeaYMHPmzLBw4cIwZsyYLoMW77NYHt5nsTwMFkvPYLE8snTvwiyllYY3DRqDxdIyWCyPrAWLlAXeZ7G0shYsep/F8um3VjZB4s033xyuueaaWHm+973vjRXTddddF/72t7+FHXfcMRPBlSRJkiRtiPqtZ7Gv7FksD3sWy8OexdKzZ7E87FksD3sWy8OexfKwZ7E87FksD3sWy6v6W9mSJEmSpIozWJQkSZIkFTFYlCRJkiQVMViUJEmSJBUxWJQkSZIkFSlZsMjMPtxIX5IkSZKUfSULFple9/nnn4/TQkuSJEmSsq1kwSL3O6N38dprrw1XXnlluPHGG2MAKUmSJEnKnpIFixtvvHE4/vjjw3777RfGjh0bjj322EzcIFWSJEmSVKyk1yxeddVVYeHChWHu3Lnh+uuvD6tWrcq/KkmSJEnKkpIFi4sWLQr77rtv+OAHPxgOPPDAsMUWW4S33nor/6okSZIkKUtKFiwy5PTxxx8P8+fPDy+99FJ8DB06NP9q1+69997w7LPPhs7OzjBr1qxw6aWXhokTJ4aWlpb8OyRJkiRJlVayYPE973lPGDduXHjmmWfCjBkzwkc/+tH1XrPIrTamT58eh6suXbo0TJs2LYwfPz6MHDkyLieAlCRJkiRVXkmCxfvvvz9MmDAhTJo0KSxYsCC8/vrr4a677lrnbKgrVqyIPYp77bVXqK2tjdc6NjY2xsfo0aNDc3OzwaIkSZIk9ZOaJCireERGEEiAufXWW4fFixfH58OHDw8vvvhiOOigg8K8efNiryOzqvLa2oJOrpEcMWJEqKmpyS+pXvSa0stKUFztspTWZcuWhQEDBoS6urr8kupFHm5qaspMWjlpw+1wqhknnEhjQ0NDfkn1WrlyZdz3WUkrxz95oNqlk6hxbFW7LKWVy0A6Ojpi+VrtuLdzW1tbGDhwYH5J9SKdpDcraSUfZGFW+/b29lhuDR48OL+kemUprZQBtAeGDBmSX1K9iBVov3bn8rdqwLYl7smKkgWLNNyvueaa2LNIQ4Mg7swzz1zrjqMQmjx5cnwvQR+F0RFHHBEeffTRcMwxx4SZM2fGnsYxY8Z0GbRwbeSoUaMyEyxSMGQhrexHKrKsBItZSavBYukZLJYHQQ1lVVaCxayklYY3DRqDxdIyWCyPrAWLlAVZSCvHFXWXwWJpUbbSJsxCWsEdJLIS2KJkrew333wzzoZKzyDXHTIjalfBEQ28ww8/PJx66qnx/XvvvXccekrFdN1114W//e1vYccdd8xEcCVJkiRJG6KSBYv07tAbyNkSAkeiZh7rs/vuu4c999wzfv7II48Mp5xySjjttNPiTf4NFiVJkiSpf5QkWHzjjTfCZpttFjbffPPYQzh79uw4LIgZUiVJkiRJ2VOSYJFrDy+66KLw0EMPxXHjxx13XDj44IMzcX2OJEmSJKlYSYLFXXbZJZx11lnhhBNOiLfD+O1vfxumTp0aL5CWJEmSJGVPya5ZBDNRMVkNw1Gffvrp1VOFS5IkSZKypSTBIjfQv/POO8MFF1wQb3/BbTBOP/30TEwNLEmSJEkqVpJg8cknnwzbbbdd+PrXvx5nNM3KfU4kSZIkSWtXkmCReypuv/32mbg5uiRJkiRp/YzuJEmSJElFDBYlSZIkSUUMFiVJkiRJRQwWJUmSJElF+i1YXL58efjzn/8cLr/88jB//vzQ2dkZZs2aFS699NIwceLE0NLSkn+nJEmSJKnS+i1YfOyxx8Kee+4ZPvrRj4b77rsvLFy4MEybNi2MHz8+jBw5MkyfPj0GkJIkSZKkyuu3YJHbbYwePTo8/vjjYdNNNw1LliwJjY2N8cFybvRvsChJkiRJ/aNfr1kkMHzve98bXnvttdDa2urN/CVJkiSpStQ0Nzf3S/cdPYrbbbddGDZsWLjxxhvDrrvuGp577rlwzDHHhJkzZ8ZhqWPGjIm9i1zfuKZFixaFESNGhJqamvyS6rV06dIwaNCgUFtb/fMJZSmty5YtCwMGDAh1dXX5JdWLPNzU1JSZtHIip76+Pr+kOq1YsSKmsaGhIb+keq1cuTLu+6ykleOfPFDtVq1aFf/n2Kp2WUorcwZ0dHTE8rXacaK5ra0tDBw4ML+kepFO0puVtJIPaA9Uu/b29lhuDR48OL+kemUprZQBtAey0JFDrED7dejQofkl1Y1tO3z48Pyz6tdvweKcOXPC5MmTY+OJnTtu3Lj4nCCQA+nYY4+N1y52FQwyKc6oUaMyEyxSMGQhrQRgVGRZCRazklaDxdIzWCwPghrKqqwEi1lJKw1vGjQGi6VlsFgeWQsWKQuykFaOK+oug8XSomylTZiVEYpcepeVwBb9FiyCjMijN41Sg8XyMFgsD4PF0jNYLA+DxfIwWCwPg8XyMFgsD4PF8jBYLK9+bWXTyK/2BqkkSZIkvRtVf5eMJEmSJKniDBYlSZIkSUUMFiVJkiRJRQwWJUmSJElFDBYlSZIkSUUMFiVJkiRJRQwWJUmSJElFDBYlSZIkSUUMFiVJkiRJRQwWJUmSJElF+i1YbG5uDtdcc0246KKLwrPPPhs6OzvDrFmzwqWXXhomTpwYWlpa8u+UJEmSJFVavwWLDz30UNhzzz3DZz/72fDMM8+EV155JUybNi2MHz8+jBw5MkyfPj0GkJIkSZKkyuu3YPGII44IO+20U2htbQ1tbW1h6dKlobGxMT5Gjx4dex4NFiVJkiSpf/TrNYsEhNdff3344Ac/GAYOHBiGDBmSf0WSJEmS1J9qkoCtX7rvFi5cGG655ZZw1FFHhU033TQsXrw4TJkyJRxzzDFh5syZ8fUxY8bE3sXly5fnP/W2RYsWhREjRoSampr8kupFr+mgQYNCbW31zyeUpbQuW7YsDBgwINTV1eWXVC/ycFNTU2bSSg9/fX19fkl1WrFiRUxjQ0NDfkn1WrlyZdz3WUkrxz95oNqtWrUq/s+xVe2ylFbmDOjo6Ijla7VLRydxwrnakU7Sm5W0kg9oD1S79vb2WG4NHjw4v6R6ZSmtlAG0B7LQkUOsQPt16NCh+SXVjW07fPjw/LPq1y/BIjv1z3/+cwwIOWAojA4//PDw4IMPxiCQA+nYY4+N1y52FQzOnz8/jBo1KjPBIr8zC2klAKMiy0qwmJW0GiyWnsFieRDUUFZlJVjMSlppeFP3GSyWlsFieWQtWKQsyEJaOa6ouwwWS4uylTZhVkYoLlmyJDOBLfqtZ7GvDBbLw2CxPAwWS89gsTwMFsvDYLE8DBbLw2CxPAwWy8Ngsbyqv5UtSZIkSao4g0VJkiRJUhGDRUmSJElSEYNFSZIkSVIRg0VJkiRJUhGDRUmSJElSEYNFSZIkSVIRg0VJkiRJUhGDRUmSJElSEYNFSZIkSVIRg0VJkiRJUpF+DRbb2trCnXfeGRYvXhyfz5o1K1x66aVh4sSJoaWlJS6TJEmSJFVevwWLS5YsCddcc0145plnQnt7e1i6dGmYNm1aGD9+fBg5cmSYPn166OzszL9bkiRJklRJ/RYsNjY2hhNPPDHssMMOoaamJixcuDAu4zF69OjQ3NxssChJkiRJ/aTfgsWmpqYwYMCA/LOcIUOG5P+SJEmSJPWnmubm5n7tvrvtttvCAQccEHsXp0yZEo455pgwc+bM2NM4ZsyY2Lu4fPny/LvftmjRojBixIj4uWrHENtBgwaF2trqn08oS2ldtmxZPOFQV1eXX1K9yMOcIMlKWunhr6+vzy+pTitWrIhpbGhoyC+pXitXroz7Pitp5fgnD1S7VatWxf85tqpdltLKnAEdHR1FJ3SrUWtra5z/YODAgfkl1Yt0kt6spJV8QHug2nEpE+XW4MGD80uqV5bSShlAeyALHTnECrRfhw4dml9S3di2w4cPzz+rflUTLBL4MdkNQSAH0rHHHhuvXewqGJw/f34YNWpUZoJFCoYspJUAjIosK8FiVtJqsFh6BovlQVBDWZWVYDEraaXhTYPGYLG0DBbLI2vBImVBFtLKcUXdZbBYWpSttAmzMkKReVuyEtii31vZ9CRutNFGscI/8sgjwymnnBJOO+20sPHGG2ciuJIkSZKkDVH1d8lIkiRJkirOYFGSJEmSVMRgUZIkSZJUxGBRkiRJklTEYFGSJEmSVMRgUZIkSZJUxGBRkiRJklTEYFGSJEmSVMRgUZIkSZJUxGBRkiRJklTEYFGSJEmSVKSqgsVZs2aFSy+9NEycODG0tLTkl0qSJEmSKq1qgsWlS5eGadOmhfHjx4eRI0eG6dOnh87OzvyrkiRJkqRKqppgcdGiRaGxsTE+Ro8eHZqbmw0WJUmSJKmfVNUw1CFDhuT/kiRJkiT1p5rm5uaq6L576623wpQpU8IxxxwTZs6cGRYuXBjGjBkTexeXL1+ef9fb3njjjdgLmQVtbW2hvr4+/6y6ZSmt7e3toa6uLv+supHW2traUFNTk19SvbKS1ixt046OjpjOrKQVbNtqZ1rLI0tppY1AerNQF5jW8shSWmGbsDyyklbaAQMGDIiX3GVF1QSLHOx33nlnHI66cuXKcOyxx8YN2VXjasmSJbEnMguNL67HHDx4cCbSumzZsjBw4MBMNBKylFZOeDQ1NWWiMiOtnIip9kJ3xYoVMY0NDQ35JdWLMo19n4W0rlq1KpZVWTgZl6W0Mmkb9RzlQLUjrTS+adBUu9bW1thIpC6odqST9GYlreSDQYMG5ZdUL04cUhZkIa0cV9RdtAmrHWmlPZCFUX+UrbQJszJCkRhm6NCh+WfVr2pa2VT4Rx55ZDjllFPCaaedFjbeeONMBFeSJEmStCGq/i4ZSZIkSVLFGSxKkiRJkopkNljkGpWsDFPNwnVKKa4By9J2zUpas7Zds3AdKNs0C+kE1ytmKa1ZmSgiS9uVdGZpu1b7NcsptqtpLb0spZW6NUtpzUqb0LSWT1Ym6ExVzQQ3kiRJkqTqkdmeRUmSJElS+dSdc845P8z/XXGzZs0KN9xwQ3jttdfC1ltvHadq/stf/hImT54c3vOe94Rhw4a9Y+ge0yNPmjQpTjvd3NwcJk6cGJ544onw1FNPxdc32WST1e9namLWM3r06NVd0/PmzQv3339/2HbbbXs8HOjFF18MN910U1zHlltuGacUvuuuu8I999wTNtpoozB8+PCitPI63zN9+vTwwAMPxLQ+99xz8f2Ft9JgWn3uMUn6SSvL58+fHz/Dd/V0eMVLL70UbrnllvDyyy+HzTffPE4pzLbgwbTCI0aMeMfQLbYlv4MZaJ955pm4jdK0sg9Ia/p+0vrggw/G38sU8KT11Vdfjcs222yzHnetk8bbb789bl8+z/r4ftLDtO18T+G+Yrrhe++9Ny4nfWyjadOmxb9JJ78vTStTaT/00ENxOm3yDOt+5JFHwptvvhk/35PtyjacMWNGzHMLFiyI+4op0EkLaeC72VaF25W08hrfTV7ndz3++OMxP/DbmDY5/W0cA6yf9aRT6/Pe119/Pb6vJ8MrSOsLL7wQ7rjjjpiP2K/kR76f9PDdpLVwu3J7l6lTp8ZtQv7hfY899lhMK99dmFbSRFpZTzq1/pNPPhnzAdu/J3mAtM6ePTveNoe8wLEB0nLffffF9JBfC9PK9NgPP/xw3P5z5syJeY9tlaapcD9wP1aW8xvSadWfffbZMHfu3Hds6+4grWwbjmvSnB7zpIV8ANJfmFbuF0va2P5p+cPz559/Pm6nwrSSL7nHLM9JG3gfv5E8lG7r7iCtfB9pZZ18D8cu6eR4YVuwjPSnuNctr/E+9jHbnzxAGkhTYbnBLY7IY/wu8gblYbpded6TPEC5z2f/+te/xvVyyyT2cfr9rIvvLkzr4sWLY54j3/KZ9L2UA/x21pGmlXzJNmS/8Lt5Pd2upLUneYC08lnSSjnAscXU8uRX8gHfseYtnygHqKM4xkkLZT3lK3kp/W1sP/I/62UfkF/JA2wX9iFldFo/dBf7hn3EOskLpDUtE0kvaaSeLUwr7+OY53eSPuoM0kr5zLHIbyOtr7zySkzXo48+Gn8z25FtzzLy8aabbtrjtPIdlAN8b7pdOV74DvYRx1ZhWtmWTz/9dCwHKOeoM0grxybvYx3sa9539913x/3Dco4j8gp5hu8lrYXrXR++j/KctgrfO2rUqJhfKYfYtuzTNfMA5RD7lc9ybJEe0sp6wH5I10sdQ5nF8ck2J638Nl6njkzzdXf8/+2dB5xU5fW/z07ZRhGsKCLYUQSxxIqIvTcs2GKvMbZoCsb4t6RoEjX5JUZjiybGioUQe0HsUUHF3hULYqy0LVP2v89hXjLuUmaW2d07u99nPvvZ3Xvv3Hvu2897znte8pF0pS+gbiJr6MNp47l/yzJAfeKZbJtB+0X5QVbaEfKe9Ar3pe9mzEBbyHtzHWWAZ/CsYmQlL6gDjPG4N2M33vk///mP1xlkzM8r8hb5SHPKGu9H+aGukY7IQ5nhvpTre+65x9sM0pX2lOvIQ/KOcVKxslIHQl7xfY5Rxnh/ZAzjmQBtFuWZsky54dnIQLoif6hbnGP8Rj+BrPSppDHPoi1hTFiMrNyTtof35z58n/yhTCAvacoz8qFdpe5TV2jnyBNkpY5TZqhb3JdzEyZMsOeff97bAO7DGIt7kx7kYX4aLA6+Q/vKPSmHAwYM8PzhfrRZpCnPyYd3oYySp5QHyiSy0nbSNlG+KSvk1x133OFtBse4nraFdKE8k4fFyMo9ybvx48d7/R44cKC3r6QVbQvpSv7lw3PIR/ohyiLlAVkpQ1wfxii0WePGjfM2g3afd6Y8kC7US/KwGFlLQacpixRGEmr06NHeETJQoZMgwbbccks/FxRIMpyEoaCTsKuuuqqfW2+99WyNNdbwhmXYsGF+X66lwNx2221+33XXXdcbDZRHKjGNz+DBg/26QqGwUlB33XVXv0+QlUzcfPPNvbEKjUWQlQ6XwkBhR86hQ4f6oID3XmuttfxaKjz3ogAj89prr+2VkwLHoI7OkmuL6XT5DvJsv/32/q7cnwaYhmjTTTedX/go6Dyf33QcNCarr766/wwZMsQbWd6b9A3Xci8UZq5dc801vWAjKxWD9+LaYgZeyErDstVWW3maBVnpeDbZZBPP7zBIDLLybjSmKPw8j/wNAwvKRbiWvKcRoJPgOJWNCsjzaCToyIpJV/KHgdeIESO8waZc0nCSv8gQBuQh/5GVZ9GBcQ3pynU0UpQhym94Pt8NZZPjlAHSmIaMsous/C6UMJAnDWlIaVx4Bvchb6kv5B2NPiArDRFlmnJMuq6zzjpeF8lfjoV8ZSDGQId3oMHiPgx+GFyQ7jyjmDJAnnPPUH/JR/4nT6k35B/pFN4fWalXYTBBXeadyF+eT2cS0hVlgEFW6GDpyMKgLXRkxShglClk45m8I2WeNCPfkZV0QD7ShDJAGWHwRBkgDanLpCvlm3JCPeQ+fIf3pHMm7/r37+/vQ5lDVvKAdA0dSSHwzsi62mqr+b14b+SgQ0MW0p38D2lFelDfSFeeRVvEe4ZBL7JSb8JghsEbZZR78T7ULdpmKLYMUOdJS/KRskoaoHBQBpCX/0kvygBphay0rwwIKaNBVuoWZQCZUbSQlTKArOQd6UoZIJ8oQ2GAUEwZYMBB2lGXkYXBEoNAnkf+co70CvmKDAwE+KFsrr/++l4GeCbpj0zIzD0oA/xPW0F+kc7cg++QLrwD+cD9C4H84T6kDc/j/tQvnov8pCtpSb4C7T1lgPShHQrtAOUHOWjHyAfk4F7IwvkgK+0XsnItx1oOlhcF6Yi8pCHPo/3inUlX8pfyRZqG8sp7MBjkucgV+gLKIvmK/MhKPUBW+hFk4z7kIec23HBDzy/SgO8VCrJSlzbYYAMvk2HShHvSDnB/ZA1tFm0wfQVtRX5fQDnlHH0Z70W6c9/hw4d728SgmftSNzbbbDPPL96NdykU6hHtALKSlmEyhXK50UYbed0L6UpekeY8l7pFmxlkpZ5RPpCV8pPfbtO/MgDn+zyPPhJZuVeY/CsE6gDykS+8I2WRukFfs8UWW3hdzk9X2kXaHPKXdg45aENoB5CPcs+7Uga4L3lDWaJN5R0oC6NGjXJZuRf5USjkCc9GVp5He0Ia8g7bbLONpw3/80O5CLJSBkhT0hFZaSupK6E9oVxzXRgzhokS3n3HHXd0WbmGZxYK6cd9yG/aF8ZQ5GUYQzNOoVxSf5GV38hAuaZe0QZzHeWB+oZcyMo70e8j+8Ybb+xjZL5PGdhll128zaPdaakwLQzuyfuRP3vuuaf/zQ/1CblJayYOkCfISv1AVsos6RreiWtIa+o811BvGKdut9123sbQJ1AfKDt77723lw/KVTHtAOUKefbdd1/vqylz1Cf6FOorz6NMUg+QFZCVukK6ko7ISp9Em8rf5BXpgPKLrFzDeIs0JD/GjBnj7V6xspaCwqcnSgyJGyo+DSOJReWlcSHxOEeloOCQgFzPeTKaBiRAYaXiMZBiYMa1FIL999/fKyINGInPYJjvFjPgClBgkZMf7klDQcdGBiIrFQJZeT6VMMhK4aVRAgo3spL5FBwaF65Fnn322Wf+oAFZOcc7ce9CO9sABZZnBlmRC1m5F50wstJBUWgp7FQy3oOGMhRoZCXdaWy5D4021yLrHnvs4bJxLbJyjkaEexQrKw0r9+EZdEbkHR0m+RdkRX6eQZpTWZCBQWRIVxoB0ou05noqPfflbxosjtNg8858n8akrWUgdKo01MhFmWWgRaVFHo5RkTlOZ4EMLWXlXWjIyA8aU+5L+acjCOWVRpjOmjLBdcVCGQgdFc/n3UkT5CefSG/SmrTiWjqicC2/AVk5z4APGVA2kRUZacRCeaUhRMHgurY0XqRVKAOUQcoesiJHkBX5SSvqFY0xaYSsnAPehY6BfAkDzWDdoOMmvYOsvCttTDEDgwCy8myey2CGTghZyV/eneOkEXnPtaQLaY4coW7xLgwI+T4/XMPgE9m33nprH/QgK+nAu/I+DMqLhfoClEGeQ35SrkI68wwGKaRH6OR4N/IxlNcgK/nPd7iWtoS/GRAy8OI+lHvegXrblnRFVgav5Dd1k+cGWZGdsoCs5DHpy+CB66k3QVauD4N05OVaygvllMko2gGgrCAr9baYAVeANpu0DLLyXOTluaEMICvpSRmkH+AaBhChbiEX5Ya0olxwLfdkwEWbSznlh2PAs4KiTpkrFGTlPsiFrJQp8goZwz2Rj3wlXclb7s/AMYCcvAd1BvkpD7wvAzcGN9yf//ke/QHPaous5AvpRH5Tjnh3jiE3//Mb+ZCV9CMPuZ66HaDOcZx7UO6RlTRA+WLQyPtT1pCT/KJucW/SpFB4L+Ti3XhXvo8c3BcZ+aH80Y9Rt0k7fug/qdsBrud9kJXvICv3pF7RxoYywL2RleeQZ7xPoQRZeW++yz34G1n4mzTiOGmGrJRb0paywGRwgPRBSQjliGtpK6hX1K8ga6gHXMO1oQ0qhCAr98mXlbaJ9OS+pBUy0r6SvqQrsjEeCZA+yEe5oG5xLfehbaVcc3/+R1bqAbJStkmTQqH88H1+eE/KEXlHuiFraGPJX8YDvFcoAygPAb5Pv4r81C36fK4NfRZ5j7y8I+8fxhNtkZX7BllJa9KR9ERenk06o8RwLbLyf2gzATkYuyA/siArcmy77bZerpGVdCXPeQbtMv0edbJQkCuMU/jh+8hB+Qx6AWnLPRlrIyvlFXnzyyt5wXnk4t34m/K61157efpRRui3uA+yUk7o93h2oZCuPBs5kYm+CFnJ83wdhvQIE75cz3na+ADpilUWQw5yo6fwGyMa78/3kY+yRf4hd3hWR9NpyiLQIORDAaNCBPgfyx2JzswIHVTocIFMp9Eg8bkGbT40gvwfYOBA5tJYkNhtgftS4AJkIM8Jx5CLDKfxoXCgFOa/Cw0YBZVGhMKF1YdGMcga7sNMB4WFRjgMhIoFGRYlK/dlYEKaUBGpVC3TiwIfBuTMSIUOOP8+DM5oIPIHQsWCrPl5gqz56cHfzIoiK3lNI5qfrgy0SEdk5VoGBqRxfrryXRo6OmHeq61lgEFQ/ne5f34e8T+DEq5BVvKQ9wuQt5QjZEU+ygiKQGhcAVlR0hjILqmspGWAfCSPQrryP8/nN2WAtKGBCzA4QEbk4DgDQ2RFfr4T0hUljkaMd2qrrDwnPx25f3hG+J9ZWN4JWZGDPA9QBpCB49yLmU4a/yArICtKJMe4Lj9tioH755d1/s5PV/KMjos6TPsU0i9AGaBM0BFwLxQu6g/H8ssr7QX35T3aKiv3y5e15f/UaWTlmXT81Jv8dEWRIP0oG8jKtcGaHGSlg6e94L68R1vKAN/hOS3rUsg7QC5mY7mGTh3ZyfMAnTDyIAPvwbWkXf59kJVBOdfxHm2Rle9yv/x05P98WanPYfIqdPKUC0AGyjB5igzhWmTlHGWUgRjlhnLKfdtar0K65svK36RJgHpLvjJoYWBCHxmuRx4GYvym3aUc01eQxhyjjDLZiKyU5yWVlee2lJU0DITySt1isIRM+bKS1rwHA1rKKLKSxtQn8p0+gHwI7URbCema/66Uy/x7Ul6ZnKa80BcgUygjyIP8KAGUU9o1zjORSX+KAkEfENq8JZE19Kf5bQh/59+TfKUdQr5gpcuXlUE1dY73of3kWtIQhZ4ywCQ4FkbuibxthfRckKz59+Rvns+zaHdIo5APlAtkRYngHbiWsSF1i3OUAaxfjBH4fn7fXCzkK/fIlxU58u9J3WbsQjpRp4OhACivyEqdo/7z3ljpaWs5x9gK7zLGXrzHksqan678n19e+Z98ZUzIsyl7jGNCe0wZoH+gzFIGqHPIitLC9bS9uNR+73vf8+dwr7YSZMmnZd0iPRhrcy1GD9I4vBuykqYoZsGDA72A7yAr5RsvruDNlt83F8uCvt9SVuoROgzyYcEljfJlpVzQntIuka5Y0JEVKAN4xzF5sKB06Wja1rKXABpTKgsJRqNJAlK5OEbl4ickKg0oMyP4LaM08oOmTuWnIw4N28Lg/gwo8felcPE3BadQkIvKwneQI8jKMTon5AsNFn/TWGFGZsYAWfkOjSqVK7zTwkBW3otCwowIDSINXaFQeBmk8h2ei1zIyrF8WSl8YbYDH28UXBoJzvNMOoPQWCwM7k/lw0c7uDGSb4VC4ed9g6yh8nEMWbkXx4KsDAYoAzwLWUln8pLBYf4goyXcn/eiU8M1gErLexdTBpALGYOspA3pGNKU4/npiqyUAfKfAVVIK8orDerC4D7ck/zAFZsyxCxgMbKSrshA+pFGlDl+gqz56coxZMVdk2eRrpQVGio6qNBwLQhk4vvUqSArA2HeoVB4RpALWUnDRclKh4ULCa40yMr/pA9pujhZuR8DRmRlrQbKULGycg/kIH2DrOFYKPuhDNCJIisDlGBtZPBNWV1U5x9kpdxQXpEV5T3cvxDosHg35OAHOblv+J+/kR+QnQEta5j4oQNjcEgd4XuL6qTCM5iVRlbKO7Jy/0Ih77ieOsJ7kz70C9wX2XhGkJXzlDHSlOchK2WAMgyL6vzD+zPbT77QHlAni5UVaKPIj9DuUHaRraWs5Df5x8APJYC04bvcJ7/fQgYmXugnmOxgQEwbw/1C2SJNwr0LgftTFnkespCXfD+kMz/8z7P5m7aUNMW1KpRX2gLuk99mcT3neR8G4wzKgqykb5CVZxcK6Yh8PC/Iyk+QnR+ewbO5P/kWZEXBpi/mh/vkD9aQA2sk9Z6BLkoN9wn5F9KgULiWZyBHeFfkJI3CPckvnsGz+Z92AFkps+RxkJVr8mXle6EMjBw50geRPIs0CfctVtaQZkFW8oS85J4hv/JlpS2lfWRpCu0PA2/aAq7Jb19JN9KddGUwy8Roy/uSLoWyoHRFVtIHGbgndYxrkJW0oM1ijSL1mL6Ack19o49F3gD3ogxwHV4xTCDk37dYWZEryBrqPdCmk68cR5Z8WZELhQoZSDPO044hK9cFkCcotTvssIPLSrqH+4b+vFCCrMjBd0kL7kObTv1Gdo5xzyAr7WkYa9O3kz6UYSZr8mXlPrRnLJ/YaaedfLIj3Jd7UR/y82FxIGv4fn4a0qZzDDn5oawEWUkXxp+kK2MmjjF2WZCstFmU7QMOOMDHjIyLKdvcK7RzxRD0lfx3DcdCuob6yv+8D+sVkZUxLMfov/I9OQK0ASi1Bx98sMtKOUFWoNwWK2sp6LQ1izQsKBckHBUZ7ZtZTio/nRDKCoXv7rvv9sSkkce6QQbQkXItlS7MapLwXBtmk6l0FA5M/DS6fJfZOwo+M0vFFGLuRwUmg7knMzA8kwE2DSqyICMVjJkhZpD4oRAxE4pijKz8TWVAVgo4hYCGAFlJAxoGZGW2jJkxruO9iykYXEtHSsVBVt6VNKGzokGlEiErftA8i1kZOnvSBZmpYAymSCsqKelNnvAOyEqlI994TzoIBjbMjPEO/J3f+S0OZGXAjlJMpSGPUKgZAJBePJ/n0HEhK+/C4IR0Cc8i/Uk35EMG8oTjNNykP/nG+zNQIF2pdJQtvlNMunJPOnLSBpl5PvnOQBA3WJ7B/ygxlEnSFVlJrzAjS7nmfcgDZCVPaEx4TxobGgPKFXnP/Zlt4l7IShksFGQNHTmy8nzembpGWiMn96UzIN1IV55HY01e0uDxfa7jh7JB54WsnKPRQ1bOBVkpy/xPmViU0tYS3ouGEVlp5Cl3pBFpSn0jrUgTyjPvFWSlc8OygDzkMWmFDMhKHpC+vFuQlfPISlknLbi2peV3cYR2AMWIOkY94h6UCdISWShT1GWeh6zUeb4XyijfJ7+RAVmZuKAT5z35jaxcRzqEWXHuRfnne4WCHHTkyMozw7uy1o92gDRFLso0ZRNZKSfkHXUQeXhH/g/tK3lA54w8yI6syMT3WpZX8qpQaHNoq5hsoL0hn2ifSdfQZvEc6g8yU7dCnUI2nsm7ch/KDgMz3hOZ+S4DAX5I11BeKavISx4WU155BkoVZYw0oH9BJuREXmTivshKfUFW+ivKBnIiA4otvymDKOR8j7Qmnyg71FkGbNyHATF1j7aMMsH3CoU0pE7RnvL+wToYZCWP+J+0Jz3w3CE9eAblhTpGWvJOyI5MfA85uS/fQz6u4V34TVtNutOO0NYWCrJyL75PGUNW8oX2ivaBv5GL9p48xeIS6j91gzxg8E0Zp0wwYENW8oqyQX6gCCEj9+IdGAjT5lEeiukL+A7PYuBJupK/fJ/6gayUEdKL5yMfsob+FFmRkXcl/anfvC/llTaQNCWd6WMZFJIv9I3UY+oGfWQxslIGKW9MjlBfkZX8DGMZziMT90cexjbkHbLSDiA/igLP5H9k47u8P/JyT9KYZ5Du3JO2m7YM61SxspJvKB/kE+0fZYjnkQa06aQjZYI0xGIU2gpk5jfphhzUHdKVdpl7IRP3RlbKAe0EdY17kc7UU8pQoVAG6LMZb5CX9CvUAWSl76RtYPxK3UU2xnFYkXnH0CeQVsjK97gXYwnSkXKErJRR0p66yHshK+fJo2JlRYlC+eCeyEr5ZDKb/8OYhHcJstK+8j1+k9bUuzDG4d1oU8h73pd0Jl1pE2gPkZP6xnEsaeRLIfA82hzqEPfl3cljns8YlPxCBtIMxZu8R1beh3EWZZs2gnrHdbwj9TOMtRmf046SP5QJvs9z6AMp11gri5GVso2sjKtIR6yClFeeE/KWvMPwQ7kNOgztI2Wb9yKtGHeTn9QZAhsxNsCAwzNIR9KB63kO+UD55VmFyloqtM+iEEIIIYQQQohWFO7TIIQQQgghhBCi2yBlUQghhBBCCCFEK6QsCiGEEEIIIYRohZRFIYQQQgghhBCtkLIohBBCCCGEEKIVUhaFEEIIIYQQQrRCyqIQQgghhBBCiFZIWRRCCCGEEEII0Qptyi+EEKLLkslk7MUXX7Qnn3zSmvs7P7bccsvZyJEjbZ111vH/hRBCCLFgpCwKIYTo8jQ0NNhLL71kiUTChg0b5scaGxstHo9bMpm0dDptqVTKj3NNNpu1WCzmf6Nwch4qKyv9GN/lh+9yrKKiws8LIYQQXQkpi0IIIbo8+cpiv3797M0337S6ujr/f/nll3er4+eff+5K36xZs6xPnz5WVVXlVsivvvrKvv76a6utrfXjffv2tU8++cSVSBg0aJBbKaUwCiGE6GpIWRRCCNHlyVcW+fnoo49s6aWXdiUQpbC6utqVQBTCb7/91hXK//73vzZ37lw/37t3b+vRo4e9//77/p3+/fvb2muvbW+//bbV19fbeuut59cJIYQQXQkFuBFCCNGtwPV0mWWWsVVXXdU23HBDGzx4sCuCKJG4nra0EOKSihWxqanJz/N9/uZYOC6rohBCiK6IlEUhhBDdCqyGWBofe+wxe/bZZ92CuChlj/OPP/64TZw40ZXDtdZay2bMmGG33367vffee26RZO2iEEII0dWQG6oQQgixEHBJnTZtmvXq1cvXJgohhBDdCVkWhRBCiIVApFOC2vTs2TN3RAghhOg+yLIohBBCCCGEEKIVsiwKIYQQQgghhGiFlEUhhBBCCCGEEK2QsiiEEEIIIYQQohVSFoUQQgghhBBCtELKohBCCCGEEEKIVkhZFEIIIYQQQgjRCimLQgghhBBCCCFaIWVRCCGEEEIIIUQrpCwKIYQQQgghhGiFlEUhhBBCCCGEEK2QsiiEEEIIIYQQohVSFoUQQgghhBBCtELKohBCCCGEEEKIVkhZFEIIIYQQQgjRCimLQgghhBBCCCFaIWVRCCGEEEIIIUQrpCwKIYQQQgghhGiFlEUhhBBCCCGEEK2QsiiEEEIIIYQQohVSFoUQQgghhBBCtELKohBCCCGEEEKIVkhZFEIIIYQQQgjRCimLQgghhBBCCCFaIWVRCCGEEEIIIUQrpCwKIYQQQgghhGhF2SmLt956q5122mn2ySef2MSJE3NHhRBCCCGEEEKUkjYpi88884xddNFFuf/m8dVXX7kS9/zzz9tRRx3l/1922WX29ttv565Ycurq6qxHjx520kkn2QEHHGA1NTW5M0IIIYQQQgghSkmblMW11lrLpk+f7gph4K233rItttjCNt54Y7v22mtt6aWXzp0pHSiHu+22m6255pr25JNP2mabbZY7I4QQQgghhBCilLRJWUQRXHHFFV1BDEyePNk22GADVyCvu+663NF5SuSWW25pvXv3nm+NxDKJ1XGfffbxY7iWcj7/GuC6/ONYKcO9+G5QVvnN/+FavieEEEIIIYQQou20ec3i1ltvbZMmTfK/UeI+++wzW3nllf3/wOzZs+3BBx+0hx56yGbMmOHWyKDIceyaa66xn/70p+5SOnPmTP/p2bOn34+fK6+80j744AM/znXBohj+5x64pp5//vn+P8dRWvlevtVTCCGEEEIIIURxtFlZzHdFfeGFF2zo0KGt1hCi+LG+kOP84KY6bdo0P3fQQQfNd1XNtwyOHTvWvvzyS7/nzjvv3MqdFQsj1+244472/vvv28cff2y9evWy9ddf38+jUG600UZ+DyGEEEIIIYQQbaPNymJwRX3ppZfs5ZdfdhfUtoBl8NJLL7Xf/va3bhm8+uqrc2dag7vqqquuOt+CiDIqhBBCCCGEEKL0tFlZBFxR//jHP/rfLV1QATdULISA9fC+++5rpVSiLM6aNcuWWWYZ//upp57y41zH9fnupFgSV1llFf+b+3J/nsv3UVoB91UUSe4nhBBCCCGEEKJtLJGyiCtqRUXFAl1QAcsfVkfcRgcNGmTHHXecu4nmg4US91TOb7/99u5SClyHGyrH+T7up6NHj7YzzjjD/+e+3J/n4uoajh9xxBHuytrSfVUIIYQQQgghROFUzJw5syn3d2Rh833WJEoBFEIIIYQQQoiOYYksix3Fa6+9poA1QgghhBBCCNGBRFpZDFFSWYe4oDWRQgghhBBCCCHah7JwQxVCCCGEEEII0bGUhRuqEEIIIYQQQoiORcqiEEIIIYQQQohWSFkUQgghhBBCCNEKKYtCCCGEEEIIIVohZVEIIYQQQgghRCukLAohhBBCCCGEaIWURSGEEEIIIYQQrZCyKIQQQgghhBCiFVIWhRBCCCGEEEK0QsqiEEIIIYQQQohWVMycObMp97cQQgjR7rwae9Xeir2V+69jWCe7jg3ODs79J4QQQohCkLIohBCiQ7kheYP9tvK39kHsg9yR9qWy+TO2Yayd0XhG7ogQQgghCkFuqEIIIboN6XTaXnnlFXvppZessbHRj7377rv25JNP2vPPP2/PPvusvf766zZz5kw/VyzffPON32fixIn23nvv+fOEEEKIckXKohBCiG5DIpGw3r17uxL37bffWkNDg82aNct69epl6623ni233HJ+bO7cuf47k8m4Uhn+T6VSNmfOHKurq7NsNmtNTU3zr+eetbW1tuaaa9qwYcOsX79+/jyO8536+nq/XgghhCgX5IYqhBCiQ+lsN1SUw7feessVxKWWWso+/fRTq66udkXwq6++8h+orKz0a1AGv/zyS+vfv78rjih/KH3LL7+8VVRU2PTp0y0Wi1lNTY3/5v4oiXwfhfGzzz5zZRJWXHFFW3/99S0ej/v/QgghRJSRZVEIIUS3omfPnm4BRIFDUUTx69Onj59D2Vt99dVt2223dQshlsUePXrY9773Pdtyyy3dYrjsssu6Aollku+uvfbattNOO9mIESNsgw02sMGDB/txLIlffPGF35v7cZz7zZ49258lhBBCRB0pi0IIIboVWAOXXnppdw2dMWOGWw+xCgJKHgodP/yN8oiFEEvhBx984BZJXFVXW221+d8BlEcsjKyFxDKJAokVkWdxH1xW8+8phBBClAPqsYQQQnQ7sPahvAGWQpQ6QJkjMM0999xjb775piuEVVVVfg6FEQXzxRdftJdfftm/n0wmPWDO+PHj7e2333al8JNPPrEXXnjB3n//fXdz5Tt33XWXTZ061e+HpVIIIYQoB7RmUQghRIfSlbbOQDkkmiouqbitohwKIYQQXQVZFoUQQog2wvpDFEWsjsECKYQQQnQVZFkUQgjRodyavNXuTtyd+69j2Du1t+2T3if3nxBCCCEKQcqiEEIIIYQQQohWyA1VCCGEEEIIIUQrOs2ySJjxhx9+2Pe42nHHHW3AgAHzo9ERSe7ee+/1aHU777yz74klhBBCCCGEEKLj6DTL4pQpU2zQoEE2ZswYmzx5stXV1flxQow//fTTduCBB9r6669vH330kYcyL2fuT9xvI3qMsHV7rGuja0bbNxXf5M4IIdrK27G37fjq421oj6G2RY8t7JHEI9bU/BFCtJ2ZFTPtyuSVtmGPDW14j+F2XtV59m3Ft7mzQoi2QN/0RuwN26p2K1uvx3q2d83e9nrs9dxZIaJNpymLbISM5RCrIRHksDQCmxmzbxV7Vr322ms2cODA+RbHcuXCygvt1dir9nHsY3s08aj9NflXm1sxN3dWCNEWrkteZ/9O/Ns+jH1or8Resd9X/t4mxyfnzgoh2sIj8Ufs/yr/z96JvWPvxd6zfyb/aX9P/j13VgjRFj6t+NTOqjrLXoq/ZNNi0+zJxJN2QdUFubNCRJtOc0OdMGGCjRgxwhVGXE4333xz69u3r1sSH3nkEdt///19Y+Qvv/zSttpqK4vFYjZr1qzct/8HIct79+4dWYXys/hnts8y+9hHiY/mWz12r9vdfvfN76x3U2//P4rMnTvXqqurPd2jTrnIivW8srLS4vF47kh0qa+v960A+IkqY/uMtVtrbrX6inr/f1B6kP3m29/YyIaR/n8UYVKMcsqEWNQpF1kbGxv9N3Ur6pSDrLfW3mrnLnXufGti72xvO3rO0XbmrDP9/yiSTqf9h34g6pSTrJlMxstsTU1N7kg0KQc5P4h/YEcufaS9lXzL/080JWyTxk3sti9v8/+jCHvIMhaora3NHYkueCAyFuzRo0fuSPTp1atX7q/o02nK4qRJk9xq2L9/f1cWR40a5UrfZ5995m6oe+yxh69n/PDDD23LLbdcqCIwffp069evX2SVRULE/6jqR+7aEzgydaT9suGX1qspugUFd2Aa3nJQFstFVhoyrOjloCwiKwPaKCuLP6j+gd2SvMVSzR8Ylh1mF9VfZFtmtvT/owgdL/lfLsoi7WrUlbBykRMY0DKoiep+jPXNn2srr3XX07rmD9BPnZA6wX7R8Av/P4qkUilXwKKu1AByIm+5yEqZjbqygLJIOxBlOT+IfWAH1xzsXjAQb/5sktnE7p97v/8fRVAWGQuUQ9wQ2lXGguUS4wTjVzkpi502uh48eLBNnDjR7rjjDrcu0tHjespvKjzHH3jgAVtllVXK1g31qfhT9uOqH1tN82ev9F62RcMWNjI90t16/pX4lzU0f4QQxfNg4kHvdAdkB9jGqY1teHq4TauYZk/En7AvK77MXSWEKIZn4s/Y7YnbbZmmZWzL9Ja2RWoLW7lpZXso/pDdl7gvd5UQohjqKursP/H/uGv3sMww77PWza5r78fet9uS0bUsChGIzD6LzAoQ9GbttdcuamYgqpbFryu+tsNrDrfJscn2j/p/2FbpraxhdoN93fNrO7j2YMtUZOzGuhttYHagVTR/ooYsi6VHlsXSwHrfs6vOdsXwnIZzbNSsUfZh5Yf2s14/c8vIrxp+5TO2UUSWxdIjy2JpeCv2lv2u8nc+qP1R44/s4DkHu2XhyZ5P2jlV5/jEDB4xa2TXyH0jOsiy2D7IslgaPqn4xE6tPtXr2HVzrrM156xp03pNs6NqjvJ6dV39ddazKXoWMVkW2w9ZFtsInf3w4cPLJqMXx0WVF3mne3bj2bZ5enNLNn+AWdpTU6e6FeSSyktsdsVsPy6EKIwH4w/ak/EnbdPMpj47izvPWtm1bHRqtH1e8bndnbjbPqv4LHe1EGJxzKqY5db6iYmJtllmM9shvUPujNnwzHDbM7WnR3KUdVGI4mCMR715Nv6sHZg+0IZnhzcPvGO2UtNKtmd6T3sh/oLdkrgld7UQ0SRSpphysLgUwj+S/7Drk9fbruld7ZDUIe6Gms9+qf1s9/TudlPyJrmjClEEuJiGOrNLehcblB2UO2M2IjPCBjYNtIcTD9u7sXdzR4UQiwMPmDsSd7iVY7/0fta/qX/ujLlLKv3V+tn17bbEbVIYhSiCryq+clfTPk19bPfU7rmj5v/vm9rXlmpaym5M3qgJThFpou9jWGbgg35x5cW2dNPSdlrjadajacGRmY5NHWu1TbX2p8o/2eexz+dHShVCLJyHEg/Zi/EX3c0UdzhmaANrZtd0BfKr5g8KJVvVCCEWDeuoCBRF38UE5zbpbXJn/seQ7BA7LHWYpSvSPhHKlhpCiEVDYMPxifG+vn6P9B4ehC3A8qPlmpazndM7++Sm1i6KKCNlscSwmfEnsU/slNQptlZmLXeRWxAbZTaykxpPsg8rPrTLkpfZnIo5uTNCiAXBuo87E3d6SP8dMzv6et+WjEiPsEFNg3yD/ncrZF0UYlE0Nn+ejj/t1vj1M+vbDpkd5i+ZaElwR3079rYHvBFCLBpiV4xLjJtnVUz/z6oY4Pje6b2tsvlzQ/IGTcKIyCJlsYRMjE/0zYuZKVqQ+2lLjkkdY4Ozg+2qyqs8WEfYAkAI0RoGtK/HXp+3VjGzrlU1f1oyNDvUtk1v6530nck7PVy5EGLBsF5qXHKce8Dsm97XFcKFgTsqlnvWB9+evN37LCHEgvmm4hu7OXGzB7XZJrONbZ7ZPHfmf2BMYCkFY8bpFdPdzVuIKCJlsYSg9DFDhMWwpmnxkc5wVUVhrG6qtiuSV8i6KMRC+Cj2kQ9QcZWj0yVQ1MIgQMcq2VXskfgjmqkVYiEwOGWd4uPxx+17me8t0P20Jbijss6KdVh3Je/y30KI1jBheUfyDluq+bNTeqfc0dawZhFlEeUS6yLKpRBRQ8piibgueZ1bFlmLiDvPwtxPW4IFklmnJxJP+D2kMArRGvYs/bjiY1cU+end1Dt3pjUoiwx+v6j4wu6N3+uKphDiu7D2l+in9Fctg9osDPo1ojlSvybFJ/kaYiHEd2GtIlG5WYu4Xma9RSqLeMhsmNnQFUa+9+/Ev3NnhIgOUhZLAGuprqi8whcv/7Dxh4t1P23JkakjPdgN92A9SKb5I4SYBxMoj8YfdaVvi8wWtnJ24VZFSDR/UCgHNA2wJxNP+rpgIcT/eC32mge1YUJlYUFtFsbq2dVtdHq0r23EzY7gHUKI/8G6+vsT97vVEEVxYeuAA72aP0FZJCAOW0AJESWkLJaAyyovc3e34xuPL8j9tCXbpbezA9IHuEsPAXK096IQ/wOr4tT4VHctZT3iCk0r5M4sHJRFBrWscWSt44yKGbkzQnRv2HaGPd9wP11cUJuFMSQzxEalR9nL8Zc9mJQQYh51FXUeNOqx+GPzop1mds6dWTisGaYeDs0M9UlRWRdF1JCyuIQwe0Qo8QNSB9hOmcXPIC2MoxqPsr5Nfe2fyX/aw/GHvUMXQphvwI8LqlsVF7FWMR8Uyu3T2/u+cXz/w5isi0LAK/FXfDDaq6mXWwgXFdRmYazYtKJHd2T7GrapYQmGEMLs2+bPffH73KpIHaEPKgTqI4ol1sUJiQkaA4pIIWVxCahv/mBV7NH8Ya0igWrayrrZdd0y2bOpp11bea2si0I083z8eY+6yJ5UuMotzgU1H6Km4or6TPwZn+Ul4IAQ3RmCaBD4iTrFJvtbZ7bOnSke+iws/QTkGJ8c7y6tQnRniGj/ZuxNNyKwrn7H9I65M4uH69m0n+00sNjLuiiihJTFJQBF8T/x/9gRqSMWuadioRyVOsrWy67nbndswaFgN6K744FtYvMC2xCyvxjLPZEbt05v7a5AuN19VKFAN6J7w/pC3LLXaFrD9k/t767dbYVBLcHZNs5s7PWUYDlCdGdYq3hP4h7LNn+YiNkks0nuzOKJNX9WalrJ1y7Oqphl9yXuy50RovORsthGsHj8sfKPPoA9ofGEooPaLAg6XxRGrIvXJK+xaRXTvNERojvyTuwdeyDxgH1a8alHOC3UBTUfty5mB/ikzlvxt7SXqei2fFbxmVsrXo697OsNR2ZG5s60HayLLL9gG45bE7faG7E3cmeE6F40NX/wXnGrYvOnGKtiAFdUAuLUNX8IzsYkpxBRQMpiG/lL5V/c8nd049G+OLlUjEmNsR3SO9iM2Ay7slLBbkT3JWyXwews6xVZA1IsKJkbZDfw9R+E+tc2GqK7gmsbWzQRtZvN9Re1/UyhEMV78/TmtlVmKwW7Ed0aXLyJZEofMzg72HbMFK8sso0GlnrW289q/jBZKkQUkLLYBv6R/Ifv30aF3je9r1fwUoJba7AusraksfkjRHeCyMC4y9Hx4oJazFrFfKibI9IjfO0i1kWUTyG6G0Trvitxl/234r+2Z3pP2zKzZe7MkrNOdh2/J14wDJbps4TobqAs4joaNtlvS2R8YBsNrPW4orJXI1Z7ITobKYtF8mXFl3ZV8iqrr6i3Y1LHtLlBWBTM0rJZP7O2WrsouiOEHidwBi6kTMoQfbGtbJrd1Ndm4SL3WOIx7WEluh1TY1M9yNOwzDAbmV5y99N8WEdMRNWt0lv5/o0PJh60uRVzc2eF6PrgAUb9wm202MA2LcFQgOUf6yRbPlGfhOhspCwWydXJq+3N+Ju+kT6zs2wA3h58P/V9W6ZpGbs3ca+vMyHyqhDdBayAn1R8Ms+q2Ia1ivlgldwus531b+rvnfm02LTcGSG6Pi/GX7Tbkrc1d/Yx2yO9hwd+KjUMbPdJ72NLNy1tj8Yf1VYaolvBdhkPJR5yqyJWdvb4XRJ8G430zq6ESlkUUaDTlMWGhga755577Oqrr7Zp06ZZU1NT7ozZK6+8YrfccovddNNNrc51JgQGuKLyCu8Qj2s8bom2ylgca2fXdoWU9ZDs46i1i6K7MCU+xS2LmeYPEeXa6oKaD+tAuM9zsee8HhNAQIiuDq5sKG+s10VJZO1ve0GwG4LmvBp/1d1RCagjRFeHoGnvxt71LWmW1KoYQFncNb2re649F3/O668QnUmnKYtTpkyxQYMG2ZgxY2zy5MlWVzdv8IZiiIK400472UEHHWSrrLKKVVRU+LnO5urKq11pI6jNoOwgn6ltT7Aurta0mk2OT5Y7apnz+8rf207L7GQje410S7HctBYO+yJ+EptnVRySGVKSNcEoi/xQZ9mkX9bFrgEBVQ5b6jDbss+Wdl7VeQpg1IKXYi95dMZ+Tf1sr/Revol+e7FadjW3qqyZXdMnfB5NPJo7I8oNvDrOrTrXNuu9mR229GH2ePzx3BnRErbLoI4xuUmfNSIzInem7eCxxhiTyKgKdNN1IGIu61A367GZjVp+lO+oUC50mrI4Y8YM69Onj/Xs2dOqqqrc0ggojZ999plbFm+44Qb7+utobKTNwuVxiXE2NDPUjksdZ9XNn/ZmhaYV7IjGI9y6SFAdZmq1lUb5QaCivyX/ZlMTUz1i4NiqsQoxvxDYJuOh+EMlc0ENoCR+L/M9d0VlplZKRfnzeux1uzFxoz2cfNiXBlybvNYDj4l5EBjjX4l/eVRh9u9tT6tigMkd1kSy3vj2xO32duzt3BlRLjAhziQMsRnYbmhScpJdXnm5B0cSrSGwDcHY+jR/CExTKrBSurJYMcsnmN+PvZ87I8oVtlb5cdWPfW3324m3fVcF2udyoGLmzJmd4uM5YcIEGzFihCuM9957r22++ebWt29fS6VSrkiutNJK9u6779oHH3xg2223ncViMZs1a1bu2/8DZZJ7tLf18ftLf98eq3rMfvfN72zvur2tsvlTLLNnz7ba2lp/l0JhreLhyxxuz1Q+Y0fPOdpOn3W6uyi0N22RtbOYM2eOVVdXWzwezx2JBs9VPmd31dxl/6r5l30V+yp31KxPto9d/dXVtmnjpq7ERJG5c+daZWWlJRLtsyZ3YUyomWCX9LrE3W/O//Z827hx49yZhcMEE3Imk4vesP+j+Ef2s6V+Zo9WP2onzD7Bjp19rPXL9sud7Rjq6+u9nC5O1iiArNR/ykGUeDX5qpeT+6rvs3cS7/hsLcSbP0fPPtpOnn2yLZ1d2o9FjTApygRpe/Ng1YN2Ye8LPV1OmXWK7V6/e+5MYTQ2Nlo2m/W2tRierHzSftv7t/ZZ/DM7cfaJdsScI3Jn2g/GDel02mpqSh9wrtQgJ/JGTVaUxKernrZbam6xidUTPYgfVDR/hqaG2q++/ZVt2LihH4samUzG26sePUq3jVkhoMiNqx1n5/Y+1zZp3MSu+eqaxW5JU4ys0+PT7dQ+p9rrydftjNln2BGz278u5UP9ZyyAUSfq4JXIuLVXr/YfH7cFDD1X97zaftXrV5auSPsxxn9nN5xtZzae6f9HmU5TFidNmmQDBw60/v37u7I4atQo6927t3355Zf2/vvv24Ybbmgff/yxvfzyy7bLLrssVGmZPn269evXr12VRYLa/KLqF7Z9Znu7vP5yj1bVFijINBDFykpwgjOqzvBB0a11t7qFpL0C6wRQwOjMykVZjJKsBGf5Z/Kfvm6HmSTcs9gKYmbFTG8wiHJ7Z92dbjmLKp2hLFK+f1b1M7sheYO7YJ/ceLJbAhdHocoi4PbBLDl5cl7DeV6XOpJyUhZRbGiroqIs4tqIhR4vD6IE0g6jCOGen27+AOvmzmo4y90howgKGIOa9lYWsezh+n5H8g6PrM2AZLmm5XJnC6OtyiIRw/9a+Vf7XeXvPAgc9WyjzEa5s+2DlMW2Q79EJE9iI/iG8s3KDu3uhxUf+nIJlEXy7y/1f/FARlEEBYz2ignujgQPmJ9V/8yXNvyo8Uf2w8Yf5s4sHOoUfVYhyiLKKPmCi/126e3s5rqbc2c6hnJTFhkLRk1WxjVT41PtyuSV7iGYD/Xshrob2r19LAWdNroePHiwTZw40e644w63DDIgGT9+vJ/76KOP7K677rIHH3zQhg0b1q6K4OLAlYeOj5mAYxqPadegNgtj/9T+tk1mG5/po+HQ2sVogpJ4SvUpdkDNAXZn4k7bO7233Tv3Xnt67tM+WPte6nu2QnYFa6xodGVSrpDfhfTDRbRPUx93vylEUSwW1i2yHceU2BR7JfaKAt2UASiJJ1efbGNqxnj7h3v+/2v4f/bw3IftlrpbbJ/GfWydzDq+xocB7pWVV/rgrbvChNQL8Rfs8cTjtl5mPQ/DX6yiuCQQxZsgH1unt3ZXYQLsiOiBkoh741HVR9nBNQf7gPanjT/1Puvfc/9tYxvHeqC9pbJL2YexD92lWfwP1ih+HPvYFW36rB3SO+TOlA68yIhgzNZPRDXmWaI8QEnEdfisqrNs+9rtXVEk/sLo9GgPNjYkNcTHheWgKEKnKYsrrLCCHXnkkR7gZuTIkT7TuvLKK/vvffbZx0aPHm1HH320DRgwoFOVRYLafBD7wI5qPMq+l21/i97CODR1qK9dvDF5ozbqjxj5SiJKIDOAt9XdZhfVX+Qz67hUss51/Ffj7e7Zd9smmU08HyckJvjieDGP/MA2pVqr2BIsiewJx2y5b8/R/DwRTVB4Tq0+1Q6sOdCVxL5Nfe2XDb/02fUzGs/wzeBZh/eXmX+xx7953CbNnWSHpw73SLq/qfpNtw3KQbRfvBq+af7Q/nTEWsWWYIFi/RbLKNj+SYPc6NBSSXwp/pKd2niq3Tn3Tvt5w89taHaoTy5w7Olvn7abv7rZAyTdnLxZCmMepCMRUJmcYUIGxbo9QGFk8nR284e1pCL64El2YeWFriReVnmZe74cljrMHpr7kF1Xd509Pedpe+C/D7jXR7kQGR9DFMLhw4dHyoTMTA6m4xWzK84LatMJVsUAs1ZEs6tp/uCmJ+ti54NyE5TE65LX2WaZzXwg++eGP/vfCwqCxP5Lxzce7zOFKIzTKhSVE5i5piPEhY0BbntYFYG1xuTNKk2ruMXq44qPc2dEVMDiizvyITWHuNsprqa4d/297u92SuMpC91KBWXywoYL7bTG01w56Y4KI8oZe4miMBPUZvv09otdQ9Ue4CI8Ij3CRmVGeTAv9qCTFb9zaakkEmX9qNRRbp2/oOECd+FeEFjsD0wd6JPmV1VepUArOUhPrPfsrcg+vu1F2HMRhQM3YVzwRTQhj1AOt6vdzvsfxjN4mP1r7r/sz/V/tvUz6+euLD8itSAtagFKWKuIzz6KYv9s/+bE6tzkYh0X1kVC79JoaKP+zoGZ2NOqT5uvJGLhuLr+aruq/ipX6lmTuCjYvHrf9L6+3oGGRds4/G8Tfqyu62fXX2waLgmbZDdxZZ1B7FOJp+yLii9yZ0RnQn4Qrv+gmoM8Stzc5s/BqYPtn3X/tF83/Lrg9VInNJ7gg2A8MLqbwki0ZSx5DFpQ1JgY6SxoF5ng7NH8YZ+4SQntFdcZoKST/sdWH+tKIpOcDGCxcPyh/g+2YWbRQWtwscQVkuUwr8ZetZuSN+XOdF8amj9sS8OyCfqrbdLb5M6UnmTzZ63sWr4U6fOKz2VdjCC4JGPEQUkk2j0TKtumt7Ub6270Sc6tMlvlrixfIqUsRgn2tWGrDDpbNsfviK0yFgfrrTBlozDKutjxsHUJQSP2rdnXw/TjKnlRw0U+mD0gdUBRM/i4HzCTe2vyVp/t7c7uqHS8rDELyuJK2ZVyZ9oH1iwSrCqsXWTdieg8WLtL4KFDaw61Syovsc9jn/tM+rX11xY0mG0JLnTHNR7nkzIojFhDWDvX1aENYX1g2CqDNYN4onQWLNnYILOBjUqPsjfib9g9iXvcPUt0DKyZei/2nv28+uf2/Zrv+76XDFoJ0nd93fW2dWbr3JWLB+viiakTbcWmFX1c1N3dUalrTEJhVURRZFlDe9Kr+YOXgG9rEpeyGBVwQcblf6/avewH1T9wQwLj9Cvqr7C76u6yXdO75q4sf6QsLgSsigQiObbxWKtqav8w54WCdZEADzRU7GNVVyHXnvbGo9A2K3X71+zvlgpgzdRdc++yExtP9IAOxUI0TsoWFq7bErfZRxXdN9gNVkVmaRnkM7BkfUx7g1I6sGmgu2KxF1yq+SM6Fty4xiXH2ferv+/RponguWlmU/tL3V/syvorfWa2rZN0TMQQkIwNsu9K3OWTO11dUcF9d2JiotU2fwgwE4Voy2zQT0AHXIexwmjtYseAq+KllZfafjX7+VgGpebX9b92SwdWwrYoN8EdlSUDf0/+3SdPuyu0XY8lHpunLGbaz6oYwEDABCfjBSZWqUui80BJnBif6EslmIhhPI7193f1v/N1idSTroaUxQVA1CJcZvZL7eeL9DsrqM2CYM0bLlasCSGYypzmj2g/mKmnQTi16lSfNdotvZuvSxzbMNaWb1o+d1XbwBWIgRRrQW5J3tJt1yLQ8X0a+3SeVbGpfa2KASwerI1kIoA8litwx8KauhOrT7RTqk7xtaME1fh9/e/tH3X/cBdtXN+WFKworHXETYyI1n+q/FOXDQzGhulsKRKsipRt1npGAdxRw9rFu5J3uQeBaB/YIJ6ttg6rOcxdurGA/aDxBx5w7ejU0a7ctJXgjsq46NX4q56X3REURZYBUY6ZlGFM1hGwdhHrIttp8HzR8aAkPh9/3vsurIl4SzC5fU7DOa4kHps6ttOXq7UXUhZbQGN7VfIqtyayVjFKVsUA1kU6YNanMMOHa4IoLbjvnF11th1Zc6S7ibJeCtcCFinjZkCglFLAfnAoSFg/sHDh+96dYJYaawiD3U2zm3aYsggop8zUoqwq0FDHwJqnn1T9xI6oOcKjATPhQrh+1nXQ3pbaqkwUQQJKYRVhErDlPlddBfoCLA6kJ5EZKdtRgTq2Z2pPG5YZ5pFatXax9OAZQfRgAq4dXX20e2qwfh4LPUGfSrU/IhbiA9IH+CTbjYkbbWpsau5M94Ex4kPxhzrMqhjAQEAgHeJoELfi04pPc2dEe0N5fyf2jvddO9bu6Ot2iatAxGC2cMLTrBQTnFFGymILcNl4Pf66HZM6xoZmhkZyloCof0ekjpi/dhGLFIVZLDneCSZv9OA1BJ9hdp6GgIhxBNsodWRBtnEgcAB7aJKX3W0rBxQ19jJlSwvWptEhdhQMqHFXZGKAAayizLUfDGyoTyiJV1Re4ZMieEiwITHh+ttrdp76y7qRg1IHedAXtuAgAExXAgsHg0dmvOmzouB+2pJgXWRCjIkxBl6iNFC3Lq682A6tPtTTdmB2oP2q4Vf2t/q/+TZOpQQvq8GZwbZHag9f693drIsEFZwcm+xRUOk72jOwTUuYoB6SGeLPpK/qau1YFGE8SAC8X1f92nao3cH38AX6LpTE8xvO99gH3QEpi3mwZobCsEZ2DV+LVirrUXvAvousx8F9jgEQrgliycA17vCaw+3MqjO9LDBDT/CaUricLgoiBmL5IGgAMjBz2F14Nvasr31xF9R2DmzTEmaGCfLA4IrtBuSKWnoIXoSrDhZ61iWyNnf39O4eiZH1HbhMtjdLNy1tB6UPchfyV+Kv2F+Tf/V1sl0FrIq4nzJoQTFmAipq0H4iG67BuKNq7eKSQ59Pn3F0zdE+mCV+AdZ5JjZxOW2vLVPY1oj6tGzTsu4dgGdId8Gtiol5VsVtM9t6pNKOxAPdZOSK2hFgrb+88nJXEi+qvMjzHjfs8XPHe+A1NtbvTkhZzAP3U4IgEBiBxqC9I1wtKWErDSxh78be7XYujKUCyxadLdEYmZkl4tvvGn5nl9Vf5gE32nvSYNXsqm75wI2BYDfdZU0PVkWsIaHj7UgX1EBwRUVZJNiNXLpLB25xP6r+kZ1UfZJPguCG+IeGP3i9YqKrIwdaTMawpQZRVgk9/+fKP9trsddyZ8sXQrQzYMe9F8W7M7fKWBxYF3ELJvw/Sg4uqaJ4sHZgof1p1U/t2Jpjve3CM+NP9X/ydb8L2y+xlOCOysCZvoroqF11LXA+rFebHps+X1nsSKtiAM8bJrHZyo213lIYSw8eKIypcTdlv1/aWMaB19Rd48aDrrANRluQspiDyEa4ARJu/MD0gZG2KgaYqWW2nFmmmxI3aaDbBu5I3GEH1hzobjysm8PVlJlZIpXi7ttRYF0kEAfukLiUfV3xde5M14VBDp3vZtnNOtyqGMD9EUWVWXIUGq1dXHKw0FKf2PybNYJYOMY2jnW3OKLEdWS9yocgOmzqzzojwp0T8KbcrclEQGXfPKIrM3iP8mw35QBLPj9spaG1i8WDoo07N3uRMl5hgpFlEtfXX+9jgY4CS/Heqb19goJIkHcm78yd6bpgWcL1c3bzh0jNpVoHWiwojFgXCW5IUCtRGjC2oHwTQfiE6hNcGWcin+3R7pt7nwcj7M5IWczBXlwNFQ2+FjCKQW0WBu6oRMkimuabsTd9VkQsHiKbsi8OAQGwgKyfWd+uqb/GLYq4IXf0WlW23xiTGuMzhncm7uzy1kUGPWwUjQsqs3a4NnUWBCzChU+uqEsGm39jMTqi+gg7v+p8z2PW4zKQxZWbjrezwfJ2cuPJbolhUgZltly31MC6hFWR38OywzwCatQZnBnsbshYonBPps6JxUPdImozURjPqjrL+westFfWXWlnNZzllr6OZkDTAN/LlHX2WGK6ep+Fsvhg/MH5njCdBeM9orDidoyyiFeBaDsheM3p1af79mh4nuCxxyTM/XPv9wBpUYks3ZlIWWyGGbqHEw/7zCzRpqK0Vcbi2CKzhW8IT+dLhCZZFxfNnIo57ofO7BH5Dlgb2A6DgS0NcWfBVhpEsMOlmM63K+9jhTWELUNQ1Bi4d2a68/yNMhvZt80fPAy0SX/x4FL4k+qf2KnVp7prMe69RA6+tOHSyK2hI/w8CiPu5nhkYGUsRzc60hxrONbEfVL7REIZXxxVzR/qvFsXY2/4hJGCsy0aJrAuqLrA1/0+mHjQ11if23iuXV1/dVEb65carJooLbh2vx57vUtbFxlXsc6W9cFYFLEsdhZ4vRHIiskCrIu4xYq2wZr6P1b+0Xat3dWuS17nY/8jU0faA3Mf8O0wOmLP53Kh2yuLzCoT8IBCc3jq8LKyKgY8Smfz59bErT7LJOvigmFCgIhx7D9FNDE6OTYpPrvh7HYNYFMMzNRiZaPjpQPuqpvFM8glih+WnhWzK+aOdg50EMixStMqvm6RICyiMHCXJsDWcTXH+W8GkL9o+IVb6SnL7RVkY0lh3Q8zxoBXSbmt/WG95b+S/3I3biY7ysGqGGCwPTo12kPPk+4ojKI1WLKYAD68+nBfY4tSzRjlhvobvOxi4eps8ITBtZzJFiY48dLpijCRGNYq4gJa3fzpTAh048pixTxlsauOE9oL0otJwt1rd7dzqs7xiKf7pfezCXMn2B/r/+hLFsR36fbKIkFtWD9xSOoQ2zy9eVmam1k3cGTjkf73zcmbFRm1BezlR4PA/lMojAQ0wd2UPahGZkZ2esOfD5bifVP7zu98u+JWGkSixLKIIoGVBwtPZ7Nxdp4rKusU+JGFfvEQoOi06tNsbNVY334Ey/i19dfajxt/7HUsymDhQt6D0we7+xyb9rNPYTlAoA3c6KlDBA3CIyYqk12FQOA4grAE6yLWsu4UAXpxsHaK/QsJDoXbKdasYKkniA1LJqICfecGmQ3muaM21yOWUHQ16IsZI87fW7ETAtu0hHWLKItrZtf0SWVZFwsjtJ0sQfp+zfd9chhvrpvqbrJr664tq0m3jqZbK4u48eCSyPo0ZuzKIajNwiCU9cpNK3s0TTbk1UzTPG5N3mpjasb4zCwKAPvjjKsb5wFsorqJKgupid7IHlYED+hqiotbFWOfemCbKCiKwJofXNCxcuJGKeviwiF6MMFhjq8+3geHBAm6uP5iDyfOwLFcYEsNXPiZsMDFjG2TUF6iDv0WaxVxQWPvQiaYyg3KDMo69Z82TtbFeVC3Lq281AeyRBklQjTrff9R9w9f6xlFGHccljrMJyxYB/xA4oHcma7BtxXf2gPxB9yQgPspUX2jQI/mD27AtANMgouFE/ZLZC39LjW72LjkOG83r6q7ym6vu90Vb7FourWyyOAAK9zhjYf7DG05L2JlHQMNNuHosS52d8sIs0fHVR9np1ed7i5bhOpnA/BfN/za06qjA9gUAwF22BZluexyPhjHXbOrgJUXSwKDIgLbdMZ2GQsDdz6CNrDpstYtLhisWVgTWUM1s2Kmb0fB2ikCbaF8lRvUteNTx/vm5QSvwJqPi3pUYbkEkxluVcwOc0WXYAzlCO6oWBdfj7/uSgaDue4KAWwIrIE7NwNa3LtZQ89+pATaiMqk2sLAKwPrIn0VEcYpp12FlnsrRgWsiyylQRG6J36Pe3eI1mAZvjp5te1cu7NPxLBki3EgEU73Te+bu0osjm6rLBJFCiscDQDWpnK2KgZYu8is1+3J291FrByDNpQCIhweXH2wR4hlAHtew3ne6dKwsk6mHGDWfcPshvZE4gkvq3RYXQE2D2dAgaKIckaHFxUIcrN5ZnNPa6wdXTnAULEwu35t8lo7ufpkDx+/YWZD3y/x/Ibzbe3s2rmryhNc/NjMHMWRyRneL6p71uKSSHvAOlu2SihHq2IABWOP1B62bmZdV4C760b9tIeXVl3qlvon4k/4JMCl9Zf6MgnKZjnA1kMEWWL7J9p41tN2BWj3aA+Y5OzswDYtoQ3ADXWnTG7tYlyuqPkQu4OIy/vW7mtnVJ/hAfWOTh1td8+9205sPDF3lSiUTlMWGxoa7J577rGrr77apk2bZutnt0YAAFZGSURBVE1N342I9s0339j48eOtrq4ud6S0XJm80rfKIPIRUeSibGkqFPYvY4YfhYhgN93NusjWIWyFwRqqj2If+VYUt9bd6pEPy83qgYvsfqn9fP9BtiPoCtbF+uYPSpi7oEYgsM2C8G00sC4S6Ka5DIl5bo/HVB/jFkU8MU5vPN3+Uv8Xd92J0nrfJQELHZOGrGlBKY6iKx3tOcoEbtxEQ+wK62vmWxdjr9sdyTu61dY1WN9QrIggfGHlhe7Z9KPGH7kHDBaPcvN0wkuE/YJp35mIZ9/icgdlERfPqAS2aUnP5o+7ouYC3YjvrktkD23aTNoY1iVeUn+Ju8CL4uk0DWnKlCk2aNAgGzNmjE2ePPk7SmE6nbannnrKvv3221ZKZCnAJI3FhiAMKItdwaoYIFAPs5Gsd2MbgK7kDtIS9p1iX5zdl9ndjqk9xnar3c0jMmJdJdDGJQ2X+N/MwJUje6b39EYON1oGUuXe+T6VeMqmxqfaMtllfHAeRdcqrJ1scP5i7EVPdxTc7gbuTD+v+rnt1Gcn23GpHW2f2n08aiWu3ATZYF830qgrgfs+EVKx6LNvIRGyo7YHIGvRceFm4ou2IUqBTtrKCk0reLpj0ae+0aZ3VZhouS15m+3aa1fbr+9+dljNYf5DYCWsxKyfIpIw69XLERQqgoXg0v1K/BWf5CxncA1+Pva8j6OiEtimJTVNNS7XkMwQezH+Yrdc+4ty+H7sfdu/dn/badmdbO/avX1dIsuxCKKHZxlRTimbou10mrI4Y8YM69Onj/Xs2dOqqqrc0hh44403bLnllrOll17aKioqckdLA65lRL7DRZOgNqwLIzpbV4HZyLBRP+6YrCvqirwSe8V+XfVrX+cxOTnZFyzPbf6c1niazyBhlYuSi2NbwNrNoJAZW7cuxsrbujh/u4wIBbZpCUEa6HyXaVrG5e1uaxdpL/6W/Jv/TElM8R/ceU5qPMkVRZR8Iol2RVBcmGzDrYt2heBnKI5RgPV8uJ9SJstlA/5CwbqIgoFV8a7EXfZW7K3cma4FigeTMM8knrHHk4+7eyPrTS9ouMCuqr/KtspslbuyfKGvYsLly4ovff1vOa+jw6qItY6xVJQC27QE66K7onbTQDdMwmBBxBvk5eTLPuGE1yBW7gl1E3wfbbHkVMycObNTdsSdMGGCjRgxwhXGe++91zbffHPr27evffnll/bCCy/YZpttZpMmTbJtt93Wampq/DuzZrXeEuLrr7/2exSqVP6+5+/tL73+Ymtk1rBx/x3XofuAzZ4922pray0Wa38d/ZS+p9jd1XfbWd+eZQfVHVT0Wr2OlLUtXNLrEru2x7X2dexr/z/RlLCfzP6JHTrnUFsq2/n7Ty2IuXPn+sRIPF6ce9Eve//Sbqq9yfat29dOmH2CrZRp/6AwyFpZWWmJRGmssm8m3rSf9fmZPVv5rF3w7QV2wNwDSqbM45WAnMlkMndkyXg1+aqdu9S59nnF53bBzAtsZMPI3Jklp76+3vO/VLKWmteSr9mFvS60h6v/N+jYvW53O232abZOKpqDpTDRSN0qBf+p+o9d3Otim5qYaofOPdSOn328TyqWgrbK+mjVo/a73r9za8fJs0+2fer2yZ1pPxobGy2bzVp1dfu73r2YfNF+3/v39nbibTtx1ol2xNwjcmcKI5VKuUdSGCtEja9iX9mNtTd6uWqsmBdLYIXsCnb0nKPtpFkn+f9RhDSlHDAWKJRp8Wn2216/tSern7RjZx9rP5j9g9yZ9iOTyXjb2qNHaYI9Ya16LfGaHb7M4T4B/8tvf2k71u+YO7tklFpW1le/WvmqHbL0IbZ0dmm7+cubbcVMaSZjqf+MBTDqRBGC+7BcZLfld/M6Bkyyb9C4gf3ri2hbtknbpZaK5lh1QXSasogiOHDgQOvfv78ri6NGjbLevXvbJ598Yk888YQ3UtOnT7ftt9/e1l9//YUqg1zTr1+/gpRFNqxnE05mvVhATsTJjnRBRQGjgSi1tXRB4I5wVM1RPls+bu68ENzFMGfOHO94o6Yssm4Hiymh+9nXicYCeM+b62720P1RXX/aVmWRYEWsxSRCHkFFRqZHuttce1JqZfHvyb/bxZUXu+XuooaLPEBKqSi1sgi/rPql78HKgngifpZqH7uoK4us1byg8gK3rAGTaaz5PSZ1jFtbowgKGG0q5bVUYPX5deWv7cvYl3Zaw2nuhVIKiyoDb5ZWFKMsYt3+feXv7brkdXZQ6iA7u+Fs69/UP3e2/ehIZZF9Fm9K3OSRQLGc/qr+V/67UKKsLBIchRgJuKCGoFm03wQnwkWulG1hqWmLsojX1qOJR33NGO0m65uHZ4bnzrYPKGC0A8XIuSgIcsZypQurLvT+9sa6G0u2XpE6RZ9VKmUR8Dz4WdXP3BJKmaK9KgVRVxZdqY+9ZqN6jPJyB1jrz2o8y/utKIPxq1evXrn/ok+njaoHDx5sEydOtDvuuMMtg3T0BLShULKOcb/99rN11lnH1l577ZIpV9dUXuMma1wKDkwf2KXWKraEtW5s7v5+xft2VeVVXcIdlXDxR1UfZedWnWsfV3zsa06JqLdaZjU7o+EMj2bYFQIVtYR1dKNTo33vTAIXldtG/az7I5DD9Nj0yAa2aQmRUQl043sudpNANwRJYCIGRRFPBCzYu6R2sR0zO0ZWUWwvcLdlSw08Fug3iKrXWbB+FvdT1ijilt4RimJHQ3mjbdgms427oaJslDtMbI5PjPfgUExu4iZI9Mr+2f42PD3c++coK4pthXEVa+goqyw7IA3KDVxQKYNRDWzTEhQk9gmmDe9q+1wuDAwFxHH4SfVPfGxEGqyaXtXdT6OuKJYjnTayXmGFFezII490xXDkyJE+07ryyivPt7rw/2677VaymUKiMN6QvMFnH7AWVDV1zXU3+bD+plfzhwEgHTBrj8oVrDyH1hzq63boiP5a/1d7au5T9uqcV+3J/z5pxzUc5w17V8XXLmZXsn8n/u0KDO5o5cJ/4v9xq/6y2WUjG9imJSiL7Mc5JTbFZy67cqCoABZFIoEOzQ616+uvt5e+fskum3VZWW20XypCwBsmFdkT9C+Vf5lvbe1IWDPJeuUPKz70dYooVF0V1oShQMWb4q6cRy3AUDFgTcQyjUcI6+uJHHxD/Q02ec5ke/nbl+3fX/3bjkgV52pbTuDJxFZeBGNiD00iUpYLTG4STIqtXKIa2KYlNc2frdNb2zqZddwTqZzSu62gGJ9ZfaZPpNEufjrrUx8LXlF/Re4KUUoiY4bBejh8+PB2M3czO8zsA9spMFNUrhEyi4E9j+iQUCxwYcKqWm7Q6KEknlN1jiu7hBZnOwzcsVh43l1gL7uD0gf5hrLsBVdO1kU6r89in0U6sE1LcJ8alR7lW5hgFe3q1sXfVP3GXYVRFM9pOMcHt90drKkHpg60XdO7uuJyWfIyd9PtSAgB71bF5racEPlsj9RVwStk3ey6vvE5k5vlGNkRDx7a5+Oqj7M/V/7ZlaVfNvzSrqm/piyUjlJB0EC8fnZP7+7WxXKKjIoLKlbFqAe2aUmP5g9jWyzYXd26iNs6HmZMnjOxi6uzaF8i5bNX7FquQqGhYqYS9wjW3lQ2dV3305ZgXVy5aWW3qmJdLRcLCR3MBVUX2CE1h3j+jcqM8iinYxvG+gbA3RE6XrYswLpKxK9yUP6ZYafjnVExwzfiL3btbGeyUbZ7uKJeVnmZWxSXa1rO3Xe606B2cVDfTkid4FZGtq1AAeioCKnsb0l0UOo5Fnm2l+jqsAfaPul9vI2nnSsXhRGXuDdib9iPq35sJ9ScYO/E3rFjU8f6nol4MnVkIL2oQBwBopKv0rSKr6VjHXA54Mpic/+KVZGJi3IBN0wmlCiLpHVX2Jt5QWD5vTx5uXub4W11YcOF2juxA+h6C7wWQLAqHtt4rK/7KLfNbpcEXOlY7MwsGZaDclAwbk3e6nvmXFp5qVt4Lq6/2F0LGCx11bD9hcAazQNSB/iaP2bUCPATdbDI4MaHosjay3LazoT1ROxZSlAKJlpQeLsatAl0urSPtBNYFLvyWu62QHCOHzT+wN1AH4w/6GlGpNz2hPxgkoJ12lgVWYPeXdq+wZnBbtFho37auaivt6d9+2PlH+3gmoPt9uTtXl7YZoZ+a0h2SO6q7gmeJExykkasXQxBSKJK2ISfbVzY0oVyWC7gLYfShILLWj4mt7oalB/q2HlV5/lY4rcNv7WNMxvnzor2pMsri7hf4ka2cnZlOy51XLdUNhgEMvCdmJjoFQ0TfhTBxevY6mPttKrTfI3bYanD7Pa6231mtiuvRywGLBy4aj2ReMJn3omQGmWeiz3nyla5BLZpCS4uWOYZuDOA6Eow+3xN8hp/r/3S+9n+6f27tJvjkjAyM9J+2PhDG9g00O5I3OFKTHuuAcf9lLVeeMHsmdrTJy26CwTwYY02itbjicft4Xg0945jzdT9ifvt+JrjfZkEXjs/a/iZ/a3ub95OC3Nvhb1Se7krJ+7U/0pG2x0Vq2JYq1gOgW1agisqm893xUA3tLeUoV9U/cIDYhH1dbf0brmzor3p0soiM5JXV17ts7S4nzJY7Uob8BcK7gmsXcQV5vrk9fZ18ydKoPBcUnmJ7Vezn92SvMWGZ4fbP+v+ab9p+I1b07pihNO2gqV1dHq0R9RjMBll6yJrFVGyvOMtk8A2LfGoqNkBNjk22ScwukqgmynxKXZF8gp7If6CD8yPajzK31MsHAZhxzce7+3RtZXX+mRNe0AUTdZqY1XcILuBjciMyJ3pPqBcYOV+N/au9wm4s0cJ5Dq76myPdEoQLFxnWZd4ZuOZZeVq3xHQ7jOo/zT2qY1LjPOty6II40RczHF9LpfANi1BiaKvxX2+KwW6YYsMJjV/Xv1zbx+JVM2YXnQcXXoUzj45rCPAqnZc43Ee4a67QmfGbCedXJS20mCGfkzNGPt11a/djeLnDT93RZHOpaYpmhssdzYE3Ngwu6FNjU+18cnx7nISRdwFle0yyiiwTUuwcrBelsBCeChEbdDaFti3D4vi04mnbavMVu6ej7VaLBrcc3GpI8rjRxUf2V8r/+plotRMjU31NV6UPbbMIbhVdwML9w6ZHWy79HY+SfNQ/KHcmc6FtpZxBUHXqENM3uEKd0XdFV06Uu2SQJAf+iyWIbAON6rBbsJaRcYh5RTYpiUe6KZZYexKgW6wlI6tGuuu6bzbLxp+kTsjOoouqyx+EPtgvlWRhebdWVEM4NbJ2kWsi2wHQNp0FiitHgyg+gSfQUc5vKXuFo92Kle4RYOFGNeesJUGg/+owZouZmhxQS23wDYtCdZFrHHl7opKnceNkvUsrGc+qfEkX4snCoOB78Hpg90ay6z9FZVX+IRkqfiq4itXFLFkU2+6c96wDQCTnA0VDXZH8g6vf50F9YbJL7bC+FH1j1xpZB0rE5tMHrB1gVg4tP8eGTX2qd2UvCmSk24oi/RZjD/KKbBNS/AkwwuivqK+SwS6QVHEzRuX71Wzq3q0bhR60bF0WWWRWT8CUmBN2ye1jwpXM8x8sn4RV7q/Jf/mi7k7g38m/+kupyjzrAEiGAA/WICl1BcGM7UMJD+o+MBuS9zmAQSiBHsrMiBg8Xm5BbZpCcoiew3S6ZZ7oJs7k3d6ZGTaACIlb5HZIndGFApKNuuocZPE4sU+tqUqE2F/N9brsbl0v6Z+uTPdDyy51D2si1gUOmvtIpNxv6/6vR1ZfaQHPyHY0OX1l3sURoKgiMUTliLg2vl+7P3IbdRP4D/a9tfjr5ddYJuWMIbCU4R6U+6BbkLkU8bzuNie23Cu6lwn0SWVxRfjL9qVlVf6bKCsit8FZREFjXUgzKJRGTsKAtgcVX2UnVl1pis3rP+5c+6d8y2eonCCSxyualgX6YDx648KLERHuSKCbTkGtsmHiSYCjBACnjJcrtZFBrp/Tf7VLWFYxlBG2EdSFA8RL1EYcRFle4sJiQne3ywJH1d87AFA2HYBRXTLtCy+a2TX8MBLuHtiJSFIW0eBRYN1qcdXH2+/qfyNtwNYNa6tu9YtN6I4QmRUJlZuTt7s3k1RAaviI4lH5rk/N+dtuQW2aQmuqNtltivrQDdEPmWZzflV5/uSpJ82/tTLj+gcuqSySARUOm6UkBHpEd1qq4zFQcCYoxvn7ft0Y/LGDrEuEn2V0OJYE8clx7k14+a6m32WiEGAaBs7p3f2jo2ODuU/Khv1h5D/uOyx71O5rlfMhz0XqTsEDcAdjk64nCCQzZ+Sf3L5ce07ofEEd+kRbWfr9NY++ca+ZqwDR2FcEpjkfDL+pHtYMNAr9wFrqcAdFSsJkxz3xu/1ABftzXux9+z/Vf0/VxRRahhLXF9/vUfEJcKnKB4mhFn/TfvD8oSoWBcZKxLY5pH4PGWRulfu4IrK0h6WT+A+zURhOZFp/tDP4n5KO8jE3KmNp+bOis6gyymLBBxACUJBJAKorIqtoeNjPcxjicfcKtWeA19mtQhg88uqX7oVA9eda+uv9U5Dg6ElBwsRWzsQGZVAEFHYx8qtirFP3U22q0QGHJQd5OtYlsku4wN63H/LBdZv48rDdiu4V7FOsbvv/1YKsO4zWbNrZldfg82EWFs3HkcRujNxp4eHx5KGwijmwWTTHuk9fL9JyvDEePtZF4nUyT6auJyyVIN96/5U/yf/wZoslgzW2bNXMMoALvFMXnU2RGNn/1TGiliuusoG7yz9YEJ5dvOnre1SZ8DkGzEPiDZMfWTroF83/Dp3VnQWJVMWZ82aZR9+2PmLlrEq0uEe0XiEDcsMa37BLrsss80wyGFGnHUEKNYzmz+l5s3Ym3ZG9Rne6eLuelDqIBtXN85dT3muKA24ee6d2tsbWMKSd7Z1kfU9rJGY1fxhQoAtProKrL8c1DTIBzgoYOUAUY9ZI0zQlPUz69tpjad1qz372hvcwA9rPMzXxmO9RWGkvSsGBs5Y41nny7pyLJbiuxCZkoHvtIpp7vaLZaqUsIaXSa4fVP/Aflj9Q/ui4gv7acNP3ZqIAtEdt9xqD5ggRumOknURZTG4oGLB7ipgXSS2QaYi45PJUXL7XRQYL86qPssti7SHUhSjQck0qblz59pbb71lqVTnRdjE1H5X8i53dzgydaSvMRALhg6QH6xRDCZZ4F0KWANJhMC9a/f2EOPMBt9Ud5NdVH+Rz9jJJbj0MOu+cnZltxIz4MTtt7PAss/ej7gaD8kMsarmT1cBZRHlnJDkKMTloDBirbo1cau7BKMosrm8KC3DssM8MiaTI5T/SysvddevQkHJRAHCCr9/an/t07cAwr53bPWCu24p1y5Sj/F8ObzmcM8/9rFlz8SfNP5Ee4+2A1iKCa5Fm+TrUNvRUrw4WIbDRBqTEPRZXSn6MJZS1lQH6+I9iXtyZ6ILiuJFlRd5v8Vekb+p/42WKkWEkimLiUTCrYvjxo2zm266ycaPH+8KZEeC+wj+57ifsjBeVsVFc2jqUFuq+UNUUpRGLLJLAi6nB9QeYL+o+oXPlp/dcLbdWHfjvD0TFVq83WDW/ZD0Ida3+cNMbWdt1E+e46JJ8CI63q446CWyKy6pKANRd0VlDR1r6Qihzj6zKDNqE9sHJhHGNoz1NMZKcUnlJfZK7JXc2YXjLnCJBz2oDdYWKfMLh3Zu3/S+PqBkgvOl+Eu5M20juJweXn24W4RRSNkzkUin2jOx/aANIqJwsC4S1KmzYL0/yipWRaK1djXmu6JWzPbJZLbmiSp1zR/qI3URqyh1cWh2aO6s6GxKNnJYZpllbM8997SNN97YtthiC9ttt92strY2d7b9ocNlloqZwGNSx/isilg0WEqOaTzGLSV/rvyzD1zaAu4CJ1efbEdUH+Gb2u6R2sPGzR1npzeermiLHQR+/VjyUNjp/HA/7GiYlSdaKLOZWADogLsa1Jm1smv5GjPW/BKaPIqwB+BllZfZW7G3bExqjK9tVcTh9gWF8eTGk329IXuCXVx1saf/oqC+PBB/wEPdj0qPkufFIqBPJ20Z1LO5O9aHuoq63NnCYeDMeOG46uPc5XR6bLqd0niKT2yyXILIi6J9wVrE2kXaUvorFJmOBtfjqbGp9njicVujaY0uEdimJUzSY5Fn6ye2ssIdNYoQawEL77mV57qiSGyLct6+pCtSMmURq+Itt9xiX331lX388cd2xx13WENDQ+5s+8PeYVgVj08db/2y/bTGoEBOSJ3gs6iECC/WHZWIcedWnWt71ezlG/1jzf1r/V/tTw1/ctcsuQF3HOzHdkD6AHdHvTt5d6dYF1EWmSl2q2K2a7rSLdu0rO+zxsy4Wxcj6IrK2hRmZ8kP9pj9fur73Xq/vo6EgDcnpU7ySUsGZqwJX5hbOEFx7kg095MVDa7QYzkTiwbXNFwY2WsNt7pilAzGB6wNPa3qNLcm4gWB4kmf9cuGX9qa2TVzV4qOAHfUYF10xb/505EwOc7SJSbR2Kqmq8ZSYBuNYF2MorKIRxKTr4wlsToT9ZQ+S0SLkimLX3/9tW200Ua2ySab2JZbbmn9+/e3b775Jne2fWEWF6siET7ZFkJWxcKhofxB6gduBWKtYSHuqLgy/KnyT7ZHzR72h8o/uLvh+Q3n24S6CT4zy8yQ6HiwLrLm4tnYs678d6TLCQNf3O+Ylafj7crrroIrahS30cAFGLdyBsIMEJgM0iC4Y2HdIRbGyqZKX7fN3pYLAsWF9XcoLExAiMJgIhLlGqs+k5Ss+VwcuPkSXfHgmoNtQnKC3+MPDX/wyNxYXkTHg9cRAViYXGStfUe7o6IsdmUX1ACuqMSn4D3ps7DgRQkMFGdXn20fxT6yMekx9rPGn+XOiChRMmURl9MXX3zRpk+fbtOmTfOfXr0W7vaE1fGee+6xq6++2q9tamry4/x+/fXX7ZprrrFJkyYVFDCHsPDMGrIuR4pi8dBZknaLc0cleA3hxHev3d33oOrZ/GGvxAfmPuDBMxTltHMh0tze6b3nb6XRkdZF3B5RVLrSdhkLA6sGa8vYqzRK22jgVsV+m1hb2BqDPeFwPxIdz7GpY33Qg9XwmuQ1vhYnH9z1Ob5cdjkPUCV3/cJhMpK1oayFxx0V6+zCrLe43v2q6le2f83+dl3ldfO3wmCf3wNTByrdO5lgXZwRm2G3JW7zKLQdAWMc+kh+E8mYpRNdFax1eJYwecgYL0rWRRTFsVVjvR/dKr2VjydFNImPHTu2JLmDsrjSSivZ1KlT3RV1m222sZ49e+bOtua5556zfv36+frGJ5980gYOHGjJZNJmzpxpL7/8su299972wQcfuLK47LLLWkVFa7dSXK3G9hlrUyqn+MzQTxt/6ttCRJXGxkarrKxc4Lt0NsOzw32Wm7UcbE47qXKSrVSxkq3QtIJlmz+3J2+3H1f/2P5e+XfvYBmIXtJwiXfanb1fImWEshPFdM0HOQkEFYu1X5ARBkNsMPxo4lGrbf7g2oZSXyzIGo/HC5KV9ZGXV15ur8de90EylreOnLRJp9MuJ/J2FLjOUF/eiL/hW1Gw9qYQ2lPW25K3uXcA9ZG2cPvM9kvkjp/JZLxOdWS6toWoykm5WLVpVXs8/rhNjU/1geljycfssurL7NbKW90ifVzqOB/ERRHSlclb2qyogZWEaJqvxV9zV8KJyYn2RvINW75ieR8Yf1rxqf2t8m/u2oaXBdb1sxrPcgV+o8xGndpnZbPNPWrzD31W1EFOykF7ycp4rXfzZ1psmrenjC02ym6UO1s4lNNi5GSdKt5ReFGx7yxbInUUyEo/wFiwo0BhZD30Tcmb/N1ZD1hIlFFkZSzQHrIywcMY/q+Vf/X6+cf6P9oqTavkzraN9pK1PUAfqKoqn2jxJRm1ouzdfPPNdv/999t///tf+/zzz+2RRx5ZZDTUGTNmWJ8+fVyhJMHC+salllrKdtllF1/3+MUXX9hyyy3nx1tydPXRdkHVBfZm1ZuuzNBBaJ1i22G2lkaTTphG+9/V/7ZDaw/1vRK36LGFnVB9gisF5zScI0tixNkls4vv//avxL+8E2YPxvaEWUEURZTEoZmh3SLyLYFuGHR+0/xhgqWz1y7iho+7I9H9jkod5W6Ninza+eCSyj5h1EEsXBdXX2wPVD5g78fen7ehf3rX3JWiWNg3dHRqtCvdTyeetmuqr/F9Eg+tOdR2rt3Z0xvlI1gSCaiiPit6MCGNdZ3otP9I/sP3aG5PKC+s534x9qIvXeoOLuBsYUV/RZsTBesiXmps6cQ2GSyFYs0w3jAiulTMnDmzfUeSC2HChAk2YsQIVxjvvfde23zzza1v33nRE5nNmDOnuUI/9ZStsMIKNmzYMJ85JohOYNvlt7W3Em/NHwgPSQ2x8V+Mj3Qks9mzZ7sFthBrTWfwTOUzdnKfk216Yvr8dIX1UuvZPnX72CFzDolkREXKSnV1deQtIEyeMDHSEXKe1/s8u6X2Ftujbg87efbJtnJm5dyZwkBWZugKsSqc3/t8u7n2ZvvB7B/YIXMPsb7Zjo2CWldX53J29Ew9EyqX9rrUlbJzZp5jWzVslTuzcOrr6z3/Synrc8nn7KLeF9lzlc/ZEXOOsOPnHG8rZZbcFRhZaauiPlMbJhqjPEt7XY/r7MLeF84PIEY/9cPZP7TTZp3m/0cRZr6xLNG2RhH6qLtq7rKfLvVTmxP737rh3tnetnHjxja6frRtW7dt5BRErEpYQGpqoj+phqyUg/aObD8tPs1+0+s39mT1k96G/WjWj3JnCgOrIu1Vjx6Lj5fwSfwTu6D3BTa5crKNnTXWRs8dnTvTMRQjaylBSb695nb7eZ+f27qN69pNX91kS2eXzp1dMNR/xgKL8hIsFpaMPVX1lJ3U9yRLVaTsnG/P8XHDkoLewBh7UcvfogRpi3GsXCiZssiA/bbbbnPLIgMMlLtjjz12oRnHekRcTwmEg7I4atQo6927twfKwaq43nrr2UcffWSvvvqq7bTTTq0UrK1rt/Z9lrAqAkE1/lH3j051L1kcFGQaiKi6SxLm/ZjqY+zl+MvuZlfbVGvnNZ7n+zFGOWgNZY+ON6pKeKAjlUVc33Ab/rzic3fv2DG9Y1Eb5BeqLBKk48yqM70e4paMxa2j6SxlkTWhZ1af6bO0ZzaeaSc2nmjLNS3YEyJQamWROnte1XkeGZLIp2wkzprKUoASRltVDspi1OXE8ouli1D90Lepr5cZAuFElagri4D3xI+qf+TtHBCF9pTUKXZ84/H+fxSRstgaLE24C2MZxivm/+r/z7eiKRQUMNqBxcmJooInzBE1R/gSjRvqbrBlmpbJne0YqFP0WR2tLAKRZ0fXjva+C2ve4qKOllpZZJxAMLwja460dyre8eCKeKuVgmBkKqVi255g/CoXxRZKtmbxs88+s6WXXtpWXHFFtxiiMS+//PIL7cBpKB988EF755133NV0lVVWsbvvvtt/s+6RIDf8JrIq92qpYDEgYo+qWCZmqzZ/rqm/xjvgKLui0uiSHlFVFmk0iTCHT3tVU5Vtld3KwxiTrlGGjpfBd1TTNYCcKDUdodQObBro0cVwKWZGkTWpxXSKyIpSszhZWSc3MTHRJ2tYN9yr+dPRMKBBzo5QwvNhrQ2u2YT9Jiw5acxAZ1GUUlaCQbCXIgFt2P7mtNRpLkOpYABGnerodC2WcpCT6LmJ5s+7Fe/6xNsemT3s4NTBvu4uqpCuDMAK8S7oLEjLWEXMplVM8/aN7YPos6Lsgs0AnJ+OntxqC8hJOWhvWakbrLFHmSG6LWved8jskDu7eCinhcgZXF1fj7/uW7Bsk+n4SLjISj/QGZNbTRVN89ZOJx5zg8B+6f1yZxYMsjIWKJWs9JenVZ/mUVl3y+xmF9dfXNIxeyllbW/QB8ppzWLJLItYA999911XGIE1iUOGDHHlsRAolFOmTLG1117bZwaoTHT+i1MA3vzsTVtzhTW9w4g6UbcsBmhEvp3zrS1Vs5TFY9EeKIIsiwvmmfgzPuvOvnsXNVzk25oQwbMQCrEsEmmQtays17u87nJf+9EZkzWdZVmEV2Kv2FnVZ3nod7aPWZwVvlSWReoogQEI0tC3qa8/u9Th32VZLD2zUrMs25S1pSqj735UDpbFwNz0XGvINFjfqmhPbAJjGwa1six+F6I5s/0SfQpt2q8afuURbwsBRbEQyyLrIVnTigvz9XXXd8o6OepUZ1kW6TfYHm2v2r18QoU9RhfVbyBrqSyLTKj+ouoXdl3yOlsvs55dX3+975taKtAhZFlsP0oyuiYQDWsLiYaKcvj+++97x00U00Khsx8+fPj8jGbwV4hSxeBXgW1KC1GzcFlUupY3WJsIoEHH68FuKqblzpQG3Hl8u4z0ljagaUC3LC/rZdezkemRvpdVR26jMS45zrexIZrfkY1Hel6L6IPHRnVT9JWvciPZlLTqrNK1nGHMMTQ71BVEvJvwWkHBKBUE/8IdHOslgV66Y0AVxnb01aRxRwa6IfLpFckrfLsg4l6c23huSRVF0f6URFlkneKVV15pzz77rM/u7LHHHjZy5MiiZ8+j7u4kRLlBlLmVsyv7GkY2o8bNuBSwxmRSfJK7QrLnIPtldVfYIiFs0t8RUVGJvkrHy3pFokEyIYCyKoQQ5Uy/bD/f/5IJzmdjz9qdiTtzZ5Yc3C+xXHJvthXqruD5grKIAoeyiKWxPcFifFfiLju/6nzvp1ijuF16u9xZUS6URFlcZ5117KSTTvK9EVlrePnll9szzzzjLgxCiM6D8PKsS2CjfDoG1jGWAkLVEwiJcNwbZjb0YEjdFbYMIQ06YhsNAgr9X+X/+Xrt0enRdnjq8MWukxRCiHKAtYtrZdeyvVN722exz3xfwI9jH+fOtp265s+U2BRfLsA+jt1ZWWFvS/qsjthGA8+XZ+PP+n6nbKnFtk7HpI7JnRXlREkXeeEvvsEGG7g7KlFMsTIKITqX3dO7u+Xr5djLvrcRkdCWFPapwp1nRGZEt7YqAp3glpktfWNnOsb2ckV9L/aeB7Qh7UdlRnn01XWz6+bOCiFE+cOe2az9XiO7hr0de7sk1kVcUAnE5lbFEq/tLkcIJhSsixMSE+yriq9yZ0oH60I/iX1i51Sd4/ffOb1zySKfio6nJMrizJkz7aGHHrI//OEPHqRm++23t6OPPrpTFvAKIb7L6tnV3bWHsPJEzqQDZqF7WyFIwKPxR11JRGnp6NDjUYSZWhRyAt4Qaa5U7r4Bovhdm7zWHok/4sEBTm843d1fhRCiq4HCuFd6L5tRMcNuTN7oE51tBaXl89jnvmyCPlDKYrOy2FTryxfYPmRabFq7WBeJfHpW1Vm+xR0eSGzVgVVTlCclURZffvllW3XVVe3UU0+1HXbYoWyiEQnRXaBjIHgArj23JG/xDqKtzLcqpkfYStkl3/y9K4ArKNuHrJpddZ51sYSuqI3NHwZMBLVhZvzk1MluyRRCiK7Isk3L2r6pfX0SjiBqtydvz50pHtYq3he/z7eQoh9coWmF3JnuTY/mD15HpEuplcVvK771yKdMTvfP9vfItijqonwpibLIXoirr7565LcuEKK7snzT8nZA6gBbJbuKN+CsfWMdR7HMqphlkxKTPPLpTpmdur0Laj5EJCXCG4FupsSneCdcCm5N3upWRQIFHJ062mfGNUMrhOjKYF3cJ72PuzASzfux+GO5M8URXFDZ01RWxf9BoBsCpKGY02c9lHgod2bJIILtpZWX+hYZ7FZwYcOFtnFm49xZUa5IuxOim4BbD4vagXUgbQl2g1WRTeiZ8UXxjPLm1x3N4Oxg2zazrVv/SrWNxvjEePtL5V98T0v2yaRz79PUJ3dWCCG6JrRzWAKxfuGOekfyjtyZwmFNHkFtWB6Aooh3jZgHfTcK+R6pPUoW6Ib0Rkm8pPIS3yLjvIbzCt4rU0QbjfSE6CbQOeyd3tsGNg106yJhxFlXUAys+2A9HhvwE2FVfBesi7iilmIbDfKHyKcMdLAKH5k6UpFPhRDdBpY5MEmWaP48HH/YJ8+KgbXe9yTumWdV7MbbZSwMrIt7pve0TEXGlcUl2UaD7bSwAON+yhYZJzee7NFPRddAyqIQ3YjNM5v7WhBmFO+N32sfVxQelhw3IIK3DMsM8wXr3Xm7jIWBxXWrzFbu4rsk22iw7pHZWZROZtZPTJ1oa2bXzJ0VQoiuT3Xzh76GyTLW29+cvNndSguBNnhybLIHYyMYmFxQW5Ns/gzJDrE9U3sukXUx1fx5KvGUK4oskTg4fbD9rPFnubOiKyBlUYhuBtbFtbNru+KHQkMAgEJg3QfKJa6WsnAtnGBdbOs2GszuXlx5sT0Rf8IVT2Zo2S9TCCG6G3iwsFabyTLWgo9LjMudWTRfxL5w5Qd3SNxZxYIJ1sWwjQbW2GLINn/ejb3riiKK/I7pHd39VHQtpCwK0c1AkWEzd7Z6uC9xX0HWRdZ94AbELOTW6a21bm4RbJrZ1Dd+fq/iPVewiRxbKKxNxPUUd9+hmaF2RuMZbg0WQojuCoHUDk4d7G3p35N/9+2fFgXBwHDffzjxsG2Q3UDK4iKoav5skdnCRqVHef+DK2kxoCCeXXW2vR573TbMbGgXNFzgCqjoWkhZFKIbgisqm+TSoaIwLm42kf392GB3m/Q2siouBjpKOt7Vm1a3Z+LP+KxrIXxR8YVdkbzC7k3ca6s2rWo/b/y530cIIbozSzUtZXuk93ALGIHZFmddpC1lXT4ukbjx484qFg5rDEenR3sEb9aFYi0sBLbIOLfqXI+kyuTzpfWX+m/R9ZCyKEQ3hK0v9k3v61ZGlMVFRUZ9Mf6iu6ty7XaZ7bQJfwHgPkq48Kmxqe5Ourh1NqyvIYoc+4nVNn9OaTzFtk1v29xAq4kWQogVsyvaEakjfJ0de84SmXtBpJs/78Te8QBh62TWkVWxAGqaP0wes38vm+gXYl1kiwwiddNvEUDomvprbN3surmzoquhkYgQ3RSUmUPSh9j02HT7R/IfC1UYJ8Yn2sexj22bzDa2cnbl3FGxKJgJZ5uS1ZpWcxfexVkX2XT/+uT19nnF575GkXWl2ktRCCHmQXtIcDWio+KOisK4ILAqTkhO8L/ZLoq2WCwerIv7p/Z36+LilEUmN29L3Ga/qfyN79P4z7p/2gaZDXJnRVdEyqIQ3RjcUYkUh8sOewOyyD2fN2Nveujx/tn+tkt6F1uuabncGbE4gnXx5fjLHpWvZdoGSPu/Vf7N14v8v4b/5+tJa5pqcmeFEEIA/c/3U9+3Ydlh9mD8wVZbaTQ1fz6NferLJgZnBrvrqiiMYF0kQNukxCSPIrsgGps/jyYetVOrT3WL4mX1l2ldfTdAyqIQ3RhmBVFO2Ej+n8l/2vsV7+fOzINO4ZOKT3yPqgHZAbmjohCCdbFftp/dn7jf3oi9kTvzPybHJ9sVlVe4u+rpjafbIalDfIZXCCFEa4iOyv59uEG23EoDqyIKZF1Fne2T3kdLJookWBdnVcxyb5eWZJo/r8RfsTE1YzzK7I8bf+yTyKLr02nKYkNDg91zzz129dVX27Rp06ypqcmP8/ull16yK6+80saPH29z5szx40KI9oGgNYemDvUIcyiMn1Z86seJbkYggRWaVpBVsY2MzIz0WVeUQmZq8wc2b8Xecjce9q9kjeKJjSfa8k3L584KIYRoCfv7jkyPtDGpMfZ8/Pn5Sg2KDN4ZbJcxODPYdkvv5sdF4cxfu5je0uMUsJVGPjMqZtio2lGuKI5tHGsnNZ6UOyO6OvGxY8eem/u7Q3nuueesX79+tsUWW9iTTz5pAwcOtGQyaV9++aW98MILNmbMGIvFYvbOO+/YgAEDrKKiIvfN7zJ79mzr2bPnQs9HicbGRqusrCwLWVOplOeHZC0dyJlIJLxcRw0imL0Wf80VGlx5nkk8Y7dU3WJTE1Nt//T+HmylR/MniqTTaU/TeDyeOxIdCEseq4h51Fn2XWTtYm2s1iYnJ9vPq37uwQROT51uJzSeYP2a+uW+FQ0ymYzXqSimaz7lIicgK9AORB1kZfK2HGTNZrP+Qz8QdcpNVspB1GTt2fwZ1DTI14PjckrANtYp3lp9q82IzbBjU8dG1jWSOkWfxVgwisSbP1UVVR5s7a34W56eyXjSN93fqXYn693U25dLnJg6MfeN6MAYK6rp2hL0gaqqqtx/0adi5syZ80x6Hcxdd91lm2yyia244op277332uabb259+/bNnZ0HSiSJueGGGy50gD19+nRXOstBqUGx7dGjR1nIikW3pqYmkopNS8pF1rlz53p5juqgluhyP67+sbtLMktL+OzVsqvZ5fWXR3pNQl1dnQ9oozr4SjV/zqw+04MIEamP2VvSF0st1kQCNkTRaov3B21V1DvfcpETGCAwWCyHQQKyoixUV0d/2wEGiQzA6QeiDnIib7nISjmora3NHYkOBFlhy4afVv/UA97QthI9mj0D75x7p0/URRHqFH0WY8GoMr1iuu1Ru4d7v5CmbAeF2y+xC37V8Ct38Y0atKuMBTEelQOzZs2yXr165f6LPp02umbAvLDGkkx/9tlnbcaMGTZs2LCyUFiEKHfoZIdkhvjMYthnichoKDui7bAXFUEBwjYYDHJQDpmdPb7xeLn3CiFEkTDpxlYNTGiiKAJtLFZGFBvRduj/WbcY/iY9B2YH2q11t0ZSURTtT6dZFidNmuSup/3793fL4qhRo6x3796uKD722GM+o7X11lt/xwUGTbwlX3/9tfXp06dsLIvM0JWD8ltOsjKbxOx31N3Qom5ZhLOXOtvG1YyzWbF5dW1AeoD94Zs/2GaNm/n/USTqlkU62gt7X2i31N4yPyLqLnW72OmzTrch6SH+fxSpr6/3+l8OlkUoB2tdOckqy2L7IMti6fgk/on9rtfv7Lba2/z/yqZKG9k40q748gpXJqMIbr20rVG2LH4W+8z2W3Y/ez8xL+BdsilpoxpG2XVfXef/RxF0B8at5WKto21daqny2dal05RFrIYEuKERwhUVl9T777/f1llnHVcel1tuOVcAhw4dakOGDFmoMig31PZBbqilpxyURYLanF91vj0be9Y3P/5h6ofuJhnlqHJRVxbhtuRtdlXyKnuv4j3r3fw5v+F82z29e+5sNJEbaumRG2r7IGWxfYi6ssj6+qnxqXZ09dH2VfNnxebP4Y2H23Gp43JXRI9ycEPF++Wu5F12QeUFNrf5s2rTqvZ/9f9nQ7NDc1dED7mhti+dpiy2hIyeMmWKrb322kVltpTF9kHKYukpB2UR6IBfa3zNlk8sb8vElpnvPhlVykFZhK8rvrZPUp/YChUr2HLx6LueSlksPVIW2wcpi+1D1JXFwOzsbHs7/bYNqBrg20FFmXJQFoFxwMymmfZ249u2cdXGuaPRRcpi+xKZUSCd/fDhw8smo4XoqrDmY9X0qtY32zfyimI50bepr62RXsP6ZPvkjgghhFhSappqbO302pFXFMsJxgFskTE4NTh3RHRnIjUSjLrFRQghhBBCCCG6CzIbCCGEEEIIIYRohZRFIYQQQgghhBCtkLIohBBCCCGEEKIVUhaFEEIIIYQQQrRCyqIQQgghhBBCiFZIWRRCCCGEEEII0Qopi0IIIYQQQgghWiFlUQghhBBCCCFEK6QsCiGEEEIIIYRohZRFIYQQQgghhBCtkLIohBBCCCGEEKIVUhaFEEIIIYQQQrRCyqIQQgghhBBCiFZIWRRCCCGEEEII0Qopi0IIIYQQQgghWtFpymJDQ4Pdc889dvXVV9u0adOsqakpd2YeHHv22Wctm83mjgghhBBCCCGE6Cg6TVmcMmWKDRo0yMaMGWOTJ0+2urq63BmzF1980e68806bNWtW7ogQQgghhBBCiI6k05TFGTNmWJ8+faxnz55WVVXllsbA6quvbnvvvbcfF0IIIYQQQgjR8XSashiPx62mpib333fp1auXxWJaTimEEEIIIYQQnUXFzJkzv7tYsIOYNGmSDRw40Pr372/33nuvjRo1ynr37p07a/bRRx/Zhx9+aFtsscV8xXFBbqlff/21WygrKipyR6LL7Nmzrba2tiwU4XKSdc6cOVZdXe0TEFFm7ty5bi2PupyArJWVlZZIJHJHogsu7MiZTCZzR6JLfX2953+5yEr9pxxEmeCVUg6eKOUka2Njo8cMoG2NOqlUytLp9EInoKMEciJvuchKOWAsEGUymYy3Vz169MgdiS7lJCv1n7EAHoBRh7gnjFsxNpUDpO1SSy2V+y/6dJqyiBsqAW5ohFZccUXbZJNN7P7773elkQRckLK4IKZPn279+vUrG2WRBqIcZEUBozMrF2WxHGSVstg+SFlsH1BsaKvKQVksBzmBgTeDGimLpUXKYvtQTsoi7UDU5QTqFH2WlMXSQrvKWLAcZAWMX+Wi2EKnja5XWGEFO/LIIz3AzciRI73zXHnllecPpAcMGGAjRowoC2VFCCGEEEIIIboakdHEmBkePnx42cwKCCGEEEIIIURXJlJmu3JwzxNCCCGEEEKI7oB8PIUQQgghhBBCtELKohBCCCGEEEKIVkhZFEIIIYQQQgjRCimLQgghhBBCCCFaIWVRCCGEEEIIIUQrpCwKIYQQQgghhGiFlEUhhBBCCCGEEK2QsiiEEEIIIYQQohVSFoUQQgghhBBCtELKohBCCCGEEEKIVkhZFEIIIYQQQgjRCimLQgghhBBCCCFaIWVRCCGEEEIIIUQrpCwKIYQQQgghhGiFlEUhhBBCCCGEEK2IpLL43nvv2d/+9je77777rLGxMXdUCCGEEEIIIURHETllcfbs2fbSSy/ZQQcdZEsvvbS98cYb1tTUlDsrhBBCCCGEEKIjiJyy+PXXX1tlZaX/rLjiijZz5kwpi0IIIYQQQgjRwUTSDbVnz565v4QQQgghhBBCdAYVM2fOjJTZ7ptvvrHHH3/cdt11V3vnnXfsq6++sk033dRisZjNmjUrd9X/+OKLL9wKWQ6k02lLJBK5/6JNOcmayWQsHo/n/osuyEk5rqioyB2JLpK1fchmsy5nucgKpG2UKRc5QbK2D3gfIW859AOStfSUU5qCxoLtQ7nISv9fXV3tS+3Khcgpi1T6hx56yN1R6+vrbbfddvMEXdjgCgUSS2Q5DL5Yj9mjR4+ykHXOnDlWU1NTFgOFcpF17ty5VlVVVRYdGrIyCVMODW9dXZ3LmUwmc0eiC20a+V8OsjY0NHhbFfXJuHKREwjYRh9HOxB1kJUBOIOaqJNKpXygSD8QdZATectFVspBbW1t7kg0YcKQdiDqcgJ1ij6LsWDUQVbGAuXg7Ue7yliwXDwT0V169eqV+y/6RG50Tae/ww472AEHHGCHHXaYLbPMMmWhXAkhhBBCCCFEVyL6ZiMhhBBCCCGEEB2OlEUhhBBCCCGEEK0oe2WRdSrl4qZaDuuUAqwBK6d0LQdZyy1Ny2G9KpCu5SIr6xXLSdZyWF9bTmmKnOWQplAu+Q+kazmsrwbJWnroV8slTZG1XMaCkrX9KJfAnIHIBbgRQgghhBBCCNH5lL1lUQghhBBCCCFE6YmPHTv23NzfncbMmTPt7rvvtueee85WXnllDyk9depUmzBhgodDXmmllVq5GbEXIyF9MT0/8MAD9sILL9grr7xi3377rfXv33/+9YR+fvTRR337DcKVcz3XPPjgg/6sYk3ByHrfffe5rP369XPXh0ceecSf0bdvX1tqqaX8GQFCDz/88MPuzsPWGTz3pZdeclk5t+yyy86XlfDPTzzxhIf+JQ24z/Tp0+2pp55yWYt1s5g2bZr9+9//to8++sjTkNDCkyZN8h+egaz56cq78R5EoH3ttdfsySef9Hx48803rXfv3h7qOVzPFgBPP/203yOk62effebHVlhhhaLSFbl4xr333uv7ai6//PIerpt05X59+vTxEMP5shJ2+LHHHvNQ2aTlM88847KyNyfyh/QD0vDtt9/2dwhyTZ482b788kuXv5h0RS5kmjhxors8IBvvTRlc0LPh888/t2effdbTnHTl+5QBrkcmjofrOTZjxgxPa+5PGeHdKOukQTGyEp6d5yIraYys//3vf31rmrfeesvLa8utXEhD3ofrSaP//Oc/9vLLL7tMXJ8f7v3999/3a8kD0hVZqRfUr2Jl5f14T8o/3yNfKL/ISvnl2S3DopOWn3zyiZfF559/3mWlLFCO+X4I+Y9cvBfXkdaUI0Js8360D1ybnwaLg/yknvCsUFfJT8orIdFpa/LdYcLzSXvyhOfyrnyffWUpAyFdKV8cR9ZQ5tlG6MUXX/T7kIfFwD601BPkI/34efXVV71Nog6Rrvl1Ffm5lnPIRtuDvK+//rqnFc8P+cq7vPHGG34taYis7777rpcL0j6/rCwOyhv1lHSlLSBdkYv3pr1CLupWfpkijSibvCPtBrLSD/B97se7BTdK3gXZkJn0hg8++MDrG89pWbYWBelA/SENyVPkQj7qNeWfZ7bc7ok0CvnN3/RfU6ZMcVmRiXtwPWWd+5IHlCHqJ2lP2aJcL7fcckW5WtGn8N7ck7rCc3g+9YxnkEfkab6sXEe+8p7IQ/pTfkkv0p93oyx++umnLhfvwTsjF+9POpD+yFpMvaLs56cr/QCy0g/xDPoZ8jTck2cgH+WZskdehnrJO1AGyWvSl/affvu9996bX98p16QDacSzipGV9gOZqFukE/04z6S9Ir159/zyj6y0laQ5aUUdoV1GVt6Bd0Muxju0a/SF3I+0Rn7SlDaDNA5lpVBoW6lHpA1pzPdpW+mzPv74Yx/H5LcBvM+HH37oslH+eDZtK3LR9vF95A35xdiN+5E35BdjHMosacL3i4ExEs+ifpCnvD/pg6zkHeMYnh1ABvKd8kqbQVmlDCIr/fuKK67oZZb8oi8kf6iDvDO/kZWyTX4VIyv5yf2Rizyl/PAcnnv//fd7OuSPQ4F85B1CGQhjQdoA8h1ZuS9pQLkiv2jjkJX+lzLBtdw3Pw0WB3WV799zzz0uH2PJUP6RgWfyjPwyxXPJd+Tih3dCVtKZto584L7UU8bp9L/0V9Q3rqFM0G+tssoq30mDxRHSle/Ttg8YMMDTirpG/eWZpFNLWWkzqG/0A6QTZZcyyHcph9yXc8hK+UJWyivl91//+pc/sy2yUvbGjx/vfdDAgQPnpxXtCmUi9DUB6hbvQX/D+9G2ISvtE9eHfoi2Yty4cZ7mlE3kpQ4jP2U+5GFHEgllkUZzgw02sLXXXtsbRCo9ibfffvt5ZtJA0vCTOWQ+DRMZTuKuuuqqts466/gPnRf3CNdSqMlIGub11lvPCxOFjYpI4eDaYiod0Ihxr8GDB3tl4z7Isfnmm3tjRCWi80FOMpOKEwo9hXHIkCG25ppreiPN3zQwQVYqCIUPuWi4KHjISmO/1lprFTVI4DvIs/3223sjRcNIo0vju+mmm3ohpNEHZCVdaBxoVFZffXX/QT4qFA3tGmus4XJSmVAGKLRcy7tQwJGVCkJDx7XFpCtpyHtvu+22/jey0KghA/lKpQ+y8nzk4N0YXK622mqeF8hKh0d60phyDekfBh/8T2VGLr5H3lEeaCSLSVfkonxttNFGXkZJO35vvPHGfm/SOXQ6yErFRlYaKsoq6bXuuuv6s5E1NHzIR56QhpyjHPE+lF0aEwZ0NHp8p1DoWLh+ww039LznGXRWw4YNcxmRFZm5Bllp+GmU+Z+0ohyS/pRNGizKDnAfZEJW0o534D4MMCjr3Js6UUy68j0aVuoWgyTKL/IgK/A/zyC9kZXGmfSirJCupCnych3PptwC5RIlgoaW9AsDWAaYpAXX8l7csxC4H2WA9OG7dIiUJ9Js/fXX93xGJvIQuC/tEunFNYMGDXI5+eFeyMkPMiE7aUp5597ISltC2pB/pHN4r0Lg/pQBvkd5Ir+RlWcNHTrU6zXXhA4q1Bd+SBPaHOoW9Qk5OEYekf+UCdpqBlqkKxNEtAvIyn2pV8UMvmg3KD90gjwnyEqaISvnSR86TZ6PrGGQSN2gnFIGkIU0p73g+cjNAJd0pc0lHUhD7k+eIDPpQ59TKOQn3+d5yEI55T6kI2nGOeSjvHKe8kAbwQ9ykabkP3nMdchPunIPyj7pTdtHGScNuAdli7YkKIx8rxBoo7kPz6TdQuEj70gD6g1pg5yhrpJ3lG+O01/RlpO2Id3D4A05kBVZOM/ghv9Jc+owacD1LQdLi4J0JS15V/IQWem7qEukF8/Il5X0CnlIP0CakSfkA9/j/YB34bvDhw/38kG9p9yTnrSNyEo5QVkrBAZ8vCtlknafNgC5URBIL56B7KQNeU96cQ5ZyQtk5QdZSVcGu8gayhLpsNVWW3mZpC3gHqQHYyTKMOlRaN3ivShDtEubbbaZy0pa8Jv7cR9kpb6SZjwHGVG4gLzlnfgh3Sl3lAvSj3ugGI8cOdLLE98hbXg3ygntCGWZ9y8E8oP3o3wynqI94DmkNbLSLtCehTEWspC39K+UbdITOXk+aUb6UcdoN7iOn1122cXTmzJA/tGOU27IG9qeQmXlnshCe06fTl+EDMjMmIu04RrKVJCVsQ1jLMow5Y60JZ3IG+5Bf49spAHvveOOO3peUT4Z8zLmoJ1FVspLoW0A6Um/zvfJD/5GVtJjp5128jxEJn6AtCN9aNtJk9C/hvaCusi1vB/9KueoB+QD5Yl8Z3900oA0ph4UCmWAfoX7kTfck/pMGdhjjz383qQTP+QVaUt6cJx8pGzS/vBd0ow6T72ibHMvZKVsMSagbeK7e++9t8tKm0Z5KRTqNHrIvvvu63lIPtFPUz6pa/Q5pBnvFMoVz2PsQTmlX0NWyinP5m/yCnkZs2633XZ+DfoRspJPY8aM8TaB9y+0vSoVhavR7QSVggJFYvDyNFZUEP7nbzpyOgMSiuMUUBKLRMyv2AwcqABcHyweDDT22msvr4jcCxhc0OjwU2hlCyArBYTMRT6eH2TlGM9HPioZnS4FkPMUYmQJ0LBQafkejQuNOfeigtGph2sZeNEYce9iZaXgch8KFR0BcjFw4F50UEFWCi+/GcggD+kS0pUKhqzIxH0YRPD+dFa77767y8a1FG7O0bBwj2JlpaIhD/LSsPAMKg+NBGWC42EQQ1mhLHCOgVdIK87TwNFRIBNlhPsg08477zx/gEUe8n0aFe5RLDT4yMp7kg6UTSB9eAYNAw0qZZCKT4fC4IEBYSiDyMp5ZKPRpaHjPjTCKMxBISANyDPyry2ykq7IFfKb+5FXHEMmOnYaVBpiziETz+LdApzjOt6N9+Ea5KdOjRo1yu8DpDXvTWPL84qBcsY9GYzwbOSj/JJe/E2ZpAOjIaYjRVbqDcfzlSfyn3sgE/nEtdybhpuOkrIPvBNwXeggC4Xyhyx8j+cDAzxkRXbyifSijJF3yEq6UI4pAwHk5zuUYeo/11KWt9hiCx8sk1/kFdfxTqRrqJeFQr1GlpCGPI+BICAP5Zf0IU95PoNUym9+utAZcx55GKiQplyHLN/73vc8XcN9SFeuK6bDDZD/PIvvIxt1NZQB0pXjyEZ68HzaVcojsnIOqNucQ3bKa5CVdCddmVDifsgaFFH6i2JBVtI15DfPZZDHc5Gd9CadKa+UQ2TlGgYRQdHhXZABeSjDXMs9GSTR3nKeH44BzyKdKXukU6EgK/dBLmTlb2ThXqHPQj7Slf6KcsD9GcQGaJt4D+REftKV92XAywCHe/IcyitpENKF/CkUnsn1/A6y8gzKMH8zCOU38iErdYp6B6RrADlJe9pW0g5FiO+R/5TL8P78RlbaKu7NcwqF73I93w/9KW0tx4Ls5Cuy0g6QNsiEPMgVoHyT9owFeFeupY7RriITx0gP5OV/8opncb9CCW0rZTJfVo6TT9yXZyArYyjaccplfjtOvvIdjlM2KQ9cS5uCYsR9gqy0j9Q37ksbQVoVCjLxfeQMdYn85B78zT1JQ/osyiDX8jfjK64HZOA7yEsfFWSlv2f/bt6Fd6Qck/5BVv4vRlbkyP8++U39QQ7qFmnD/7Q/yEjZpn9CSQiy8jzOkc5cz7UhjVHAqeu8I5C+pAHX0jaSVoXA+/Jdnh++z30pj/zNe9OGkl7IR70ifahjtJcBnkc/QN5wPXJSdhmvMOaijIayxvtRVilDYXxUCEFW7kGZCuWPes7flCfuyf+MsbkWuclv8jpAGeA85YK8oF5xHWWVY8hK/pG2yMoP9Y6+ulBCneC71C36EcoD9Yh2MpRhnsEYmmdyPefJ3wBlAKssBhzkRvnm9+jRo/1d+T7vTVki/yhn4VkdTacri0DBCoP+ABUwH2YEaGhxM2JGJv88Gc+Am1kEEjPM2HBffoLyEjKLQTnXtYUga7gnf+c/g8pHxtNhUEiocJwPUBGokBRuvossNGQU6vz70BhSaOhIWqZNoSBDuB9Q6PKfQWFmcEIlRyYqPccCNGQUfAa0VAgGhjSO3CP/PjRy3CN/MFQsoYMNIAf3Cs/geQxOqKTIyswRxwJ0CJSPMKhiJhJZqbQh/fguCicKEe/VljJAGiJbfrryPI4HqOQ0CDQ+NBI8Lz9daXRpnJCP72I9owGmTIf7kPdMbJD/XJf/vEIJsubLRprl/0868sNgNeR1SBdk4DiNEzIgI+WVRgu5Q7rS+VD/eG86vbbISvniJ/+7yJpf9qnTTFCglJCvKAThXeg46DQ4hnyUBWb1+Dv/nYNSy3tyri20lIv0yk9n/iedqA/UIWQlv0O6ho6D9CZNaQuQN7QB4T5cQ2dBmoaOs1hCPQq0lJVzPB9ZGEBQf3hegGPUG9KVOkpnS3kJsoZ0oJwAZSU/bYqhpaz8TZkI6cb/tFHIQl5TX0i/AG075Yd0RzaupbwEWUPZor2iz+C6tsjKfZBrQbIGyC/SiueGjp40DjDgod6Q7xznWsoIxxjcMHDj3XjX/DQoFr7H9/PfE1lJ6wB1gTLAwIXyRj0L74Y8pDW/yXfKMulK2nEMZYy6H8py/n2LhTLJ9/PfFblJwwDtEAPuMNgj3cL1YQBP/tBukuZYeinP9E9M3NH20jaHMtFWWsrFM/PLAP/THjIWoc2hHiFLvqwMpEO6ks/BO4a2jLYfWekbWj6rWEhX3jeADPltAL8pe7RZtDmUA2QKoARTBsJEIuWFyXruwbVMNJO29M/Iv6RlYFGyksaMl8hflBWeh1wBZOU4ZYQ0Q1bGhaQh5YXxI+kbPLWWRNaW30dG2sgA50lH5KXN4X/qDdCmMhZEViZckI9rkZtzjB2C9Yv6mJ8GxUJZbPl90jV/DI1slFXqMWWPOpJf5kgz2ngmMrkP70QaUn5pd3FnZfKQ77QcuxcDsnIP0iPAsfx7cp4xNscxdjDWC+9G2pHPlGPegePoDpQXzlGO8eDj+6WQlfYwn5Z1lfKJJRM58GYjjfJlpZ2nTJDu5AGTWqH8U2ZwHd5mm21apUFn0LYeqISExpXCSIPOAJVGPmj5ZDyJCJxjoEUlCusYqHA0xEDGkagLg9kVCgsulJiC6eS4Z6EEWZEBWWnweSadAY0mx0JnwN+8E2s6mDlAVp5PAaABoPIuSlYaPRRGCguzJAw6i5EVuUgbvsNzkYsBDMeCrOH5YfCKrzcKLg0/53kmnVh+xV0Q3J8BPL7azIzwPdKmUJCV90VWfpPOyItcyMq98mVl8MVaAZ6FrKHRZSARysqC4P7cjw4DFwEqL+9Ng1coVFjyNaQhnQMyISPH8+F/ZuBYJ0H+M1vH+9G4kheL6qi4H/fFJQNXB2RmcEEDUyhBNuTgfjRCQW6OA+nK+3McSzbpQnmlTpHOXMv3FlUGgqy4eSAvslLPCpWVe5PfQbYgK3/zE9KVa5CVYyj9yIrrE+mJAsh5vsfvhcEzGFDyXdKV8kP9LRTuj3zch3fmHUlnjlEPkA1IV44hO3WKNosygJwhbfje4mTleto63JcYPNIeFgrli/RCTn74m2eGNgH5kANZkZs2lzxEVtKF/KccIOOilNWQJyg5pCv3CBbpQmkpK3JRLrgv6RDuhSwcoy5Qf3kesobyCi078HyCrKQl6YqsDII4Viih3lKXkYs2hzQkr7kP6Rvylf/Jb8opSwqY1EJOyiDX5U9YIBsDbxQwBjgM3kmD0G7l51eh0JZyPbIiCwMVZAtllXtyLKQLaRHqBmlE3aB95T757RXXc573YVAWPH3CfflZVNluCd8N70r+833+5yfIHo7xbNKDdGJdF/WKQVeQlbLKdQHuh6cJbfGIESPmT2iE/CtWVvI7//vIQtpwnOdzDBm5Z5CVvpyxAG0j9YR6TH1jLJAvK/dkbEKZwRLGIJK0576hHORfvzhI1/D98K78j1ykS76s3J/ryFP6V5QGygN5Sj+J8psP5Z10pb/HnTHIyrvxnHDfQuG9SEe+H8pBfrvQMl1pA5CRcQdtAP0AslK/GLfkQ1pTB7kf1jDkZFBPmUFW7k1aFQrX5n+feknfkC97uB/neD7jzbDukPaRNoBraJMDXMt70VagJOIVg6wcX1D7sjio+5TL8H3ek79pI5GJv0mzcA335p1oA+gHUMYoE+Q/z8xXWMgD6hTrRMl/5OU83+cc9y2mrCJr/ruG/KY+B1mpH0FW6gLPIv+pV/SzHGOM3XIsyPX0pVyLKzLKbkiDIGsx+Q8t5eJdw7FQpkI+8T/PYL0isjJ25RjtFunWEto22ouDDz7YJ7voJygXQBkjnTqaTl+zSAEhk0LQDTpIZi5J0DAIYBaATp3ERjOnY6KiMqPEzCwNMRnDLDKZQyEnQZlV4v7B6kRjx+wdz6ACMBOWPwuwOLgXBQIfYhopZjWRlYqN7DyPjKehRTZmjJCVwsTMLTOvvBMFGVmQlcE1hYuGlv8pPHyX+yAr96dQMcNYTAHhWhokKhCdOrNrzB6GwRUy8D9rMJnR4jydPo0cMlPR6AiwzlCpSF/yiM6NRpEKRieBrMzaMLghPWhs+LuYdOVa0pMfGnyej3wMkFEKmHmhwjC44+8gK+nCsyg/vGNoACgn5Al/0xCT11Q0ZCU9SVcqHx0K5aKYdKWzoSzSoXNvZtfIPxR6BgH8T8NBeSBdyTdmC4FzyEpDwICFtERW3ov70tDSgdDgIRvfQ1bOUR7Ir/wGcHHwPeoRSiB/UwZJCzoA6gT5RQNKHeMcs4akM+WUPKUh5nqey7tSzygT/E0ZQFbKC+U+yMpx8oj3K1TW0AaQhjSi5D3yMAFA/tP4Uw6Rk/JBHlIGkJNnIyvnqGfUq1CekBdZeXc6NX4jF7Iyi4p8lBnSOjTqi4P6z2CE/Gdgz/2Qh/xGdt6FMsU58pbnUJ7Ja9KRtMGqRH1CVmRgsEsZokzyfd4x5DnpwA/vxHu2HLAtCmSl3JOG1Hm+S55TV1C0qMPUCcojdYk0DXnIca4nDZGR/0lf2hMGDuQRspLuPIeyzbtyHW0Z77koBbMl1EHKImWVZ/Js2nPaQwZ5PIN7IjtlktlkZKWOk39cT7oFWXkf8gj5KCPUKdKCdyO/guWX9+A3+VMoPINBNO0A5R85Q5mjflCPSQPqGOUKWXke6UGZpRxQtkk/nk094nu017w7k0qc5zj3IV3oJ0h/6kExspJu1B+UP9INWZGfusZzkIk0QVbSiT6RcsczKG98nzTknZA9yIqc3Jf8QD7qBGlAn0B543u00TyrUEgr3pv+m3QlzTiGrJRR5EQu6haybrLJJp5+lAHShTynblEWuA65KAPUfeonMiIfA1HqGmWLtpB8oB8ptB+greJZyMH3yRfaedKXtpw0ol3gGtKC9obzpCtphKx8h3dFVvKA8sR78t7UTfoQ0pZ7cJ5z/M+zQ59XCFxHW0P+Iiv3C7LS91MnkIfxEvlKG8B56hB5SB7QNlG3eA/uR3oiI3095Yr0RDZ+kxeMMSgz5A1tYaEEWWlHuV9+uqKQoECThuQxP3g6kRbUJ2SlDSKPeTZtJiAr4wjqPzIjI/lO+0rfwGQD+YCs3LtQKJfcs+X3uTd5RRlg/Md7IEOQlesob6Qr9Yd3Jo24F+nPGILv0g7S/3I/2gDej3Enz+K7LZXhRcHzuD/KB/WWdpo0Y2xAuaCs0ZaSPlzLGJu6S32jHPMs2ibO0V+SR8ga+hXkpPzyPpznb/KQ+hcseIXCM8h3LJW0T8hK+tBHIivlFVl5F9pxygfX0JeRLtR7ZOP9aK+QlfYEGbkH5Zw0QEbKPX8jK++HBbBQWZGT9oJ2iXTkPlgFaVcY/5Pv1G3aUAw+PAtZKRPUQdKX8kdZYXxAeaRsEpCS9GZSgWfwztQ9ruc5tGOUb55FmehItM+iEEIIIYQQQohWFO4jIIQQQgghhBCi2yBlUQghhBBCCCFEK6QsCiGEEEIIIYRohZRFIYQQQgghhBCtkLIohBBCCCGEEKIVUhaFEEIIIYQQQrRCyqIQQgghhBBCiFZIWRRCCCGEEEII0Qptyi+EEKLL8+GHH9pjjz3mv6Gqqso222wz23TTTa2ystKPCSGEEOK7SFkUQgjRbXjttdfs22+/tXXXXdd69eplDQ0NfhzlMZvNWiqV8t/xeNyPNzU1WTKZ9GPpdNqPoVwmEglrbGz0H85zrKKiws8LIYQQXQUpi0IIIboNQVlcbbXV3Mr4xRdf+PFlllnGYrGYffTRR64ock1NTY0rgT169HAlsrm/tNraWuvTp4/17dvXPvnkE8tkMv79QYMG2TrrrCOFUQghRJdCyqIQQohuQ1AWUQ4//vhjtxgGKyEsu+yytuKKK9rnn39uvXv3dmsif2N55Dsoju+//759/fXX1r9/f1t77bXtnXfesbq6OltvvfX8OiGEEKKroAA3Qgghuh1YAHFDHTBggA0ZMsSGDx9u/fr1c8URyyJWxnwrIRZEfnBL5RzX8Hf+cVkVhRBCdDWkLAohhOh24EaKwvfqq6/apEmT7N1333WFb2Hgrvr444/bxIkTXTlca621bMaMGXb77bf7d7kfaxeFEEKIroTcUIUQQohFgNvqtGnT3BLJ2kQhhBCiuyDLohBCCLEICHJDUJuePXvmjgghhBDdA1kWhRBCCCGEEEK0QpZFIYQQQgghhBCtkLIohBBCCCGEEKIVUhaFEEIIIYQQQrRCyqIQQgghhBBCiFZIWRRCCCGEEEII0Qopi0IIIYQQQgghWiFlUQghhBBCCCFEK6QsCiGEEEIIIYRohZRFIYQQQgghhBCtkLIohBBCCCGEEKIVUhaFEEIIIYQQQrRCyqIQQgghhBBCiFZIWRRCCCGEEEII0Qopi0IIIYQQQgghWiFlUQghhBBCCCFEK6QsCiGEEEIIIYRohZRFIYQQQgghhBCtkLIohBBCCCGEEKIVUhaFEEIIIYQQQrRCyqIQQgghhBBCiFZIWRRCCCGEEEII0Qopi0IIIYQQQgghWiFlUQghhBBCCCFEK6QsCiGEEEIIIYRohZRFIYQQQgghhBCtkLIohBBCCCGEEKIVUhaFEEIIIYQQQrTA7P8DtSdV0emigGUAAAAASUVORK5CYII=;" vertex="1" parent="1">
          <mxGeometry x="-409.99" y="800" width="329.36" height="325" as="geometry" />
        </mxCell>
        <mxCell id="uWF2si1FAwXb73x0F3vI-14" value="" style="endArrow=classic;html=1;rounded=0;exitX=1;exitY=0.5;exitDx=0;exitDy=0;entryX=0;entryY=0.5;entryDx=0;entryDy=0;" edge="1" parent="1" source="uWF2si1FAwXb73x0F3vI-1" target="uWF2si1FAwXb73x0F3vI-13">
          <mxGeometry width="50" height="50" relative="1" as="geometry">
            <mxPoint x="-440" y="750" as="sourcePoint" />
            <mxPoint x="-390" y="700" as="targetPoint" />
            <Array as="points">
              <mxPoint x="-550" y="963" />
            </Array>
          </mxGeometry>
        </mxCell>
        <mxCell id="uWF2si1FAwXb73x0F3vI-15" value="Entrar" style="edgeLabel;html=1;align=center;verticalAlign=middle;resizable=0;points=[];" vertex="1" connectable="0" parent="uWF2si1FAwXb73x0F3vI-14">
          <mxGeometry x="-0.2917" y="-2" relative="1" as="geometry">
            <mxPoint as="offset" />
          </mxGeometry>
        </mxCell>
      </root>
    </mxGraphModel>
  </diagram>
</mxfile>
